<svg width="141" height="141" viewBox="0 0 141 141" fill="none" xmlns="http://www.w3.org/2000/svg">
<path d="M70.5 141C109.436 141 141 109.436 141 70.5C141 31.5639 109.436 0 70.5 0C31.5639 0 0 31.5639 0 70.5C0 109.436 31.5639 141 70.5 141Z" fill="#DCDCDC"/>
<g clip-path="url(#clip0_276_319)">
<path fill-rule="evenodd" clip-rule="evenodd" d="M113.985 78.2037L78.3422 53.7069L103.638 42.2137C106.524 45.4623 108.906 49.1258 110.704 53.0818C114.288 60.9384 115.431 69.6901 113.985 78.2037V78.2037ZM79.8006 113.499L82.7173 85.9815L43.1335 103.985C48.1287 108.239 54.0234 111.306 60.3743 112.954C66.7253 114.601 73.3672 114.788 79.8006 113.499V113.499ZM85.252 112.024C86.5851 111.575 87.8947 111.059 89.1757 110.478C94.7754 107.935 99.7684 104.227 103.822 99.6018C107.875 94.9765 110.896 89.5401 112.683 83.6551L89.8875 68.0299L85.252 112.024ZM39.0709 100.044L64.3317 88.5857L28.6541 63.0125C28.1559 65.6632 27.9002 68.3537 27.8903 71.0508V71.0508C27.876 77.2173 29.1844 83.3151 31.7271 88.933C33.5825 92.9878 36.0474 96.7349 39.0362 100.044H39.0709ZM56.8489 30.1302C55.6915 30.5469 54.5341 31.0156 53.3767 31.5364C47.9055 34.0244 43.0127 37.625 39.0102 42.1088C35.0077 46.5925 31.9833 51.861 30.1299 57.5784L52.7864 73.8286L56.8489 30.1302ZM62.5434 28.7239L59.6441 56.2416L99.2279 38.2379C94.2261 33.989 88.3282 30.9262 81.9755 29.2786C75.6228 27.631 68.9798 27.4414 62.5434 28.7239V28.7239Z" fill="#BE1E2D"/>
<path fill-rule="evenodd" clip-rule="evenodd" d="M55.2168 47.0571C31.4491 63.0121 42.8555 100.009 71.2413 100.009C99.627 100.009 111.068 63.0469 87.2831 47.0571C82.536 43.8979 76.9609 42.2124 71.2586 42.2124C65.5564 42.2124 59.9813 43.8979 55.2341 47.0571H55.2168Z" fill="#FEFEFE"/>
<path fill-rule="evenodd" clip-rule="evenodd" d="M59.1231 52.9251C41.1541 64.9912 49.7827 92.9603 71.276 92.9603C92.7693 92.9603 101.381 65.0086 83.4289 52.9251C79.8308 50.5238 75.6019 49.2422 71.276 49.2422C66.9501 49.2422 62.7212 50.5238 59.1231 52.9251V52.9251Z" fill="#D5D5D7"/>
<path fill-rule="evenodd" clip-rule="evenodd" d="M61.571 56.6057C47.2479 66.2239 54.123 88.5505 71.2413 88.5505C88.3595 88.5505 95.252 66.2412 80.9115 56.6057C78.0454 54.7028 74.6816 53.6877 71.2413 53.6877C67.801 53.6877 64.4371 54.7028 61.571 56.6057V56.6057Z" fill="#5F5F5F"/>
<path fill-rule="evenodd" clip-rule="evenodd" d="M62.7169 58.3071C59.9838 60.1453 57.9122 62.8114 56.8061 65.9139C55.7 69.0163 55.6179 72.3917 56.5716 75.5443C57.5254 78.6969 59.4648 81.4607 62.1051 83.4298C64.7455 85.3989 67.9476 86.4695 71.2413 86.4845C74.541 86.4817 77.7524 85.4178 80.4012 83.45C83.05 81.4822 84.9958 78.7149 85.9513 75.5565C86.9068 72.3981 86.8213 69.0162 85.7075 65.9102C84.5936 62.8041 82.5105 60.1385 79.7657 58.3071C77.2406 56.626 74.2748 55.729 71.2413 55.729C68.2078 55.729 65.242 56.626 62.7169 58.3071V58.3071Z" fill="#434443"/>
<path fill-rule="evenodd" clip-rule="evenodd" d="M66.4496 64.019C64.9242 65.0323 63.7655 66.5098 63.1453 68.2329C62.5251 69.9559 62.4763 71.8329 63.0061 73.5859C63.5359 75.3389 64.6161 76.8747 66.0869 77.9658C67.5576 79.057 69.3406 79.6455 71.1719 79.6442C72.9986 79.637 74.7749 79.0443 76.24 77.9532C77.7051 76.8621 78.7818 75.33 79.312 73.582C79.8423 71.8339 79.7982 69.9618 79.1861 68.2407C78.5741 66.5195 77.4264 65.0399 75.9115 64.019C74.5107 63.0845 72.8645 62.5857 71.1806 62.5857C69.4966 62.5857 67.8504 63.0845 66.4496 64.019V64.019Z" fill="#22201E"/>
<path fill-rule="evenodd" clip-rule="evenodd" d="M65.8595 68.2378C65.1334 67.754 64.5841 67.0475 64.2941 66.2246C64.0042 65.4017 63.9892 64.5069 64.2516 63.6748C64.514 62.8427 65.0394 62.1183 65.7489 61.6105C66.4584 61.1028 67.3136 60.8391 68.1859 60.8592C69.0506 60.8583 69.8927 61.1357 70.5876 61.6504C71.2825 62.1651 71.7933 62.8897 72.0445 63.7172C72.2957 64.5447 72.2739 65.431 71.9823 66.2451C71.6907 67.0593 71.1449 67.7579 70.4255 68.2378C69.7619 68.679 68.9827 68.9143 68.1859 68.9143C67.389 68.9143 66.6099 68.679 65.9463 68.2378H65.8595Z" fill="#BABCBE"/>
<path fill-rule="evenodd" clip-rule="evenodd" d="M75.1303 79.5401C74.7938 79.3027 74.5398 78.9662 74.4036 78.5776C74.2674 78.1889 74.2558 77.7675 74.3705 77.372C74.4851 76.9764 74.7203 76.6265 75.0432 76.371C75.3661 76.1154 75.7607 75.967 76.172 75.9463C76.5971 75.9463 77.011 76.0833 77.3522 76.3369C77.6935 76.5905 77.944 76.9472 78.0667 77.3543C78.1894 77.7613 78.1777 78.1971 78.0335 78.597C77.8892 78.9969 77.62 79.3398 77.2657 79.5748C76.9405 79.7957 76.5565 79.9139 76.1633 79.9139C75.7701 79.9139 75.3861 79.7957 75.0609 79.5748L75.1303 79.5401Z" fill="#FEFEFE"/>
</g>
<defs>
<clipPath id="clip0_276_319">
<rect width="86.7024" height="86.4594" fill="white" transform="translate(27.8901 27.8901)"/>
</clipPath>
</defs>
</svg>
