<?xml version="1.0" encoding="utf-8"?>
<!-- Generator: Adobe Illustrator 17.0.0, SVG Export Plug-In . SVG Version: 6.00 Build 0)  -->
<!DOCTYPE svg PUBLIC "-//W3C//DTD SVG 1.1//EN" "http://www.w3.org/Graphics/SVG/1.1/DTD/svg11.dtd">
<svg version="1.1" id="Layer_1" xmlns="http://www.w3.org/2000/svg" xmlns:xlink="http://www.w3.org/1999/xlink" x="0px" y="0px"
	 width="500px" height="416.833px" viewBox="0 0 500 416.833" enable-background="new 0 0 500 416.833" xml:space="preserve">
<g opacity="0.2">
	<g>
		<g>
			<path fill="#DB3E3B" d="M446.44,126.324c2.247-1.358,4.64-2.388,7.107-3.089l1.464-7.035l11.885-0.208l1.711,6.978
				c2.491,0.614,4.918,1.559,7.212,2.837l6.007-3.938l8.552,8.257l-3.723,6.14c1.359,2.248,2.388,4.641,3.089,7.109l7.034,1.464
				l0.209,11.885l-6.978,1.711c-0.614,2.49-1.559,4.917-2.837,7.211l3.937,6.007l-8.256,8.552l-6.141-3.724
				c-2.248,1.358-4.641,2.388-7.108,3.088l-1.464,7.035l-11.885,0.208l-1.711-6.979c-2.491-0.614-4.917-1.559-7.211-2.837
				l-6.007,3.938l-8.552-8.257l3.723-6.141c-1.358-2.247-2.388-4.64-3.089-7.108l-7.034-1.464l-0.209-11.885l6.979-1.711
				c0.614-2.49,1.559-4.917,2.837-7.211l-3.937-6.007l8.256-8.552L446.44,126.324L446.44,126.324z M452.776,142.157
				c-4.892,5.067-4.75,13.14,0.317,18.032c5.067,4.892,13.14,4.749,18.031-0.317c4.891-5.067,4.75-13.14-0.317-18.031
				C465.74,136.948,457.668,137.09,452.776,142.157z"/>
		</g>
	</g>
</g>
<g opacity="0.2">
	<g>
		<g>
			<path fill="#DB3E3B" d="M35.586,242.759c2.71-1.637,5.594-2.879,8.569-3.724l1.765-8.482l14.331-0.251l2.063,8.414
				c3.003,0.74,5.93,1.879,8.695,3.421l7.243-4.748l10.311,9.956l-4.489,7.404c1.638,2.711,2.879,5.596,3.724,8.571l8.481,1.765
				l0.252,14.33l-8.414,2.063c-0.74,3.002-1.879,5.929-3.421,8.694l4.747,7.243l-9.955,10.312l-7.405-4.49
				c-2.71,1.638-5.595,2.879-8.571,3.724l-1.765,8.482l-14.33,0.251l-2.063-8.414c-3.003-0.74-5.929-1.88-8.695-3.421l-7.243,4.748
				l-10.312-9.956l4.49-7.404c-1.638-2.71-2.88-5.595-3.724-8.57l-8.482-1.765l-0.252-14.33l8.414-2.063
				c0.74-3.002,1.88-5.929,3.421-8.694l-4.747-7.243l9.955-10.311L35.586,242.759L35.586,242.759z M43.225,261.85
				c-5.899,6.11-5.728,15.843,0.382,21.741c6.109,5.898,15.843,5.727,21.741-0.383c5.898-6.109,5.727-15.843-0.382-21.741
				C58.857,255.57,49.123,255.741,43.225,261.85z"/>
		</g>
	</g>
</g>
<g opacity="0.2">
	<g>
		<g>
			<path fill="#298231" d="M370.765,40.153c3.568-2.156,7.367-3.791,11.285-4.904l2.325-11.171l18.873-0.331l2.716,11.081
				c3.955,0.975,7.809,2.475,11.451,4.505l9.538-6.253l13.58,13.112l-5.912,9.75c2.157,3.57,3.792,7.37,4.904,11.288l11.169,2.325
				l0.332,18.873l-11.081,2.717c-0.975,3.954-2.475,7.808-4.505,11.45l6.251,9.539l-13.11,13.58l-9.751-5.913
				c-3.569,2.157-7.369,3.791-11.287,4.904l-2.325,11.171l-18.873,0.331l-2.716-11.081c-3.955-0.975-7.808-2.476-11.451-4.505
				l-9.538,6.253l-13.58-13.111l5.912-9.751c-2.157-3.569-3.792-7.368-4.905-11.287l-11.17-2.325l-0.331-18.872l11.081-2.717
				c0.974-3.954,2.476-7.808,4.505-11.45l-6.252-9.539l13.11-13.579L370.765,40.153L370.765,40.153z M380.826,65.295
				c-7.768,8.046-7.543,20.865,0.503,28.633c8.045,7.768,20.864,7.542,28.632-0.504c7.767-8.046,7.542-20.865-0.503-28.632
				C401.412,57.024,388.594,57.25,380.826,65.295z"/>
		</g>
	</g>
</g>
<g>
	<g>
		<g>
			<g>
				<g>
					<rect x="250.248" y="33.522" width="21.903" height="34.183"/>
				</g>
			</g>
			<g>
				<g>
					<path fill="#DB3E3B" d="M283.897,43.744h-45.115V6.9c15.794-3.891,30.879-4.129,45.115,0V43.744z"/>
				</g>
			</g>
		</g>
		<g>
			<g>
				<g>
					<path fill="#FFFFFF" d="M284.428,7.056c0.021,0.049-0.571,0.34-1.664,0.825c-1.086,0.501-2.71,1.109-4.752,1.749
						c-2.039,0.654-4.524,1.251-7.316,1.735c-2.798,0.444-5.906,0.751-9.179,0.782c-3.274,0.001-6.386-0.276-9.188-0.694
						c-2.797-0.457-5.288-1.031-7.333-1.665c-2.047-0.621-3.677-1.214-4.768-1.704c-1.098-0.475-1.693-0.76-1.672-0.809
						c0.054-0.135,2.49,0.889,6.588,1.989c2.045,0.561,4.52,1.073,7.29,1.487c2.775,0.374,5.847,0.626,9.08,0.625
						c3.231-0.03,6.3-0.312,9.072-0.712c2.765-0.44,5.235-0.975,7.274-1.557C281.945,7.968,284.372,6.921,284.428,7.056z"/>
				</g>
			</g>
		</g>
		<g>
			<g>
				<g>
					<ellipse fill="#FFFFFF" cx="253.686" cy="27.844" rx="0.385" ry="15.797"/>
				</g>
			</g>
		</g>
		<g>
			<g>
				<g>
					<ellipse fill="#FFFFFF" cx="262.27" cy="27.987" rx="0.385" ry="15.869"/>
				</g>
			</g>
		</g>
		<g>
			<g>
				<g>
					<ellipse fill="#FFFFFF" cx="270.853" cy="27.844" rx="0.385" ry="15.869"/>
				</g>
			</g>
		</g>
		<g>
			<g>
				<g>
					<ellipse fill="#FFFFFF" cx="278.002" cy="26.561" rx="0.385" ry="17.152"/>
				</g>
			</g>
		</g>
		<g>
			<g>
				<g>
					<ellipse fill="#FFFFFF" cx="245.57" cy="26.342" rx="0.385" ry="17.152"/>
				</g>
			</g>
		</g>
	</g>
	<g>
		<g>
			<g>
				<g>
					
						<rect x="374.546" y="79.401" transform="matrix(0.6909 0.723 -0.723 0.6909 184.5724 -248.1486)" width="15.839" height="24.719"/>
				</g>
			</g>
			<g>
				<g>
					<path fill="#DB3E3B" d="M397.396,100.196l-22.54-23.587l19.263-18.408c9.925,6.313,17.586,14.081,22.54,23.587L397.396,100.196
						z"/>
				</g>
			</g>
		</g>
		<g>
			<g>
				<g>
					
						<ellipse transform="matrix(-0.719 0.695 -0.695 -0.719 717.3201 -148.1739)" fill="#FFFFFF" cx="388.611" cy="70.909" rx="13.882" ry="0.329"/>
				</g>
			</g>
		</g>
		<g>
			<g>
				<g>
					<path fill="#FFFFFF" d="M382.926,85.053c-0.061-0.068,1.065-1.194,2.931-2.965c1.865-1.771,4.471-4.186,7.367-6.832
						c2.836-2.568,5.4-4.889,7.448-6.743c0.865-0.772,1.618-1.445,2.27-2.027c0.547-0.482,0.812-0.728,0.842-0.732
						c0.247,0.232-4.321,4.697-10.115,9.988c-2.897,2.648-5.553,5.008-7.499,6.691C384.223,84.116,382.987,85.12,382.926,85.053z"/>
				</g>
			</g>
		</g>
		<g>
			<g>
				<g>
					<path fill="#FFFFFF" d="M388.644,91.037c-0.061-0.068,1.081-1.202,2.973-2.984c1.892-1.782,4.535-4.21,7.476-6.868
						c2.886-2.575,5.495-4.903,7.575-6.759c0.886-0.77,1.657-1.44,2.322-2.017c0.566-0.487,0.826-0.69,0.881-0.709
						c0.11,0.076-1.021,1.279-2.888,3.069c-1.873,1.804-4.506,4.245-7.449,6.905c-2.942,2.659-5.634,5.033-7.606,6.726
						C389.957,90.093,388.705,91.105,388.644,91.037z"/>
				</g>
			</g>
		</g>
		<g>
			<g>
				<g>
					
						<ellipse transform="matrix(-0.7256 0.6881 -0.6881 -0.7256 757.1292 -128.0882)" fill="#FFFFFF" cx="404.101" cy="86.903" rx="13.926" ry="0.329"/>
				</g>
			</g>
		</g>
	</g>
	<g>
		<g>
			<g>
				<g>
					
						<rect x="115.203" y="89.428" transform="matrix(0.7498 -0.6617 0.6617 0.7498 -36.5444 106.9306)" width="15.839" height="24.719"/>
				</g>
			</g>
			<g>
				<g>
					<path fill="#DB3E3B" d="M132.143,87.204L107.68,108.79L90.051,88.812c6.702-9.667,14.768-17.013,24.463-21.587L132.143,87.204z
						"/>
				</g>
			</g>
		</g>
		<g>
			<g>
				<g>
					
						<ellipse transform="matrix(0.6659 0.746 -0.746 0.6659 104.9958 -44.8131)" fill="#FFFFFF" cx="102.531" cy="94.82" rx="13.882" ry="0.329"/>
				</g>
			</g>
		</g>
		<g>
			<g>
				<g>
					<path fill="#FFFFFF" d="M116.438,101.062c-0.07,0.058-1.151-1.111-2.847-3.046c-1.696-1.934-4.005-4.634-6.535-7.632
						c-2.453-2.936-4.671-5.589-6.442-7.71c-0.738-0.895-1.38-1.674-1.935-2.348c-0.46-0.566-0.696-0.841-0.698-0.87
						c0.242-0.238,4.522,4.504,9.579,10.503c2.531,3,4.784,5.747,6.389,7.758C115.553,99.729,116.508,101.004,116.438,101.062z"/>
				</g>
			</g>
		</g>
		<g>
			<g>
				<g>
					<path fill="#FFFFFF" d="M122.645,95.585c-0.07,0.058-1.158-1.128-2.864-3.089c-1.705-1.961-4.027-4.699-6.567-7.743
						c-2.459-2.986-4.681-5.685-6.454-7.837c-0.734-0.916-1.373-1.713-1.924-2.4c-0.464-0.585-0.657-0.853-0.674-0.909
						c0.08-0.107,1.237,1.071,2.952,3.007c1.728,1.943,4.063,4.671,6.604,7.716c2.54,3.045,4.806,5.83,6.419,7.867
						C121.753,94.237,122.715,95.527,122.645,95.585z"/>
				</g>
			</g>
		</g>
		<g>
			<g>
				<g>
					
						<ellipse transform="matrix(0.6588 0.7524 -0.7524 0.6588 100.823 -62.3344)" fill="#FFFFFF" cx="119.127" cy="79.977" rx="13.926" ry="0.33"/>
				</g>
			</g>
		</g>
	</g>
	<g>
		<circle fill="#298231" cx="256.954" cy="232.473" r="180.566"/>
	</g>
	<g>
		<circle fill="#FFFFFF" cx="256.954" cy="232.473" r="165.887"/>
		<path fill="#263238" d="M256.955,398.927c-91.783,0-166.455-74.671-166.455-166.454c0-91.783,74.671-166.454,166.455-166.454
			c91.783,0,166.453,74.671,166.453,166.454C423.408,324.257,348.737,398.927,256.955,398.927z M256.955,67.153
			c-91.158,0-165.321,74.162-165.321,165.32c0,91.158,74.162,165.32,165.321,165.32c91.157,0,165.319-74.162,165.319-165.32
			C422.274,141.316,348.112,67.153,256.955,67.153z"/>
	</g>
	<g>
		<path fill="#F7725E" d="M152.853,166.231c6.91-21.456,21.075-35.969,39.839-48.461c18.763-12.492,44.352-17.172,66.814-15.27
			v133.697L152.853,166.231z"/>
	</g>
	<g opacity="0.8">
		<g>
			<path fill="#FFFFFF" d="M152.853,166.231c6.91-21.456,21.075-35.969,39.839-48.461c18.763-12.492,44.352-17.172,66.814-15.27
				v133.697L152.853,166.231z"/>
		</g>
	</g>
	<g>
		<g>
			<g>
				<g>
					<polygon fill="#DB3E3B" points="245.145,235.461 170.526,177.494 257.911,217.786 260.481,233.099 					"/>
				</g>
			</g>
			<g opacity="0.4">
				<g>
					<polygon points="170.526,177.494 248.446,223.312 257.911,217.786 					"/>
				</g>
			</g>
		</g>
		<g>
			<g>
				<g>
					<g>
						<circle fill="#FAFAFA" cx="260.522" cy="233.352" r="15.527"/>
					</g>
				</g>
				<g>
					<g>
						<g>
							<path fill="#263238" d="M260.522,217.824c0.008,0.101-1.384,0.016-3.755,0.63c-2.325,0.607-5.738,2.168-8.373,5.667
								c-1.287,1.733-2.378,3.913-2.813,6.423c-0.419,2.494-0.334,5.305,0.688,7.977c0.47,1.345,1.179,2.642,2.073,3.833
								c0.876,1.205,1.964,2.299,3.223,3.2c2.482,1.863,5.669,2.912,8.955,2.943c3.286-0.03,6.475-1.078,8.957-2.942
								c1.26-0.901,2.348-1.995,3.225-3.201c0.894-1.191,1.603-2.489,2.073-3.834c1.023-2.673,1.107-5.484,0.688-7.978
								c-0.435-2.511-1.527-4.69-2.814-6.424c-2.635-3.498-6.048-5.059-8.372-5.666C261.906,217.84,260.514,217.926,260.522,217.824
								c0,0,1.387-0.194,3.827,0.342c2.39,0.53,5.944,2.048,8.729,5.627c1.361,1.772,2.525,4.024,3.007,6.634
								c0.466,2.592,0.401,5.528-0.649,8.334c-0.484,1.412-1.218,2.775-2.148,4.028c-0.913,1.267-2.049,2.419-3.367,3.369
								c-2.598,1.962-5.951,3.074-9.4,3.102c-3.449-0.03-6.8-1.141-9.397-3.103c-1.318-0.951-2.454-2.102-3.366-3.369
								c-0.93-1.253-1.665-2.616-2.148-4.027c-1.05-2.806-1.115-5.74-0.649-8.333c0.481-2.61,1.646-4.862,3.006-6.634
								c2.785-3.579,6.339-5.097,8.73-5.627C259.135,217.631,260.522,217.824,260.522,217.824z"/>
						</g>
					</g>
				</g>
			</g>
			<g>
				<g>
					<g>
						<circle fill="#263238" cx="260.522" cy="233.352" r="11.556"/>
					</g>
				</g>
			</g>
		</g>
		<g>
			<path fill="#263238" d="M259.759,228.797c0,0-3.183-99.981,1.441-121.067C261.2,107.73,268.936,168.34,259.759,228.797z"/>
		</g>
	</g>
	<g>
		<path fill="#263238" d="M250.718,385.826l-0.199-0.009l0.445-12.465l0.354,0.016L250.718,385.826z M312.963,375.718l-4.658-11.57
			l0.348-0.137l4.478,11.643L312.963,375.718z M189.504,369.767l-0.188-0.095l5.548-11.171l0.307,0.155L189.504,369.767z
			 M365.84,341.079l-8.894-8.744l0.233-0.234l8.819,8.819L365.84,341.079z M140.174,330.226l-0.187-0.228l9.667-7.882l0.163,0.199
			L140.174,330.226z M400.163,287.923l-11.692-4.348l0.123-0.325l11.643,4.478L400.163,287.923z M111.134,274.033l-0.087-0.32
			l12.056-3.2l0.058,0.214L111.134,274.033z M397.375,226.093l-0.011-0.2l12.451-0.75l0.02,0.353L397.375,226.093z M397.364,225.868
			l-0.017-0.274l12.451-0.75l0.017,0.279L397.364,225.868z M119.802,212.748l-12.333-1.868l0.043-0.279l12.331,1.879
			L119.802,212.748z M382.1,169.819l-0.118-0.229l11.08-5.728l0.134,0.26L382.1,169.819z M140.317,158.434l-10.492-6.745
			l0.138-0.216l10.514,6.711L140.317,158.434z M345.34,124.896l-0.216-0.173l7.792-9.74l0.216,0.173L345.34,124.896z
			 M181.124,117.124l-6.833-10.436l0.187-0.123l6.919,10.378L181.124,117.124z M293.478,98.716l-0.234-0.061l3.129-12.075
			l0.304,0.08L293.478,98.716z M235.221,95.995l-2.026-12.308l0.279-0.046l2.014,12.31L235.221,95.995z"/>
	</g>
</g>
<g>
	<g>
		<g>
			<g>
				<path fill="#263238" d="M459.278,380.143c0,0.163-15.378,0.295-34.343,0.295c-18.972,0-34.346-0.132-34.346-0.295
					c0-0.163,15.375-0.295,34.346-0.295C443.9,379.848,459.278,379.98,459.278,380.143z"/>
			</g>
		</g>
	</g>
	<g>
		<g>
			<g>
				<path fill="#263238" d="M480.888,372.453c0,0.163-15.378,0.295-34.343,0.295c-18.972,0-34.347-0.132-34.347-0.295
					c0-0.163,15.375-0.295,34.347-0.295C465.51,372.158,480.888,372.29,480.888,372.453z"/>
			</g>
		</g>
	</g>
</g>
<g>
	<g>
		<g>
			<g>
				<path fill="#263238" d="M67.337,329.258c0,0.163-14.264,0.295-31.856,0.295c-17.598,0-31.86-0.132-31.86-0.295
					s14.261-0.295,31.86-0.295C53.073,328.963,67.337,329.095,67.337,329.258z"/>
			</g>
		</g>
	</g>
	<g>
		<g>
			<g>
				<path fill="#263238" d="M87.383,321.569c0,0.163-14.264,0.295-31.856,0.295c-17.598,0-31.859-0.132-31.859-0.295
					c0-0.163,14.261-0.295,31.859-0.295C73.118,321.273,87.383,321.405,87.383,321.569z"/>
			</g>
		</g>
	</g>
</g>
</svg>
