<svg width="24" height="24" viewBox="0 0 24 24" fill="none" xmlns="http://www.w3.org/2000/svg">
<g clip-path="url(#clip0)">
<path d="M5.26623 9.765C5.73412 8.34945 6.63709 7.11781 7.84635 6.2458C9.0556 5.37378 10.5094 4.90594 12.0002 4.909C13.6902 4.909 15.2182 5.509 16.4182 6.491L19.9102 3C17.7822 1.145 15.0552 0 12.0002 0C7.27023 0 3.19823 2.698 1.24023 6.65L5.26623 9.765Z" fill="#EA4335"/>
<path d="M16.0403 18.0126C14.9503 18.7156 13.5663 19.0906 12.0003 19.0906C10.5154 19.0936 9.06711 18.6295 7.86054 17.7639C6.65398 16.8984 5.75025 15.6752 5.2773 14.2676L1.2373 17.3346C2.22855 19.3409 3.76257 21.029 5.66513 22.2071C7.56768 23.3853 9.76251 24.0063 12.0003 23.9996C14.9333 23.9996 17.7353 22.9566 19.8343 20.9996L16.0413 18.0126H16.0403Z" fill="#34A853"/>
<path d="M19.834 21.0004C22.029 18.9524 23.454 15.9044 23.454 12.0004C23.454 11.2904 23.345 10.5274 23.182 9.81836H12V14.4554H18.436C18.119 16.0144 17.266 17.2214 16.041 18.0134L19.834 21.0004Z" fill="#4A90E2"/>
<path d="M5.27712 14.2684C5.03247 13.5373 4.90819 12.7713 4.90912 12.0004C4.90912 11.2184 5.03412 10.4674 5.26612 9.76539L1.24012 6.65039C0.416494 8.31308 -0.00807994 10.1449 0.000116455 12.0004C0.000116455 13.9204 0.445116 15.7304 1.23712 17.3354L5.27712 14.2684Z" fill="#FBBC05"/>
</g>
<defs>
<clipPath id="clip0">
<rect width="24" height="24" fill="white"/>
</clipPath>
</defs>
</svg>
