<?xml version="1.0" encoding="utf-8"?>
<!-- Generator: Adobe Illustrator 17.0.0, SVG Export Plug-In . SVG Version: 6.00 Build 0)  -->
<!DOCTYPE svg PUBLIC "-//W3C//DTD SVG 1.1//EN" "http://www.w3.org/Graphics/SVG/1.1/DTD/svg11.dtd">
<svg version="1.1" id="Layer_1" xmlns="http://www.w3.org/2000/svg" xmlns:xlink="http://www.w3.org/1999/xlink" x="0px" y="0px"
	 width="100px" height="100px" viewBox="0 0 100 100" enable-background="new 0 0 100 100" xml:space="preserve">
<g>
	<g>
		<path fill="#BE1A2D" d="M86.205,10.399H75.439v29.127h10.766V10.399z"/>
		<path fill="#F1705A" d="M89.153,11.507V0.833H72.48v10.674H89.153z"/>
		<path fill="#EDEFEF" d="M89.463,98.736H10.868c-0.912,0-1.788-0.359-2.433-0.999c-0.645-0.64-1.008-1.508-1.008-2.413V39.956
			L49.89,5.019l43.012,34.937v55.368c0,0.905-0.362,1.773-1.008,2.413C91.249,98.376,90.374,98.736,89.463,98.736z"/>
		<path fill="#E54B3C" d="M98.155,40.443L54.16,3.28c-1.195-1.013-2.641-2.446-4.134-2.446c-1.34,0-2.892,1.433-4.134,2.446
			L1.925,40.443c-0.336,0.283-0.612,0.63-0.812,1.019c-0.201,0.389-0.322,0.814-0.357,1.25c-0.035,0.436,0.017,0.874,0.153,1.29
			c0.136,0.416,0.354,0.801,0.64,1.133c0.577,0.669,1.398,1.085,2.283,1.155c0.885,0.07,1.762-0.211,2.439-0.782L50.045,8.526
			l43.773,36.982c0.678,0.571,1.557,0.852,2.444,0.783c0.887-0.07,1.71-0.485,2.288-1.155c0.574-0.675,0.854-1.548,0.78-2.427
			C99.256,41.829,98.833,41.015,98.155,40.443z"/>
		<path fill="#805333" d="M78.726,83.159h-2.737c-1.118,0-2.024,0.899-2.024,2.007v4.778c0,1.109,0.906,2.007,2.024,2.007h2.737
			c1.117,0,2.023-0.899,2.023-2.007v-4.778C80.749,84.057,79.843,83.159,78.726,83.159z"/>
		<path fill="#805333" d="M24.217,83.159H21.48c-1.118,0-2.024,0.899-2.024,2.007v4.778c0,1.109,0.906,2.007,2.024,2.007h2.737
			c1.118,0,2.024-0.899,2.024-2.007v-4.778C26.24,84.057,25.334,83.159,24.217,83.159z"/>
		<path fill="#A56A43" d="M83.409,78.429H16.371c-1.15,0-2.082,0.923-2.082,2.064v2.685c0,1.141,0.932,2.064,2.082,2.064h67.038
			c1.15,0,2.083-0.923,2.083-2.064v-2.685C85.492,79.353,84.559,78.429,83.409,78.429z"/>
		<path fill="#25A591" d="M34.846,34.528h-5.33c-0.825,0-1.494,0.663-1.494,1.481v43.356c0,0.818,0.669,1.481,1.494,1.481h5.33
			c0.825,0,1.494-0.663,1.494-1.481V36.009C36.34,35.191,35.671,34.528,34.846,34.528z"/>
		<path fill="#EDEFEF" d="M36.34,42.488h-8.317v7.272h8.317V42.488z"/>
		<path fill="#EFC418" d="M43.164,41.303h-5.33c-0.825,0-1.494,0.663-1.494,1.481v36.59c0,0.819,0.669,1.482,1.494,1.482h5.33
			c0.825,0,1.493-0.663,1.493-1.482v-36.59C44.657,41.967,43.988,41.303,43.164,41.303z"/>
		<path fill="#EDEFEF" d="M44.657,61.534H36.34v6.211h8.317V61.534z"/>
		<path fill="#955BA0" d="M51.47,34.528h-5.329c-0.825,0-1.493,0.663-1.493,1.481v43.356c0,0.818,0.669,1.481,1.493,1.481h5.329
			c0.826,0,1.495-0.663,1.495-1.481V36.009C52.965,35.191,52.296,34.528,51.47,34.528z"/>
		<path fill="#EDEFEF" d="M52.965,43.024h-8.317v6.211h8.317V43.024z"/>
		<path fill="#F09C20" d="M59.789,34.528h-5.33c-0.825,0-1.493,0.663-1.493,1.481v43.356c0,0.818,0.669,1.481,1.493,1.481h5.33
			c0.825,0,1.493-0.663,1.493-1.481V36.009C61.282,35.191,60.613,34.528,59.789,34.528z"/>
		<path fill="#66B7CB" d="M68.095,41.303h-5.329c-0.826,0-1.495,0.663-1.495,1.481v36.59c0,0.819,0.669,1.482,1.495,1.482h5.329
			c0.825,0,1.493-0.663,1.493-1.482v-36.59C69.589,41.967,68.92,41.303,68.095,41.303z"/>
		<path fill="#EDEFEF" d="M61.282,43.024h-8.317v6.211h8.317V43.024z"/>
		<path fill="#EDEFEF" d="M69.589,61.534h-8.317v6.211h8.317V61.534z"/>
	</g>
</g>
</svg>
