<?xml version="1.0" encoding="utf-8"?>
<!-- Generator: Adobe Illustrator 17.0.0, SVG Export Plug-In . SVG Version: 6.00 Build 0)  -->
<!DOCTYPE svg PUBLIC "-//W3C//DTD SVG 1.1//EN" "http://www.w3.org/Graphics/SVG/1.1/DTD/svg11.dtd">
<svg version="1.1" id="Layer_1" xmlns="http://www.w3.org/2000/svg" xmlns:xlink="http://www.w3.org/1999/xlink" x="0px" y="0px"
	 width="100px" height="100px" viewBox="0 0 100 100" enable-background="new 0 0 100 100" xml:space="preserve">
<g>
	<g>
		<path fill="#656563" d="M37.438,1.382l-5.95,3.224c-1.88,1.018-2.578,3.368-1.559,5.247l0.157,0.289
			c1.018,1.88,3.368,2.578,5.247,1.559l5.95-3.224c1.88-1.018,2.578-3.368,1.559-5.247l-0.157-0.289
			C41.667,1.062,39.318,0.364,37.438,1.382z"/>
		<path fill="#7C7C7A" d="M42.853,3.231l-0.158-0.28c-0.351-0.65-0.883-1.185-1.53-1.542c-0.648-0.356-1.384-0.518-2.121-0.467
			c0.608,0.346,1.105,0.857,1.436,1.473l0.158,0.28c0.488,0.906,0.597,1.968,0.303,2.954c-0.294,0.986-0.968,1.815-1.873,2.304
			l-5.928,3.213c-0.488,0.264-1.028,0.418-1.582,0.45c0.573,0.343,1.226,0.531,1.894,0.546c0.668,0.015,1.328-0.144,1.916-0.46
			l5.94-3.214c0.901-0.494,1.569-1.324,1.859-2.31C43.456,5.194,43.343,4.134,42.853,3.231z"/>
		<path fill="none" stroke="#65271C" stroke-miterlimit="10" d="M37.438,1.382l-5.95,3.224c-1.88,1.018-2.578,3.368-1.559,5.247
			l0.157,0.289c1.018,1.88,3.368,2.578,5.247,1.559l5.95-3.224c1.88-1.018,2.578-3.368,1.559-5.247l-0.157-0.289
			C41.667,1.062,39.318,0.364,37.438,1.382z"/>
		<path fill="none" stroke="#65271C" stroke-miterlimit="10" d="M29.853,10.583c0,0-7.522,6.086-7.522,12.659v9.543"/>
		<path fill="#656563" d="M57.711,8.45l5.951,3.224c1.879,1.018,4.229,0.32,5.248-1.559l0.156-0.289
			c1.019-1.88,0.32-4.229-1.559-5.247l-5.951-3.224c-1.88-1.018-4.229-0.32-5.248,1.559l-0.156,0.289
			C55.133,5.082,55.832,7.431,57.711,8.45z"/>
		<path fill="#7C7C7A" d="M56.157,3.231l0.158-0.28c0.351-0.65,0.883-1.185,1.529-1.542c0.648-0.356,1.384-0.518,2.121-0.467
			c-0.608,0.349-1.108,0.859-1.448,1.473l-0.147,0.28c-0.244,0.447-0.397,0.938-0.45,1.445c-0.054,0.507-0.006,1.019,0.138,1.507
			c0.145,0.489,0.385,0.944,0.705,1.339c0.321,0.396,0.717,0.724,1.166,0.966l5.94,3.213c0.487,0.266,1.027,0.42,1.582,0.45
			c-0.573,0.343-1.226,0.531-1.894,0.546c-0.667,0.015-1.328-0.144-1.916-0.46L57.703,8.49c-0.902-0.494-1.57-1.324-1.86-2.31
			C55.554,5.194,55.666,4.134,56.157,3.231z"/>
		<path fill="none" stroke="#65271C" stroke-miterlimit="10" d="M57.711,8.45l5.951,3.224c1.879,1.018,4.229,0.32,5.248-1.559
			l0.156-0.289c1.019-1.88,0.32-4.229-1.559-5.247l-5.951-3.224c-1.88-1.018-4.229-0.32-5.248,1.559l-0.156,0.289
			C55.133,5.082,55.832,7.431,57.711,8.45z"/>
		<path fill="none" stroke="#65271C" stroke-miterlimit="10" d="M69.156,10.583c0,0,7.522,6.086,7.522,12.659v9.543"/>
		<path fill="#B98A5B" d="M91.687,30.4H8.028v11.004h83.659V30.4z"/>
		<path fill="#9C754D" d="M11.546,32.371h80.141V30.4H8.028v11.004h3.518V32.371z"/>
		<path fill="none" stroke="#65271C" stroke-miterlimit="10" d="M91.687,30.4H8.028v11.004h83.659V30.4z"/>
		<path fill="#B98A5B" d="M85.82,41.403H13.895l8.813,57.793h54.3L85.82,41.403z"/>
		<path fill="#C29B73" d="M19.774,45.736h65.388l0.658-4.333H13.895l8.813,57.793h5.21L19.774,45.736z"/>
		<path fill="#F2BE2D" d="M49.863,84.614c7.906,0,14.314-6.408,14.314-14.314s-6.408-14.314-14.314-14.314
			c-7.905,0-14.314,6.408-14.314,14.314S41.958,84.614,49.863,84.614z"/>
		<path fill="#F6CE63" d="M59.491,59.747c0.872,1.876,1.325,3.92,1.327,5.989c-0.003,3.795-1.512,7.434-4.195,10.118
			c-2.684,2.684-6.323,4.193-10.119,4.197c-3.564-0.004-6.999-1.342-9.627-3.749c1.142,2.48,2.971,4.582,5.271,6.055
			c2.3,1.473,4.974,2.256,7.705,2.258c3.795-0.003,7.434-1.513,10.118-4.197c2.684-2.684,4.193-6.322,4.197-10.118
			c-0.001-1.987-0.418-3.953-1.223-5.771C62.138,62.712,60.963,61.082,59.491,59.747z"/>
		<path fill="none" stroke="#65271C" stroke-miterlimit="10" d="M85.82,41.403H13.895l8.813,57.793h54.3L85.82,41.403z"/>
		<path fill="none" stroke="#65271C" stroke-miterlimit="10" d="M49.863,84.614c7.906,0,14.314-6.408,14.314-14.314
			s-6.408-14.314-14.314-14.314c-7.905,0-14.314,6.408-14.314,14.314S41.958,84.614,49.863,84.614z"/>
		<path fill="none" stroke="#65271C" stroke-miterlimit="10" stroke-dasharray="12,2" d="M8.028,35.901h39.377"/>
	</g>
</g>
</svg>
