<?xml version="1.0" encoding="utf-8"?>
<!-- Generator: Adobe Illustrator 17.0.0, SVG Export Plug-In . SVG Version: 6.00 Build 0)  -->
<!DOCTYPE svg PUBLIC "-//W3C//DTD SVG 1.1//EN" "http://www.w3.org/Graphics/SVG/1.1/DTD/svg11.dtd">
<svg version="1.1" id="Layer_1" xmlns="http://www.w3.org/2000/svg" xmlns:xlink="http://www.w3.org/1999/xlink" x="0px" y="0px"
	 width="100px" height="100px" viewBox="0 0 100 100" enable-background="new 0 0 100 100" xml:space="preserve">
<path fill="#BE1A2D" d="M9.264,2.054c-0.842,0.643-1.523,1.472-1.99,2.423C6.807,5.427,6.568,6.474,6.575,7.533v84.866
	c-0.008,1.125,0.263,2.234,0.789,3.228c0.526,0.994,1.292,1.841,2.227,2.465L57.472,49.96L9.264,2.054z"/>
<path fill="#FAD513" d="M73.029,66.021l17.418-10.054c1.052-0.606,1.926-1.479,2.533-2.53c0.608-1.051,0.927-2.244,0.927-3.458
	s-0.32-2.407-0.927-3.458c-0.607-1.051-1.481-1.924-2.533-2.53L73.142,33.937L57.472,49.922L73.029,66.021z"/>
<path fill="#A8A8A8" d="M9.591,98.093c-0.223-0.142-0.433-0.301-0.628-0.478c1.083,0.952,2.437,1.538,3.871,1.678
	c1.434,0.14,2.876-0.174,4.122-0.899l36.747-21.213l19.329-11.159L57.472,49.96L9.591,98.093z"/>
<path fill="#168240" d="M53.702,22.79L16.994,1.538c-1.187-0.691-2.554-1.011-3.924-0.919c-1.371,0.092-2.682,0.591-3.767,1.434
	L57.511,49.96l15.671-15.986L53.702,22.79z"/>
</svg>
