<svg width="71" height="71" viewBox="0 0 71 71" fill="none" xmlns="http://www.w3.org/2000/svg">
<path d="M35.3818 0.000244141C44.7105 0.000244141 53.6572 3.70608 60.2537 10.3025C66.8501 16.8989 70.5559 25.8456 70.5559 35.1744C70.574 39.7986 69.6765 44.3806 67.9153 48.6563C66.154 52.932 63.5638 56.8168 60.294 60.0866C57.0242 63.3564 53.1394 65.9467 48.8637 67.7079C44.5881 69.4692 40.006 70.3666 35.3818 70.3485C30.7568 70.3692 26.1736 69.4736 21.8967 67.7132C17.6199 65.9529 13.7341 63.3628 10.4638 60.0924C7.19342 56.8221 4.60329 52.9363 2.84296 48.6594C1.08262 44.3825 0.186932 39.7993 0.207626 35.1744C0.207626 25.8456 3.9135 16.8989 10.5099 10.3025C17.1064 3.70608 26.053 0.000244141 35.3818 0.000244141V0.000244141Z" fill="#E6E6E6"/>
<path d="M49.4318 36.7571C49.4669 34.7922 49.9953 32.8677 50.9684 31.1605C51.9416 29.4532 53.3283 28.0179 55.001 26.9865C53.9325 25.4612 52.5231 24.206 50.8847 23.3207C49.2463 22.4353 47.4241 21.9442 45.5627 21.8862C41.6544 21.4759 37.7462 24.2507 35.7921 24.2507C33.8379 24.2507 30.6332 21.9253 27.2721 22.0035C25.1075 22.0715 22.9975 22.6995 21.148 23.8263C19.2986 24.9531 17.7729 26.5401 16.7198 28.4325C12.1472 36.3467 15.5669 47.9737 19.9246 54.3442C22.1132 57.4707 24.6731 60.9686 28.0342 60.8514C31.3953 60.7341 32.5286 58.7605 36.476 58.7605C40.4233 58.7605 41.5371 60.8514 44.9568 60.7146C48.3765 60.5778 50.6824 57.5684 52.7733 54.4028C54.3523 52.1801 55.5662 49.7195 56.3689 47.1139C54.3312 46.2418 52.5926 44.7932 51.3671 42.9463C50.1416 41.0993 49.4825 38.9345 49.4709 36.718L49.4318 36.7571ZM42.9832 17.6653C44.9005 15.3636 45.8466 12.4061 45.6213 9.41895C42.6929 9.72353 39.9863 11.1187 38.0393 13.3272C37.0906 14.4076 36.3641 15.6644 35.9014 17.0257C35.4387 18.387 35.2488 19.8262 35.3426 21.2609C36.8056 21.2688 38.2516 20.9481 39.574 20.3224C40.8965 19.6966 42.0615 18.782 42.9832 17.6458V17.6653Z" fill="#0D6F37"/>
</svg>
