<svg width="71" height="71" viewBox="0 0 71 71" fill="none" xmlns="http://www.w3.org/2000/svg">
<path d="M35.2781 0.000244141C44.6069 0.000244141 53.5537 3.70608 60.1501 10.3025C66.7465 16.8989 70.4523 25.8456 70.4523 35.1744C70.4704 39.7986 69.573 44.3806 67.8117 48.6563C66.0504 52.932 63.4602 56.8168 60.1904 60.0866C56.9206 63.3564 53.0359 65.9467 48.7602 67.7079C44.4845 69.4692 39.9023 70.3666 35.2781 70.3485C30.6532 70.3692 26.0701 69.4736 21.7932 67.7132C17.5164 65.9529 13.6305 63.3628 10.3601 60.0924C7.08978 56.8221 4.49971 52.9363 2.73938 48.6594C0.97904 44.3825 0.0832947 39.7993 0.103988 35.1744C0.103988 25.8456 3.80986 16.8989 10.4063 10.3025C17.0027 3.70608 25.9494 0.000244141 35.2781 0.000244141Z" fill="#E6E6E6"/>
<path fill-rule="evenodd" clip-rule="evenodd" d="M60.115 31.6958C60.115 31.1877 59.7828 31.1682 59.3724 31.1682H36.4506C35.8448 31.1682 35.7471 31.3832 35.7666 31.9303C35.7666 34.7247 35.7666 37.5386 35.7666 40.333C35.7666 41.2515 35.7666 41.2515 36.646 41.2515C40.7887 41.2515 44.9314 41.2515 49.0742 41.2515C49.7581 41.2515 49.8168 41.4664 49.6409 42.0331C49.4216 42.8505 49.134 43.648 48.7811 44.4171C47.8506 46.3018 46.4675 47.9265 44.7556 49.1461C42.6778 50.4649 40.3241 51.2873 37.8771 51.5497C35.3598 51.8859 32.7983 51.5803 30.4307 50.6612C28.0631 49.7422 25.9663 48.2396 24.3351 46.2931C22.9626 44.7121 21.8958 42.8899 21.189 40.9193C20.1139 37.6575 20.1139 34.1368 21.189 30.8751C22.0692 28.3971 23.5299 26.1658 25.4489 24.3679C28.1075 21.8408 31.6122 20.3946 35.2793 20.3115C38.9464 20.2284 42.5128 21.5143 45.2832 23.9184C45.674 24.2897 45.8303 23.9184 46.0453 23.8012C48.1753 21.6712 50.3053 19.5217 52.4549 17.4112C52.8652 17.0008 52.7675 16.8054 52.4549 16.4732C49.6258 13.9564 46.2587 12.1198 42.611 11.1038C38.9634 10.0877 35.1318 9.9191 31.409 10.6109C25.9088 11.4808 20.8625 14.1795 17.0852 18.271C15.3242 20.0614 13.8774 22.1358 12.8057 24.407L20.8372 30.6015L12.8057 24.407C12.6689 24.6415 12.5322 24.8759 12.415 25.13C10.3501 29.5541 9.60371 34.4796 10.2654 39.3169C10.6025 42.1515 11.457 44.9003 12.7863 47.4265C14.3745 50.7364 16.7009 53.6378 19.5866 55.9074C22.8251 58.5266 26.6477 60.3259 30.73 61.1525C34.8122 61.9792 39.0336 61.8088 43.036 60.6559C46.648 59.7668 49.9674 57.9555 52.6698 55.3993C54.2252 54.0126 55.5451 52.3825 56.578 50.5726C59.9358 44.8904 61.1879 38.2082 60.115 31.6958Z" fill="#0E6F37"/>
</svg>
