<svg width="19" height="25" viewBox="0 0 19 25" fill="none" xmlns="http://www.w3.org/2000/svg">
<path d="M7.97243 6.05919C7.32333 5.76839 6.62402 5.45508 5.45474 5.45508C1.09095 5.45508 3.27287e-05 9.81909 2.45458e-10 14.1827C-3.27282e-05 18.5462 3.27284 24.0012 5.45474 24.0012C6.73286 24.0012 7.63663 23.6269 8.38535 23.3167C8.91479 23.0975 9.36666 22.9102 9.81853 22.9102C10.2704 22.9102 10.7223 23.0975 11.2517 23.3167C12.0004 23.6269 12.9042 24.0012 14.1823 24.0012C15.7399 24.0012 17.8535 21.2216 18.9355 18.0432C19.0443 17.7231 18.8221 17.393 18.4957 17.3047C16.6392 16.803 15.2733 15.1069 15.2733 13.0917C15.2733 11.1902 16.4896 9.57264 18.1866 8.97477C18.5089 8.86121 18.7078 8.50829 18.5559 8.20215C17.7388 6.55481 16.3729 5.45508 14.1823 5.45508C13.013 5.45508 12.3137 5.76839 11.6646 6.05919C11.1025 6.31105 10.578 6.54603 9.81853 6.54603C9.05901 6.54603 8.53459 6.31105 7.97243 6.05919Z" fill="#FCFCFD"/>
<path d="M9.81934 4.09105C9.81934 1.83163 11.6509 0 13.9104 0C14.0611 0 14.1831 0.12211 14.1831 0.272737C14.1831 2.53217 12.3515 4.36379 10.0921 4.36379C9.94141 4.36379 9.81934 4.24168 9.81934 4.09105Z" fill="#FCFCFD"/>
</svg>
