<?xml version="1.0" encoding="utf-8"?>
<!-- Generator: Adobe Illustrator 17.0.0, SVG Export Plug-In . SVG Version: 6.00 Build 0)  -->
<!DOCTYPE svg PUBLIC "-//W3C//DTD SVG 1.1//EN" "http://www.w3.org/Graphics/SVG/1.1/DTD/svg11.dtd">
<svg version="1.1" id="Layer_1" xmlns="http://www.w3.org/2000/svg" xmlns:xlink="http://www.w3.org/1999/xlink" x="0px" y="0px"
	 width="136px" height="29px" viewBox="0 0 136 29" enable-background="new 0 0 136 29" xml:space="preserve">
<g>
	<path fill="#1F6F22" d="M12.047,0.937v3.011H8.069V19.15H4.395V3.947H0.417V0.937H12.047z"/>
	<path fill="#1F6F22" d="M13.631,0.937h6.784c3.011,0,4.847,1.583,4.847,4.695c0,2.423-0.969,4.056-3.035,4.488v0.052
		c2.5,0.331,2.882,1.708,2.933,5.56c0.025,1.913,0.128,2.908,0.817,3.265v0.154h-3.98c-0.357-0.511-0.435-1.199-0.458-1.914
		l-0.103-3.493c-0.052-1.43-0.689-2.297-2.169-2.297h-1.964v7.703h-3.673V0.937z M17.304,8.896h1.53c1.761,0,2.756-0.765,2.756-2.73
		c0-1.682-0.894-2.524-2.552-2.524h-1.734V8.896z"/>
	<path fill="#1F6F22" d="M31.36,0.937h4.54l4.822,18.213h-3.827l-0.843-3.852h-4.845l-0.844,3.852h-3.825L31.36,0.937z
		 M31.845,12.288h3.57L33.655,4.1h-0.051L31.845,12.288z"/>
	<path fill="#1F6F22" d="M42.176,0.937h6.019c5.103,0,6.02,3.496,6.02,8.851c0,6.454-1.377,9.362-6.25,9.362h-5.79V0.937z
		 M45.85,16.447h1.633c2.55,0,3.06-1.608,3.06-6.556c0-4.132-0.331-6.25-3.137-6.25H45.85V16.447z"/>
	<path fill="#1F6F22" d="M66.818,0.937v3.011h-6.504v4.286h6.121v3.009h-6.121v4.899h6.759v3.009H56.641V0.937H66.818z"/>
	<path d="M68.91,0.937h6.428c3.723,0,4.999,2.73,4.999,5.46c0,3.775-2.321,5.484-5.79,5.484h-1.964v7.27H68.91V0.937z M72.584,9.177
		h1.633c1.454,0,2.447-0.868,2.447-2.729c0-1.785-0.712-2.806-2.55-2.806h-1.53V9.177z"/>
	<path d="M92.328,0.937v3.011h-6.506v4.286h6.123v3.009h-6.123v4.899h6.761v3.009H82.15V0.937H92.328z"/>
	<path d="M94.6,0.937h6.018c5.102,0,6.021,3.496,6.021,8.851c0,6.454-1.378,9.362-6.251,9.362H94.6V0.937z M98.274,16.447h1.632
		c2.551,0,3.061-1.608,3.061-6.556c0-4.132-0.333-6.25-3.139-6.25h-1.554V16.447z"/>
	<path d="M109.241,19.15V0.937h3.672V19.15H109.241z"/>
	<path d="M119.189,0.937h4.541l4.821,18.213h-3.825l-0.844-3.852h-4.847l-0.841,3.852h-3.826L119.189,0.937z M119.674,12.288h3.572
		L121.485,4.1h-0.05L119.674,12.288z"/>
	<g>
		<path d="M68.78,22.199h1.826c0.839,0,1.52,0.387,1.52,1.427c0,0.718-0.269,1.156-0.83,1.338v0.014
			c0.617,0.117,1.013,0.506,1.013,1.503c0,0.981-0.681,1.609-1.741,1.609H68.78V22.199z M70.394,24.682
			c0.545,0,0.83-0.379,0.83-0.932c0-0.701-0.403-0.842-0.91-0.842h-0.632v1.774H70.394z M70.575,27.381
			c0.538,0,0.83-0.364,0.83-1.04c0-0.636-0.364-0.997-0.886-0.997h-0.838v2.037H70.575z"/>
		<path d="M73.904,25.787l-1.456-3.588h1.003l0.949,2.541l0.972-2.541h0.941l-1.509,3.588v2.303h-0.901V25.787z"/>
		<path d="M79.263,22.199h1.154l1.486,5.892h-0.94l-0.348-1.443h-1.652l-0.363,1.443h-0.941L79.263,22.199z M80.463,25.894
			l-0.647-2.904H79.8l-0.672,2.904H80.463z"/>
		<path d="M81.468,22.199h0.958l0.955,4.703h0.016l1.013-4.703h0.956l-1.422,5.892h-1.147L81.468,22.199z"/>
		<path d="M85.706,22.199h1.992c0.791,0,1.43,0.412,1.43,1.518c0,0.76-0.324,1.345-0.94,1.445v0.016
			c0.56,0.058,0.853,0.38,0.884,1.206c0.009,0.38,0.018,0.842,0.033,1.198c0.015,0.287,0.15,0.427,0.268,0.51h-1.019
			c-0.089-0.107-0.126-0.287-0.15-0.52c-0.031-0.354-0.024-0.684-0.041-1.114c-0.015-0.644-0.206-0.923-0.821-0.923h-0.736v2.557
			h-0.901V22.199z M87.327,24.822c0.579,0,0.903-0.363,0.903-0.958c0-0.626-0.262-0.957-0.854-0.957h-0.768v1.915H87.327z"/>
		<path d="M90.939,22.199h1.154l1.486,5.892h-0.94l-0.348-1.443H90.64l-0.364,1.443h-0.94L90.939,22.199z M92.14,25.894
			l-0.647-2.904h-0.015l-0.673,2.904H92.14z"/>
		<path d="M93.895,22.199h1.409l0.995,4.364h0.017l0.979-4.364h1.376v5.892h-0.855v-4.903h-0.015l-1.138,4.903h-0.76l-1.139-4.903
			H94.75v4.903h-0.855V22.199z"/>
		<path d="M99.485,22.199h0.901v5.892h-0.901V22.199z"/>
		<path d="M101.897,26.266v0.148c0,0.72,0.3,1.082,0.923,1.082c0.572,0,0.854-0.421,0.854-0.859c0-0.617-0.301-0.889-0.806-1.048
			l-0.616-0.223c-0.823-0.33-1.178-0.774-1.178-1.617c0-1.073,0.696-1.668,1.755-1.668c1.447,0,1.597,0.941,1.597,1.552v0.132
			h-0.901v-0.123c0-0.537-0.229-0.849-0.792-0.849c-0.387,0-0.757,0.223-0.757,0.849c0,0.504,0.244,0.758,0.844,0.999l0.61,0.23
			c0.797,0.297,1.147,0.752,1.147,1.561c0,1.255-0.729,1.773-1.866,1.773c-1.398,0-1.716-0.974-1.716-1.799v-0.141H101.897z"/>
		<path d="M107.044,22.199h1.604c1.772,0,1.994,1.205,1.994,2.945c0,1.742-0.222,2.946-1.994,2.946h-1.604V22.199z M107.944,27.381
			h0.742c0.746,0,1.053-0.512,1.053-2.237c0-1.658-0.268-2.236-1.053-2.236h-0.742V27.381z"/>
		<path d="M111.361,22.199h3.05v0.792h-2.151v1.634h2.025v0.79h-2.025v1.883h2.214v0.792h-3.113V22.199z"/>
		<path d="M115.779,26.266v0.148c0,0.72,0.3,1.082,0.927,1.082c0.568,0,0.853-0.421,0.853-0.859c0-0.617-0.301-0.889-0.806-1.048
			l-0.616-0.223c-0.823-0.33-1.18-0.774-1.18-1.617c0-1.073,0.696-1.668,1.757-1.668c1.447,0,1.597,0.941,1.597,1.552v0.132h-0.901
			v-0.123c0-0.537-0.231-0.849-0.79-0.849c-0.389,0-0.76,0.223-0.76,0.849c0,0.504,0.246,0.758,0.847,0.999l0.607,0.23
			c0.799,0.297,1.147,0.752,1.147,1.561c0,1.255-0.727,1.773-1.866,1.773c-1.398,0-1.715-0.974-1.715-1.799v-0.141H115.779z"/>
		<path d="M119.108,22.199h1.787c1.082,0,1.558,0.709,1.558,1.716c0,1.058-0.594,1.741-1.654,1.741h-0.791v2.434h-0.899V22.199z
			 M120.007,24.946h0.642c0.481,0,0.901-0.272,0.901-1.016c0-0.636-0.244-1.023-0.964-1.023h-0.579V24.946z"/>
		<path d="M122.848,25.144c0-2.105,0.568-3.062,1.863-3.062c1.297,0,1.866,0.957,1.866,3.062c0,2.103-0.569,3.062-1.866,3.062
			C123.416,28.206,122.848,27.247,122.848,25.144z M125.677,25.12c0-1.982-0.425-2.327-0.966-2.327
			c-0.536,0-0.964,0.345-0.964,2.327c0,2.029,0.428,2.376,0.964,2.376C125.251,27.496,125.677,27.15,125.677,25.12z"/>
		<path d="M127.985,22.991h-1.345v-0.792h3.566v0.792h-1.321v5.099h-0.901V22.991z"/>
		<path d="M130.601,22.199h0.903v5.892h-0.903V22.199z"/>
		<path d="M133.013,26.266v0.148c0,0.72,0.302,1.082,0.925,1.082c0.57,0,0.855-0.421,0.855-0.859c0-0.617-0.302-0.889-0.807-1.048
			l-0.618-0.223c-0.822-0.33-1.179-0.774-1.179-1.617c0-1.073,0.697-1.668,1.757-1.668c1.445,0,1.596,0.941,1.596,1.552v0.132
			h-0.901v-0.123c0-0.537-0.229-0.849-0.792-0.849c-0.386,0-0.758,0.223-0.758,0.849c0,0.504,0.244,0.758,0.845,0.999l0.609,0.23
			c0.799,0.297,1.147,0.752,1.147,1.561c0,1.255-0.729,1.773-1.866,1.773c-1.397,0-1.715-0.974-1.715-1.799v-0.141H133.013z"/>
	</g>
	<polygon fill="#FF0000" points="132.974,18.865 128.254,0.794 135.553,0.794 135.553,18.865 	"/>
</g>
</svg>
