<svg width="58" height="55" viewBox="0 0 58 55" fill="none" xmlns="http://www.w3.org/2000/svg">
<g clip-path="url(#clip0_93_762)">
<path d="M29.6984 0.517211L37.9011 17.1378C37.9678 17.2727 38.0664 17.3894 38.1883 17.4777C38.3102 17.5659 38.4519 17.6231 38.6009 17.6442L56.9404 20.3097C57.1114 20.3345 57.272 20.4068 57.4041 20.5182C57.5362 20.6296 57.6346 20.7757 57.688 20.94C57.7414 21.1044 57.7478 21.2804 57.7064 21.4482C57.665 21.6159 57.5776 21.7688 57.4539 21.8895L44.1819 34.8273C44.0742 34.9319 43.9937 35.0613 43.9472 35.2041C43.9007 35.3469 43.8897 35.4989 43.9151 35.6469L47.0485 53.9181C47.0776 54.0885 47.0584 54.2636 46.9932 54.4237C46.928 54.5838 46.8194 54.7225 46.6796 54.8241C46.5398 54.9257 46.3743 54.9862 46.202 54.9988C46.0296 55.0113 45.8571 54.9755 45.704 54.8953L29.2987 46.2701C29.1656 46.2003 29.0176 46.1638 28.8674 46.1638C28.7172 46.1638 28.5692 46.2003 28.4362 46.2701L12.0308 54.8953C11.8777 54.9755 11.7052 55.0113 11.5329 54.9988C11.3605 54.9862 11.195 54.9257 11.0552 54.8241C10.9154 54.7225 10.8068 54.5838 10.7416 54.4237C10.6764 54.2636 10.6572 54.0885 10.6863 53.9181L13.8214 35.6469C13.8469 35.4989 13.8359 35.3469 13.7894 35.2041C13.7429 35.0613 13.6623 34.9319 13.5546 34.8273L0.280954 21.8895C0.157257 21.7688 0.0697776 21.6159 0.0284053 21.4482C-0.0129669 21.2804 -0.00658329 21.1044 0.0468334 20.94C0.10025 20.7757 0.198571 20.6296 0.330684 20.5182C0.462796 20.4068 0.623433 20.3345 0.79444 20.3097L19.1365 17.6442C19.2856 17.6231 19.4272 17.5659 19.5491 17.4777C19.6711 17.3894 19.7697 17.2727 19.8363 17.1378L28.039 0.517211C28.1157 0.362735 28.234 0.232741 28.3806 0.141864C28.5272 0.0509876 28.6963 0.00283813 28.8687 0.00283813C29.0412 0.00283813 29.2102 0.0509876 29.3568 0.141864C29.5034 0.232741 29.6217 0.362735 29.6984 0.517211V0.517211Z" fill="#F3CC30"/>
<path d="M28.8673 4.35547L21.5577 18.5144C21.3685 18.8794 21.0905 19.1909 20.7493 19.4202C20.4081 19.6495 20.0147 19.7893 19.6052 19.8266L3.73438 21.2778L20.5028 22.0651C21.0216 22.0889 21.5346 21.9472 21.9677 21.6604C22.4007 21.3736 22.7314 20.9566 22.9119 20.4695L28.8673 4.35547Z" fill="#F7DB5E"/>
<path d="M11.0466 51.8124L10.6862 53.9118C10.6571 54.0822 10.6763 54.2573 10.7415 54.4174C10.8067 54.5774 10.9153 54.7161 11.0551 54.8177C11.1949 54.9193 11.3604 54.9798 11.5327 54.9924C11.7051 55.005 11.8776 54.9691 12.0307 54.8889L28.436 46.2637C28.5691 46.1939 28.717 46.1574 28.8673 46.1574C29.0175 46.1574 29.1655 46.1939 29.2985 46.2637L45.7039 54.8889C45.8565 54.9686 46.0283 55.0043 46.2 54.9919C46.3717 54.9795 46.5365 54.9195 46.6761 54.8188C46.8157 54.718 46.9244 54.5803 46.9902 54.4212C47.0559 54.2621 47.0761 54.0878 47.0484 53.9179L43.9133 35.6467C43.8878 35.4987 43.8988 35.3467 43.9453 35.2039C43.9918 35.0611 44.0724 34.9317 44.1801 34.827L57.452 21.8893C57.5757 21.7686 57.6632 21.6157 57.7045 21.4479C57.7459 21.2802 57.7395 21.1041 57.6861 20.9398C57.6327 20.7754 57.5344 20.6293 57.4023 20.5179C57.2702 20.4065 57.1095 20.3343 56.9385 20.3094L50.795 19.4163C40.8603 37.2493 25.6447 46.6372 11.0466 51.8124Z" fill="#EDBD31"/>
</g>
<defs>
<clipPath id="clip0_93_762">
<rect width="57.7345" height="55" fill="white"/>
</clipPath>
</defs>
</svg>
