<?xml version="1.0" encoding="utf-8"?>
<!-- Generator: Adobe Illustrator 17.0.0, SVG Export Plug-In . SVG Version: 6.00 Build 0)  -->
<!DOCTYPE svg PUBLIC "-//W3C//DTD SVG 1.1//EN" "http://www.w3.org/Graphics/SVG/1.1/DTD/svg11.dtd">
<svg version="1.1" id="Layer_1" xmlns="http://www.w3.org/2000/svg" xmlns:xlink="http://www.w3.org/1999/xlink" x="0px" y="0px"
	 width="100px" height="100px" viewBox="0 0 100 100" enable-background="new 0 0 100 100" xml:space="preserve">
<g>
	<g>
		<g>
			<g>
				<g>
					<path fill="#EBBD2F" d="M80.378,82.238v9.253c0,0.881-0.453,1.73-1.295,2.53c-0.24,0.226-0.517,0.453-0.824,0.679
						c-0.592,0.429-1.304,0.84-2.118,1.236c-0.263,0.122-0.537,0.25-0.824,0.372c-0.993,0.429-2.118,0.824-3.356,1.18
						c-0.269,0.08-0.541,0.161-0.819,0.242c-1.36,0.364-2.835,0.695-4.416,0.978c-0.269,0.048-0.547,0.097-0.824,0.146
						c-1.295,0.21-2.65,0.404-4.062,0.558c-0.273,0.023-0.546,0.057-0.819,0.081c-0.941,0.096-1.902,0.17-2.885,0.234
						c-0.273,0.024-0.546,0.041-0.824,0.057c-1.229,0.065-2.485,0.105-3.767,0.13c-0.272,0-0.546,0.008-0.823,0.008h-0.589
						c-1.196,0-2.372-0.024-3.531-0.065c-0.277-0.008-0.551-0.024-0.824-0.032c-1.182-0.056-2.339-0.138-3.47-0.235
						c-0.277-0.023-0.555-0.048-0.828-0.072c-0.781-0.073-1.544-0.162-2.292-0.25c-0.278-0.041-0.552-0.073-0.825-0.114
						c-0.951-0.129-1.877-0.274-2.768-0.436c-0.278-0.048-0.551-0.096-0.819-0.154c-0.776-0.145-1.521-0.307-2.241-0.484
						c-0.277-0.065-0.55-0.13-0.818-0.202c-0.894-0.227-1.737-0.47-2.533-0.736c-0.283-0.089-0.555-0.186-0.823-0.283
						c-0.839-0.299-1.606-0.614-2.293-0.954c-0.292-0.137-0.566-0.283-0.829-0.428c-0.688-0.38-1.275-0.776-1.761-1.188
						c-0.325-0.275-0.602-0.558-0.828-0.84c-0.499-0.631-0.764-1.286-0.764-1.956c0-2.747,0-9.253,0-9.253H80.378z"/>
					<ellipse fill="#F1D731" cx="52.133" cy="82.241" rx="28.245" ry="7.468"/>
					<ellipse fill="#F1CC2B" cx="52.133" cy="81.247" rx="23.184" ry="5.136"/>
					<path fill="#EBBD2F" d="M29.656,82.51c2.541-2.227,11.64-3.874,22.477-3.874s19.936,1.648,22.476,3.874
						c0.461-0.404,0.708-0.827,0.708-1.263c0-2.837-10.379-5.137-23.184-5.137c-12.805,0-23.184,2.299-23.184,5.137
						C28.949,81.683,29.196,82.106,29.656,82.51z"/>
					<path fill="#E4D1D0" d="M79.083,89.932c-0.24,0.226-0.517,0.452-0.824,0.678c-0.592,0.428-1.304,0.841-2.118,1.236
						c-0.263,0.122-0.537,0.251-0.824,0.372c-0.993,0.428-2.118,0.824-3.356,1.18c-0.269,0.08-0.541,0.161-0.819,0.243
						c-1.36,0.363-2.835,0.695-4.416,0.977c-0.269,0.049-0.547,0.097-0.824,0.146c-1.295,0.21-2.65,0.405-4.062,0.558
						c-0.273,0.024-0.546,0.056-0.819,0.08c-0.941,0.097-1.902,0.17-2.885,0.235c-0.273,0.024-0.546,0.04-0.824,0.057
						c-1.229,0.065-2.485,0.105-3.767,0.129c-0.272,0-0.546,0.008-0.823,0.008h-0.589c-1.196,0-2.372-0.024-3.531-0.064
						c-0.277-0.008-0.551-0.024-0.824-0.033c-1.182-0.056-2.339-0.137-3.47-0.234c-0.277-0.024-0.555-0.049-0.828-0.072
						c-0.781-0.073-1.544-0.162-2.292-0.251c-0.278-0.04-0.552-0.072-0.825-0.114c-0.951-0.129-1.877-0.275-2.768-0.436
						c-0.278-0.048-0.551-0.096-0.819-0.153c-0.776-0.145-1.521-0.307-2.241-0.485c-0.277-0.065-0.55-0.13-0.818-0.202
						c-0.894-0.227-1.737-0.469-2.533-0.736c-0.283-0.089-0.555-0.186-0.823-0.283c-0.839-0.299-1.606-0.614-2.293-0.953
						c-0.292-0.138-0.566-0.283-0.829-0.428c-0.688-0.38-1.275-0.776-1.761-1.188c-0.325-0.275-0.602-0.558-0.828-0.84
						c-0.499-0.631-0.764-1.285-0.764-1.957c0,1.531,0,3.069,0,4.09c0,0.67,0.265,1.326,0.764,1.956
						c0.226,0.282,0.503,0.565,0.828,0.84c0.486,0.412,1.073,0.808,1.761,1.188c0.263,0.145,0.537,0.291,0.829,0.428
						c0.687,0.34,1.454,0.655,2.293,0.954c0.268,0.097,0.54,0.194,0.823,0.283c0.795,0.266,1.638,0.509,2.533,0.736
						c0.269,0.072,0.541,0.137,0.818,0.202c0.721,0.177,1.465,0.339,2.241,0.484c0.269,0.057,0.541,0.106,0.819,0.154
						c0.89,0.162,1.817,0.307,2.768,0.436c0.273,0.041,0.547,0.073,0.825,0.114c0.748,0.089,1.51,0.178,2.292,0.25
						c0.273,0.024,0.551,0.049,0.828,0.072c1.13,0.097,2.288,0.179,3.47,0.235c0.273,0.008,0.546,0.025,0.824,0.032
						c1.158,0.041,2.335,0.065,3.531,0.065h0.589c0.277,0,0.551-0.008,0.823-0.008c1.281-0.025,2.537-0.065,3.767-0.13
						c0.277-0.016,0.551-0.032,0.824-0.057c0.983-0.064,1.944-0.138,2.885-0.234c0.273-0.024,0.546-0.057,0.819-0.081
						c1.412-0.154,2.768-0.348,4.062-0.558c0.277-0.048,0.555-0.097,0.824-0.146c1.581-0.283,3.055-0.614,4.416-0.978
						c0.278-0.081,0.55-0.162,0.819-0.242c1.238-0.356,2.363-0.752,3.356-1.18c0.288-0.121,0.561-0.25,0.824-0.372
						c0.814-0.396,1.527-0.808,2.118-1.236c0.307-0.227,0.584-0.453,0.824-0.679c0.842-0.8,1.295-1.648,1.295-2.53v-4.09
						C80.378,88.282,79.926,89.131,79.083,89.932z"/>
				</g>
				<g>
					<path fill="#EBBD2F" d="M69.157,71.001v9.254c0,0.881-0.451,1.729-1.294,2.53c-0.24,0.226-0.517,0.452-0.823,0.679
						c-0.593,0.428-1.304,0.841-2.118,1.237c-0.264,0.121-0.537,0.251-0.825,0.371c-0.993,0.428-2.118,0.825-3.355,1.18
						c-0.269,0.081-0.542,0.161-0.819,0.243c-1.36,0.364-2.834,0.694-4.415,0.977c-0.269,0.048-0.547,0.097-0.824,0.146
						c-1.295,0.21-2.65,0.404-4.063,0.558c-0.272,0.024-0.545,0.056-0.819,0.08c-0.941,0.097-1.902,0.17-2.886,0.235
						c-0.273,0.024-0.545,0.041-0.824,0.057c-1.228,0.065-2.486,0.105-3.767,0.13c-0.272,0-0.546,0.008-0.824,0.008h-0.588
						c-1.196,0-2.372-0.025-3.53-0.066c-0.278-0.007-0.55-0.024-0.824-0.032c-1.181-0.056-2.34-0.137-3.469-0.234
						c-0.278-0.024-0.556-0.049-0.828-0.073c-0.782-0.072-1.544-0.162-2.293-0.25c-0.277-0.04-0.551-0.073-0.824-0.113
						c-0.951-0.129-1.879-0.275-2.768-0.436c-0.279-0.048-0.551-0.097-0.82-0.154c-0.776-0.145-1.519-0.307-2.24-0.485
						c-0.277-0.065-0.551-0.129-0.819-0.202c-0.895-0.227-1.738-0.469-2.534-0.736c-0.282-0.089-0.555-0.186-0.823-0.283
						c-0.838-0.299-1.605-0.614-2.292-0.954c-0.292-0.137-0.565-0.282-0.829-0.428c-0.688-0.379-1.276-0.776-1.76-1.188
						c-0.325-0.275-0.603-0.557-0.829-0.84c-0.499-0.63-0.763-1.285-0.763-1.956c0-2.748,0-9.254,0-9.254H69.157z"/>
					<ellipse fill="#F1D731" cx="40.913" cy="71.005" rx="28.244" ry="7.468"/>
					<ellipse fill="#F1CC2B" cx="40.912" cy="70.012" rx="23.184" ry="5.136"/>
					<path fill="#EBBD2F" d="M18.437,71.274c2.54-2.226,11.639-3.873,22.476-3.873c10.838,0,19.936,1.647,22.476,3.873
						c0.462-0.404,0.708-0.827,0.708-1.262c0-2.837-10.38-5.138-23.184-5.138c-12.804,0-23.185,2.3-23.185,5.138
						C17.728,70.447,17.976,70.87,18.437,71.274z"/>
					<path fill="#E4D1D0" d="M67.863,78.695c-0.24,0.226-0.517,0.452-0.823,0.678c-0.593,0.429-1.304,0.841-2.118,1.237
						c-0.264,0.122-0.537,0.251-0.825,0.372c-0.993,0.428-2.118,0.824-3.355,1.18c-0.269,0.08-0.542,0.161-0.819,0.242
						c-1.36,0.364-2.834,0.695-4.415,0.977c-0.269,0.049-0.547,0.097-0.824,0.146c-1.295,0.211-2.65,0.404-4.063,0.558
						c-0.272,0.024-0.545,0.056-0.819,0.081c-0.941,0.096-1.902,0.17-2.886,0.234c-0.273,0.025-0.545,0.041-0.824,0.057
						c-1.228,0.065-2.486,0.105-3.767,0.13c-0.272,0-0.546,0.008-0.824,0.008h-0.588c-1.196,0-2.372-0.024-3.53-0.065
						c-0.278-0.008-0.55-0.024-0.824-0.032c-1.181-0.057-2.34-0.138-3.469-0.235c-0.278-0.024-0.556-0.048-0.828-0.072
						c-0.782-0.073-1.544-0.162-2.293-0.251c-0.277-0.04-0.551-0.073-0.824-0.114c-0.951-0.128-1.879-0.275-2.768-0.436
						c-0.279-0.048-0.551-0.097-0.82-0.154c-0.776-0.145-1.519-0.307-2.24-0.484c-0.277-0.065-0.551-0.129-0.819-0.202
						c-0.895-0.226-1.738-0.469-2.534-0.735c-0.282-0.088-0.555-0.185-0.823-0.283c-0.838-0.3-1.605-0.614-2.292-0.954
						c-0.292-0.137-0.565-0.282-0.829-0.428c-0.688-0.38-1.276-0.776-1.76-1.188c-0.325-0.275-0.603-0.558-0.829-0.84
						c-0.499-0.63-0.763-1.285-0.763-1.956c0,1.531,0,3.069,0,4.089c0,0.671,0.263,1.326,0.763,1.956
						c0.226,0.282,0.504,0.565,0.829,0.84c0.484,0.413,1.072,0.809,1.76,1.188c0.264,0.146,0.537,0.291,0.829,0.428
						c0.687,0.34,1.454,0.655,2.292,0.954c0.268,0.098,0.541,0.194,0.823,0.283c0.796,0.267,1.638,0.509,2.534,0.736
						c0.268,0.072,0.541,0.137,0.819,0.202c0.721,0.178,1.464,0.34,2.24,0.485c0.269,0.057,0.542,0.106,0.82,0.154
						c0.889,0.162,1.817,0.307,2.768,0.436c0.272,0.041,0.546,0.073,0.824,0.113c0.749,0.088,1.511,0.178,2.293,0.25
						c0.273,0.024,0.55,0.049,0.828,0.073c1.13,0.097,2.288,0.178,3.469,0.234c0.273,0.008,0.546,0.025,0.824,0.032
						c1.158,0.041,2.334,0.066,3.53,0.066h0.588c0.278,0,0.551-0.008,0.824-0.008c1.281-0.025,2.538-0.065,3.767-0.13
						c0.279-0.016,0.55-0.032,0.824-0.057c0.984-0.065,1.945-0.137,2.886-0.235c0.274-0.024,0.546-0.056,0.819-0.08
						c1.413-0.153,2.768-0.348,4.063-0.558c0.277-0.049,0.556-0.097,0.824-0.146c1.581-0.283,3.055-0.614,4.415-0.977
						c0.277-0.082,0.55-0.162,0.819-0.243c1.238-0.356,2.363-0.752,3.355-1.18c0.288-0.12,0.561-0.25,0.825-0.371
						c0.813-0.396,1.525-0.809,2.118-1.237c0.306-0.227,0.584-0.453,0.823-0.679c0.844-0.8,1.294-1.649,1.294-2.53v-4.089
						C69.157,77.047,68.706,77.895,67.863,78.695z"/>
				</g>
				<g>
					<path fill="#EBBD2F" d="M78.621,59.204v9.253c0,0.881-0.453,1.73-1.295,2.531c-0.24,0.225-0.517,0.452-0.824,0.678
						c-0.592,0.428-1.304,0.841-2.118,1.236c-0.263,0.122-0.537,0.251-0.824,0.372c-0.993,0.428-2.118,0.824-3.356,1.18
						c-0.269,0.081-0.541,0.162-0.819,0.243c-1.36,0.363-2.835,0.695-4.416,0.977c-0.269,0.049-0.547,0.098-0.824,0.146
						c-1.295,0.21-2.65,0.404-4.062,0.557c-0.273,0.024-0.546,0.056-0.819,0.081c-0.941,0.097-1.902,0.17-2.885,0.234
						c-0.273,0.024-0.546,0.04-0.824,0.057c-1.229,0.065-2.485,0.105-3.767,0.129c-0.272,0-0.546,0.008-0.823,0.008h-0.589
						c-1.196,0-2.372-0.024-3.531-0.064c-0.277-0.008-0.551-0.024-0.824-0.033c-1.182-0.057-2.339-0.137-3.47-0.234
						c-0.277-0.024-0.555-0.049-0.828-0.073c-0.781-0.073-1.544-0.162-2.292-0.251c-0.278-0.04-0.552-0.073-0.825-0.113
						c-0.951-0.129-1.877-0.275-2.768-0.436c-0.278-0.048-0.551-0.096-0.819-0.153c-0.776-0.145-1.521-0.307-2.241-0.485
						c-0.277-0.065-0.55-0.13-0.818-0.202c-0.894-0.227-1.737-0.469-2.533-0.736c-0.283-0.089-0.555-0.186-0.823-0.283
						c-0.839-0.299-1.606-0.614-2.293-0.954c-0.292-0.137-0.566-0.283-0.829-0.428c-0.688-0.38-1.275-0.775-1.761-1.188
						c-0.325-0.274-0.602-0.558-0.828-0.84c-0.499-0.63-0.764-1.285-0.764-1.956c0-2.747,0-9.253,0-9.253H78.621z"/>
					<ellipse fill="#F1D731" cx="50.376" cy="59.208" rx="28.245" ry="7.467"/>
					<ellipse fill="#FFD110" cx="50.376" cy="58.214" rx="23.184" ry="5.136"/>
					<path fill="#EBBD2F" d="M27.899,59.477c2.541-2.227,11.64-3.874,22.477-3.874s19.936,1.647,22.476,3.874
						c0.461-0.404,0.708-0.827,0.708-1.263c0-2.836-10.379-5.136-23.184-5.136c-12.805,0-23.184,2.3-23.184,5.136
						C27.192,58.65,27.439,59.073,27.899,59.477z"/>
					<path fill="#E4D1D0" d="M77.326,66.898c-0.24,0.226-0.517,0.452-0.824,0.679c-0.592,0.428-1.304,0.84-2.118,1.236
						c-0.263,0.122-0.537,0.251-0.824,0.372c-0.993,0.429-2.118,0.824-3.356,1.181c-0.269,0.08-0.541,0.161-0.819,0.242
						c-1.36,0.364-2.835,0.695-4.416,0.978c-0.269,0.048-0.547,0.097-0.824,0.145c-1.295,0.21-2.65,0.404-4.062,0.557
						c-0.273,0.024-0.546,0.057-0.819,0.081c-0.941,0.096-1.902,0.169-2.885,0.233c-0.273,0.025-0.546,0.041-0.824,0.057
						c-1.229,0.065-2.485,0.105-3.767,0.129c-0.272,0-0.546,0.008-0.823,0.008h-0.589c-1.196,0-2.372-0.024-3.531-0.065
						c-0.277-0.008-0.551-0.024-0.824-0.032c-1.182-0.056-2.339-0.138-3.47-0.235c-0.277-0.024-0.555-0.049-0.828-0.072
						c-0.781-0.072-1.544-0.162-2.292-0.251c-0.278-0.041-0.552-0.073-0.825-0.114c-0.951-0.129-1.877-0.275-2.768-0.436
						c-0.278-0.048-0.551-0.097-0.819-0.154c-0.776-0.145-1.521-0.307-2.241-0.485c-0.277-0.065-0.55-0.13-0.818-0.202
						c-0.894-0.227-1.737-0.469-2.533-0.735c-0.283-0.09-0.555-0.187-0.823-0.283c-0.839-0.299-1.606-0.614-2.293-0.954
						c-0.292-0.138-0.566-0.283-0.829-0.428c-0.688-0.38-1.275-0.776-1.761-1.188c-0.325-0.275-0.602-0.558-0.828-0.84
						c-0.499-0.631-0.764-1.285-0.764-1.956c0,1.531,0,3.069,0,4.089c0,0.672,0.265,1.326,0.764,1.956
						c0.226,0.283,0.503,0.566,0.828,0.84c0.486,0.412,1.073,0.808,1.761,1.188c0.263,0.146,0.537,0.291,0.829,0.428
						c0.687,0.34,1.454,0.655,2.293,0.954c0.268,0.097,0.54,0.194,0.823,0.283c0.795,0.267,1.638,0.509,2.533,0.736
						c0.269,0.072,0.541,0.137,0.818,0.202c0.721,0.178,1.465,0.34,2.241,0.485c0.269,0.057,0.541,0.106,0.819,0.153
						c0.89,0.162,1.817,0.307,2.768,0.436c0.273,0.041,0.547,0.073,0.825,0.113c0.748,0.089,1.51,0.178,2.292,0.251
						c0.273,0.023,0.551,0.049,0.828,0.073c1.13,0.097,2.288,0.178,3.47,0.234c0.273,0.009,0.546,0.025,0.824,0.033
						c1.158,0.04,2.335,0.064,3.531,0.064h0.589c0.277,0,0.551-0.008,0.823-0.008c1.281-0.024,2.537-0.064,3.767-0.129
						c0.277-0.017,0.551-0.032,0.824-0.057c0.983-0.065,1.944-0.138,2.885-0.234c0.273-0.024,0.546-0.057,0.819-0.081
						c1.412-0.154,2.768-0.347,4.062-0.557c0.277-0.049,0.555-0.097,0.824-0.146c1.581-0.282,3.055-0.614,4.416-0.977
						c0.278-0.082,0.55-0.162,0.819-0.243c1.238-0.356,2.363-0.751,3.356-1.18c0.288-0.121,0.561-0.251,0.824-0.372
						c0.814-0.395,1.527-0.808,2.118-1.236c0.307-0.227,0.584-0.453,0.824-0.678c0.842-0.801,1.295-1.649,1.295-2.531v-4.089
						C78.621,65.25,78.168,66.098,77.326,66.898z"/>
				</g>
				<g>
					<path fill="#EBBD2F" d="M86.935,47.969v9.254c0,0.881-0.452,1.73-1.294,2.53c-0.241,0.227-0.519,0.453-0.825,0.678
						c-0.593,0.429-1.303,0.841-2.118,1.237c-0.264,0.122-0.537,0.251-0.824,0.372c-0.993,0.429-2.118,0.824-3.356,1.18
						c-0.268,0.08-0.541,0.162-0.819,0.242c-1.36,0.364-2.833,0.695-4.415,0.978c-0.268,0.049-0.546,0.098-0.824,0.146
						c-1.295,0.21-2.65,0.404-4.062,0.558c-0.274,0.024-0.547,0.056-0.819,0.081c-0.942,0.096-1.902,0.169-2.887,0.234
						c-0.271,0.024-0.545,0.041-0.823,0.056c-1.229,0.065-2.486,0.105-3.767,0.13c-0.273,0-0.546,0.008-0.823,0.008H58.69
						c-1.196,0-2.372-0.024-3.531-0.065c-0.277-0.008-0.55-0.024-0.823-0.032c-1.182-0.057-2.34-0.137-3.47-0.235
						c-0.277-0.024-0.555-0.049-0.829-0.072c-0.781-0.073-1.544-0.162-2.292-0.251c-0.277-0.04-0.551-0.073-0.825-0.114
						c-0.95-0.128-1.878-0.274-2.767-0.436c-0.277-0.048-0.551-0.096-0.82-0.154c-0.776-0.145-1.52-0.307-2.241-0.484
						c-0.277-0.065-0.55-0.13-0.818-0.203c-0.895-0.226-1.738-0.469-2.533-0.735c-0.283-0.088-0.555-0.186-0.823-0.282
						c-0.839-0.3-1.605-0.615-2.293-0.954c-0.292-0.137-0.565-0.283-0.829-0.428c-0.687-0.38-1.275-0.777-1.76-1.188
						c-0.326-0.275-0.603-0.558-0.828-0.84c-0.499-0.63-0.764-1.285-0.764-1.956c0-2.748,0-9.254,0-9.254H86.935z"/>
					<ellipse fill="#F1D731" cx="58.69" cy="47.972" rx="28.245" ry="7.468"/>
					<ellipse fill="#F1CC2B" cx="58.69" cy="46.979" rx="23.184" ry="5.136"/>
					<path fill="#EBBD2F" d="M36.213,48.241c2.541-2.227,11.639-3.874,22.476-3.874c10.838,0,19.935,1.647,22.477,3.874
						c0.46-0.404,0.707-0.827,0.707-1.262c0-2.837-10.379-5.137-23.184-5.137c-12.804,0-23.184,2.299-23.184,5.137
						C35.506,47.415,35.753,47.837,36.213,48.241z"/>
					<path fill="#E4D1D0" d="M85.64,55.663c-0.241,0.226-0.519,0.452-0.825,0.679c-0.593,0.428-1.303,0.84-2.118,1.236
						c-0.264,0.122-0.537,0.25-0.824,0.372c-0.993,0.428-2.118,0.824-3.356,1.18c-0.268,0.08-0.541,0.162-0.819,0.242
						c-1.36,0.364-2.833,0.695-4.415,0.978c-0.268,0.049-0.546,0.097-0.824,0.146c-1.295,0.21-2.65,0.404-4.062,0.558
						c-0.274,0.023-0.547,0.056-0.819,0.08c-0.942,0.096-1.902,0.17-2.887,0.234c-0.271,0.024-0.545,0.04-0.823,0.057
						c-1.229,0.065-2.486,0.104-3.767,0.13c-0.273,0-0.546,0.008-0.823,0.008H58.69c-1.196,0-2.372-0.024-3.531-0.065
						c-0.277-0.008-0.55-0.024-0.823-0.032c-1.182-0.057-2.34-0.138-3.47-0.235c-0.277-0.023-0.555-0.049-0.829-0.072
						c-0.781-0.072-1.544-0.162-2.292-0.251c-0.277-0.04-0.551-0.072-0.825-0.113c-0.95-0.129-1.878-0.274-2.767-0.436
						c-0.277-0.048-0.551-0.096-0.82-0.153c-0.776-0.146-1.52-0.307-2.241-0.485c-0.277-0.065-0.55-0.13-0.818-0.202
						c-0.895-0.227-1.738-0.47-2.533-0.736c-0.283-0.089-0.555-0.185-0.823-0.283c-0.839-0.299-1.605-0.614-2.293-0.954
						c-0.292-0.137-0.565-0.283-0.829-0.428c-0.687-0.38-1.275-0.776-1.76-1.188c-0.326-0.275-0.603-0.558-0.828-0.84
						c-0.499-0.631-0.764-1.285-0.764-1.956c0,1.531,0,3.069,0,4.089c0,0.671,0.264,1.326,0.764,1.956
						c0.225,0.282,0.502,0.565,0.828,0.84c0.485,0.412,1.073,0.808,1.76,1.188c0.263,0.145,0.537,0.29,0.829,0.428
						c0.688,0.34,1.454,0.654,2.293,0.954c0.268,0.097,0.54,0.194,0.823,0.282c0.796,0.267,1.638,0.51,2.533,0.735
						c0.268,0.073,0.541,0.138,0.818,0.203c0.721,0.177,1.464,0.339,2.241,0.484c0.269,0.057,0.542,0.106,0.82,0.154
						c0.89,0.162,1.817,0.308,2.767,0.436c0.273,0.041,0.547,0.073,0.825,0.114c0.748,0.088,1.511,0.178,2.292,0.251
						c0.273,0.024,0.551,0.048,0.829,0.072c1.13,0.097,2.288,0.178,3.47,0.235c0.272,0.008,0.546,0.024,0.823,0.032
						c1.159,0.04,2.335,0.065,3.531,0.065h0.589c0.277,0,0.55-0.008,0.823-0.008c1.281-0.024,2.537-0.065,3.767-0.13
						c0.277-0.016,0.551-0.032,0.823-0.056c0.985-0.064,1.945-0.137,2.887-0.234c0.273-0.025,0.545-0.057,0.819-0.081
						c1.412-0.154,2.767-0.348,4.062-0.558c0.278-0.048,0.556-0.097,0.824-0.146c1.582-0.283,3.055-0.614,4.415-0.978
						c0.278-0.08,0.551-0.162,0.819-0.242c1.238-0.356,2.363-0.752,3.356-1.18c0.287-0.121,0.56-0.25,0.824-0.372
						c0.815-0.396,1.525-0.808,2.118-1.237c0.306-0.226,0.584-0.452,0.825-0.678c0.842-0.8,1.294-1.649,1.294-2.53v-4.089
						C86.935,54.014,86.483,54.862,85.64,55.663z"/>
				</g>
			</g>
		</g>
		<g>
			<path fill="#D29A32" d="M83.746,24.972c0,0.468-0.01,0.928-0.038,1.387c-0.019,0.384-0.047,0.759-0.094,1.134
				c-0.084,0.835-0.205,1.649-0.375,2.454c-0.074,0.386-0.159,0.76-0.253,1.135c-0.403,1.563-0.945,3.063-1.63,4.487
				c-0.168,0.385-0.365,0.769-0.562,1.134c-0.478,0.881-1.003,1.724-1.584,2.539c-0.262,0.384-0.543,0.768-0.852,1.134
				c-0.675,0.872-1.425,1.696-2.23,2.455c-0.413,0.403-0.834,0.778-1.265,1.133c-1.021,0.862-2.108,1.63-3.252,2.305
				c-0.693,0.422-1.405,0.796-2.136,1.133c-3.186,1.5-6.737,2.334-10.484,2.334h-5.623V0.208c0,0,1.677,0,5.623,0
				c4.056,0,7.897,0.985,11.281,2.727c0.684,0.337,1.348,0.722,1.986,1.133c1.143,0.721,2.231,1.546,3.232,2.455
				c0.413,0.356,0.806,0.741,1.191,1.134c1.274,1.302,2.407,2.745,3.373,4.301c0.223,0.366,0.45,0.74,0.655,1.125
				c0.806,1.462,1.461,3.017,1.958,4.647c0.113,0.374,0.225,0.749,0.318,1.133c0.309,1.209,0.525,2.446,0.637,3.71
				c0.047,0.375,0.075,0.75,0.094,1.133C83.736,24.128,83.746,24.55,83.746,24.972z"/>
			<circle fill="#F1D731" cx="53.366" cy="24.971" r="24.761"/>
			<circle fill="#F1CC2B" cx="53.366" cy="24.971" r="20.553"/>
			<path fill="#EBBD2F" d="M55.083,43.805c-11.351,0-20.553-9.202-20.553-20.552c0-5.238,1.963-10.015,5.187-13.644
				c-4.234,3.765-6.905,9.25-6.905,15.362c0,11.351,9.202,20.553,20.553,20.553c6.113,0,11.6-2.673,15.365-6.908
				C65.102,41.843,60.323,43.805,55.083,43.805z"/>
		</g>
	</g>
</g>
<path fill="#D29A32" d="M46.771,13.838h5.06l5.372,20.295h-4.263l-0.94-4.293h-5.4l-0.938,4.293H41.4L46.771,13.838z M47.312,26.487
	h3.98l-1.963-9.124h-0.056L47.312,26.487z"/>
<polygon fill="#D29A32" points="62.132,33.816 56.871,13.68 65.005,13.68 65.005,33.816 "/>
</svg>
