<?xml version="1.0" encoding="utf-8"?>
<!-- Generator: Adobe Illustrator 17.0.0, SVG Export Plug-In . SVG Version: 6.00 Build 0)  -->
<!DOCTYPE svg PUBLIC "-//W3C//DTD SVG 1.1//EN" "http://www.w3.org/Graphics/SVG/1.1/DTD/svg11.dtd">
<svg version="1.1" id="Capa_1" xmlns="http://www.w3.org/2000/svg" xmlns:xlink="http://www.w3.org/1999/xlink" x="0px" y="0px"
	 width="30px" height="35px" viewBox="0 0 30 35" enable-background="new 0 0 30 35" xml:space="preserve">
<g>
	<g id="c100_arrow">
		<path fill="#198754" d="M15,32.5c1.64-0.001,2.968-1.332,2.97-2.972l-0.002-16.885l4.565,4.564c1.237,1.236,3.18,1.299,4.342,0.14
			c1.157-1.161,1.096-3.104-0.141-4.342l-9.535-9.533c-1.236-1.24-3.18-1.302-4.341-0.141c-0.028,0.032-0.049,0.066-0.077,0.096
			c-0.041,0.039-0.091,0.067-0.134,0.109l-9.404,9.406c-1.22,1.221-1.268,3.15-0.107,4.31c1.161,1.161,3.09,1.111,4.312-0.107
			l4.58-4.58v16.963C12.027,31.169,13.356,32.5,15,32.5z"/>
	</g>
	<g id="Capa_1_46_">
	</g>
</g>
</svg>
