<?xml version="1.0" encoding="utf-8"?>
<!-- Generator: Adobe Illustrator 17.0.0, SVG Export Plug-In . SVG Version: 6.00 Build 0)  -->
<!DOCTYPE svg PUBLIC "-//W3C//DTD SVG 1.1//EN" "http://www.w3.org/Graphics/SVG/1.1/DTD/svg11.dtd">
<svg version="1.1" id="Layer_1" xmlns="http://www.w3.org/2000/svg" xmlns:xlink="http://www.w3.org/1999/xlink" x="0px" y="0px"
	 width="100px" height="100px" viewBox="0 0 100 100" enable-background="new 0 0 100 100" xml:space="preserve">
<g>
	<g>
		<path fill="#168240" d="M41.665,2.167c-8.906,0.003-17.446,3.543-23.743,9.84c-6.297,6.297-9.837,14.837-9.84,23.743h33.545
			v33.583c8.906,0,17.449-3.537,23.746-9.835c6.299-6.298,9.837-14.84,9.837-23.747c0-8.907-3.537-17.449-9.837-23.747
			c-6.298-6.298-14.84-9.836-23.746-9.836H41.665z"/>
		<path fill="#BE1A2D" d="M1.797,41.643H35.24v33.495c-8.874-0.013-17.381-3.549-23.651-9.828
			C5.318,59.029,1.797,50.517,1.797,41.643z"/>
		<path fill="#98999B" d="M44.77,80.625h9.48c0.82,0,1.607,0.325,2.187,0.905c0.58,0.581,0.906,1.367,0.906,2.187V99H41.665V83.716
			c0-0.407,0.08-0.81,0.237-1.187c0.156-0.375,0.385-0.717,0.674-1.004c0.288-0.288,0.631-0.515,1.007-0.669
			C43.96,80.701,44.363,80.623,44.77,80.625z"/>
		<path fill="#AAADB1" d="M54.262,80.599h-4.232c-0.821,0-1.609,0.325-2.192,0.905c-0.582,0.58-0.911,1.365-0.914,2.188v15.283
			h10.43V83.716c0.004-0.408-0.074-0.813-0.227-1.191c-0.154-0.378-0.382-0.722-0.669-1.011c-0.288-0.289-0.63-0.52-1.006-0.677
			C55.074,80.68,54.67,80.599,54.262,80.599z"/>
		<path fill="#F7C250" d="M65.655,42.264h9.492c0.413-0.012,0.825,0.059,1.21,0.209c0.386,0.15,0.737,0.376,1.033,0.664
			c0.297,0.288,0.533,0.633,0.694,1.014c0.161,0.381,0.244,0.79,0.244,1.204V99H62.613V45.356c0-0.811,0.319-1.59,0.887-2.169
			C64.07,42.609,64.843,42.277,65.655,42.264z"/>
		<path fill="#E54B3C" d="M86.539,64.48h9.53c0.82,0,1.607,0.325,2.187,0.906c0.58,0.58,0.906,1.365,0.906,2.186V99H83.396V67.571
			c0-0.409,0.082-0.816,0.24-1.195c0.159-0.378,0.391-0.721,0.684-1.009c0.292-0.288,0.639-0.515,1.02-0.667
			C85.721,64.547,86.13,64.472,86.539,64.48z"/>
		<path fill="#F1E266" d="M75.199,42.264h-4.804c-0.82,0-1.606,0.326-2.185,0.906c-0.581,0.58-0.907,1.366-0.907,2.186V99h10.95
			V45.356c0-0.814-0.32-1.594-0.892-2.173C76.788,42.604,76.011,42.274,75.199,42.264z"/>
		<path fill="#E36255" d="M96.031,64.48h-4.777c-0.407,0-0.809,0.08-1.184,0.235c-0.375,0.154-0.716,0.382-1.003,0.67
			c-0.287,0.287-0.515,0.628-0.67,1.003c-0.156,0.375-0.235,0.777-0.235,1.183V99h10.962V67.571c0-0.406-0.08-0.808-0.235-1.183
			c-0.154-0.375-0.382-0.716-0.669-1.003c-0.288-0.288-0.629-0.516-1.004-0.67C96.84,64.559,96.438,64.48,96.031,64.48z"/>
		<path fill="#787878" d="M95.867,33.114H85.489c-0.84,0-1.521,0.681-1.521,1.521c0,0.84,0.682,1.521,1.521,1.521h10.378
			c0.841,0,1.521-0.681,1.521-1.521C97.388,33.795,96.708,33.114,95.867,33.114z"/>
		<path fill="#787878" d="M92.572,2.167h-14.32c-0.841,0-1.521,0.681-1.521,1.521s0.68,1.521,1.521,1.521h14.32
			c0.84,0,1.52-0.681,1.52-1.521S93.412,2.167,92.572,2.167z"/>
		<path fill="#787878" d="M16.028,77.203H3.812c-0.84,0-1.521,0.682-1.521,1.521c0,0.84,0.681,1.52,1.521,1.52h12.217
			c0.84,0,1.521-0.68,1.521-1.52C17.549,77.884,16.868,77.203,16.028,77.203z"/>
		<path fill="#787878" d="M95.867,39.514H85.489c-0.84,0-1.521,0.681-1.521,1.521c0,0.84,0.682,1.521,1.521,1.521h10.378
			c0.841,0,1.521-0.681,1.521-1.521C97.388,40.194,96.708,39.514,95.867,39.514z"/>
		<path fill="#787878" d="M95.867,45.913H85.489c-0.84,0-1.521,0.681-1.521,1.521c0,0.84,0.682,1.521,1.521,1.521h10.378
			c0.841,0,1.521-0.681,1.521-1.521C97.388,46.594,96.708,45.913,95.867,45.913z"/>
		<path fill="#D8DCDD" d="M61.524,29.274c-0.218-0.001-0.433-0.057-0.621-0.165c-0.146-0.082-0.275-0.192-0.379-0.323
			c-0.103-0.132-0.179-0.283-0.224-0.444c-0.044-0.161-0.058-0.33-0.037-0.496c0.021-0.166,0.075-0.327,0.158-0.472l10.38-18.211
			c0.11-0.196,0.27-0.359,0.463-0.472c0.194-0.114,0.414-0.174,0.639-0.174h22.165c0.337,0,0.659,0.134,0.896,0.371
			c0.238,0.238,0.371,0.56,0.371,0.896c0,0.336-0.134,0.658-0.371,0.896c-0.237,0.238-0.559,0.371-0.896,0.371h-21.43L62.626,28.64
			c-0.112,0.193-0.272,0.354-0.466,0.465C61.967,29.217,61.747,29.275,61.524,29.274z"/>
		<path fill="#D8DCDD" d="M20.159,86.201H2.29c-0.336,0-0.658-0.134-0.896-0.371s-0.371-0.56-0.371-0.896
			c0-0.336,0.134-0.658,0.371-0.896c0.238-0.238,0.56-0.371,0.896-0.371h17.071l8.3-17.045c0.152-0.293,0.412-0.515,0.725-0.619
			c0.313-0.104,0.655-0.082,0.952,0.061c0.297,0.143,0.526,0.397,0.639,0.707c0.113,0.31,0.101,0.652-0.035,0.954L21.3,85.465
			c-0.101,0.218-0.261,0.403-0.463,0.533C20.634,86.129,20.4,86.198,20.159,86.201z"/>
	</g>
</g>
</svg>
