<svg width="124" height="67" viewBox="0 0 124 67" fill="none" xmlns="http://www.w3.org/2000/svg">
<g clip-path="url(#clip0_520_883)">
<path d="M69.4775 66.9135H48.8467L50.8066 33.8723H67.6665L69.4775 66.9135Z" fill="#8C8C8C"/>
<path d="M69.4775 66.9135H48.8467L50.8066 33.8723H67.6665L69.4775 66.9135Z" fill="#8C8C8C"/>
<path d="M97.2243 8.48022H21.0983C20.1535 8.48022 19.3877 9.24608 19.3877 10.1908V55.3913C19.3877 56.336 20.1535 57.1019 21.0983 57.1019H97.2243C98.169 57.1019 98.9348 56.336 98.9348 55.3913V10.1908C98.9348 9.24608 98.169 8.48022 97.2243 8.48022Z" fill="#DFDFDF"/>
<path d="M95.1916 12.251H23.1309V53.3326H95.1916V12.251Z" fill="white"/>
<path d="M81.3926 66.9134H36.9314C36.9314 66.3458 37.1569 65.8015 37.5582 65.4002C37.9595 64.9989 38.5038 64.7734 39.0714 64.7734H79.2544C79.5356 64.7732 79.814 64.8284 80.0738 64.9358C80.3337 65.0433 80.5698 65.2009 80.7687 65.3996C80.9676 65.5983 81.1254 65.8343 81.233 66.0941C81.3407 66.3538 81.3961 66.6322 81.3961 66.9134H81.3926Z" fill="#9D9D9D"/>
<path d="M60.2408 10.6565H57.2213C57.1281 10.6565 57.0387 10.6195 56.9728 10.5536C56.9069 10.4877 56.8699 10.3983 56.8699 10.3051C56.8699 10.2119 56.9069 10.1225 56.9728 10.0566C57.0387 9.99064 57.1281 9.95361 57.2213 9.95361H60.2408C60.334 9.95361 60.4234 9.99064 60.4893 10.0566C60.5553 10.1225 60.5923 10.2119 60.5923 10.3051C60.5923 10.3983 60.5553 10.4877 60.4893 10.5536C60.4234 10.6195 60.334 10.6565 60.2408 10.6565V10.6565ZM57.2213 10.1267C57.174 10.1267 57.1287 10.1455 57.0952 10.179C57.0618 10.2124 57.043 10.2578 57.043 10.3051C57.043 10.3524 57.0618 10.3977 57.0952 10.4312C57.1287 10.4646 57.174 10.4834 57.2213 10.4834H60.2408C60.2881 10.4834 60.3335 10.4646 60.3669 10.4312C60.4004 10.3977 60.4192 10.3524 60.4192 10.3051C60.4192 10.2578 60.4004 10.2124 60.3669 10.179C60.3335 10.1455 60.2881 10.1267 60.2408 10.1267H57.2213Z" fill="#162E4C"/>
<path d="M61.0909 10.6565C61.0233 10.6531 60.9581 10.6299 60.9035 10.5899C60.8489 10.5498 60.8072 10.4946 60.7836 10.4311C60.76 10.3677 60.7556 10.2986 60.7709 10.2326C60.7861 10.1667 60.8204 10.1066 60.8694 10.0599C60.9185 10.0132 60.9801 9.98187 61.0468 9.96985C61.1135 9.95783 61.1822 9.96563 61.2444 9.99227C61.3067 10.0189 61.3598 10.0632 61.3971 10.1197C61.4345 10.1762 61.4544 10.2425 61.4545 10.3102C61.4513 10.404 61.4115 10.4929 61.3435 10.5576C61.2755 10.6224 61.1848 10.6579 61.0909 10.6565ZM61.0909 10.1267C61.0576 10.13 61.026 10.1429 60.9999 10.1639C60.9738 10.1848 60.9543 10.2129 60.9438 10.2447C60.9333 10.2765 60.9323 10.3106 60.9408 10.343C60.9493 10.3753 60.967 10.4045 60.9918 10.427C61.0165 10.4496 61.0473 10.4644 61.0803 10.4698C61.1134 10.4752 61.1472 10.4709 61.1779 10.4574C61.2085 10.444 61.2346 10.4219 61.253 10.394C61.2713 10.366 61.2812 10.3333 61.2814 10.2998C61.2787 10.2517 61.2572 10.2066 61.2216 10.1743C61.186 10.1419 61.139 10.1248 61.0909 10.1267V10.1267Z" fill="#162E4C"/>
<path d="M68.9391 57.0154H49.4285V57.1885H68.9391V57.0154Z" fill="#162E4C"/>
<path d="M69.3599 64.687H49.0078V64.8601H69.3599V64.687Z" fill="#162E4C"/>
<path d="M29.3584 12.251H29.1853V53.3326H29.3584V12.251Z" fill="#F4F5F5"/>
<path d="M26.211 12.251H26.0378V53.3326H26.211V12.251Z" fill="#F4F5F5"/>
<path d="M32.5044 12.251H32.3313V53.3326H32.5044V12.251Z" fill="#F4F5F5"/>
<path d="M35.6502 12.251H35.4771V53.3326H35.6502V12.251Z" fill="#F4F5F5"/>
<path d="M38.7962 12.251H38.623V53.3326H38.7962V12.251Z" fill="#F4F5F5"/>
<path d="M45.0896 12.251H44.9165V53.3326H45.0896V12.251Z" fill="#F4F5F5"/>
<path d="M41.9436 12.251H41.7705V53.3326H41.9436V12.251Z" fill="#F4F5F5"/>
<path d="M48.2354 12.251H48.0623V53.3326H48.2354V12.251Z" fill="#F4F5F5"/>
<path d="M51.3814 12.251H51.2083V53.3326H51.3814V12.251Z" fill="#F4F5F5"/>
<path d="M54.5291 12.251H54.356V53.3326H54.5291V12.251Z" fill="#F4F5F5"/>
<path d="M60.8208 12.251H60.6477V53.3326H60.8208V12.251Z" fill="#F4F5F5"/>
<path d="M57.6748 12.251H57.5017V53.3326H57.6748V12.251Z" fill="#F4F5F5"/>
<path d="M63.9683 12.251H63.7952V53.3326H63.9683V12.251Z" fill="#F4F5F5"/>
<path d="M67.1143 12.251H66.9412V53.3326H67.1143V12.251Z" fill="#F4F5F5"/>
<path d="M70.26 12.251H70.0869V53.3326H70.26V12.251Z" fill="#F4F5F5"/>
<path d="M76.5535 12.251H76.3804V53.3326H76.5535V12.251Z" fill="#F4F5F5"/>
<path d="M73.406 12.251H73.2329V53.3326H73.406V12.251Z" fill="#F4F5F5"/>
<path d="M79.6995 12.251H79.5264V53.3326H79.6995V12.251Z" fill="#F4F5F5"/>
<path d="M82.8453 12.251H82.6721V53.3326H82.8453V12.251Z" fill="#F4F5F5"/>
<path d="M85.9913 12.251H85.8181V53.3326H85.9913V12.251Z" fill="#F4F5F5"/>
<path d="M89.1387 12.251H88.9656V53.3326H89.1387V12.251Z" fill="#F4F5F5"/>
<path d="M92.2847 12.251H92.1116V53.3326H92.2847V12.251Z" fill="#F4F5F5"/>
<path d="M48.2354 20.1633H48.0623V27.79H48.2354V20.1633Z" fill="#162E4C"/>
<path d="M49.3679 26.391C49.2103 26.5797 47.0513 26.6005 46.9042 26.391C46.757 26.1815 46.8089 21.7371 46.9042 21.5553C46.9994 21.3735 49.2103 21.358 49.3679 21.5553C49.5254 21.7527 49.5272 26.2006 49.3679 26.391Z" fill="#C40000"/>
<path d="M60.8208 16.1396H60.6477V29.9126H60.8208V16.1396Z" fill="#162E4C"/>
<path d="M61.9548 25.9462C61.7955 26.1349 59.6365 26.1557 59.4894 25.9462C59.3422 25.7367 59.3942 21.2923 59.4894 21.1105C59.5846 20.9287 61.7955 20.9131 61.9548 21.1105C62.1141 21.3079 62.1141 25.7557 61.9548 25.9462Z" fill="#C40000"/>
<path d="M38.8204 15.3347H38.6472V29.1076H38.8204V15.3347Z" fill="#162E4C"/>
<path d="M39.9528 25.141C39.7952 25.3315 37.6345 25.3522 37.4873 25.141C37.3402 24.9298 37.3938 20.4871 37.4873 20.3053C37.5808 20.1235 39.7952 20.108 39.9528 20.3053C40.1103 20.5027 40.1103 24.9523 39.9528 25.141Z" fill="#C40000"/>
<path d="M67.1143 11.9534H66.9412V25.7263H67.1143V11.9534Z" fill="#162E4C"/>
<path d="M68.2465 21.7597C68.0889 21.9484 65.9299 21.9709 65.781 21.7597C65.6321 21.5484 65.6875 17.1058 65.781 16.924C65.8745 16.7422 68.0889 16.7266 68.2465 16.924C68.404 17.1214 68.404 21.5692 68.2465 21.7597Z" fill="#C40000"/>
<path d="M82.8384 3.90259H82.6653V12.7325H82.8384V3.90259Z" fill="#162E4C"/>
<path d="M83.9706 10.189C83.8131 10.3794 81.6523 10.4002 81.5052 10.189C81.358 9.97777 81.4117 6.72629 81.5052 6.55315C81.5987 6.38002 83.8131 6.35578 83.9706 6.55315C84.1282 6.75053 84.1282 10.0003 83.9706 10.189Z" fill="#C40000"/>
<path d="M79.6995 5.8208H79.5264V14.6507H79.6995V5.8208Z" fill="#162E4C"/>
<path d="M80.8317 12.1143C80.6741 12.3047 78.5151 12.3255 78.3662 12.1143C78.2173 11.9031 78.2727 8.65158 78.3662 8.47845C78.4597 8.30531 80.6741 8.28107 80.8317 8.47845C80.9892 8.67582 80.9858 11.9186 80.8317 12.1143Z" fill="#C40000"/>
<path d="M89.1387 0H88.9656V8.82991H89.1387V0Z" fill="#162E4C"/>
<path d="M90.2711 6.28666C90.1136 6.4771 87.9529 6.49788 87.8057 6.28666C87.6585 6.07543 87.7122 2.82394 87.8057 2.65081C87.8992 2.47767 90.1136 2.45343 90.2711 2.65081C90.4287 2.84818 90.4287 6.09794 90.2711 6.28666Z" fill="#C40000"/>
<path d="M35.6502 13.709H35.4771V23.9707H35.6502V13.709Z" fill="#162E4C"/>
<path d="M36.7827 22.2167C36.6251 22.4071 34.4661 22.4279 34.319 22.2167C34.1718 22.0054 34.2237 17.5645 34.319 17.3827C34.4142 17.2009 36.6251 17.1854 36.7827 17.3827C36.9402 17.5801 36.942 22.028 36.7827 22.2167Z" fill="#C40000"/>
<path d="M41.9436 18.2571H41.7705V25.4474H41.9436V18.2571Z" fill="#162E4C"/>
<path d="M43.0691 21.5276C42.9115 21.7181 40.7508 21.7388 40.6036 21.5276C40.4565 21.3164 40.5084 19.6387 40.6036 19.45C40.6989 19.2613 42.9115 19.2526 43.0691 19.45C43.2266 19.6474 43.2422 21.3389 43.0691 21.5276Z" fill="#C40000"/>
<path d="M51.3814 18.2571H51.2083V25.4474H51.3814V18.2571Z" fill="#162E4C"/>
<path d="M52.5154 21.5276C52.3561 21.7181 50.1971 21.7388 50.0499 21.5276C49.9028 21.3164 49.9547 19.6387 50.0499 19.45C50.1451 19.2613 52.3561 19.2526 52.5154 19.45C52.6747 19.6474 52.6729 21.3389 52.5154 21.5276Z" fill="#C40000"/>
<path d="M32.5044 15.0298H32.3313V22.2201H32.5044V15.0298Z" fill="#162E4C"/>
<path d="M33.6366 18.3023C33.4791 18.491 31.3201 18.5118 31.1712 18.3023C31.0223 18.0928 31.0777 16.4134 31.1712 16.2246C31.2646 16.0359 33.4791 16.0273 33.6366 16.2246C33.7942 16.422 33.7942 18.1118 33.6366 18.3023Z" fill="#C40000"/>
<path d="M63.9683 18.626H63.7952V25.8163H63.9683V18.626Z" fill="#162E4C"/>
<path d="M65.1006 21.8965C64.943 22.087 62.7823 22.1077 62.6351 21.8965C62.488 21.6853 62.5399 20.0076 62.6351 19.8189C62.7304 19.6302 64.943 19.6215 65.1006 19.8189C65.2581 20.0162 65.2581 21.7078 65.1006 21.8965Z" fill="#C40000"/>
<path d="M76.5535 6.13599H76.3804V13.3263H76.5535V6.13599Z" fill="#162E4C"/>
<path d="M77.6858 9.40651C77.5282 9.59696 75.3675 9.61774 75.2203 9.40651C75.0732 9.19529 75.1251 7.5176 75.2203 7.32888C75.3156 7.14017 77.5282 7.13151 77.6858 7.32888C77.8433 7.52626 77.8433 9.21779 77.6858 9.40651Z" fill="#C40000"/>
<path d="M92.2847 0.148926H92.1116V7.33924H92.2847V0.148926Z" fill="#162E4C"/>
<path d="M93.417 3.41945C93.2594 3.6099 91.1004 3.63068 90.9532 3.41945C90.8061 3.20823 90.858 1.53054 90.9532 1.34182C91.0485 1.15311 93.2594 1.14445 93.417 1.34182C93.5745 1.5392 93.5745 3.23073 93.417 3.41945Z" fill="#C40000"/>
<path d="M26.211 10.0627H26.0378V22.4627H26.211V10.0627Z" fill="#162E4C"/>
<path d="M27.345 20.4006C27.1857 20.5894 25.0267 20.6119 24.8795 20.4006C24.7323 20.1894 24.7843 14.2266 24.8795 14.0448C24.9747 13.863 27.1857 13.8475 27.345 14.0448C27.5042 14.2422 27.5025 20.2102 27.345 20.4006Z" fill="#C40000"/>
<path d="M70.26 8.82983H70.0869V21.2298H70.26V8.82983Z" fill="#162E4C"/>
<path d="M71.3923 19.1677C71.2348 19.3582 69.0758 19.379 68.9286 19.1677C68.7814 18.9565 68.8334 12.9937 68.9286 12.8119C69.0238 12.6301 71.2348 12.6146 71.3923 12.8119C71.5499 13.0093 71.5516 18.979 71.3923 19.1677Z" fill="#C40000"/>
<path d="M29.3584 4.02026H29.1853V19.4397H29.3584V4.02026Z" fill="#162E4C"/>
<path d="M30.491 16.0963C30.3334 16.285 28.1727 16.3058 28.0255 16.0963C27.8783 15.8868 27.9303 5.85187 28.0255 5.67008C28.1207 5.48829 30.3334 5.47271 30.491 5.67008C30.6485 5.86745 30.6485 15.8972 30.491 16.0963Z" fill="#C40000"/>
<path d="M85.9913 2.66113H85.8181V16.6003H85.9913V2.66113Z" fill="#162E4C"/>
<path d="M87.1252 13.2483C86.966 13.437 84.807 13.4578 84.6598 13.2483C84.5126 13.0388 84.5646 4.4842 84.6598 4.3024C84.755 4.12061 86.966 4.10503 87.1252 4.3024C87.2845 4.49978 87.2828 13.0579 87.1252 13.2483Z" fill="#C40000"/>
<path d="M57.6748 21.9448H57.5017V35.207H57.6748V21.9448Z" fill="#162E4C"/>
<path d="M58.8071 31.8519C58.6495 32.0423 56.4905 32.0631 56.3434 31.8519C56.1962 31.6406 56.2482 23.7664 56.3434 23.5846C56.4386 23.4028 58.6495 23.3873 58.8071 23.5846C58.9647 23.782 58.9664 31.6666 58.8071 31.8519Z" fill="#C40000"/>
<path d="M73.406 7.59888H73.2329V16.3076H73.406V7.59888Z" fill="#162E4C"/>
<path d="M74.54 15.0662C74.3807 15.2549 72.2217 15.2774 72.0746 15.0662C71.9274 14.8549 71.9794 8.89216 72.0746 8.71036C72.1698 8.52857 74.3807 8.51299 74.54 8.71036C74.6993 8.90774 74.6976 14.8844 74.54 15.0662Z" fill="#C40000"/>
<path d="M45.0896 22.634H44.9165V31.3428H45.0896V22.634Z" fill="#162E4C"/>
<path d="M46.2221 30.1013C46.0645 30.2918 43.9055 30.3126 43.7566 30.1013C43.6077 29.8901 43.6631 23.9273 43.7566 23.7455C43.8501 23.5637 46.0645 23.5481 46.2221 23.7455C46.3796 23.9429 46.3796 29.9126 46.2221 30.1013Z" fill="#C40000"/>
<path d="M54.5291 19.521H54.356V28.2314H54.5291V19.521Z" fill="#162E4C"/>
<path d="M55.6613 26.9883C55.5037 27.1787 53.343 27.1995 53.1958 26.9883C53.0487 26.7771 53.1023 20.8143 53.1958 20.6325C53.2893 20.4507 55.5037 20.4351 55.6613 20.6325C55.8188 20.8299 55.8188 26.7996 55.6613 26.9883Z" fill="#C40000"/>
<path d="M32.4161 32.9407H23.1326V53.3308H32.4161V32.9407Z" fill="#EFAC37"/>
<path d="M45.0031 38.2976H35.5637V53.331H45.0031V38.2976Z" fill="#EFAC37"/>
<path d="M57.5607 47.8286H48.1213V53.3309H57.5607V47.8286Z" fill="#EFAC37"/>
<path d="M82.7587 41.2583H73.3193V53.331H82.7587V41.2583Z" fill="#EFAC37"/>
<path d="M95.1898 26.689H85.7505V53.3311H95.1898V26.689Z" fill="#EFAC37"/>
<path d="M70.1735 33.6248H60.7341V53.331H70.1735V33.6248Z" fill="#EFAC37"/>
<path d="M47.6989 5.05201C47.4375 4.29155 46.9197 3.64576 46.2341 3.22543C43.973 1.86286 40.4029 2.45498 39.565 5.23034C38.8343 7.65424 40.6038 10.2236 43.1316 10.3448C44.5166 10.4123 46.0541 9.97945 47.0063 8.9164C47.9586 7.85335 48.1577 6.33322 47.6989 5.05201Z" fill="#EFAC37"/>
<path d="M46.7379 5.38274C46.5369 4.80582 46.1423 4.31636 45.6211 3.99765C43.8984 2.95884 41.1802 3.41245 40.5431 5.52471C39.9856 7.37033 41.3343 9.33369 43.2578 9.42026C44.3157 9.47047 45.4844 9.14151 46.2098 8.33297C46.5517 7.93232 46.7808 7.44789 46.8736 6.92941C46.9664 6.41094 46.9196 5.87711 46.7379 5.38274Z" fill="#E5931C"/>
<path d="M45.4326 3.97693C45.1242 3.8166 44.7949 3.70006 44.4543 3.63066L44.489 3.45752C44.8483 3.53208 45.1951 3.65742 45.5191 3.82976L45.4326 3.97693Z" fill="#D16D00"/>
<path d="M46.814 7.47943L46.6513 7.41883C46.8833 6.77007 46.8833 6.06096 46.6513 5.41219C46.5308 5.06725 46.3398 4.7512 46.0903 4.48419L46.2167 4.36646C46.4822 4.65038 46.6856 4.98647 46.814 5.35333C47.0591 6.04085 47.0591 6.79191 46.814 7.47943Z" fill="#D16D00"/>
<path d="M43.4761 9.50509H43.2545C42.7905 9.48095 42.3382 9.35071 41.9324 9.1244C41.5266 8.89809 41.1781 8.58173 40.9137 8.19964C40.6366 7.81411 40.4516 7.37015 40.373 6.90191C40.2943 6.43368 40.3241 5.95364 40.4601 5.49873C40.8271 4.28678 41.8989 3.49209 43.3255 3.38647L43.3376 3.55961C41.9854 3.66176 40.9709 4.40624 40.6263 5.55067C40.4977 5.98024 40.4695 6.43363 40.5439 6.87583C40.6184 7.31802 40.7935 7.73719 41.0557 8.10096C41.3047 8.46168 41.6333 8.76041 42.016 8.97413C42.3987 9.18786 42.8254 9.31087 43.2632 9.33368C44.4249 9.38909 45.5018 8.98741 46.1459 8.27409C46.2695 8.13639 46.3775 7.98542 46.4679 7.82394L46.6203 7.90878C46.5222 8.08099 46.4061 8.24233 46.274 8.39009C45.6369 9.09302 44.6032 9.50509 43.4761 9.50509Z" fill="#D16D00"/>
<path d="M43.7513 0.123047H43.5781V1.52544H43.7513V0.123047Z" fill="#D16D00"/>
<path d="M42.8008 0.824219H42.6277V2.22662H42.8008V0.824219Z" fill="#D16D00"/>
<path d="M44.6863 1.02832H44.5132V2.02212H44.6863V1.02832Z" fill="#D16D00"/>
<path d="M56.8749 34.2532C56.6125 33.4928 56.0941 32.8472 55.4085 32.4266C53.1473 31.064 49.5773 31.6562 48.7393 34.4315C48.0086 36.8554 49.7781 39.4247 52.3059 39.5459C53.691 39.6135 55.2284 39.1806 56.1806 38.1176C57.1329 37.0545 57.332 35.5344 56.8749 34.2532Z" fill="#EFAC37"/>
<path d="M55.9124 34.5839C55.7116 34.0075 55.3177 33.5182 54.7974 33.1988C53.0661 32.16 50.3565 32.6136 49.7176 34.7259C49.1601 36.5715 50.5089 38.5349 52.4324 38.6214C53.4902 38.6716 54.6589 38.3427 55.3844 37.5341C55.7266 37.1337 55.9559 36.6492 56.0487 36.1307C56.1416 35.6121 56.0945 35.0782 55.9124 34.5839V34.5839Z" fill="#E5931C"/>
<path d="M54.6069 33.1831C54.2975 33.019 53.9664 32.8996 53.6235 32.8282L53.6582 32.655C54.0175 32.7296 54.3643 32.8549 54.6883 33.0273L54.6069 33.1831Z" fill="#D16D00"/>
<path d="M55.9886 36.6804L55.8259 36.6198C56.0579 35.971 56.0579 35.2619 55.8259 34.6131C55.7054 34.2682 55.5143 33.9521 55.2649 33.6851L55.3913 33.5657C55.6564 33.8505 55.8598 34.1871 55.9886 34.5543C56.2345 35.2417 56.2345 35.993 55.9886 36.6804V36.6804Z" fill="#D16D00"/>
<path d="M52.6521 38.7061H52.4288C51.964 38.681 51.5113 38.5494 51.1054 38.3216C50.6996 38.0937 50.3515 37.7757 50.088 37.392C49.8109 37.0068 49.6259 36.5631 49.5473 36.0952C49.4686 35.6272 49.4984 35.1474 49.6344 34.6928C50.0014 33.4809 51.0731 32.6862 52.4998 32.5806L52.5119 32.7537C51.1597 32.8559 50.1469 33.5986 49.8006 34.7448C49.672 35.1743 49.6438 35.6277 49.7182 36.0699C49.7927 36.5121 49.9678 36.9313 50.23 37.295C50.479 37.6558 50.8076 37.9545 51.1903 38.1682C51.573 38.3819 51.9997 38.505 52.4375 38.5278C53.5992 38.5832 54.6761 38.1815 55.3202 37.4682C55.4438 37.3301 55.5524 37.1792 55.6439 37.018L55.7946 37.1029C55.6965 37.2751 55.5804 37.4364 55.4483 37.5842C54.8111 38.294 53.7775 38.7061 52.6521 38.7061Z" fill="#D16D00"/>
<path d="M52.9258 29.3223H52.7527V30.7247H52.9258V29.3223Z" fill="#D16D00"/>
<path d="M51.9768 30.0251H51.8037V31.4275H51.9768V30.0251Z" fill="#D16D00"/>
<path d="M53.8606 30.2295H53.6875V31.2233H53.8606V30.2295Z" fill="#D16D00"/>
<path d="M82.0351 23.1414C81.7737 22.3809 81.2558 21.7351 80.5703 21.3148C78.3092 19.9505 74.7391 20.5444 73.9011 23.3197C73.1705 25.7436 74.94 28.313 77.4677 28.4342C78.8528 28.5 80.3903 28.0671 81.3425 27.0058C82.2948 25.9445 82.4939 24.4226 82.0351 23.1414Z" fill="#EFAC37"/>
<path d="M81.074 23.4703C80.8739 22.893 80.4791 22.4033 79.9573 22.0852C78.2346 21.0464 75.5164 21.4983 74.8792 23.6123C74.3217 25.4579 75.6705 27.4212 77.594 27.5078C78.6519 27.558 79.8205 27.2291 80.5373 26.4188C80.8804 26.0192 81.1109 25.5354 81.2052 25.0173C81.2996 24.4991 81.2543 23.9652 81.074 23.4703V23.4703Z" fill="#E5931C"/>
<path d="M79.7739 22.0714C79.4646 21.9091 79.1333 21.7925 78.7905 21.7251L78.8252 21.552C79.1844 21.6269 79.5312 21.7522 79.8553 21.9242L79.7739 22.0714Z" fill="#D16D00"/>
<path d="M81.159 25.5668L80.9963 25.508C81.2282 24.8586 81.2282 24.149 80.9963 23.4996C80.8754 23.1548 80.6844 22.8389 80.4353 22.5716L80.5617 22.4539C80.8268 22.7387 81.0302 23.0753 81.159 23.4425C81.404 24.1294 81.404 24.8799 81.159 25.5668Z" fill="#D16D00"/>
<path d="M77.8122 27.5945H77.5906C77.1264 27.5703 76.674 27.4398 76.2682 27.2132C75.8623 26.9866 75.5139 26.6698 75.2498 26.2873C74.9726 25.9018 74.7875 25.4579 74.7089 24.9896C74.6302 24.5213 74.6601 24.0413 74.7962 23.5864C75.1633 22.3744 76.235 21.5815 77.6616 21.4741L77.6737 21.6473C76.3215 21.7477 75.307 22.4922 74.9624 23.6366C74.8336 24.0661 74.8054 24.5196 74.8799 24.9618C74.9543 25.404 75.1295 25.8232 75.3918 26.1869C75.6408 26.5478 75.9692 26.8468 76.352 27.0608C76.7347 27.2749 77.1614 27.3982 77.5993 27.4213C78.761 27.4767 79.8362 27.0751 80.482 26.3617C80.6055 26.2233 80.7135 26.0718 80.804 25.9099L80.9564 25.9947C80.8587 26.1677 80.7426 26.3297 80.6101 26.4777C79.973 27.1772 78.9393 27.5945 77.8122 27.5945Z" fill="#D16D00"/>
<path d="M78.0874 18.2104H77.9143V19.6128H78.0874V18.2104Z" fill="#D16D00"/>
<path d="M77.137 18.9116H76.9639V20.314H77.137V18.9116Z" fill="#D16D00"/>
<path d="M79.0225 19.116H78.8494V20.1098H79.0225V19.116Z" fill="#D16D00"/>
<path d="M1.65501 58.8869L1.16504 58.3969L10.4451 49.1185H22.7931L30.3401 41.5716H43.2145L46.35 44.7071H52.4824L60.116 37.0735H71.7905L76.9344 31.9314H85.972L95.9135 21.9882H103.642L110.912 14.72L111.4 15.2099L103.93 22.6807H96.2009L86.2594 32.6239H77.22L72.0779 37.766H60.4034L52.7681 45.3996H46.0643L42.9271 42.2641H30.6275L23.0788 49.8111H10.7308L1.65501 58.8869Z" fill="#162E4C"/>
<path d="M111.503 18.3767H110.81V15.3105H107.772V14.6179H111.503V18.3767Z" fill="#162E4C"/>
<path d="M12.5662 48.9125C12.454 48.5856 12.2319 48.3078 11.9377 48.1264C10.9699 47.543 9.44107 47.7975 9.08095 48.9921C9.00851 49.238 8.99227 49.497 9.03341 49.75C9.07455 50.003 9.17202 50.2436 9.31863 50.4538C9.46523 50.6641 9.65722 50.8387 9.8804 50.9648C10.1036 51.0909 10.3522 51.1652 10.608 51.1823C11.2036 51.21 11.8615 51.0247 12.2684 50.5694C12.4607 50.3445 12.5897 50.0725 12.642 49.7813C12.6944 49.4901 12.6682 49.1902 12.5662 48.9125V48.9125Z" fill="#E8615B"/>
<path d="M11.5983 49.2449C11.5494 49.1011 11.4521 48.9787 11.323 48.8986C10.8954 48.6424 10.2219 48.7532 10.0643 49.2778C10.0328 49.3861 10.0259 49.5002 10.0442 49.6115C10.0625 49.7229 10.1056 49.8287 10.1702 49.9212C10.2348 50.0137 10.3193 50.0906 10.4176 50.1461C10.5158 50.2017 10.6252 50.2345 10.7378 50.2421C10.8719 50.2526 11.0067 50.2339 11.1328 50.1873C11.2589 50.1407 11.3735 50.0672 11.4685 49.972C11.5524 49.8731 11.6087 49.7537 11.6315 49.626C11.6543 49.4982 11.6429 49.3667 11.5983 49.2449V49.2449Z" fill="white"/>
<path d="M24.9609 48.9124C24.8481 48.5868 24.626 48.3103 24.3325 48.1299C23.3629 47.5464 21.8341 47.8009 21.4757 48.9955C21.4033 49.2414 21.387 49.5004 21.4282 49.7535C21.4693 50.0065 21.5668 50.247 21.7134 50.4573C21.86 50.6675 22.052 50.8422 22.2752 50.9682C22.4984 51.0943 22.747 51.1687 23.0028 51.1857C23.5984 51.2134 24.2545 51.0282 24.6631 50.5728C24.8558 50.3474 24.9849 50.0748 25.0372 49.783C25.0896 49.4912 25.0632 49.1907 24.9609 48.9124V48.9124Z" fill="#E8615B"/>
<path d="M23.9931 49.2449C23.9435 49.1009 23.8456 48.9786 23.7161 48.8986C23.2902 48.6424 22.6167 48.7532 22.4591 49.2778C22.4276 49.386 22.4207 49.4999 22.4389 49.6111C22.4571 49.7224 22.5 49.8281 22.5644 49.9206C22.6288 50.0131 22.7132 50.09 22.8112 50.1456C22.9092 50.2012 23.0185 50.2342 23.1309 50.2421C23.265 50.2529 23.3998 50.2343 23.526 50.1876C23.6522 50.141 23.7667 50.0674 23.8615 49.972C23.9461 49.8735 24.0029 49.7541 24.026 49.6263C24.0492 49.4985 24.0378 49.3668 23.9931 49.2449V49.2449Z" fill="white"/>
<path d="M32.1616 41.4036C32.0494 41.0782 31.8279 40.8016 31.5348 40.6211C30.5653 40.0376 29.0365 40.2921 28.6781 41.4867C28.6057 41.7327 28.5894 41.9918 28.6306 42.2449C28.6717 42.498 28.7692 42.7387 28.9157 42.9491C29.0623 43.1594 29.2543 43.3342 29.4774 43.4605C29.7006 43.5868 29.9493 43.6613 30.2051 43.6786C30.799 43.7063 31.4569 43.5211 31.8655 43.0657C32.0585 42.8402 32.1877 42.5672 32.2397 42.275C32.2918 41.9828 32.2648 41.6819 32.1616 41.4036V41.4036Z" fill="#E8615B"/>
<path d="M31.1885 41.7361C31.1399 41.5921 31.0425 41.4696 30.9132 41.3899C30.4855 41.1336 29.8138 41.2444 29.6562 41.7673C29.6243 41.8755 29.6171 41.9895 29.6352 42.1009C29.6533 42.2123 29.6962 42.3181 29.7606 42.4107C29.8251 42.5033 29.9096 42.5802 30.0078 42.6358C30.106 42.6913 30.2154 42.7241 30.328 42.7317C30.462 42.7429 30.5968 42.7247 30.723 42.6783C30.8492 42.6319 30.9637 42.5586 31.0586 42.4633C31.1426 42.3644 31.1989 42.245 31.2217 42.1173C31.2445 41.9895 31.233 41.858 31.1885 41.7361V41.7361Z" fill="white"/>
<path d="M44.9511 41.4036C44.8389 41.0782 44.6174 40.8016 44.3243 40.6211C43.3547 40.0376 41.826 40.2921 41.4658 41.4867C41.3938 41.7329 41.3778 41.992 41.4192 42.2451C41.4606 42.4982 41.5582 42.7388 41.7049 42.9491C41.8516 43.1594 42.0436 43.3342 42.2669 43.4604C42.4901 43.5867 42.7388 43.6613 42.9946 43.6786C43.5885 43.7063 44.2464 43.5211 44.655 43.0657C44.848 42.8402 44.9772 42.5672 45.0292 42.275C45.0813 41.9828 45.0543 41.6819 44.9511 41.4036V41.4036Z" fill="#E8615B"/>
<path d="M43.9833 41.7361C43.9348 41.5921 43.8374 41.4696 43.708 41.3899C43.2804 41.1336 42.6086 41.2444 42.4493 41.7673C42.4178 41.8757 42.4109 41.9897 42.4292 42.1011C42.4475 42.2124 42.4906 42.3182 42.5552 42.4108C42.6198 42.5033 42.7043 42.5801 42.8026 42.6357C42.9008 42.6912 43.0103 42.724 43.1228 42.7317C43.2568 42.7429 43.3916 42.7247 43.5178 42.6783C43.644 42.6319 43.7586 42.5586 43.8535 42.4633C43.9375 42.3644 43.9937 42.245 44.0165 42.1173C44.0393 41.9895 44.0279 41.858 43.9833 41.7361V41.7361Z" fill="white"/>
<path d="M47.9724 44.4249C47.8608 44.0991 47.6392 43.8224 47.3457 43.6423C46.3761 43.0588 44.8473 43.3134 44.4889 44.508C44.4175 44.7533 44.4019 45.0115 44.4432 45.2636C44.4846 45.5157 44.582 45.7553 44.7281 45.9649C44.8742 46.1745 45.0655 46.3487 45.2877 46.4746C45.51 46.6006 45.7577 46.6752 46.0125 46.693C46.6081 46.7224 47.2643 46.5371 47.6729 46.0818C47.8652 45.8569 47.9943 45.585 48.0469 45.2939C48.0996 45.0027 48.0738 44.7028 47.9724 44.4249V44.4249Z" fill="#E8615B"/>
<path d="M47.0064 44.7573C46.9567 44.6134 46.8589 44.491 46.7293 44.411C46.3034 44.1548 45.6299 44.2656 45.4724 44.7902C45.4405 44.8984 45.4333 45.0124 45.4514 45.1238C45.4695 45.2352 45.5123 45.341 45.5768 45.4336C45.6413 45.5262 45.7258 45.6031 45.824 45.6587C45.9222 45.7142 46.0316 45.747 46.1441 45.7546C46.2782 45.7651 46.413 45.7464 46.5391 45.6997C46.6652 45.6531 46.7798 45.5797 46.8748 45.4845C46.9589 45.3856 47.0154 45.2663 47.0385 45.1386C47.0616 45.0109 47.0505 44.8794 47.0064 44.7573V44.7573Z" fill="white"/>
<path d="M54.3577 44.4249C54.2448 44.0993 54.0227 43.8228 53.7292 43.6423C52.7596 43.0588 51.2308 43.3134 50.8725 44.508C50.8 44.7539 50.7838 45.0129 50.8249 45.2659C50.866 45.5189 50.9635 45.7594 51.1101 45.9697C51.2567 46.18 51.4487 46.3546 51.6719 46.4807C51.8951 46.6068 52.1437 46.6811 52.3995 46.6982C52.9951 46.7276 53.6513 46.5423 54.0599 46.087C54.2525 45.8613 54.3816 45.5884 54.4339 45.2963C54.4863 45.0042 54.4599 44.7034 54.3577 44.4249V44.4249Z" fill="#E8615B"/>
<path d="M53.3897 44.7573C53.34 44.6134 53.2422 44.491 53.1126 44.411C52.6867 44.1548 52.0132 44.2656 51.8557 44.7902C51.8238 44.8984 51.8166 45.0124 51.8347 45.1238C51.8528 45.2352 51.8956 45.341 51.9601 45.4336C52.0246 45.5262 52.1091 45.6031 52.2073 45.6587C52.3055 45.7142 52.4149 45.747 52.5274 45.7546C52.6615 45.7653 52.7964 45.7467 52.9225 45.7001C53.0487 45.6534 53.1632 45.5799 53.2581 45.4845C53.3427 45.3859 53.3994 45.2666 53.4226 45.1388C53.4457 45.0109 53.4343 44.8793 53.3897 44.7573V44.7573Z" fill="white"/>
<path d="M61.9495 36.9678C61.8371 36.6419 61.6149 36.3653 61.321 36.1852C60.3514 35.6 58.8226 35.8545 58.4642 37.0509C58.3918 37.2968 58.3756 37.5558 58.4167 37.8088C58.4578 38.0618 58.5553 38.3024 58.7019 38.5126C58.8485 38.7229 59.0405 38.8975 59.2637 39.0236C59.4869 39.1497 59.7355 39.224 59.9913 39.2411C60.5869 39.2705 61.2431 39.0852 61.6517 38.6299C61.8445 38.4043 61.9737 38.1314 62.026 37.8392C62.0783 37.5471 62.0519 37.2463 61.9495 36.9678V36.9678Z" fill="#E8615B"/>
<path d="M60.9817 37.2987C60.9323 37.1546 60.8344 37.0322 60.7047 36.9524C60.2788 36.6944 59.6053 36.807 59.4477 37.3299C59.4158 37.4381 59.4086 37.5521 59.4267 37.6634C59.4448 37.7748 59.4877 37.8807 59.5521 37.9733C59.6166 38.0658 59.7011 38.1427 59.7993 38.1983C59.8975 38.2538 60.0069 38.2866 60.1195 38.2942C60.2536 38.3047 60.3883 38.286 60.5145 38.2394C60.6406 38.1927 60.7551 38.1193 60.8501 38.0241C60.9339 37.9255 60.9902 37.8064 61.0133 37.6791C61.0364 37.5517 61.0255 37.4205 60.9817 37.2987Z" fill="white"/>
<path d="M73.9826 36.9678C73.8709 36.642 73.6493 36.3653 73.3558 36.1852C72.3863 35.6 70.8575 35.8545 70.4974 37.0509C70.4253 37.2969 70.4093 37.556 70.4507 37.809C70.4921 38.062 70.5897 38.3025 70.7364 38.5127C70.8832 38.7229 71.0752 38.8975 71.2985 39.0235C71.5217 39.1496 71.7704 39.2239 72.0262 39.2411C72.62 39.2705 73.2779 39.0852 73.6865 38.6299C73.8792 38.4042 74.0082 38.1312 74.0602 37.839C74.1122 37.5469 74.0854 37.2461 73.9826 36.9678V36.9678Z" fill="#E8615B"/>
<path d="M73.0217 37.2987C72.973 37.1547 72.8756 37.0323 72.7464 36.9524C72.3187 36.6944 71.647 36.807 71.4877 37.3299C71.4561 37.4382 71.4492 37.5522 71.4675 37.6636C71.4858 37.7749 71.5289 37.8808 71.5935 37.9733C71.6581 38.0658 71.7427 38.1427 71.8409 38.1982C71.9391 38.2538 72.0486 38.2866 72.1612 38.2942C72.2952 38.3047 72.43 38.286 72.5561 38.2394C72.6823 38.1927 72.7968 38.1193 72.8918 38.0241C72.9755 37.9254 73.0316 37.8063 73.0544 37.6789C73.0772 37.5515 73.0659 37.4203 73.0217 37.2987V37.2987Z" fill="white"/>
<path d="M78.9965 31.6492C78.8854 31.3232 78.6637 31.0464 78.3698 30.8667C77.4002 30.2832 75.8714 30.5377 75.513 31.7324C75.4406 31.9783 75.4244 32.2374 75.4655 32.4905C75.5067 32.7436 75.6041 32.9843 75.7507 33.1947C75.8973 33.4051 76.0892 33.5798 76.3124 33.7061C76.5356 33.8324 76.7843 33.9069 77.0401 33.9243C77.6357 33.952 78.2919 33.7667 78.7005 33.3113C78.8934 33.0858 79.0226 32.8128 79.0747 32.5206C79.1267 32.2284 79.0998 31.9275 78.9965 31.6492V31.6492Z" fill="#E8615B"/>
<path d="M78.0303 31.9815C77.9812 31.8373 77.8832 31.7148 77.7533 31.6352C77.3274 31.379 76.6539 31.4898 76.4963 32.0127C76.4644 32.1209 76.4572 32.2349 76.4753 32.3463C76.4934 32.4576 76.5362 32.5635 76.6007 32.6561C76.6652 32.7487 76.7497 32.8256 76.8479 32.8811C76.9461 32.9367 77.0555 32.9695 77.1681 32.977C77.302 32.9879 77.4367 32.9695 77.5629 32.9232C77.689 32.8768 77.8036 32.8036 77.8987 32.7087C77.9825 32.6097 78.0388 32.4904 78.0619 32.3627C78.085 32.2351 78.0741 32.1036 78.0303 31.9815V31.9815Z" fill="white"/>
<path d="M87.8351 31.6492C87.724 31.3232 87.5023 31.0464 87.2084 30.8667C86.2388 30.2832 84.7101 30.5377 84.3517 31.7324C84.2793 31.9783 84.263 32.2374 84.3042 32.4905C84.3453 32.7436 84.4427 32.9843 84.5893 33.1947C84.7359 33.4051 84.9279 33.5798 85.151 33.7061C85.3742 33.8324 85.6229 33.9069 85.8787 33.9243C86.4743 33.952 87.1305 33.7667 87.5391 33.3113C87.7321 33.0858 87.8613 32.8128 87.9133 32.5206C87.9654 32.2284 87.9384 31.9275 87.8351 31.6492V31.6492Z" fill="#E8615B"/>
<path d="M86.8723 31.9815C86.8232 31.8373 86.7252 31.7148 86.5953 31.6352C86.1694 31.379 85.4959 31.4898 85.3383 32.0127C85.3064 32.1209 85.2993 32.2349 85.3173 32.3463C85.3354 32.4576 85.3783 32.5635 85.4428 32.6561C85.5073 32.7487 85.5917 32.8256 85.6899 32.8811C85.7881 32.9367 85.8975 32.9695 86.0101 32.977C86.1441 32.9879 86.2788 32.9695 86.4049 32.9232C86.5311 32.8768 86.6457 32.8036 86.7407 32.7087C86.8245 32.6097 86.8808 32.4904 86.9039 32.3627C86.927 32.2351 86.9161 32.1036 86.8723 31.9815V31.9815Z" fill="white"/>
<path d="M97.8457 21.8099C97.7328 21.4843 97.5108 21.2078 97.2172 21.0273C96.2477 20.4439 94.7189 20.6984 94.3605 21.893C94.2881 22.1389 94.2718 22.3979 94.3129 22.6509C94.3541 22.9039 94.4516 23.1445 94.5982 23.3547C94.7448 23.565 94.9368 23.7396 95.1599 23.8657C95.3831 23.9918 95.6318 24.0661 95.8875 24.0832C96.4831 24.1109 97.1393 23.9273 97.5479 23.472C97.7405 23.2463 97.8696 22.9734 97.922 22.6813C97.9743 22.3892 97.948 22.0884 97.8457 21.8099Z" fill="#E8615B"/>
<path d="M96.8779 22.1355C96.8283 21.9916 96.7305 21.8692 96.6009 21.7892C96.175 21.533 95.5015 21.6438 95.344 22.1684C95.3121 22.2766 95.3049 22.3906 95.323 22.502C95.341 22.6133 95.3839 22.7192 95.4484 22.8118C95.5129 22.9044 95.5973 22.9813 95.6955 23.0368C95.7937 23.0924 95.9032 23.1252 96.0157 23.1328C96.1498 23.1433 96.2846 23.1245 96.4107 23.0779C96.5368 23.0313 96.6514 22.9578 96.7464 22.8627C96.8305 22.7638 96.8869 22.6445 96.9101 22.5168C96.9332 22.3891 96.9221 22.2575 96.8779 22.1355Z" fill="white"/>
<path d="M105.414 21.8099C105.301 21.4844 105.08 21.2079 104.787 21.0273C103.817 20.4439 102.288 20.6984 101.928 21.893C101.856 22.139 101.84 22.3981 101.882 22.6511C101.923 22.9041 102.021 23.1445 102.167 23.3548C102.314 23.565 102.506 23.7396 102.729 23.8656C102.953 23.9917 103.201 24.066 103.457 24.0832C104.051 24.1109 104.709 23.9273 105.117 23.472C105.31 23.2461 105.439 22.9731 105.491 22.681C105.543 22.389 105.516 22.0883 105.414 21.8099V21.8099Z" fill="#E8615B"/>
<path d="M104.446 22.1355C104.397 21.9917 104.3 21.8693 104.17 21.7892C103.743 21.533 103.071 21.6438 102.912 22.1684C102.88 22.2767 102.873 22.3908 102.892 22.5021C102.91 22.6135 102.953 22.7193 103.018 22.8118C103.082 22.9044 103.167 22.9812 103.265 23.0368C103.363 23.0923 103.473 23.1251 103.585 23.1328C103.719 23.1433 103.854 23.1245 103.98 23.0779C104.106 23.0313 104.221 22.9578 104.316 22.8627C104.4 22.7637 104.456 22.6443 104.479 22.5166C104.502 22.3889 104.49 22.2574 104.446 22.1355V22.1355Z" fill="white"/>
<path d="M123.499 66.8269H0.382568V67H123.499V66.8269Z" fill="#162E4C"/>
</g>
<defs>
<clipPath id="clip0_520_883">
<rect width="123.117" height="67" fill="white" transform="translate(0.382568)"/>
</clipPath>
</defs>
</svg>
