<?xml version="1.0" encoding="utf-8"?>
<!-- Generator: Adobe Illustrator 17.0.0, SVG Export Plug-In . SVG Version: 6.00 Build 0)  -->
<!DOCTYPE svg PUBLIC "-//W3C//DTD SVG 1.1//EN" "http://www.w3.org/Graphics/SVG/1.1/DTD/svg11.dtd">
<svg version="1.1" id="Layer_1" xmlns="http://www.w3.org/2000/svg" xmlns:xlink="http://www.w3.org/1999/xlink" x="0px" y="0px"
	 width="100px" height="100px" viewBox="0 0 100 100" enable-background="new 0 0 100 100" xml:space="preserve">
<g>
	<g>
		<path fill="#EAEDEE" d="M82.781,99.386H5.991c-0.423,0-0.843-0.083-1.234-0.245c-0.391-0.163-0.747-0.4-1.046-0.699
			c-0.299-0.3-0.537-0.655-0.699-1.046c-0.162-0.392-0.246-0.811-0.246-1.235V0.522h75.1v93.651L82.781,99.386z"/>
		<path fill="#D0D2D3" d="M82.781,99.386c-1.303,0-2.553-0.518-3.474-1.439c-0.922-0.921-1.44-2.172-1.44-3.475V10.664h14.731
			l-4.915,78.594v5.242c-0.003,1.298-0.521,2.541-1.44,3.456C85.323,98.871,84.079,99.386,82.781,99.386z"/>
		<path fill="#EAEDEE" d="M97.512,88.974h-9.829V15.536c0-0.645,0.127-1.285,0.373-1.881c0.247-0.596,0.609-1.138,1.066-1.595
			c0.456-0.456,0.998-0.818,1.594-1.065c0.596-0.247,1.235-0.374,1.881-0.374c0.645,0,1.284,0.127,1.881,0.374
			c0.596,0.247,1.138,0.609,1.594,1.065c0.456,0.456,0.818,0.998,1.065,1.595c0.247,0.596,0.374,1.235,0.374,1.881V88.974z"/>
		<path fill="#D0D2D3" d="M70.679,7.326H9.5v9.915h61.179V7.326z"/>
		<path fill="#D0D2D3" d="M68.861,26.019H44.017c-1.004,0-1.818,0.814-1.818,1.818s0.814,1.818,1.818,1.818h24.844
			c1.005,0,1.818-0.814,1.818-1.818S69.865,26.019,68.861,26.019z"/>
		<path fill="#D0D2D3" d="M68.861,32.851H44.017c-1.004,0-1.818,0.814-1.818,1.818s0.814,1.818,1.818,1.818h24.844
			c1.005,0,1.818-0.814,1.818-1.818S69.865,32.851,68.861,32.851z"/>
		<path fill="#D0D2D3" d="M68.861,39.698H44.017c-1.004,0-1.818,0.814-1.818,1.818c0,1.004,0.814,1.818,1.818,1.818h24.844
			c1.005,0,1.818-0.814,1.818-1.818C70.679,40.512,69.865,39.698,68.861,39.698z"/>
		<path fill="#D0D2D3" d="M68.861,46.53H44.017c-1.004,0-1.818,0.814-1.818,1.818c0,1.004,0.814,1.818,1.818,1.818h24.844
			c1.005,0,1.818-0.814,1.818-1.818C70.679,47.344,69.865,46.53,68.861,46.53z"/>
		<path fill="#D0D2D3" d="M68.861,53.363H9.925c-1.004,0-1.818,0.814-1.818,1.818s0.814,1.818,1.818,1.818h58.935
			c1.003,0,1.818-0.814,1.818-1.818S69.864,53.363,68.861,53.363z"/>
		<path fill="#D0D2D3" d="M68.861,60.21H9.925c-1.004,0-1.818,0.813-1.818,1.818c0,1.005,0.814,1.818,1.818,1.818h58.935
			c1.003,0,1.818-0.813,1.818-1.818C70.679,61.023,69.864,60.21,68.861,60.21z"/>
		<path fill="#D0D2D3" d="M31.786,68.562H9.925c-1.004,0-1.818,0.815-1.818,1.818c0,1.005,0.814,1.818,1.818,1.818h21.861
			c1.004,0,1.818-0.813,1.818-1.818C33.605,69.376,32.79,68.562,31.786,68.562z"/>
		<path fill="#D0D2D3" d="M31.786,75.465H9.925c-1.004,0-1.818,0.815-1.818,1.818c0,1.005,0.814,1.818,1.818,1.818h21.861
			c1.004,0,1.818-0.813,1.818-1.818C33.605,76.28,32.79,75.465,31.786,75.465z"/>
		<path fill="#D0D2D3" d="M31.786,82.369H9.925c-1.004,0-1.818,0.815-1.818,1.818c0,1.005,0.814,1.818,1.818,1.818h21.861
			c1.004,0,1.818-0.814,1.818-1.818C33.605,83.183,32.79,82.369,31.786,82.369z"/>
		<path fill="#D0D2D3" d="M31.786,89.272H9.925c-1.004,0-1.818,0.814-1.818,1.818c0,1.005,0.814,1.818,1.818,1.818h21.861
			c1.004,0,1.818-0.813,1.818-1.818C33.605,90.086,32.79,89.272,31.786,89.272z"/>
		<path fill="#D0D2D3" d="M70.679,68.562H38.861v24.347h31.818V68.562z"/>
		<path fill="#FBD338" d="M36.517,37.979c0.119-0.656,0.181-1.322,0.184-1.989c0-1.553-0.306-3.091-0.901-4.526
			c-0.595-1.435-1.467-2.738-2.566-3.836c-1.099-1.098-2.403-1.968-3.839-2.561c-1.436-0.593-2.974-0.897-4.527-0.896v11.861
			L36.517,37.979z"/>
		<path fill="#3F8847" d="M24.869,36.033l-9.29-7.287c-1.115,1.415-1.891,3.066-2.27,4.827c-0.379,1.761-0.351,3.585,0.083,5.333
			c0.434,1.748,1.262,3.374,2.42,4.753c1.158,1.379,2.617,2.476,4.263,3.205c1.647,0.73,3.439,1.073,5.239,1.004
			c1.8-0.069,3.561-0.548,5.147-1.401s2.957-2.058,4.006-3.522c1.05-1.464,1.751-3.148,2.05-4.924L24.869,36.033z"/>
		<path fill="#F8B630" d="M15.579,28.704l9.29,7.287V24.172c-1.791,0-3.558,0.408-5.168,1.193
			C18.091,26.151,16.681,27.292,15.579,28.704z"/>
		<path fill="#3F8847" d="M70.679,71.374l-8.707,7.06l-5.611-1.249l-8.253,6.79l-4.105,0.482l-5.142,5.299v3.153h2.869l4.275-4.389
			l3.85-0.469l7.614-6.251l5.597,1.236l7.614-6.179V71.374z"/>
	</g>
</g>
</svg>
