<?xml version="1.0" encoding="utf-8"?>
<!-- Generator: Adobe Illustrator 17.0.0, SVG Export Plug-In . SVG Version: 6.00 Build 0)  -->
<!DOCTYPE svg PUBLIC "-//W3C//DTD SVG 1.1//EN" "http://www.w3.org/Graphics/SVG/1.1/DTD/svg11.dtd">
<svg version="1.1" id="Layer_1" xmlns="http://www.w3.org/2000/svg" xmlns:xlink="http://www.w3.org/1999/xlink" x="0px" y="0px"
	 width="100px" height="100px" viewBox="0 0 100 100" enable-background="new 0 0 100 100" xml:space="preserve">
<path fill="#F7F061" d="M63.565,50.178H35.05c-1.353,0-2.45,1.341-2.45,2.995v14.327c0,1.653,1.097,2.994,2.45,2.994h28.515
	c1.354,0,2.45-1.341,2.45-2.994V53.174C66.015,51.519,64.919,50.178,63.565,50.178z"/>
<path fill="#F7F061" d="M94.948,9.613H66.433c-1.352,0-2.449,1.341-2.449,2.995v14.327c0,1.654,1.097,2.995,2.449,2.995h28.515
	c1.354,0,2.45-1.341,2.45-2.995V12.608C97.398,10.954,96.302,9.613,94.948,9.613z"/>
<path fill="#FCCC12" d="M96.969,50.178H68.453c-1.352,0-2.449,1.341-2.449,2.995v14.327c0,1.653,1.097,2.994,2.449,2.994h28.516
	c1.352,0,2.449-1.341,2.449-2.994V53.174C99.418,51.519,98.321,50.178,96.969,50.178z"/>
<path fill="#C8C8C8" d="M47.117,70.288H18.602c-1.353,0-2.45,1.341-2.45,2.995V87.61c0,1.655,1.097,2.995,2.45,2.995h28.515
	c1.354,0,2.45-1.341,2.45-2.995V73.284C49.567,71.629,48.471,70.288,47.117,70.288z"/>
<path fill="#FCCC12" d="M31.673,29.861H3.158c-1.353,0-2.45,1.341-2.45,2.995v14.327c0,1.654,1.097,2.995,2.45,2.995h28.515
	c1.353,0,2.45-1.341,2.45-2.995V32.856C34.122,31.202,33.025,29.861,31.673,29.861z"/>
<path fill="#BE1A2D" d="M80.521,70.288H52.006c-1.354,0-2.45,1.341-2.45,2.995V87.61c0,1.655,1.097,2.995,2.45,2.995h28.515
	c1.352,0,2.449-1.341,2.449-2.995V73.284C82.97,71.629,81.873,70.288,80.521,70.288z"/>
<path fill="#C8C8C8" d="M65.076,29.861H36.561c-1.353,0-2.45,1.341-2.45,2.995v14.327c0,1.654,1.097,2.995,2.45,2.995h28.515
	c1.352,0,2.449-1.341,2.449-2.995V32.856C67.525,31.202,66.428,29.861,65.076,29.861z"/>
</svg>
