<?xml version="1.0" encoding="utf-8"?>
<!-- Generator: Adobe Illustrator 17.0.0, SVG Export Plug-In . SVG Version: 6.00 Build 0)  -->
<!DOCTYPE svg PUBLIC "-//W3C//DTD SVG 1.1//EN" "http://www.w3.org/Graphics/SVG/1.1/DTD/svg11.dtd">
<svg version="1.1" id="Layer_1" xmlns="http://www.w3.org/2000/svg" xmlns:xlink="http://www.w3.org/1999/xlink" x="0px" y="0px"
	 width="100px" height="100px" viewBox="0 0 100 100" enable-background="new 0 0 100 100" xml:space="preserve">
<g>
	<g>
		<path fill="#B5B5B5" d="M31.6,42.445h-2.5c-1.656-0.008-3.287-0.399-4.767-1.14c-1.48-0.741-2.769-1.814-3.767-3.135
			c-0.998-1.321-1.679-2.854-1.988-4.48c-0.31-1.626-0.24-3.302,0.203-4.897l2.5-8.845c0.642-2.24,1.996-4.209,3.859-5.608
			c1.862-1.4,4.131-2.154,6.461-2.147l0,0c2.839,0,5.562,1.128,7.569,3.135c2.007,2.007,3.135,4.73,3.135,7.569v8.781
			c0.009,1.411-0.262,2.81-0.797,4.116c-0.534,1.306-1.321,2.494-2.316,3.494c-0.995,1.001-2.178,1.795-3.481,2.337
			C34.407,42.166,33.011,42.445,31.6,42.445L31.6,42.445z"/>
		<path fill="#B5B5B5" d="M68.519,42.445h2.501c1.655-0.009,3.287-0.399,4.767-1.14c1.481-0.741,2.769-1.814,3.768-3.135
			c0.999-1.321,1.679-2.854,1.989-4.48c0.308-1.626,0.239-3.302-0.204-4.897l-2.564-8.845c-0.63-2.234-1.972-4.202-3.824-5.602
			c-1.851-1.4-4.11-2.157-6.432-2.153c-2.844,0-5.574,1.125-7.592,3.131c-2.017,2.006-3.159,4.728-3.176,7.573v8.781
			c0,1.414,0.279,2.814,0.82,4.121c0.541,1.307,1.334,2.494,2.334,3.493c1,1,2.186,1.793,3.493,2.334
			C65.706,42.166,67.106,42.445,68.519,42.445L68.519,42.445z"/>
		<path fill="#F7C03F" d="M87.684,32.51c-0.828-3.264-2.72-6.159-5.379-8.226c-2.66-2.067-5.932-3.187-9.3-3.183
			c-4.035,0-7.905,1.598-10.764,4.445c-2.859,2.847-4.475,6.711-4.491,10.745H42.304c0-4.029-1.601-7.893-4.45-10.742
			c-2.849-2.849-6.712-4.449-10.741-4.449c-3.379-0.018-6.666,1.096-9.337,3.164c-2.672,2.068-4.575,4.971-5.405,8.245L2.435,58.853
			h95.697L87.684,32.51z"/>
		<path fill="#B5B5B5" d="M62.174,58.853H35.51v8.717h26.664V58.853z"/>
		<path fill="#BE1A2D" d="M21.601,87.569c11.469,0,20.767-9.299,20.767-20.767c0-11.47-9.298-20.768-20.767-20.768
			c-11.47,0-20.767,9.298-20.767,20.768C0.833,78.27,10.131,87.569,21.601,87.569z"/>
		<path fill="#EEEEEE" d="M21.665,81.736c8.354,0,15.127-6.773,15.127-15.127c0-8.353-6.772-15.126-15.127-15.126
			c-8.354,0-15.127,6.773-15.127,15.126C6.538,74.963,13.31,81.736,21.665,81.736z"/>
		<path fill="#BE1A2D" d="M78.518,87.569c11.469,0,20.767-9.299,20.767-20.767c0-11.47-9.299-20.768-20.767-20.768
			c-11.47,0-20.767,9.298-20.767,20.768C57.751,78.27,67.048,87.569,78.518,87.569z"/>
		<path fill="#EEEEEE" d="M78.583,81.736c8.354,0,15.126-6.773,15.126-15.127c0-8.353-6.772-15.126-15.126-15.126
			s-15.127,6.773-15.127,15.126C63.456,74.963,70.229,81.736,78.583,81.736z"/>
	</g>
</g>
</svg>
