<?xml version="1.0" encoding="utf-8"?>
<!-- Generator: Adobe Illustrator 17.0.0, SVG Export Plug-In . SVG Version: 6.00 Build 0)  -->
<!DOCTYPE svg PUBLIC "-//W3C//DTD SVG 1.1//EN" "http://www.w3.org/Graphics/SVG/1.1/DTD/svg11.dtd">
<svg version="1.1" id="Layer_1" xmlns="http://www.w3.org/2000/svg" xmlns:xlink="http://www.w3.org/1999/xlink" x="0px" y="0px"
	 width="343px" height="150px" viewBox="0 0 343 150" enable-background="new 0 0 343 150" xml:space="preserve">
<rect fill="#F1E7EC" width="343" height="150"/>
<g>
	<ellipse cx="177.813" cy="72.646" rx="3.688" ry="2.883"/>
	<g>
		<path fill="#F1A243" d="M147.488,53.248c0,0,9.701-6.781,22.807-7.521c0,0,21.008-0.925,25.634,2.959l-16.704,9.678
			c0,0-1.156,0.863-3.533,0.493L147.488,53.248z"/>
		<polygon fill="#E16111" points="147.488,53.248 177.257,58.95 177.813,73.037 147.488,63.974 		"/>
		<polygon fill="#FAAE64" points="195.93,48.686 195.93,60.214 177.813,73.037 177.257,58.95 		"/>
	</g>
	<g>
		<path fill="#EE2B23" d="M180.346,65.824c0,0-2.712-0.863-0.493-2.219l17.754-10.233c0,0,11.466,3.144,14.857,11.651
			c0,0,3.699,14.857-10.973,20.035L180.346,65.824z"/>
		<polygon fill="#EE2B23" points="180.963,65.885 180.963,70.262 198.223,87.523 198.223,81.543 183.614,66.317 		"/>
		<polygon fill="#780F0C" points="179.052,64.899 201.306,84.935 199.025,98.928 179.052,75.872 		"/>
		<path fill="#E92D2F" d="M201.077,84.807c0,0,7.962-1.412,10.978-10.074c0,0,0.724,17.71-12.968,24.32L201.077,84.807z"/>
	</g>
	<g>
		<path fill="#C6C639" d="M142.721,63.769c0,0,0.575,4.192,1.808,5.178l30.659,1.069v-4.685L142.721,63.769z"/>
		<path fill="#EDEE59" d="M142.721,63.687c0,0,0.082-2.959,4.192-4.85l28.111,6.411l-32.303-1.232L142.721,63.687L142.721,63.687z"
			/>
	</g>
	<g>
		<polygon fill="#319632" points="156.551,100.408 154.64,92.024 175.353,69.358 176.586,75.441 157.475,100.408 156.921,100.408 		
			"/>
		<path fill="#319632" d="M155.461,90.236l1.397,10.357c0,0-13.794-0.739-15.527-24.001l11.417,6.658L155.461,90.236z"/>
		<path fill="#319632" d="M174.983,69.646l-19.604,21.823c0,0-20.713-8.795-11.836-23.343l31.44,0.986l0.37,0.246L174.983,69.646z"
			/>
	</g>
	<g>
		<path fill="#2380B3" d="M157.66,94.859l0.801,6.904c0,0,18.988,8.939,38.282-1.172l0.555-6.658L157.66,94.859z"/>
		<path fill="#289EBB" d="M176.586,72.646l20.713,21.207c0,0-15.7,9.617-39.618,1.151L176.586,72.646z"/>
	</g>
	<g>
		<g>
			<line fill="none" x1="174.124" y1="20.753" x2="174.124" y2="42.883"/>
			<g>
				
					<line fill="none" stroke="#F0A141" stroke-width="3" stroke-miterlimit="10" x1="174.124" y1="21.978" x2="174.124" y2="42.883"/>
				<g>
					<path fill="#F0A141" d="M169.233,28.942c0.237,0.151,0.552,0.081,0.703-0.156l4.187-6.575l4.187,6.575
						c0.151,0.237,0.467,0.307,0.703,0.156c0.237-0.151,0.305-0.468,0.156-0.703l-4.617-7.25c-0.093-0.147-0.256-0.236-0.43-0.236
						c-0.174,0-0.336,0.089-0.43,0.236l-4.617,7.25c-0.054,0.085-0.079,0.18-0.079,0.273
						C168.997,28.68,169.081,28.845,169.233,28.942z"/>
				</g>
			</g>
		</g>
		<text transform="matrix(1 0 0 1 128.6672 16.5889)" fill="#F1A243" font-family="'ComicSansMS'" font-size="10.1899">Bonds make Forex</text>
	</g>
	<g>
		<g>
			<line fill="none" x1="259.696" y1="50.644" x2="259.696" y2="72.773"/>
			<g>
				
					<line fill="none" stroke="#ED2922" stroke-width="3" stroke-miterlimit="10" x1="259.696" y1="51.869" x2="259.696" y2="72.773"/>
				<g>
					<path fill="#ED2922" d="M254.804,58.832c0.237,0.151,0.552,0.081,0.703-0.156l4.187-6.575l4.187,6.575
						c0.151,0.237,0.467,0.307,0.703,0.156c0.237-0.151,0.305-0.468,0.156-0.703l-4.617-7.25c-0.093-0.147-0.256-0.236-0.43-0.236
						s-0.336,0.089-0.43,0.236l-4.617,7.25c-0.054,0.085-0.079,0.18-0.079,0.273C254.569,58.57,254.652,58.735,254.804,58.832z"/>
				</g>
			</g>
		</g>
		<text transform="matrix(1 0 0 1 214.2385 46.1401)" fill="#ED2922" font-family="'ComicSansMS'" font-size="10.1899">Stock make Shares</text>
		<line fill="none" stroke="#ED2922" stroke-width="3" stroke-miterlimit="10" x1="259.696" y1="72.433" x2="217.779" y2="72.433"/>
	</g>
	<g>
		<g>
			<line fill="none" x1="259.696" y1="129.578" x2="259.696" y2="115.715"/>
			<g>
				
					<line fill="none" stroke="#299DB8" stroke-width="3" stroke-miterlimit="10" x1="259.696" y1="128.353" x2="259.696" y2="115.715"/>
				<g>
					<path fill="#299DB8" d="M264.586,121.389c-0.237-0.151-0.552-0.081-0.703,0.156l-4.187,6.575l-4.187-6.575
						c-0.151-0.237-0.467-0.307-0.703-0.156c-0.237,0.151-0.305,0.468-0.156,0.703l4.617,7.25c0.093,0.147,0.256,0.236,0.43,0.236
						s0.336-0.089,0.43-0.236l4.617-7.25c0.054-0.085,0.079-0.18,0.079-0.273C264.822,121.651,264.739,121.487,264.586,121.389z"/>
				</g>
			</g>
		</g>
		
			<line fill="none" stroke="#299DB8" stroke-width="3" stroke-miterlimit="10" x1="259.876" y1="116.279" x2="177.473" y2="116.279"/>
		
			<line fill="none" stroke="#299DB8" stroke-width="3" stroke-miterlimit="10" x1="177.811" y1="116.847" x2="177.811" y2="109.909"/>
		<text transform="matrix(1 0 0 1 214.2385 141.4981)" fill="#299DB8" font-family="'ComicSansMS'" font-size="10.1899">Stock make Shares</text>
	</g>
	<g>
		<g>
			<line fill="none" x1="94.763" y1="129.409" x2="94.763" y2="115.545"/>
			<g>
				
					<line fill="none" stroke="#2E9234" stroke-width="3" stroke-miterlimit="10" x1="94.763" y1="128.183" x2="94.763" y2="115.545"/>
				<g>
					<path fill="#2E9234" d="M99.654,121.219c-0.237-0.151-0.552-0.081-0.703,0.156l-4.187,6.575l-4.187-6.575
						c-0.151-0.237-0.467-0.307-0.703-0.156c-0.237,0.151-0.305,0.468-0.156,0.703l4.617,7.25c0.093,0.147,0.256,0.236,0.43,0.236
						c0.174,0,0.336-0.089,0.43-0.236l4.617-7.25c0.054-0.085,0.079-0.18,0.079-0.273C99.89,121.482,99.807,121.317,99.654,121.219z
						"/>
				</g>
			</g>
		</g>
		<line fill="none" stroke="#2E9234" stroke-width="3" stroke-miterlimit="10" x1="136.938" y1="84.883" x2="94.261" y2="84.883"/>
		<line fill="none" stroke="#2E9234" stroke-width="3" stroke-miterlimit="10" x1="94.763" y1="116.847" x2="94.763" y2="85.123"/>
		<text transform="matrix(1 0 0 1 45.4671 141.498)" fill="#319632" font-family="'ComicSansMS'" font-size="10.1899">Real Estate Make Metals</text>
	</g>
	<g>
		<g>
			<line fill="none" x1="94.763" y1="44.973" x2="94.763" y2="58.837"/>
			<g>
				<line fill="none" stroke="#C5C536" stroke-width="3" stroke-miterlimit="10" x1="94.763" y1="46.198" x2="94.763" y2="58.837"/>
				<g>
					<path fill="#C5C536" d="M89.873,53.162c0.237,0.151,0.552,0.081,0.703-0.156l4.187-6.575l4.187,6.575
						c0.151,0.237,0.467,0.307,0.703,0.156c0.237-0.151,0.305-0.468,0.156-0.703l-4.617-7.25c-0.093-0.147-0.256-0.236-0.43-0.236
						s-0.336,0.089-0.43,0.236l-4.617,7.25c-0.054,0.085-0.079,0.18-0.079,0.273C89.636,52.9,89.72,53.065,89.873,53.162z"/>
				</g>
			</g>
		</g>
		<line fill="none" stroke="#C5C536" stroke-width="3" stroke-miterlimit="10" x1="141.331" y1="62.387" x2="94.261" y2="62.387"/>
		<line fill="none" stroke="#C5C536" stroke-width="3" stroke-miterlimit="10" x1="94.763" y1="49.594" x2="94.763" y2="62.134"/>
		<text transform="matrix(1 0 0 1 41.3909 41.0503)" fill="#C6C639" font-family="'ComicSansMS'" font-size="10.1899">Cash Make Energies</text>
	</g>
</g>
</svg>
