<?xml version="1.0" encoding="utf-8"?>
<!-- Generator: Adobe Illustrator 17.0.0, SVG Export Plug-In . SVG Version: 6.00 Build 0)  -->
<!DOCTYPE svg PUBLIC "-//W3C//DTD SVG 1.1//EN" "http://www.w3.org/Graphics/SVG/1.1/DTD/svg11.dtd">
<svg version="1.1" id="Layer_1" xmlns="http://www.w3.org/2000/svg" xmlns:xlink="http://www.w3.org/1999/xlink" x="0px" y="0px"
	 width="100px" height="100px" viewBox="0 0 100 100" enable-background="new 0 0 100 100" xml:space="preserve">
<image display="none" overflow="visible" width="740" height="494" xlink:href="4877A85E.jpg"  transform="matrix(0.3005 0 0 0.3005 -104.7375 -16.6225)">
</image>
<path fill="#185222" d="M6.017,54.745L74.4,3.225c0,0,3.313-2.15,6.045-1.174c2.732,0.977,3.613,4.256,3.632,5.196
	c0.019,0.94,9.352,77.04,9.352,77.04l0.7,9.016c0,0,1.031,8.889-7.881,2.728l-27.953-40.3L8.378,64.263c0,0-3.683,0.508-4.765-2.679
	c0,0-2.194-2.524,1.717-6.198S6.017,54.745,6.017,54.745z"/>
<path fill="#27822F" d="M9.281,56.522L76.35,4.103c0,0,3.245-2.195,5.88-1.259s3.442,4.195,3.447,5.133
	c0.005,0.938,7.948,76.759,7.948,76.759l0.548,8.989c0,0,0.87,8.858-7.683,2.837L59.966,56.744l-48.535,9.243
	c0,0-3.579,0.56-4.582-2.604c0,0-2.091-2.488,1.755-6.211S9.281,56.522,9.281,56.522z"/>
<path fill="#27822F" d="M95,92.121L85.916,8.28c0,0-0.682-3.82-3.166-5.046s-5.357,0.452-6.026,1.096
	c-0.67,0.644-60.012,47.364-60.012,47.364l-6.763,5.819c0,0-6.893,5.499,3.291,7.417l46.599-8.658L86.791,97.13
	c0,0,2.074,2.929,5.014,1.456c0,0,3.211-0.233,3.2-5.536C94.993,87.747,95,92.121,95,92.121z"/>
<path fill="#DB3D3A" d="M42.08,45.41l30.767-24.046c0,0,1.488-1.007,2.697-0.578s1.579,1.924,1.581,2.355
	c0.002,0.43,3.646,35.211,3.646,35.211l0.251,4.123c0,0,0.399,4.063-3.524,1.302L65.331,45.512l-22.264,4.24
	c0,0-1.642,0.257-2.102-1.195c0,0-0.959-1.141,0.805-2.849C43.534,44,42.08,45.41,42.08,45.41z"/>
<path fill="#DB3D3A" d="M81.575,62.03l-4.22-38.951c0,0-0.317-1.775-1.471-2.344c-1.154-0.57-2.489,0.21-2.8,0.509
	c-0.311,0.299-27.881,22.004-27.881,22.004l-3.142,2.703c0,0-3.202,2.555,1.529,3.446l21.649-4.022l12.522,18.982
	c0,0,0.963,1.361,2.329,0.676c0,0,1.492-0.108,1.487-2.572C81.572,59.998,81.575,62.03,81.575,62.03z"/>
</svg>
