<?xml version="1.0" encoding="utf-8"?>
<!-- Generator: Adobe Illustrator 17.0.0, SVG Export Plug-In . SVG Version: 6.00 Build 0)  -->
<!DOCTYPE svg PUBLIC "-//W3C//DTD SVG 1.1//EN" "http://www.w3.org/Graphics/SVG/1.1/DTD/svg11.dtd">
<svg version="1.1" id="Layer_1" xmlns="http://www.w3.org/2000/svg" xmlns:xlink="http://www.w3.org/1999/xlink" x="0px" y="0px"
	 width="100px" height="100px" viewBox="0 0 100 100" enable-background="new 0 0 100 100" xml:space="preserve">
<image display="none" overflow="visible" width="740" height="494" xlink:href="5CDE61FC.jpg"  transform="matrix(0.3005 0 0 0.3005 -104.7375 -16.6225)">
</image>
<path display="none" fill="#185222" d="M6.017,54.745L74.4,3.225c0,0,3.313-2.15,6.045-1.174c2.732,0.977,3.613,4.256,3.632,5.196
	c0.019,0.94,9.352,77.04,9.352,77.04l0.7,9.016c0,0,1.031,8.889-7.881,2.728l-27.953-40.3L8.378,64.263c0,0-3.683,0.508-4.765-2.679
	c0,0-2.194-2.524,1.717-6.198S6.017,54.745,6.017,54.745z"/>
<path display="none" fill="#27822F" d="M9.281,56.522L76.35,4.103c0,0,3.245-2.195,5.88-1.259s3.442,4.195,3.447,5.133
	c0.005,0.938,7.948,76.759,7.948,76.759l0.548,8.989c0,0,0.87,8.858-7.683,2.837L59.966,56.744l-48.535,9.243
	c0,0-3.579,0.56-4.582-2.604c0,0-2.091-2.488,1.755-6.211S9.281,56.522,9.281,56.522z"/>
<path display="none" fill="#27822F" d="M95,92.121L85.916,8.28c0,0-0.682-3.82-3.166-5.046s-5.357,0.452-6.026,1.096
	c-0.67,0.644-60.012,47.364-60.012,47.364l-6.763,5.819c0,0-6.893,5.499,3.291,7.417l46.599-8.658L86.791,97.13
	c0,0,2.074,2.929,5.014,1.456c0,0,3.211-0.233,3.2-5.536C94.993,87.747,95,92.121,95,92.121z"/>
<path display="none" fill="#DB3D3A" d="M42.08,45.41l30.767-24.046c0,0,1.488-1.007,2.697-0.578s1.579,1.924,1.581,2.355
	c0.002,0.43,3.646,35.211,3.646,35.211l0.251,4.123c0,0,0.399,4.063-3.524,1.302L65.331,45.512l-22.264,4.24
	c0,0-1.642,0.257-2.102-1.195c0,0-0.959-1.141,0.805-2.849C43.534,44,42.08,45.41,42.08,45.41z"/>
<path display="none" fill="#DB3D3A" d="M81.575,62.03l-4.22-38.951c0,0-0.317-1.775-1.471-2.344c-1.154-0.57-2.489,0.21-2.8,0.509
	c-0.311,0.299-27.881,22.004-27.881,22.004l-3.142,2.703c0,0-3.202,2.555,1.529,3.446l21.649-4.022l12.522,18.982
	c0,0,0.963,1.361,2.329,0.676c0,0,1.492-0.108,1.487-2.572C81.572,59.998,81.575,62.03,81.575,62.03z"/>
<g display="none">
	<g display="inline">
		<path fill="#DB3D3A" d="M50.141,14.104l-9.329,0c0,0-2.326,78.81,9.329,83.139L50.141,14.104z"/>
		<path fill="#BA3232" d="M50.089,14.104l9.329,0c0,0,2.326,78.81-9.329,83.139L50.089,14.104z"/>
	</g>
	<g display="inline">
		<path fill="#27822F" d="M50.141,17.671l0-3.567l-9.329,0c0,0-0.038,1.299-0.08,3.567L50.141,17.671z"/>
		<path fill="#185222" d="M59.499,17.671c-0.042-2.269-0.08-3.567-0.08-3.567l-9.329,0v3.567L59.499,17.671z"/>
	</g>
	<g display="inline">
		<path fill="#C38200" d="M50.15,3.953c-1.335,0.167-2.787,3.603-3.263,4.539c-0.572,1.125-1.752,3.593-0.064,4.328
			c0.328,0.142,2.019,0.362,3.328,0.17L50.15,3.953z"/>
		<path fill="#27822F" d="M50.15,3.953c-1.335,0.167-2.787,3.603-3.263,4.539c-0.572,1.125-1.752,3.593-0.064,4.328
			c0.328,0.142,2.019,0.362,3.328,0.17L50.15,3.953z"/>
		<path fill="#185222" d="M50.08,3.953c1.335,0.167,2.788,3.603,3.263,4.539c0.572,1.125,1.753,3.593,0.065,4.328
			c-0.328,0.143-2.019,0.362-3.327,0.171L50.08,3.953z"/>
	</g>
	<circle display="inline" fill="#540C0C" cx="50.115" cy="50.461" r="6.722"/>
	<g display="inline">
		<polygon fill="#27822F" points="47.989,10.674 21.236,12.321 21.236,7.107 47.989,8.754 		"/>
		<polygon fill="#185222" points="51.83,10.674 78.994,12.321 78.994,7.107 51.83,8.754 		"/>
	</g>
	<g display="inline">
		<path fill="#27822F" d="M99.23,43.738c0,2.273-1.843,4.116-4.116,4.116l-89.998,0C2.843,47.854,1,46.011,1,43.738l0-9.878
			c0-2.273,1.843-4.116,4.116-4.116h89.998c2.274,0,4.116,1.843,4.116,4.116L99.23,43.738z"/>
		<g>
			<rect x="76.593" y="41.269" fill="#BA3232" width="15.915" height="6.585"/>
			<rect x="7.722" y="41.269" fill="#DB3D3A" width="15.914" height="6.585"/>
		</g>
	</g>
	<g display="inline">
		<path fill="#185222" d="M70.348,86.052c0,1.937-1.571,3.508-3.509,3.508l-33.448,0c-1.938,0-3.508-1.571-3.509-3.508l0-7.252
			c0-1.937,1.571-3.508,3.508-3.508l33.448,0c1.939,0,3.509,1.572,3.509,3.509L70.348,86.052z"/>
		<rect x="47.645" y="75.292" fill="#27822F" width="4.939" height="14.268"/>
	</g>
</g>
<g>
	<g id="rocket_2_">
		<polygon fill="#185222" points="41.021,88.024 59.686,88.621 59.907,83.134 41.243,82.536 		"/>
		<path fill="#DB3D3A" d="M50.996,59.412C32.997,58.836,17.879,71.374,17.232,87.42c-0.151,3.729,0.501,7.315,1.805,10.634
			c5.18-10.668,17.289-17.956,31.105-17.514C63.96,80.984,75.451,89.029,79.753,100c1.569-3.227,2.509-6.761,2.66-10.49
			C83.061,73.463,68.995,59.989,50.996,59.412z"/>
		<path fill="#9F0611" d="M58.424,81.785C68.428,84.483,76.346,91.316,79.753,100c1.569-3.227,2.509-6.761,2.66-10.49
			c0.544-13.482-9.302-25.144-23.136-28.869L58.424,81.785z"/>
		<path fill="#27822F" d="M31.242,49.315c-0.552,13.694,2.192,26.33,7.186,36.218c3.667-0.909,7.553-1.346,11.562-1.216
			c4.008,0.129,7.848,0.812,11.435,1.954c5.775-9.543,9.531-21.97,10.084-35.662c0.877-21.753-6.549-40.85-18.122-50.47
			C41.067,8.992,32.12,27.563,31.242,49.315z"/>
		<path fill="#185222" d="M53.388,0.137c-1.406,1.011-4.078,84.169-4.078,84.169c0.227,0.004,0.453,0.002,0.681,0.01
			c4.008,0.129,7.848,0.812,11.435,1.954c5.775-9.543,9.531-21.97,10.084-35.662C72.387,28.855,64.961,9.758,53.388,0.137z"/>
		<path fill="#185222" d="M37.678,20.699l-1.027,2.486c0,0,17.296-1.186,31.974,1.315l-1.227-2.847
			C67.398,21.653,47.656,18.824,37.678,20.699z"/>
		<path fill="#D02125" d="M45.91,78.237c-0.366,9.046,1.075,16.934,3.483,20.863c2.718-3.763,4.793-11.539,5.157-20.586
			c0.365-9.047-1.077-16.936-3.484-20.863C48.348,61.414,46.275,69.19,45.91,78.237z"/>
		<path fill="#DB3D3A" d="M49.285,98.906c0.038,0.063,0.072,0.132,0.109,0.193c2.718-3.763,4.793-11.539,5.157-20.586
			c0.365-9.047-1.077-16.936-3.484-20.863c-0.04,0.059-0.082,0.128-0.125,0.184L49.285,98.906z"/>
		<path fill="#9F0611" d="M52.067,32.868c-4.336-0.14-7.99,2.891-8.146,6.755c-0.155,3.867,3.244,7.121,7.581,7.26
			c4.334,0.139,7.989-2.89,8.144-6.756C59.801,36.264,56.4,33.007,52.067,32.868z"/>
		<path fill="#DB3D3A" d="M37.678,20.699c4.851-0.131,9.816-0.131,14.879,0.031c5.061,0.163,10.014,0.479,14.841,0.923
			c-3.192-9.061-8.044-16.555-14.01-21.515C47.036,4.702,41.593,11.865,37.678,20.699z"/>
		<path fill="#9F0611" d="M53.047,20.749c4.89,0.168,9.681,0.474,14.35,0.903c-3.192-9.061-8.044-16.555-14.01-21.515
			c-0.114,0.082-0.227,0.171-0.34,0.255L53.047,20.749z"/>
	</g>
</g>
</svg>
