<?xml version="1.0" encoding="utf-8"?>
<!-- Generator: Adobe Illustrator 17.0.0, SVG Export Plug-In . SVG Version: 6.00 Build 0)  -->
<!DOCTYPE svg PUBLIC "-//W3C//DTD SVG 1.1//EN" "http://www.w3.org/Graphics/SVG/1.1/DTD/svg11.dtd">
<svg version="1.1" id="Layer_1" xmlns="http://www.w3.org/2000/svg" xmlns:xlink="http://www.w3.org/1999/xlink" x="0px" y="0px"
	 width="100px" height="100px" viewBox="0 0 100 100" enable-background="new 0 0 100 100" xml:space="preserve">
<g>
	<path fill="#FCAF40" d="M82.485,63.041c0.069,2.113-15.936,13.489-32.086,13.625c-16.414,0.138-32.977-10.988-32.977-13.611v9.883
		C17.422,75.56,28.385,85,50.403,85c20.928,0,32.155-9.953,32.086-12.063L82.485,63.041z"/>
	<path fill="#F9C912" d="M82.468,62.732C81.93,56.282,67.581,51.11,49.952,51.11c-17.628,0-31.992,5.175-32.53,11.63
		c0,0.125,0,0.245,0,0.367c0,6.581,14.336,13.468,32.103,13.555h1.118c17.642-0.135,31.835-7.007,31.85-13.544v-0.021
		C82.485,62.982,82.478,62.853,82.468,62.732z"/>
	<path fill="#414042" d="M80.788,35.573L49.952,52.388L19.115,35.573l0.059,27.021c0,2.483,9.607,11.695,31.201,11.695
		c23.221,0,30.42-9.7,30.354-11.695L80.788,35.573z"/>
	<g opacity="0.5">
		<path fill="#0D2025" d="M19.157,56.773c0-3.408,5.222-3.63,12.351-0.432c11.904,5.331,25.559,17.927,35.388,15.883
			c9.246-2.653,13.084-7.16,13.74-9.076c0.045-0.419,0.083-0.773,0.107-1.022l0.027-12.368c-0.451,0-12.56-0.381-24.56-0.776
			l-6.245,3.405l-7.088-3.866c-6.221-0.229-10.658-0.419-10.578-0.495c0.26-0.26-12.403-2.338-12.403-2.338l-0.746,0.44
			L19.157,56.773z"/>
	</g>
	<path opacity="0.7" fill="#939598" enable-background="new    " d="M80.772,59.14v-9.931l-9.888,4.275l0.52,17.668l8.788-7.508
		L80.772,59.14z"/>
	<path fill="#414042" d="M83.474,35.209L49.931,20.144L16.652,35.209L0.717,38.324v3.284l49.214,21.821l49.652-21.821h0.004v-3.284
		L83.474,35.209z"/>
	<path fill="#58595B" d="M49.931,16.021L0.717,38.324l49.214,21.824l49.656-21.824L49.931,16.021z"/>
	<path opacity="0.4" fill="#231F20" enable-background="new    " d="M50.646,35.486c0,0-22.375,6.641-25.771,12.623
		c-0.347,0.627-0.59,1.694-0.743,2.952l1.953,1.122c0,0,0.021-2.643,0.347-3.222c3.39-5.924,26.143-12.759,26.143-12.759
		L50.646,35.486z"/>
	<g opacity="0.5">
		<path fill="#0D2025" d="M54.472,35.805c0,1.154-1.96,2.079-4.371,2.079c-2.412,0-4.372-0.935-4.372-2.079s1.957-2.078,4.372-2.078
			C52.516,33.727,54.472,34.655,54.472,35.805z"/>
	</g>
	<path fill="#F9C912" d="M23.57,59.359c-0.087-1.83-0.375-9.7,0.854-11.886c3.122-5.543,23.343-11.778,25.4-12.412l0.771,0.579
		c-3.796,1.143-22.07,6.876-25.192,12.343c-1.232,2.155-0.843,9.554-0.735,11.214L23.57,59.359z"/>
	<path fill="#DB8618" d="M46.976,36.782l1.301-0.374c-0.219-0.243-0.451-0.474-0.694-0.693c-0.093-0.045-0.555,0.184-0.555,0.184
		l-0.253,0.104C47,35.982,47.26,36.654,46.976,36.782z"/>
	<path fill="#F47C19" d="M54.171,34.749c0,1.074-1.822,1.943-4.07,1.943c-2.249,0-4.07-0.869-4.07-1.943
		c0-1.074,1.821-1.943,4.07-1.943C52.349,32.805,54.171,33.675,54.171,34.749z"/>
	
		<linearGradient id="SVGID_1_" gradientUnits="userSpaceOnUse" x1="79.1365" y1="-108.9929" x2="80.8366" y2="-108.9929" gradientTransform="matrix(1 0 0 -1 -56 -44)">
		<stop  offset="0" style="stop-color:#FCF118"/>
		<stop  offset="1" style="stop-color:#F3941F"/>
	</linearGradient>
	<path fill="url(#SVGID_1_)" d="M24.837,62.258h-1.7v5.47h1.7V62.258z"/>
	
		<linearGradient id="SVGID_2_" gradientUnits="userSpaceOnUse" x1="65.6211" y1="-116.0301" x2="90.9867" y2="-118.8627" gradientTransform="matrix(1 0 0 -1 -56 -44)">
		<stop  offset="0" style="stop-color:#FCF118"/>
		<stop  offset="0.46" style="stop-color:#F6C013"/>
		<stop  offset="0.81" style="stop-color:#F4A01B"/>
		<stop  offset="1" style="stop-color:#F3941F"/>
	</linearGradient>
	<path fill="url(#SVGID_2_)" d="M29.832,81.438c0-0.724-0.642-6.433-1.735-11.459c-0.867-3.918-1.832-7.492-4.219-7.492
		c-5.468,0-6.11,17.469-5.992,18.952c0.066,0.874,0.514,1.774,1.773,2.481c0.402,0.198,0.826,0.348,1.263,0.447
		c0.964,0.217,1.95,0.319,2.939,0.304c0.515,0.018,1.03-0.009,1.54-0.079c0.611-0.104,0.899-0.136,1.235-0.208
		C29.118,83.846,29.832,82.423,29.832,81.438z"/>
	<path fill="#FCCD2B" d="M24.424,62.559c-0.167-0.043-0.338-0.066-0.51-0.069c-0.271,0.163-0.628,0.388-1.083,0.693
		c-3.601,2.393-4.573,14.771-4.597,19.399c0.343,0.565,0.837,1.024,1.426,1.326c0.402,0.198,0.826,0.348,1.263,0.447
		c0.374,0.091,0.753,0.158,1.135,0.201c0.076-7.867,1.041-20.051,1.641-21.298C23.698,63.269,24.125,62.881,24.424,62.559z"/>
	<path fill="#D88114" d="M28.715,83.465c0.332-0.227,0.605-0.529,0.799-0.88c0.194-0.353,0.303-0.745,0.318-1.146
		c0-1.284-0.52-18.952-5.971-18.952c-0.377,0.009-0.747,0.094-1.09,0.251c-0.342,0.157-0.649,0.381-0.902,0.66
		c-0.316,0.45,2.387,0.623,3.216,1.864c1.967,2.944,3.643,8.488,3.643,18.069C28.729,83.378,28.719,83.42,28.715,83.465z"/>
</g>
</svg>
