<svg width="98" height="98" viewBox="0 0 98 98" fill="none" xmlns="http://www.w3.org/2000/svg">
<path d="M18.0573 4.64805C18.0573 2.081 15.9792 0 13.4157 0C10.8521 0 8.77399 2.081 8.77399 4.64805V93.1519C8.77399 95.719 10.8521 97.8 13.4157 97.8C15.9792 97.8 18.0573 95.719 18.0573 93.1519V4.64805Z" fill="#A8A8A8"/>
<path d="M20.0057 10.455H6.83836C3.06164 10.455 0 13.5166 0 17.2933V40.7628C0 44.5395 3.06164 47.6011 6.83836 47.6011H20.0057C23.7824 47.6011 26.8441 44.5395 26.8441 40.7628V17.2933C26.8441 13.5166 23.7824 10.455 20.0057 10.455Z" fill="#BE1E2D"/>
<path d="M18.8214 18.8979H8.02268C7.13653 18.8979 6.41815 19.6162 6.41815 20.5024C6.41815 21.3885 7.13653 22.1069 8.02268 22.1069H18.8214C19.7076 22.1069 20.426 21.3885 20.426 20.5024C20.426 19.6162 19.7076 18.8979 18.8214 18.8979Z" fill="white"/>
<path d="M18.8214 27.4171H8.02268C7.13653 27.4171 6.41815 28.1355 6.41815 29.0217C6.41815 29.9078 7.13653 30.6262 8.02268 30.6262H18.8214C19.7076 30.6262 20.426 29.9078 20.426 29.0217C20.426 28.1355 19.7076 27.4171 18.8214 27.4171Z" fill="white"/>
<path d="M18.8214 35.9491H8.02268C7.13653 35.9491 6.41815 36.6675 6.41815 37.5536C6.41815 38.4398 7.13653 39.1582 8.02268 39.1582H18.8214C19.7076 39.1582 20.426 38.4398 20.426 37.5536C20.426 36.6675 19.7076 35.9491 18.8214 35.9491Z" fill="white"/>
<path d="M43.5897 93.152C43.5897 95.719 45.6679 97.8 48.2314 97.8C50.795 97.8 52.873 95.719 52.873 93.152L52.873 4.64807C52.873 2.08103 50.795 -7.62939e-06 48.2314 -7.62939e-06C45.6679 -7.62939e-06 43.5897 2.08103 43.5897 4.64807L43.5897 93.152Z" fill="#A8A8A8"/>
<path d="M41.6413 87.3578H54.8086C58.5853 87.3578 61.647 84.2962 61.647 80.5194L61.647 57.05C61.647 53.2733 58.5853 50.2116 54.8086 50.2116H41.6413C37.8646 50.2116 34.803 53.2733 34.803 57.05V80.5194C34.803 84.2962 37.8646 87.3578 41.6413 87.3578Z" fill="#108240"/>
<path d="M42.8257 78.9149H53.6245C54.5106 78.9149 55.229 78.1966 55.229 77.3104C55.229 76.4242 54.5106 75.7059 53.6245 75.7059H42.8257C41.9396 75.7059 41.2212 76.4242 41.2212 77.3104C41.2212 78.1966 41.9396 78.9149 42.8257 78.9149Z" fill="white"/>
<path d="M42.8257 70.3829H53.6245C54.5106 70.3829 55.229 69.6645 55.229 68.7784C55.229 67.8922 54.5106 67.1738 53.6245 67.1738H42.8257C41.9396 67.1738 41.2212 67.8922 41.2212 68.7784C41.2212 69.6645 41.9396 70.3829 42.8257 70.3829Z" fill="white"/>
<path d="M42.8257 61.8635H53.6245C54.5106 61.8635 55.229 61.1452 55.229 60.2591C55.229 59.3729 54.5106 58.6545 53.6245 58.6545H42.8257C41.9396 58.6545 41.2212 59.3729 41.2212 60.2591C41.2212 61.1452 41.9396 61.8635 42.8257 61.8635Z" fill="white"/>
<path d="M79.0678 93.152C79.0678 95.719 81.146 97.8 83.7095 97.8C86.2731 97.8 88.3511 95.719 88.3511 93.152L88.3511 4.64807C88.3511 2.08103 86.2731 -7.62939e-06 83.7095 -7.62939e-06C81.146 -7.62939e-06 79.0678 2.08103 79.0678 4.64807L79.0678 93.152Z" fill="#A8A8A8"/>
<path d="M77.1194 64.5633H90.2867C94.0635 64.5633 97.1251 61.5017 97.1251 57.7249V34.2555C97.1251 30.4788 94.0635 27.4171 90.2867 27.4171H77.1194C73.3427 27.4171 70.2811 30.4788 70.2811 34.2555V57.7249C70.2811 61.5017 73.3427 64.5633 77.1194 64.5633Z" fill="#FFD500"/>
<path d="M78.3037 56.1203H89.1025C89.9887 56.1203 90.7071 55.402 90.7071 54.5158C90.7071 53.6297 89.9887 52.9113 89.1025 52.9113H78.3037C77.4175 52.9113 76.6993 53.6297 76.6993 54.5158C76.6993 55.402 77.4175 56.1203 78.3037 56.1203Z" fill="white"/>
<path d="M78.3037 47.5883H89.1025C89.9887 47.5883 90.7071 46.87 90.7071 45.9839C90.7071 45.0977 89.9887 44.3793 89.1025 44.3793H78.3037C77.4175 44.3793 76.6993 45.0977 76.6993 45.9839C76.6993 46.87 77.4175 47.5883 78.3037 47.5883Z" fill="white"/>
<path d="M78.3037 39.0691H89.1025C89.9887 39.0691 90.7071 38.3507 90.7071 37.4645C90.7071 36.5784 89.9887 35.86 89.1025 35.86H78.3037C77.4175 35.86 76.6993 36.5784 76.6993 37.4645C76.6993 38.3507 77.4175 39.0691 78.3037 39.0691Z" fill="white"/>
</svg>
