<?xml version="1.0" encoding="utf-8"?>
<!-- Generator: Adobe Illustrator 17.0.0, SVG Export Plug-In . SVG Version: 6.00 Build 0)  -->
<!DOCTYPE svg PUBLIC "-//W3C//DTD SVG 1.1//EN" "http://www.w3.org/Graphics/SVG/1.1/DTD/svg11.dtd">
<svg version="1.1" id="Layer_1" xmlns="http://www.w3.org/2000/svg" xmlns:xlink="http://www.w3.org/1999/xlink" x="0px" y="0px"
	 width="100px" height="100px" viewBox="0 0 100 100" enable-background="new 0 0 100 100" xml:space="preserve">
<path fill="#000099" d="M98.99,53.86c-0.19,2.52-0.58,5.05-1.17,7.55c-0.45,1.87-1.01,3.73-1.69,5.56c-0.24,0.67-0.5,1.33-0.78,1.99
	c-0.52,1.27-1.11,2.53-1.76,3.77c-0.67,1.3-1.4,2.55-2.17,3.76c-0.01,0.01-0.02,0.02-0.02,0.02c-1.75,2.74-3.73,5.25-5.91,7.53
	c-2.54,2.65-5.33,4.96-8.33,6.94c-0.32,0.21-0.64,0.42-0.96,0.61c-3.51,2.21-7.27,3.96-11.19,5.21c-4.82,1.55-9.87,2.35-14.98,2.35
	c-3.16,0-6.35-0.31-9.51-0.95c-3.56-0.7-7.09-1.82-10.53-3.37c-0.86-0.38-1.72-0.8-2.57-1.24c-1.2-0.63-2.37-1.29-3.49-2
	c-0.37-0.23-0.73-0.46-1.09-0.7c-3.02-2.01-5.76-4.31-8.19-6.85c-2.23-2.33-4.21-4.85-5.91-7.53c-0.01-0.01-0.02-0.01-0.01-0.02
	c-1.54-2.4-2.85-4.92-3.94-7.53c-0.27-0.66-0.53-1.32-0.78-1.99c-0.67-1.82-1.22-3.67-1.67-5.56c-0.59-2.48-0.99-5-1.18-7.55
	c-0.2-2.5-0.21-5.03-0.01-7.56c0.02-0.32,0.04-0.64,0.08-0.96c0.09-0.99,0.22-1.99,0.38-2.98c0.19-1.2,0.42-2.39,0.71-3.59
	c0,0,0-0.01,0-0.02c0.33-1.38,0.72-2.76,1.18-4.13c0.1-0.29,0.19-0.57,0.3-0.85c0.06-0.18,0.12-0.36,0.18-0.53
	c0.08-0.21,0.16-0.42,0.25-0.63c0.09-0.28,0.2-0.55,0.31-0.81c0.08-0.2,0.16-0.4,0.25-0.6c0.52-1.26,1.11-2.51,1.75-3.75
	c0.05-0.1,0.1-0.2,0.16-0.29c0.11-0.22,0.23-0.44,0.35-0.65c0.53-0.98,1.08-1.92,1.67-2.84c1.75-2.75,3.74-5.27,5.93-7.55
	c2.5-2.59,5.24-4.88,8.19-6.84c0.37-0.24,0.73-0.48,1.11-0.71c1.94-1.23,3.96-2.31,6.04-3.24c1.09-0.49,2.2-0.93,3.32-1.34
	c0.14-0.06,0.27-0.11,0.41-0.15c2.22-0.79,4.49-1.42,6.8-1.87c3.16-0.64,6.38-0.96,9.62-0.96c0.68,0,1.37,0.01,2.05,0.05
	c4.29,0.18,8.6,0.93,12.82,2.29c2.62,0.83,5.2,1.9,7.72,3.21c1.21,0.63,2.37,1.3,3.5,2.01c0.31,0.19,0.62,0.4,0.93,0.6
	c3.08,2.04,5.87,4.37,8.34,6.95c2.24,2.34,4.22,4.87,5.92,7.55c1.54,2.4,2.85,4.92,3.94,7.53c0.28,0.67,0.54,1.35,0.79,2.04
	c0.66,1.8,1.21,3.64,1.65,5.51c0.01,0.01,0.01,0.01,0,0.02c0.6,2.47,0.99,4.99,1.19,7.53C99.19,48.8,99.19,51.33,98.99,53.86z"/>
<title>portugal-flat</title>
<g>
	<path d="M29.99,5.33v89.5c-0.86-0.38-1.72-0.8-2.57-1.24c-1.2-0.63-2.37-1.29-3.49-2c-0.37-0.23-0.73-0.46-1.09-0.7
		c-3.02-2.01-5.76-4.31-8.19-6.85c-2.23-2.33-4.21-4.85-5.91-7.53c-0.01-0.01-0.02-0.01-0.01-0.02c-1.54-2.4-2.85-4.92-3.94-7.53
		c-0.27-0.66-0.53-1.32-0.78-1.99c-0.67-1.82-1.22-3.67-1.67-5.56c-0.59-2.48-0.99-5-1.18-7.55c-0.2-2.5-0.21-5.03-0.01-7.56
		c0.02-0.32,0.04-0.64,0.08-0.96c0.09-0.99,0.22-1.99,0.38-2.98c0.19-1.2,0.42-2.39,0.71-3.59c0,0,0-0.01,0-0.02
		c0.33-1.38,0.72-2.76,1.18-4.13c0.1-0.29,0.19-0.57,0.3-0.85c0.06-0.18,0.12-0.36,0.18-0.53c0.08-0.21,0.16-0.42,0.25-0.63
		c0.09-0.28,0.2-0.55,0.31-0.81c0.08-0.2,0.16-0.4,0.25-0.6c0.52-1.26,1.11-2.51,1.75-3.75c0.05-0.1,0.1-0.2,0.16-0.29
		c0.11-0.22,0.23-0.44,0.35-0.65c0.53-0.98,1.08-1.92,1.67-2.84c1.75-2.75,3.74-5.27,5.93-7.55c2.5-2.59,5.24-4.88,8.19-6.84
		c0.37-0.24,0.73-0.48,1.11-0.71C25.89,7.34,27.91,6.26,29.99,5.33z"/>
	<path fill="#FFD90C" d="M65.01,3.35V96.8c-4.82,1.55-9.87,2.35-14.98,2.35c-3.16,0-6.35-0.31-9.51-0.95
		c-3.56-0.7-7.09-1.82-10.53-3.37V5.33c1.09-0.49,2.2-0.93,3.32-1.34c0.14-0.06,0.27-0.11,0.41-0.15c2.22-0.79,4.49-1.42,6.8-1.87
		c3.16-0.64,6.38-0.96,9.62-0.96c0.68,0,1.37,0.01,2.05,0.05C56.48,1.24,60.79,1.99,65.01,3.35z"/>
	<path fill="#F31830" d="M98.99,53.86c-0.19,2.52-0.58,5.05-1.17,7.55c-0.45,1.87-1.01,3.73-1.69,5.56
		c-0.24,0.67-0.5,1.33-0.78,1.99c-0.52,1.27-1.11,2.53-1.76,3.77c-0.67,1.3-1.4,2.55-2.17,3.76c-0.01,0.01-0.02,0.02-0.02,0.02
		c-1.75,2.74-3.73,5.25-5.91,7.53c-2.54,2.65-5.33,4.96-8.33,6.94c-0.32,0.21-0.64,0.42-0.96,0.61c-3.51,2.21-7.27,3.96-11.19,5.21
		V3.35c2.62,0.83,5.2,1.9,7.72,3.21c1.21,0.63,2.37,1.3,3.5,2.01c0.31,0.19,0.62,0.4,0.93,0.6c3.08,2.04,5.87,4.37,8.34,6.95
		c2.24,2.34,4.22,4.87,5.92,7.55c1.54,2.4,2.85,4.92,3.94,7.53c0.28,0.67,0.54,1.35,0.79,2.04c0.66,1.8,1.21,3.64,1.65,5.51
		c0.01,0.01,0.01,0.01,0,0.02c0.6,2.47,0.99,4.99,1.19,7.53C99.19,48.8,99.19,51.33,98.99,53.86z"/>
</g>
</svg>
