<?xml version="1.0" encoding="utf-8"?>
<!-- Generator: Adobe Illustrator 17.0.0, SVG Export Plug-In . SVG Version: 6.00 Build 0)  -->
<!DOCTYPE svg PUBLIC "-//W3C//DTD SVG 1.1//EN" "http://www.w3.org/Graphics/SVG/1.1/DTD/svg11.dtd">
<svg version="1.1" id="Layer_1" xmlns="http://www.w3.org/2000/svg" xmlns:xlink="http://www.w3.org/1999/xlink" x="0px" y="0px"
	 width="100px" height="100px" viewBox="0 0 100 100" enable-background="new 0 0 100 100" xml:space="preserve">
<path fill="#229E45" d="M72.729,6.563C96.761,19.076,106.1,48.702,93.587,72.734s-42.139,33.371-66.171,20.858
	C3.394,81.085-5.949,51.477,6.544,27.448C19.055,3.406,48.685-5.944,72.729,6.563L72.729,6.563L72.729,6.563z"/>
<path display="none" fill="#FFFFFF" d="M69.924,67.028c-3.938,4.269-9.172,7.124-14.894,8.124l-2.321,10.464l-6.77-1.509
	l1.934-8.723c-2.333-0.243-4.622-0.796-6.808-1.644l-1.934,8.839l-6.77-1.509l2.399-10.85c-11.553-8.791-13.792-25.283-5.001-36.836
	c3.778-4.965,9.198-8.424,15.292-9.759l2.398-10.851l6.77,1.509l-1.934,8.839c2.341,0.156,4.65,0.625,6.867,1.393l1.934-8.723
	l6.77,1.509l-2.321,10.464c2.858,1.988,5.291,4.526,7.157,7.466c1.254,1.926,2.237,4.015,2.921,6.209l-10.89,3.443
	c-0.399-1.24-0.944-2.429-1.625-3.54c-4.432-6.93-13.642-8.955-20.571-4.523c-6.93,4.432-8.955,13.642-4.523,20.571
	c4.432,6.93,13.642,8.955,20.571,4.523c0.005-0.003,0.011-0.007,0.016-0.01c1.092-0.713,2.093-1.557,2.979-2.514l8.395,7.737l0,0
	L69.924,67.028z"/>
<g id="g918">
	<path id="path554" fill="#F8E509" d="M50.176,79.422l45.735-29.684L49.902,19.976L4.015,49.81L50.176,79.422z"/>
	<path id="path557" fill="#2B49A3" d="M70.103,49.701c0.109-10.668-8.465-19.404-19.149-19.513S31.519,38.639,31.41,49.307
		c-0.001,0.131-0.001,0.263,0,0.394c-0.109,10.668,8.465,19.404,19.149,19.513c10.685,0.109,19.435-8.451,19.544-19.119
		C70.104,49.964,70.104,49.832,70.103,49.701H50.756H70.103z"/>
	<polygon id="polygon559" fill="#FFFFEF" points="44.395,61.271 43.797,60.926 43.176,61.233 43.315,60.543 42.836,60.038 
		43.521,59.957 43.843,59.338 44.131,59.979 44.807,60.101 44.3,60.576 	"/>
	<polygon id="polygon560" fill="#FFFFEF" points="57.362,64.554 56.764,64.209 56.143,64.517 56.282,63.827 55.802,63.321 
		56.488,63.241 56.81,62.622 57.097,63.262 57.774,63.385 57.267,63.86 	"/>
	<polygon id="polygon561" fill="#FFFFEF" points="51.776,59.311 51.26,59.013 50.723,59.278 50.843,58.682 50.429,58.245 
		51.022,58.176 51.3,57.641 51.548,58.194 52.132,58.3 51.694,58.711 	"/>
	<polygon id="polygon562" fill="#FFFFEF" points="64.869,57.424 64.362,57.131 63.835,57.391 63.953,56.806 63.546,56.377 
		64.128,56.309 64.401,55.784 64.645,56.327 65.218,56.431 64.788,56.834 	"/>
	<polygon id="polygon563" fill="#FFFFEF" points="51.536,53.498 50.938,53.153 50.317,53.46 50.456,52.77 49.977,52.265 
		50.663,52.184 50.985,51.566 51.272,52.206 51.948,52.329 51.441,52.803 	"/>
	<polygon id="polygon564" fill="#FFFFEF" points="35.571,47.504 34.974,47.159 34.353,47.466 34.492,46.776 34.012,46.271 
		34.698,46.19 35.02,45.572 35.307,46.212 35.984,46.335 35.476,46.809 	"/>
	<polygon id="polygon565" fill="#FFFFEF" points="37.491,55.477 36.893,55.132 36.272,55.439 36.411,54.749 35.931,54.243 
		36.617,54.163 36.939,53.544 37.226,54.184 37.903,54.307 37.396,54.782 	"/>
	<polygon id="polygon566" fill="#FFFFEF" points="57.414,44.568 56.886,44.264 56.338,44.535 56.46,43.925 56.037,43.479 
		56.643,43.408 56.927,42.861 57.181,43.427 57.778,43.535 57.33,43.955 	"/>
	<polygon id="polygon567" fill="#FFFFEF" points="56.319,49.756 55.903,49.516 55.471,49.73 55.568,49.25 55.234,48.898 
		55.711,48.842 55.935,48.411 56.135,48.857 56.606,48.942 56.253,49.273 	"/>
	<polygon id="polygon568" fill="#FFFFEF" points="34.682,56.921 34.283,56.69 33.869,56.896 33.961,56.435 33.641,56.097 
		34.099,56.044 34.314,55.63 34.506,56.058 34.957,56.14 34.619,56.457 	"/>
	<polygon id="polygon569" fill="#FFFFEF" points="64.979,58.758 64.654,58.586 64.316,58.739 64.392,58.394 64.131,58.142 
		64.504,58.102 64.679,57.793 64.836,58.112 65.204,58.174 64.928,58.411 	"/>
	<polygon id="polygon570" fill="#FFFFEF" points="34.682,56.921 34.283,56.69 33.869,56.896 33.961,56.435 33.641,56.097 
		34.099,56.044 34.314,55.63 34.506,56.058 34.957,56.14 34.619,56.457 	"/>
	<polygon id="polygon571" fill="#FFFFEF" points="34.682,56.921 34.283,56.69 33.869,56.896 33.961,56.435 33.641,56.097 
		34.099,56.044 34.314,55.63 34.506,56.058 34.957,56.14 34.619,56.457 	"/>
	<polygon id="polygon572" fill="#FFFFEF" points="41.035,56.921 40.636,56.69 40.222,56.896 40.315,56.435 39.994,56.097 
		40.452,56.044 40.667,55.63 40.859,56.058 41.311,56.14 40.972,56.457 	"/>
	<polygon id="polygon573" fill="#FFFFEF" points="40.246,59.034 39.847,58.804 39.432,59.009 39.525,58.549 39.205,58.211 
		39.663,58.157 39.878,57.744 40.07,58.172 40.521,58.254 40.183,58.571 	"/>
	<polygon id="polygon574" fill="#FFFFEF" points="53.438,55.186 53.039,54.956 52.624,55.161 52.717,54.7 52.397,54.362 
		52.855,54.309 53.07,53.896 53.261,54.323 53.713,54.405 53.374,54.722 	"/>
	<polygon id="polygon575" fill="#FFFFEF" points="49.567,55.185 49.168,54.955 48.753,55.16 48.846,54.699 48.526,54.361 
		48.984,54.308 49.199,53.895 49.39,54.322 49.842,54.404 49.503,54.721 	"/>
	<polygon id="polygon576" fill="#FFFFEF" points="39.068,53.836 38.818,53.691 38.558,53.82 38.616,53.531 38.415,53.32 
		38.702,53.286 38.837,53.027 38.957,53.295 39.24,53.346 39.028,53.545 	"/>
	<polygon id="polygon577" fill="#FFFFEF" points="64.488,60.43 64.089,60.2 63.674,60.405 63.767,59.944 63.447,59.607 
		63.905,59.553 64.12,59.14 64.311,59.567 64.763,59.649 64.424,59.967 	"/>
	<polygon id="polygon578" fill="#FFFFEF" points="61.265,60.853 60.935,60.661 60.591,60.832 60.668,60.449 60.403,60.169 
		60.782,60.124 60.96,59.781 61.119,60.136 61.493,60.204 61.213,60.467 	"/>
	<polygon id="polygon579" fill="#FFFFEF" points="62.785,60.816 62.477,60.638 62.157,60.796 62.229,60.441 61.982,60.18 
		62.335,60.139 62.501,59.819 62.649,60.15 62.997,60.213 62.736,60.458 	"/>
	<polygon id="polygon580" fill="#FFFFEF" points="67.152,57.004 66.856,56.833 66.548,56.985 66.616,56.643 66.379,56.392 
		66.719,56.352 66.879,56.045 67.021,56.363 67.357,56.423 67.105,56.659 	"/>
	<polygon id="polygon581" fill="#FFFFEF" points="61.226,63.004 60.838,62.792 60.436,62.98 60.526,62.558 60.216,62.248 
		60.66,62.199 60.868,61.819 61.055,62.212 61.493,62.287 61.164,62.578 	"/>
	<polygon id="polygon582" fill="#FFFFEF" points="61.249,64.739 60.895,64.528 60.528,64.716 60.611,64.294 60.327,63.984 
		60.733,63.934 60.923,63.555 61.093,63.947 61.492,64.023 61.193,64.314 	"/>
	<polygon id="polygon583" fill="#FFFFEF" points="58.321,60.814 58.025,60.643 57.717,60.796 57.786,60.453 57.548,60.202 
		57.888,60.163 58.048,59.856 58.19,60.173 58.526,60.234 58.274,60.47 	"/>
	<polygon id="polygon584" fill="#FFFFEF" points="55.577,60.815 55.28,60.644 54.972,60.797 55.041,60.454 54.803,60.203 
		55.143,60.164 55.303,59.857 55.446,60.174 55.781,60.235 55.53,60.471 	"/>
	<polygon id="polygon585" fill="#FFFFEF" points="50.916,56.74 50.62,56.568 50.312,56.721 50.381,56.378 50.143,56.128 
		50.483,56.088 50.643,55.781 50.785,56.098 51.121,56.159 50.869,56.395 	"/>
	<polygon id="polygon586" fill="#FFFFEF" points="51.435,65.046 51.184,64.901 50.923,65.03 50.981,64.74 50.78,64.527 
		51.068,64.493 51.203,64.233 51.324,64.502 51.608,64.554 51.395,64.754 	"/>
	<polygon id="polygon587" fill="#FFFFEF" points="44.395,51.612 43.797,51.267 43.176,51.574 43.315,50.884 42.836,50.378 
		43.522,50.298 43.844,49.679 44.131,50.319 44.807,50.442 44.3,50.917 	"/>
	<path id="path726" fill="#FFFFFF" d="M68.83,56.65c0.294-0.772,0.675-1.934,0.878-3.001C59.431,44.621,47.976,39.997,33.499,40.95
		c-0.52,0.994-0.934,2.035-1.284,3.161C49.367,42.476,61.938,50.07,68.83,56.65L68.83,56.65z"/>
	<path id="path790" fill="#309E3A" d="M64.212,51.575l0.365,0.199c-0.056,0.13-0.071,0.245-0.046,0.341
		c0.025,0.099,0.094,0.183,0.203,0.257c0.112,0.076,0.216,0.112,0.305,0.102c0.091-0.008,0.16-0.046,0.203-0.11
		c0.028-0.043,0.038-0.087,0.033-0.132c-0.003-0.046-0.028-0.099-0.074-0.163c-0.033-0.043-0.109-0.132-0.233-0.27
		c-0.157-0.176-0.251-0.324-0.282-0.446c-0.043-0.168-0.018-0.324,0.079-0.464c0.058-0.089,0.142-0.155,0.244-0.199
		c0.104-0.043,0.218-0.053,0.34-0.031c0.122,0.023,0.251,0.082,0.386,0.173c0.221,0.15,0.355,0.311,0.398,0.484
		c0.048,0.171,0.018,0.341-0.084,0.507l-0.365-0.227c0.046-0.099,0.056-0.186,0.033-0.26c-0.023-0.074-0.084-0.145-0.183-0.211
		c-0.104-0.071-0.198-0.104-0.284-0.102c-0.058,0.003-0.099,0.025-0.132,0.071c-0.028,0.043-0.033,0.089-0.018,0.143
		c0.018,0.069,0.102,0.181,0.246,0.339c0.145,0.158,0.244,0.288,0.294,0.387c0.056,0.099,0.079,0.204,0.074,0.311
		c-0.003,0.107-0.043,0.217-0.117,0.329c-0.069,0.099-0.16,0.176-0.277,0.227c-0.114,0.048-0.236,0.061-0.368,0.036
		c-0.132-0.028-0.274-0.092-0.426-0.196c-0.221-0.15-0.358-0.318-0.406-0.502C64.07,51.985,64.1,51.787,64.212,51.575L64.212,51.575
		z"/>
	<path id="path791" fill="#309E3A" d="M62.471,50.431l0.373,0.186c-0.051,0.13-0.063,0.247-0.033,0.341
		c0.033,0.097,0.102,0.181,0.213,0.247c0.117,0.074,0.221,0.104,0.31,0.092c0.091-0.013,0.157-0.053,0.198-0.12
		c0.025-0.043,0.036-0.087,0.028-0.132c-0.005-0.046-0.033-0.099-0.081-0.16c-0.033-0.041-0.114-0.127-0.241-0.26
		c-0.165-0.168-0.266-0.313-0.302-0.433c-0.048-0.168-0.028-0.324,0.058-0.466c0.058-0.092,0.137-0.163,0.239-0.209
		c0.102-0.048,0.213-0.064,0.337-0.046c0.124,0.02,0.256,0.074,0.393,0.158c0.226,0.14,0.365,0.298,0.419,0.466
		c0.053,0.171,0.03,0.341-0.066,0.512l-0.373-0.211c0.041-0.102,0.048-0.189,0.023-0.262c-0.025-0.071-0.089-0.14-0.193-0.204
		c-0.104-0.066-0.2-0.094-0.287-0.089c-0.056,0.005-0.099,0.031-0.127,0.076c-0.028,0.043-0.033,0.092-0.015,0.143
		c0.023,0.069,0.109,0.178,0.259,0.329c0.152,0.153,0.256,0.278,0.312,0.374c0.058,0.097,0.086,0.201,0.086,0.308
		c0,0.107-0.036,0.217-0.104,0.334c-0.066,0.102-0.155,0.181-0.266,0.237c-0.114,0.053-0.236,0.071-0.368,0.051
		c-0.132-0.023-0.277-0.082-0.431-0.178c-0.228-0.143-0.37-0.303-0.429-0.484C62.347,50.847,62.37,50.648,62.471,50.431
		L62.471,50.431z"/>
	<path id="path792" fill="#309E3A" d="M60.314,49.853l1.104-1.814l1.342,0.82l-0.188,0.308l-0.974-0.599l-0.246,0.403l0.908,0.558
		l-0.185,0.306l-0.908-0.558l-0.299,0.494l1.01,0.619l-0.188,0.306L60.314,49.853L60.314,49.853z"/>
	<path id="path795" fill="#309E3A" d="M57.178,47.278l0.162-0.321l0.82,0.425l-0.386,0.752c-0.119,0.038-0.272,0.046-0.454,0.025
		c-0.18-0.018-0.348-0.069-0.502-0.148c-0.195-0.102-0.348-0.232-0.452-0.39c-0.102-0.16-0.152-0.336-0.147-0.527
		c0.005-0.194,0.056-0.38,0.147-0.56c0.102-0.199,0.233-0.352,0.393-0.461c0.16-0.112,0.343-0.166,0.543-0.166
		c0.152,0,0.317,0.046,0.497,0.138c0.236,0.122,0.393,0.265,0.472,0.433c0.081,0.166,0.096,0.344,0.046,0.538l-0.414-0.125
		c0.02-0.104,0.008-0.204-0.038-0.296c-0.046-0.092-0.122-0.166-0.231-0.224c-0.167-0.084-0.327-0.102-0.48-0.046
		c-0.152,0.056-0.282,0.186-0.388,0.395c-0.114,0.224-0.152,0.418-0.112,0.583c0.043,0.163,0.145,0.285,0.307,0.369
		c0.079,0.041,0.165,0.066,0.261,0.076s0.185,0.008,0.266-0.008l0.122-0.239L57.178,47.278L57.178,47.278z"/>
	<path id="path804" fill="#309E3A" d="M43.485,43.882l0.31-2.104l0.634,0.094l0.17,1.49l0.584-1.378l0.637,0.092l-0.31,2.104
		l-0.393-0.056l0.244-1.658L44.7,44.06l-0.406-0.059l-0.173-1.717l-0.244,1.656L43.485,43.882L43.485,43.882z"/>
	<path id="path805" fill="#309E3A" d="M41.346,43.632l0.198-2.117l1.563,0.148l-0.033,0.359l-1.137-0.107l-0.046,0.469l1.061,0.099
		l-0.033,0.357l-1.061-0.099l-0.053,0.576l1.177,0.112l-0.033,0.357L41.346,43.632L41.346,43.632z"/>
	<g id="g812" transform="matrix(2.0303 -1.2996 1.2945 2.0383 -138.14 186.16)">
		<path id="path810" fill="#309E3A" d="M92.364-11.683c0.05-0.075,0.103-0.129,0.16-0.165c0.042-0.026,0.087-0.044,0.135-0.054
			c0.049-0.009,0.095-0.01,0.139-0.001c0.058,0.011,0.117,0.037,0.176,0.077c0.108,0.073,0.171,0.164,0.189,0.274
			c0.02,0.111-0.01,0.225-0.09,0.343c-0.08,0.118-0.174,0.188-0.284,0.212c-0.109,0.023-0.216-0.002-0.324-0.075
			c-0.108-0.073-0.172-0.164-0.192-0.273C92.257-11.455,92.287-11.568,92.364-11.683L92.364-11.683z"/>
		<path id="path811" fill="#F7FFFF" d="M92.52-11.586c-0.056,0.083-0.08,0.158-0.071,0.226s0.044,0.123,0.102,0.162
			c0.058,0.04,0.121,0.051,0.186,0.035c0.067-0.017,0.129-0.068,0.186-0.153c0.056-0.083,0.08-0.158,0.071-0.224
			c-0.008-0.066-0.043-0.119-0.103-0.16c-0.061-0.041-0.124-0.053-0.189-0.037S92.576-11.67,92.52-11.586L92.52-11.586z"/>
	</g>
	<g id="g815" transform="matrix(2.01 -1.3311 1.3259 2.0178 -138.53 194.41)">
		<path id="path808" fill="#309E3A" d="M95.168-12.055l0.494-0.728l0.309,0.209c0.078,0.053,0.13,0.097,0.156,0.135
			c0.027,0.037,0.04,0.079,0.038,0.127c-0.001,0.048-0.016,0.093-0.046,0.136c-0.037,0.054-0.083,0.089-0.139,0.102
			c-0.056,0.014-0.12,0.004-0.189-0.03c0.019,0.04,0.032,0.078,0.037,0.114c0.006,0.037,0.007,0.095,0.004,0.175l-0.007,0.203
			l-0.176-0.119l0.001-0.23c0.001-0.083-0.001-0.135-0.005-0.16s-0.012-0.044-0.024-0.06c-0.012-0.015-0.035-0.036-0.069-0.058
			l-0.03-0.02l-0.206,0.304L95.168-12.055L95.168-12.055z"/>
		<path id="path809" fill="#FFFFFF" d="M95.601-12.375l0.109,0.074c0.071,0.047,0.117,0.075,0.138,0.08
			c0.022,0.006,0.042,0.005,0.062-0.003c0.019-0.007,0.037-0.023,0.051-0.044c0.016-0.025,0.024-0.049,0.02-0.073
			c-0.003-0.024-0.014-0.046-0.036-0.066c-0.011-0.01-0.046-0.035-0.105-0.076l-0.115-0.078L95.601-12.375z"/>
	</g>
	<g id="g818" transform="matrix(2.0601 -1.2515 1.2466 2.0682 -131.84 173.33)">
		<path id="path806" fill="#309E3A" d="M89.028-9.924l0.269,0.181c0.06,0.041,0.103,0.077,0.129,0.108
			c0.034,0.042,0.056,0.089,0.065,0.142c0.009,0.052,0.005,0.108-0.01,0.165c-0.015,0.057-0.046,0.12-0.092,0.188
			C89.348-9.08,89.305-9.033,89.261-9c-0.054,0.041-0.109,0.067-0.165,0.076c-0.042,0.008-0.09,0.004-0.142-0.011
			c-0.04-0.011-0.087-0.036-0.141-0.073l-0.277-0.187L89.028-9.924z"/>
		<path id="path807" fill="#FFFFFF" d="M89.093-9.702L88.766-9.22l0.11,0.075c0.041,0.028,0.073,0.046,0.093,0.053
			c0.029,0.01,0.055,0.013,0.08,0.009c0.026-0.003,0.054-0.017,0.086-0.043c0.033-0.027,0.068-0.068,0.105-0.124
			c0.038-0.056,0.062-0.103,0.073-0.14c0.011-0.037,0.013-0.07,0.006-0.098c-0.006-0.029-0.021-0.055-0.045-0.08
			c-0.016-0.019-0.055-0.049-0.116-0.089L89.093-9.702z"/>
	</g>
	<g id="g824" transform="matrix(2.2543 -.84957 .84625 2.2631 -87.998 66.936)">
		<path id="path800" fill="#309E3A" d="M56.664,11.66l0.493-0.728l0.237,0.16c0.089,0.06,0.145,0.103,0.168,0.129
			c0.034,0.039,0.053,0.087,0.056,0.142c0.003,0.055-0.014,0.113-0.054,0.17c-0.03,0.045-0.063,0.077-0.1,0.097
			c-0.037,0.019-0.074,0.029-0.111,0.03c-0.037,0-0.07-0.005-0.099-0.017c-0.04-0.016-0.093-0.047-0.16-0.092l-0.096-0.066
			l-0.185,0.274L56.664,11.66L56.664,11.66z"/>
		<path id="path801" fill="#FFFFFF" d="M57.221,11.154l-0.14,0.207l0.081,0.054c0.058,0.04,0.099,0.062,0.124,0.068
			c0.025,0.006,0.048,0.004,0.07-0.005c0.023-0.008,0.041-0.024,0.055-0.045c0.018-0.027,0.025-0.053,0.022-0.081
			c-0.004-0.028-0.016-0.052-0.038-0.073c-0.015-0.015-0.049-0.041-0.102-0.077L57.221,11.154z"/>
	</g>
	<g id="g827" transform="matrix(2.3294 -.61208 .60969 2.3386 -56.96 4.1977)">
		<path id="path798" fill="#309E3A" d="M39.251,28.051l0.493-0.728l0.309,0.209c0.078,0.053,0.13,0.097,0.157,0.135
			c0.027,0.037,0.039,0.079,0.038,0.127c-0.002,0.047-0.017,0.093-0.046,0.136c-0.037,0.054-0.084,0.089-0.14,0.102
			c-0.056,0.014-0.119,0.004-0.189-0.03c0.019,0.04,0.032,0.078,0.037,0.114c0.006,0.037,0.007,0.095,0.004,0.175l-0.007,0.203
			l-0.176-0.119l0.001-0.23c0.001-0.083-0.001-0.135-0.005-0.16c-0.004-0.025-0.011-0.044-0.024-0.06
			c-0.011-0.016-0.035-0.036-0.069-0.058l-0.03-0.02l-0.206,0.304L39.251,28.051L39.251,28.051z"/>
		<path id="path799" fill="#FFFFFF" d="M39.682,27.731l0.109,0.074c0.071,0.047,0.117,0.075,0.138,0.08
			c0.022,0.006,0.043,0.005,0.062-0.003c0.019-0.007,0.037-0.023,0.052-0.044c0.016-0.025,0.023-0.049,0.019-0.073
			c-0.002-0.024-0.014-0.046-0.035-0.067c-0.011-0.009-0.047-0.034-0.107-0.075l-0.115-0.078L39.682,27.731L39.682,27.731z"/>
	</g>
	<g id="g830" transform="matrix(2.3055 -.69754 .69482 2.3145 -66.451 29.668)">
		<path id="path796" fill="#309E3A" d="M46.006,20.79c0.051-0.074,0.104-0.129,0.16-0.164c0.042-0.026,0.087-0.044,0.135-0.054
			c0.049-0.01,0.095-0.01,0.139-0.002c0.058,0.011,0.117,0.038,0.176,0.078c0.108,0.073,0.171,0.164,0.19,0.273
			c0.019,0.111-0.011,0.225-0.091,0.344c-0.08,0.118-0.174,0.188-0.283,0.211c-0.11,0.024-0.217-0.001-0.324-0.074
			c-0.109-0.074-0.173-0.165-0.192-0.273C45.898,21.019,45.928,20.907,46.006,20.79L46.006,20.79z"/>
		<path id="path797" fill="#FFFFFF" d="M46.162,20.888c-0.056,0.082-0.08,0.158-0.07,0.226c0.009,0.068,0.043,0.122,0.101,0.162
			s0.121,0.051,0.187,0.034c0.066-0.016,0.128-0.068,0.185-0.152c0.056-0.084,0.08-0.158,0.071-0.224
			c-0.008-0.066-0.043-0.119-0.103-0.16c-0.06-0.041-0.124-0.053-0.189-0.037C46.279,20.754,46.218,20.804,46.162,20.888
			L46.162,20.888z"/>
	</g>
	<g id="g833" transform="matrix(2.3913 -.28318 .28207 2.4007 .41501 -78.357)">
		<path id="path793" fill="#309E3A" d="M17.679,54.992l0.493-0.729l0.309,0.21c0.078,0.052,0.13,0.097,0.157,0.134
			c0.027,0.037,0.039,0.08,0.038,0.127c-0.002,0.048-0.017,0.093-0.046,0.137c-0.037,0.054-0.084,0.088-0.14,0.102
			c-0.056,0.014-0.119,0.004-0.189-0.031c0.019,0.041,0.032,0.079,0.037,0.115c0.006,0.037,0.007,0.094,0.004,0.175l-0.007,0.202
			l-0.176-0.119l0.001-0.23c0.001-0.082-0.001-0.135-0.005-0.159c-0.004-0.025-0.011-0.045-0.024-0.06
			c-0.011-0.016-0.035-0.036-0.069-0.058l-0.03-0.02l-0.206,0.304L17.679,54.992z"/>
		<path id="path794" fill="#FFFFFF" d="M18.11,54.671l0.109,0.074c0.071,0.048,0.117,0.075,0.138,0.081
			c0.022,0.006,0.043,0.005,0.062-0.003c0.019-0.008,0.037-0.023,0.052-0.045c0.016-0.024,0.023-0.048,0.019-0.072
			c-0.002-0.025-0.014-0.046-0.035-0.067c-0.011-0.009-0.047-0.035-0.107-0.075l-0.115-0.078L18.11,54.671L18.11,54.671z"/>
	</g>
	<g id="g836" transform="matrix(2.4079 0 0 2.4173 62.558 -144.38)">
		<path id="path788" fill="#309E3A" d="M1.455,81.462c0.05-0.075,0.103-0.129,0.16-0.165c0.042-0.026,0.087-0.044,0.135-0.054
			c0.049-0.01,0.095-0.01,0.139-0.002c0.058,0.012,0.117,0.038,0.176,0.078c0.108,0.073,0.171,0.164,0.19,0.274
			c0.019,0.11-0.011,0.224-0.091,0.343c-0.08,0.118-0.174,0.188-0.283,0.212c-0.11,0.023-0.217-0.002-0.325-0.075
			S1.386,81.908,1.366,81.8C1.348,81.69,1.378,81.578,1.455,81.462L1.455,81.462z"/>
		<path id="path789" fill="#FFFFFF" d="M1.611,81.559c-0.056,0.082-0.08,0.158-0.071,0.226c0.01,0.069,0.044,0.122,0.102,0.162
			c0.058,0.04,0.121,0.051,0.186,0.035c0.067-0.017,0.129-0.068,0.186-0.153c0.056-0.083,0.08-0.158,0.071-0.224
			c-0.009-0.066-0.043-0.119-0.103-0.16c-0.061-0.041-0.124-0.053-0.189-0.037C1.728,81.425,1.667,81.475,1.611,81.559z"/>
	</g>
	<path id="path872" fill="#309E3A" d="M47.207,44.317l0.34-1.493l1.104,0.255l-0.058,0.252l-0.802-0.186l-0.076,0.331l0.746,0.173
		l-0.058,0.25l-0.746-0.171l-0.091,0.405l0.83,0.194l-0.058,0.25L47.207,44.317L47.207,44.317z"/>
</g>
</svg>
