<?xml version="1.0" encoding="utf-8"?>
<!-- Generator: Adobe Illustrator 17.0.0, SVG Export Plug-In . SVG Version: 6.00 Build 0)  -->
<!DOCTYPE svg PUBLIC "-//W3C//DTD SVG 1.1//EN" "http://www.w3.org/Graphics/SVG/1.1/DTD/svg11.dtd">
<svg version="1.1" id="Layer_1" xmlns="http://www.w3.org/2000/svg" xmlns:xlink="http://www.w3.org/1999/xlink" x="0px" y="0px"
	 width="100px" height="100px" viewBox="0 0 100 100" enable-background="new 0 0 100 100" xml:space="preserve">
<path fill="#DB3D3A" d="M72.729,6.563C96.761,19.076,106.1,48.702,93.587,72.734s-42.139,33.371-66.171,20.858
	C3.394,81.085-5.949,51.477,6.544,27.448C19.055,3.406,48.685-5.944,72.729,6.563L72.729,6.563L72.729,6.563z"/>
<path display="none" fill="#FFFFFF" d="M69.924,67.028c-3.938,4.269-9.172,7.124-14.894,8.124l-2.321,10.464l-6.77-1.509
	l1.934-8.723c-2.333-0.243-4.622-0.796-6.808-1.644l-1.934,8.839l-6.77-1.509L34.76,70.22c-11.553-8.791-13.792-25.283-5.001-36.836
	c3.778-4.965,9.198-8.424,15.292-9.759l2.398-10.851l6.77,1.509l-1.934,8.839c2.341,0.156,4.65,0.625,6.867,1.393l1.934-8.723
	l6.77,1.509l-2.321,10.464c2.858,1.988,5.291,4.526,7.157,7.466c1.254,1.926,2.237,4.015,2.921,6.209l-10.89,3.443
	c-0.399-1.24-0.944-2.429-1.625-3.54c-4.432-6.93-13.642-8.955-20.571-4.523c-6.93,4.432-8.955,13.642-4.523,20.571
	c4.432,6.93,13.642,8.955,20.571,4.523c0.005-0.003,0.011-0.007,0.016-0.01c1.092-0.713,2.093-1.557,2.979-2.514l8.395,7.737l0,0
	L69.924,67.028z"/>
<path display="none" fill="#FFFFFF" stroke="#F29832" stroke-width="5" stroke-miterlimit="10" d="M38.572,75.607
	c-0.636-0.154-1.263-0.341-1.879-0.563l-3.283-1.056l-2.02-0.7c-0.65-0.235-1.304-0.482-1.944-0.744
	c-0.64-0.262-1.304-0.55-1.861-0.803l-0.755-0.349l2.211-13.004l3.627,0.928l2.673,0.619l2.81,0.608l2.855,0.576l2.778,0.529
	l2.595,0.441c0.786,0.134,1.474,0.251,2.081,0.275c0.563,0.049,1.128,0.06,1.692,0.033c0.411-0.017,0.819-0.083,1.216-0.195
	c0.276-0.075,0.537-0.195,0.773-0.355c0.181-0.129,0.331-0.297,0.44-0.491c0.14-0.258,0.234-0.539,0.277-0.83l0.143-0.841
	c0.148-0.57-0.004-1.176-0.406-1.608c-0.239-0.242-0.517-0.442-0.821-0.592c-0.34-0.163-0.702-0.276-1.074-0.335l-3.794-0.645
	c-2.572-0.4-5.075-1.159-7.435-2.254c-1.996-0.918-3.772-2.254-5.206-3.918c-1.394-1.71-2.302-3.764-2.627-5.946
	c-0.386-2.625-0.328-5.297,0.173-7.903l0.401-2.359c0.377-2.489,1.224-4.883,2.495-7.055c1.164-1.932,2.799-3.536,4.753-4.663
	c1.325-0.801,2.747-1.429,4.232-1.866c1.411-0.378,2.868-0.559,4.329-0.537l0.983-5.779l11.998,2.04l-0.942,5.537
	c1.806,0.474,3.584,1.046,5.326,1.715l0.982,0.348c0.816,0.292,1.625,0.593,2.425,0.91c0.8,0.317,1.473,0.584,2.159,0.876
	l0.78,0.336L69.519,39.01l-1.138-0.295c-1.127-0.293-2.272-0.579-3.426-0.848c-1.256-0.298-2.543-0.585-3.857-0.871
	c-1.315-0.286-2.677-0.563-3.876-0.795c-1.1-0.187-2.286-0.428-3.535-0.641c-0.654-0.111-1.259-0.214-1.82-0.242
	c-0.537-0.053-1.077-0.077-1.617-0.071c-0.391,0.004-0.781,0.057-1.159,0.159c-0.294,0.079-0.572,0.208-0.823,0.381
	c-0.21,0.153-0.381,0.352-0.501,0.582c-0.173,0.336-0.291,0.699-0.346,1.073l-0.122,0.715c-0.079,0.396-0.079,0.803,0,1.199
	c0.073,0.305,0.219,0.588,0.425,0.825c0.269,0.292,0.599,0.522,0.966,0.673c0.562,0.238,1.151,0.405,1.754,0.496l4.729,0.804
	c1.623,0.264,3.212,0.709,4.736,1.326c1.362,0.551,2.636,1.299,3.781,2.221c2.105,1.684,3.664,3.953,4.481,6.521
	c0.406,1.286,0.647,2.617,0.718,3.964c0.071,1.418-0.015,2.84-0.257,4.239L68.23,62.79c-0.341,2.095-0.913,4.146-1.707,6.114
	c-0.637,1.623-1.56,3.117-2.725,4.413c-1.051,1.141-2.304,2.079-3.695,2.766c-1.424,0.686-2.957,1.121-4.529,1.284l-0.42,0.042
	c-1.51,0.215-3.038,0.284-4.562,0.209l-1.061,6.241l-12.014-2.043L38.572,75.607z"/>
<g display="none">
	<path display="inline" fill="#FFFFFF" d="M79.491,71.557v3.922c0,0.541-0.439,0.981-0.981,0.981H21.635
		c-0.541,0-0.981-0.439-0.981-0.981v-3.922c0-0.541,0.439-0.981,0.981-0.981H78.51C79.051,70.576,79.49,71.016,79.491,71.557
		L79.491,71.557z M78.911,30.457L50.474,17.709c-0.256-0.114-0.547-0.114-0.802,0L21.234,30.457c-0.366,0.166-0.58,0.56-0.58,0.895
		v3.922c0,0.541,0.439,0.981,0.981,0.981H78.51c0.541,0,0.981-0.439,0.981-0.981v-3.922C79.49,31.022,79.28,30.626,78.911,30.457
		L78.911,30.457z M27.519,63.712V43.12h-0.981c-0.541,0-0.981-0.439-0.981-0.981v-1.961h-1.961c-0.541,0-0.981-0.439-0.981-0.981
		v-1.961h54.914v1.961c0,0.541-0.439,0.981-0.981,0.981h-1.961v1.961c0,0.541-0.439,0.981-0.981,0.981h-0.981v20.593h0.981
		c0.541,0,0.981,0.439,0.981,0.981v1.961h1.961c0.541,0,0.981,0.439,0.981,0.981v1.961l-54.914-0.001v-1.961
		c0-0.541,0.439-0.981,0.981-0.981h1.961v-1.961c0-0.541,0.439-0.981,0.981-0.981L27.519,63.712z M55.956,40.178v1.961
		c0,0.541-0.439,0.981-0.981,0.981h-0.981v20.593h0.981c0.541,0,0.981,0.439,0.981,0.981v1.961h6.864v-1.961
		c0-0.541,0.439-0.981,0.981-0.981h0.981L64.782,43.12h-0.981c-0.541,0-0.981-0.439-0.981-0.981v-1.961H55.956z M37.325,40.178
		v1.961c0,0.541-0.439,0.981-0.981,0.981h-0.981v20.593h0.981c0.541,0,0.981,0.439,0.981,0.981v1.961h6.864v-1.961
		c0-0.541,0.439-0.981,0.981-0.981h0.981V43.12H45.17c-0.541,0-0.981-0.439-0.981-0.981v-1.961H37.325z"/>
</g>
<g display="none">
	<path display="inline" fill="none" stroke="#FFFFFF" stroke-width="4" stroke-miterlimit="10" d="M71.326,37.687
		c-0.012,0.111-0.047,0.217-0.1,0.322c-0.059,0.246-0.088,0.527-0.088,0.838c0,0.029,0.006,0.059,0.006,0.088v20.357
		c0.258,0.639,0.574,1.119,0.955,1.418c0.352,0.281,0.785,0.416,1.313,0.393c0.035-0.006,0.076-0.006,0.111-0.006h5.836l0,0
		c0.012,0,0.029,0,0.047,0c0.908,0.047,1.565-0.199,2.004-0.703c0.498-0.574,0.785-1.494,0.885-2.731l0,0v-0.018l1.776-18.365
		c0-0.029,0-0.059,0.006-0.088c0.123-1.043-0.105-1.723-0.621-2.121c-0.592-0.457-1.57-0.645-2.842-0.645
		c-0.029,0-0.059,0.006-0.088,0.006h-6.575v-0.006c-1.002,0-1.74,0.199-2.192,0.609C71.573,37.207,71.432,37.424,71.326,37.687
		L71.326,37.687z M64.892,60.207c-0.141-0.135-0.24-0.311-0.281-0.504l-9.376-16.876c-1.043-1.74-1.981-1.781-2.889-1.242
		c-0.645,0.381-1.324,1.002-2.004,1.623c-0.41,0.375-0.82,0.75-1.166,1.037l-1.611,1.33l0,0l-0.012,0.006
		c-1.172,0.943-2.496,1.453-3.75,1.553c-0.826,0.07-1.623-0.035-2.35-0.311c-0.744-0.281-1.4-0.732-1.893-1.348
		c-0.533-0.662-0.885-1.506-0.967-2.502H38.6c-0.018-0.24,0.053-0.481,0.217-0.68l5.121-6.094c-1.078-0.018-2.033,0.129-2.93,0.41
		c-1.365,0.428-2.643,1.166-4.037,2.121c-0.158,0.123-0.363,0.199-0.58,0.199H30.49v11.151l0.023,7.131h3.434l0,0
		c0.328,0,0.645,0.17,0.815,0.475l4.266,7.436c0.621,1.084,1.172,2.022,1.858,2.637c0.645,0.58,1.488,0.938,2.789,0.973
		c0.486,0.012,0.955-0.07,1.395-0.252c0.27-0.111,0.539-0.264,0.803-0.457l-2.766-5.168c-0.246-0.457-0.07-1.025,0.387-1.266
		c0.457-0.246,1.025-0.07,1.266,0.387l3.006,5.62c1.119,0.568,2.133,0.744,3.041,0.551c0.832-0.182,1.617-0.68,2.356-1.488
		l-4.33-6.797c-0.275-0.434-0.152-1.014,0.287-1.295c0.434-0.275,1.014-0.152,1.295,0.287l4.559,7.161
		c0.803,0.328,1.57,0.398,2.303,0.199c0.697-0.193,1.4-0.639,2.098-1.365l-4.131-7.782c-0.246-0.457-0.07-1.031,0.393-1.272
		c0.457-0.246,1.031-0.07,1.272,0.393l4.278,8.051c0.557,0.322,1.201,0.404,1.817,0.305c0.539-0.088,1.061-0.322,1.488-0.656
		c0.41-0.328,0.732-0.75,0.885-1.231c0.17-0.522,0.152-1.131-0.123-1.793L64.892,60.207L64.892,60.207z M66.135,58.578h3.129V38.936
		c0-0.023,0-0.053,0.006-0.076c0-0.305,0.018-0.598,0.059-0.873l-3.188-2.115c-0.018-0.012-0.035-0.023-0.053-0.035
		c-0.416-0.275-0.914-0.627-1.412-0.979c-1.811-1.266-3.668-2.572-5.678-3.1c-1.084-0.287-2.338-0.475-3.615-0.498
		c-1.119-0.023-2.256,0.082-3.328,0.363c-0.639,0.164-1.26,0.393-1.834,0.697c-0.51,0.27-0.984,0.598-1.406,0.996l-2.133,2.537
		c-0.064,0.129-0.158,0.234-0.27,0.322l-5.883,7.008c0.088,0.445,0.264,0.82,0.504,1.125c0.281,0.346,0.656,0.604,1.084,0.768
		c0.457,0.17,0.984,0.234,1.535,0.188c0.897-0.076,1.858-0.445,2.719-1.137l0,0l1.611-1.33c0.41-0.34,0.756-0.656,1.102-0.967
		c0.756-0.691,1.506-1.377,2.303-1.852c1.834-1.096,3.662-1.131,5.467,1.899l0.018,0.029L66.135,58.578L66.135,58.578z
		 M69.615,60.459h-2.502c0.34,0.99,0.322,1.928,0.053,2.76c-0.275,0.856-0.815,1.582-1.506,2.133
		c-0.674,0.533-1.494,0.902-2.356,1.043c-0.838,0.141-1.717,0.064-2.537-0.275c-0.949,0.99-1.951,1.617-2.994,1.904
		c-1.049,0.287-2.11,0.229-3.182-0.146c-1.02,1.131-2.145,1.84-3.387,2.104c-1.266,0.275-2.608,0.082-4.032-0.586
		c-0.445,0.346-0.908,0.621-1.395,0.82c-0.686,0.287-1.406,0.416-2.162,0.393c-1.805-0.053-3.018-0.586-3.985-1.453
		c-0.926-0.826-1.541-1.881-2.244-3.1l-3.991-6.961h-3.094c-0.182,0.897-0.492,1.658-0.961,2.268
		c-0.791,1.02-1.945,1.559-3.551,1.524c-0.018,0-0.035,0-0.053,0h-5.303c-1.336,0.217-2.479-0.111-3.375-1.149
		c-0.797-0.92-1.336-2.414-1.57-4.606c-0.006-0.023-0.006-0.053-0.012-0.082l-1.395-17.286c-0.275-1.863,0.029-3.182,0.779-4.084
		c0.756-0.908,1.899-1.318,3.299-1.383c0.041-0.006,0.076-0.006,0.117-0.006h7.143v0.006c1.348-0.018,2.508,0.211,3.387,0.779
		c0.709,0.457,1.219,1.102,1.477,1.981h5.819c1.465-0.984,2.83-1.758,4.342-2.233c1.488-0.463,3.076-0.627,4.981-0.398l1.963-2.32
		c0.035-0.047,0.07-0.088,0.117-0.129c0.557-0.527,1.178-0.961,1.846-1.313c0.703-0.369,1.453-0.65,2.238-0.856
		c1.242-0.322,2.549-0.445,3.826-0.422c1.447,0.029,2.854,0.24,4.067,0.557c2.32,0.615,4.325,2.016,6.27,3.381
		c0.434,0.305,0.867,0.609,1.383,0.949c0.018,0.012,0.035,0.023,0.053,0.035l2.824,1.887c0.141-0.199,0.305-0.381,0.492-0.545
		c0.809-0.727,1.963-1.084,3.451-1.084v-0.006h6.575c0.023,0,0.053,0,0.076,0.006c1.682-0.006,3.053,0.299,4.002,1.031
		c1.055,0.815,1.553,2.051,1.342,3.826c0,0.018-0.006,0.029-0.006,0.047l-1.776,18.347l0,0c-0.129,1.641-0.568,2.924-1.342,3.815
		c-0.826,0.949-1.969,1.418-3.469,1.354l0,0h-5.836h-0.006c-1.008,0.053-1.869-0.223-2.59-0.797
		C70.401,61.759,69.961,61.185,69.615,60.459L69.615,60.459z M22.192,53.327c0.703,0,1.272,0.568,1.272,1.272
		c0,0.703-0.568,1.272-1.272,1.272c-0.703,0-1.272-0.568-1.272-1.272S21.489,53.327,22.192,53.327L22.192,53.327z M77.538,53.327
		c0.703,0,1.272,0.568,1.272,1.272c0,0.703-0.568,1.272-1.272,1.272s-1.272-0.568-1.272-1.272S76.835,53.327,77.538,53.327
		L77.538,53.327z M28.609,47.913l-0.035-9.921c0-0.018,0-0.035,0-0.059c-0.1-0.621-0.369-1.037-0.768-1.295
		c-0.545-0.352-1.359-0.486-2.361-0.475h-0.012v0.006h-7.149c-0.012,0-0.023,0-0.035,0c-0.885,0.041-1.559,0.252-1.94,0.709
		c-0.41,0.486-0.551,1.33-0.357,2.637c0.006,0.029,0.006,0.053,0.006,0.082l1.395,17.304v0.029c0.188,1.793,0.574,2.942,1.119,3.574
		c0.434,0.504,1.025,0.645,1.734,0.516c0.053-0.012,0.111-0.018,0.164-0.018v-0.006h5.362c0.035,0,0.07,0,0.1,0.006
		c0.949,0.018,1.606-0.264,2.016-0.797c0.481-0.621,0.715-1.594,0.75-2.848h-0.006v-9.446H28.609z M56.87,41.901L56.87,41.901
		L56.87,41.901L56.87,41.901z"/>
</g>
<g>
	<path fill="#FFFFFF" d="M39.02,71.429c-0.023-0.014-0.046-0.027-0.069-0.039l0.294-0.275l-0.225,0.316L39.02,71.429z
		 M45.486,75.159c0.03,0.018,0.046,0.026,0.046,0.026c1.178,1.219,3.183,2.771,3.183,2.771c1.296,1.342,3.442,1.377,4.789,0.076
		c1.357-1.311,1.388-3.445,0.091-4.789c0,0-7.135-7.18-6.706-7.406l9.568,8.416c1.296,1.342,3.442,1.377,4.789,0.076
		c1.357-1.311,1.388-3.445,0.091-4.789c0,0-9.451-9.077-9.019-9.28l11.88,10.289c1.296,1.342,3.442,1.377,4.789,0.076
		c1.357-1.311,1.388-3.445,0.091-4.789c0,0-11.758-11.492-11.334-11.683L70.995,65.87c1.296,1.342,3.442,1.377,4.789,0.076
		c0.602-0.582,0.943-1.325,1.023-2.092c-5.142-4.588-24.053-21.31-26.526-21.233c-2.867,0.088-8.14,6.831-8.14,6.831
		c-1.064,1.243-3.754,1.035-5.039,0l-1.145-0.923c-1.281-1.032-2.112-3.16-1.278-4.552c0,0,1.943-6.717,6.667-10.854
		c0.712-0.623,1.639-1.032,2.652-1.338c-6.132-1.559-12.382-0.837-12.711-0.697c-3.868,1.656-12.889,23.742-12.889,27.135
		c0,0.301,1.077,1.156,2.803,2.332c0.114-0.474,0.339-0.931,0.677-1.336l2.24-2.687c1.233-1.48,3.503-1.749,5.094-0.583
		c1.275,0.933,1.703,2.51,1.172,3.858c1.328-1.054,3.449-1.18,4.971-0.225c0.924,0.579,1.431,1.693,1.469,2.794
		c1.37-0.468,3.386-0.913,4.636-0.08c1.597,1.065,1.813,3.4,1.276,4.998c0.581-0.035,1.271,0.262,2.115,1.107
		c2.714,2.714,2.411,4.63,1.357,6.105l-0.725,0.652L45.486,75.159z M15.684,36.519c1.787-4.334,6.032-10.425,6.032-10.425
		c0.415-0.612,1.262-0.784,1.902-0.379l4.485,2.834c0.637,0.401,0.819,1.224,0.397,1.86c0,0-5.305,7.858-7.562,12.554
		c-2.101,4.37-5.506,14.667-5.506,14.667c-0.236,0.704-0.883,0.864-1.435,0.365l-2.736-2.471c-0.556-0.502-0.855-1.494-0.659-2.226
		C10.602,53.298,13.744,41.225,15.684,36.519L15.684,36.519z M84.918,36.519c-1.787-4.334-6.032-10.425-6.032-10.425
		c-0.415-0.612-1.262-0.784-1.903-0.379l-4.485,2.834c-0.637,0.401-0.819,1.224-0.397,1.86c0,0,5.305,7.858,7.562,12.554
		c2.101,4.37,5.506,14.667,5.506,14.667c0.236,0.704,0.883,0.864,1.435,0.365l2.736-2.471c0.556-0.502,0.855-1.494,0.659-2.226
		c0,0-3.142-12.074-5.082-16.779L84.918,36.519z M24.262,57.894c0.921-1.18,2.618-1.395,3.807-0.466
		c1.18,0.923,1.388,2.631,0.47,3.807l-1.674,2.142c-0.921,1.18-2.618,1.395-3.807,0.466c-1.18-0.923-1.388-2.631-0.47-3.807
		L24.262,57.894z M30.443,61.001c0.921-1.18,2.618-1.395,3.807-0.466c1.18,0.923,1.397,2.618,0.47,3.807l-3.344,4.28
		c-0.921,1.18-2.618,1.395-3.807,0.466c-1.18-0.923-1.397-2.618-0.47-3.807L30.443,61.001z M36.623,64.108
		c0.921-1.18,2.618-1.395,3.807-0.466c1.18,0.923,1.397,2.618,0.47,3.807l-3.344,4.28c-0.921,1.18-2.618,1.395-3.807,0.466
		c-1.18-0.923-1.397-2.618-0.47-3.807L36.623,64.108z M40.298,70.423c0.921-1.18,2.618-1.395,3.807-0.466
		c1.18,0.923,1.388,2.631,0.47,3.807L42.9,75.907c-0.921,1.18-2.618,1.395-3.807,0.466c-1.18-0.923-1.388-2.631-0.47-3.807
		L40.298,70.423z M78.092,43.98c1.808,3.85,4.749,12.21,4.749,12.21l-6.429,4.775c0,0-23.842-20.432-26.456-20.351
		c-2.613,0.081-8.041,6.848-8.041,6.848c-0.97,1.138-2.698,1.299-3.869,0.35L37,46.968c-1.168-0.945-1.523-2.777-0.763-4.053
		c0,0,5.025-9.99,12.996-12.422s22.075,1.955,22.075,1.955S76.398,40.376,78.092,43.98L78.092,43.98z"/>
</g>
</svg>
