<?xml version="1.0" encoding="utf-8"?>
<!-- Generator: Adobe Illustrator 17.0.0, SVG Export Plug-In . SVG Version: 6.00 Build 0)  -->
<!DOCTYPE svg PUBLIC "-//W3C//DTD SVG 1.1//EN" "http://www.w3.org/Graphics/SVG/1.1/DTD/svg11.dtd">
<svg version="1.1" id="Layer_1" xmlns="http://www.w3.org/2000/svg" xmlns:xlink="http://www.w3.org/1999/xlink" x="0px" y="0px"
	 width="100px" height="100px" viewBox="0 0 100 100" enable-background="new 0 0 100 100" xml:space="preserve">
<path fill="#000099" d="M93.59,72.73c-3.99,7.65-9.71,13.82-16.43,18.25c-14.38,9.52-33.36,11.14-49.74,2.61
	c-1.59-0.83-3.12-1.73-4.58-2.7c-20.59-13.71-27.96-41-16.3-63.44c3.96-7.61,9.63-13.74,16.3-18.17
	c14.41-9.6,33.45-11.27,49.89-2.72c1.54,0.8,3.02,1.67,4.43,2.61C97.87,22.85,105.3,50.24,93.59,72.73z"/>
<path display="none" fill="#FFFFFF" d="M69.924,67.028c-3.938,4.269-9.172,7.124-14.894,8.124l-2.321,10.464l-6.77-1.509
	l1.934-8.723c-2.333-0.243-4.622-0.796-6.808-1.644l-1.934,8.839l-6.77-1.509l2.399-10.85c-11.553-8.791-13.792-25.283-5.001-36.836
	c3.778-4.965,9.198-8.424,15.292-9.759l2.398-10.851l6.77,1.509l-1.934,8.839c2.341,0.156,4.65,0.625,6.867,1.393l1.934-8.723
	l6.77,1.509l-2.321,10.464c2.858,1.988,5.291,4.526,7.157,7.466c1.254,1.926,2.237,4.015,2.921,6.209l-10.89,3.443
	c-0.399-1.24-0.944-2.429-1.625-3.54c-4.432-6.93-13.642-8.955-20.571-4.523c-6.93,4.432-8.955,13.642-4.523,20.571
	c4.432,6.93,13.642,8.955,20.571,4.523c0.005-0.003,0.011-0.007,0.016-0.01c1.092-0.713,2.093-1.557,2.979-2.514l8.395,7.737l0,0
	L69.924,67.028z"/>
<path id="flag_star" inkscape:flatsided="false" inkscape:randomized="0" inkscape:rounded="0" sodipodi:type="star" inkscape:label="flag_star" sodipodi:cy="166.82816" sodipodi:arg1="0.9451007" sodipodi:r1="24" sodipodi:cx="493.77145" sodipodi:arg2="1.5434192" sodipodi:sides="5" sodipodi:r2="9.1000004" fill="#FFCC00" stroke="#E6F32E" stroke-opacity="0.2089" d="
	M86.478,53.24l-3.287-2.466l-3.43,2.449l1.33-3.887l-3.387-2.506l4.106,0.064l1.335-3.996l1.211,3.925l4.213,0.036l-3.361,2.363
	C85.209,49.222,86.478,53.24,86.478,53.24z"/>
<g id="use10441" transform="translate(-18.714 -69.819)">
	
		<path id="flag_star_1_" inkscape:flatsided="false" inkscape:randomized="0" inkscape:rounded="0" sodipodi:type="star" inkscape:label="flag_star" sodipodi:cy="166.82816" sodipodi:arg1="0.9451007" sodipodi:r1="24" sodipodi:cx="493.77145" sodipodi:arg2="1.5434192" sodipodi:sides="5" sodipodi:r2="9.1000004" fill="#FFCC00" stroke="#E6F32E" stroke-opacity="0.2089" d="
		M82.023,36.622l-3.287-2.466l-3.43,2.449l1.33-3.887l-3.387-2.506l4.106,0.064l1.335-3.996l1.211,3.925l4.213,0.036l-3.361,2.363
		C80.755,32.605,82.023,36.622,82.023,36.622z"/>
</g>
<g>
	<g id="use10444" transform="translate(-49.665 -50.385)">
		
			<path id="flag_star_2_" inkscape:flatsided="false" inkscape:randomized="0" inkscape:rounded="0" sodipodi:type="star" inkscape:label="flag_star" sodipodi:cy="166.82816" sodipodi:arg1="0.9451007" sodipodi:r1="24" sodipodi:cx="493.77145" sodipodi:arg2="1.5434192" sodipodi:sides="5" sodipodi:r2="9.1000004" fill="#FFCC00" stroke="#E6F32E" stroke-opacity="0.2089" d="
			M70.202,24.63l-3.287-2.466l-3.43,2.449l1.33-3.887l-3.387-2.506l4.106,0.064l1.335-3.996l1.211,3.925l4.213,0.036l-3.361,2.363
			C68.934,20.612,70.202,24.63,70.202,24.63z"/>
	</g>
	<g>
		<g>
			<g id="use10445" transform="translate(-69.819 -19.434)">
				
					<path id="flag_star_3_" inkscape:flatsided="false" inkscape:randomized="0" inkscape:rounded="0" sodipodi:type="star" inkscape:label="flag_star" sodipodi:cy="166.82816" sodipodi:arg1="0.9451007" sodipodi:r1="24" sodipodi:cx="493.77145" sodipodi:arg2="1.5434192" sodipodi:sides="5" sodipodi:r2="9.1000004" fill="#FFCC00" stroke="#E6F32E" stroke-opacity="0.2089" d="
					M53.585,20.004l-3.287-2.466l-3.43,2.449l1.33-3.887l-3.387-2.506l4.106,0.064l1.335-3.996l1.211,3.925l4.213,0.036
					l-3.361,2.363C52.316,15.987,53.585,20.004,53.585,20.004z"/>
			</g>
			<g>
				<g>
					<g>
						<g id="use10446" transform="translate(-69.099 18.714)">
							
								<path id="flag_star_4_" inkscape:flatsided="false" inkscape:randomized="0" inkscape:rounded="0" sodipodi:type="star" inkscape:label="flag_star" sodipodi:cy="166.82816" sodipodi:arg1="0.9451007" sodipodi:r1="24" sodipodi:cx="493.77145" sodipodi:arg2="1.5434192" sodipodi:sides="5" sodipodi:r2="9.1000004" fill="#FFCC00" stroke="#E6F32E" stroke-opacity="0.2089" d="
								M37.138,24.459l-3.287-2.466l-3.43,2.449l1.33-3.887l-3.387-2.506l4.106,0.064l1.335-3.996l1.211,3.925l4.213,0.036
								l-3.361,2.363C35.87,20.441,37.138,24.459,37.138,24.459z"/>
						</g>
						<g>
							<g>
								<g>
									<g>
										<g id="use10447" transform="translate(-51.824 50.385)">
											
												<path id="flag_star_5_" inkscape:flatsided="false" inkscape:randomized="0" inkscape:rounded="0" sodipodi:type="star" inkscape:label="flag_star" sodipodi:cy="166.82816" sodipodi:arg1="0.9451007" sodipodi:r1="24" sodipodi:cx="493.77145" sodipodi:arg2="1.5434192" sodipodi:sides="5" sodipodi:r2="9.1000004" fill="#FFCC00" stroke="#E6F32E" stroke-opacity="0.2089" d="
												M24.803,36.451l-3.287-2.466l-3.43,2.449l1.33-3.887l-3.387-2.506l4.106,0.064l1.335-3.996l1.211,3.925l4.213,0.036
												l-3.361,2.363C23.535,32.433,24.803,36.451,24.803,36.451z"/>
										</g>
										<g>
											<g>
												<g>
													<g>
														<g>
															<g id="use10448" transform="translate(-18.714 69.819)">
																
																	<path id="flag_star_6_" inkscape:flatsided="false" inkscape:randomized="0" inkscape:rounded="0" sodipodi:type="star" inkscape:label="flag_star" sodipodi:cy="166.82816" sodipodi:arg1="0.9451007" sodipodi:r1="24" sodipodi:cx="493.77145" sodipodi:arg2="1.5434192" sodipodi:sides="5" sodipodi:r2="9.1000004" fill="#FFCC00" stroke="#E6F32E" stroke-opacity="0.2089" d="
																	M20.349,53.069l-3.287-2.466l-3.43,2.449l1.33-3.887l-3.387-2.506l4.106,0.064l1.335-3.996l1.211,3.925l4.213,0.036
																	l-3.361,2.363C19.081,49.051,20.349,53.069,20.349,53.069z"/>
															</g>
															<g>
																<g>
																	<g>
																		<g>
																			<g>
																				<g>
																					<g id="use10449" transform="translate(18.714 71.259)">
																						
																							<path id="flag_star_7_" inkscape:flatsided="false" inkscape:randomized="0" inkscape:rounded="0" sodipodi:type="star" inkscape:label="flag_star" sodipodi:cy="166.82816" sodipodi:arg1="0.9451007" sodipodi:r1="24" sodipodi:cx="493.77145" sodipodi:arg2="1.5434192" sodipodi:sides="5" sodipodi:r2="9.1000004" fill="#FFCC00" stroke="#E6F32E" stroke-opacity="0.2089" d="
																							M24.803,70.029l-3.287-2.466l-3.43,2.449l1.33-3.887L16.03,63.62l4.106,0.064l1.335-3.996l1.211,3.925
																							l4.213,0.036l-3.361,2.363C23.535,66.012,24.803,70.029,24.803,70.029z"/>
																					</g>
																					<g>
																						<g>
																							<g>
																								<g>
																									<g>
																										<g>
																											
																												<g id="g11182" transform="matrix(1.1457 0 0 1.1457 -218.65 -119.5)" inkscape:export-filename="C:\temp\kbtemp\work\euflag.png" inkscape:export-ydpi="11.000000" inkscape:export-xdpi="11.000000">
																												
																													<path id="flag_star_8_" inkscape:flatsided="false" inkscape:randomized="0" inkscape:rounded="0" sodipodi:type="star" inkscape:label="flag_star" sodipodi:cy="166.82816" sodipodi:arg1="0.9451007" sodipodi:r1="24" sodipodi:cx="493.77145" sodipodi:arg2="1.5434192" sodipodi:sides="5" sodipodi:r2="9.1000004" fill="#FFCC00" stroke="#E6F32E" stroke-opacity="0.2089" d="
																													M36.796,82.364l-3.287-2.466l-3.43,2.449l1.33-3.887l-3.387-2.506l4.106,0.064l1.335-3.996l1.211,3.925
																													l4.213,0.036l-3.361,2.363C35.527,78.347,36.796,82.364,36.796,82.364z"/>
																												
																													<path id="flag_star_9_" inkscape:flatsided="false" inkscape:randomized="0" inkscape:rounded="0" sodipodi:type="star" inkscape:label="flag_star" sodipodi:cy="166.82816" sodipodi:arg1="0.9451007" sodipodi:r1="24" sodipodi:cx="493.77145" sodipodi:arg2="1.5434192" sodipodi:sides="5" sodipodi:r2="9.1000004" fill="#FFCC00" stroke="#E6F32E" stroke-opacity="0.2089" d="
																													M53.414,86.818l-3.287-2.466l-3.43,2.449l1.33-3.887l-3.387-2.506l4.106,0.064l1.335-3.996l1.211,3.925
																													l4.213,0.036l-3.361,2.363C52.145,82.801,53.414,86.818,53.414,86.818z"/>
																												
																													<path id="flag_star_10_" inkscape:flatsided="false" inkscape:randomized="0" inkscape:rounded="0" sodipodi:type="star" inkscape:label="flag_star" sodipodi:cy="166.82816" sodipodi:arg1="0.9451007" sodipodi:r1="24" sodipodi:cx="493.77145" sodipodi:arg2="1.5434192" sodipodi:sides="5" sodipodi:r2="9.1000004" fill="#FFCC00" stroke="#E6F32E" stroke-opacity="0.2089" d="
																													M70.031,82.364l-3.287-2.466l-3.43,2.449l1.33-3.887l-3.387-2.506l4.106,0.064l1.335-3.996l1.211,3.925
																													l4.213,0.036l-3.361,2.363C68.763,78.347,70.031,82.364,70.031,82.364z"/>
																												
																													<path id="flag_star_11_" inkscape:flatsided="false" inkscape:randomized="0" inkscape:rounded="0" sodipodi:type="star" inkscape:label="flag_star" sodipodi:cy="166.82816" sodipodi:arg1="0.9451007" sodipodi:r1="24" sodipodi:cx="493.77145" sodipodi:arg2="1.5434192" sodipodi:sides="5" sodipodi:r2="9.1000004" fill="#FFCC00" stroke="#E6F32E" stroke-opacity="0.2089" d="
																													M82.366,70.029l-3.287-2.466l-3.43,2.449l1.33-3.887l-3.387-2.506l4.106,0.064l1.335-3.996l1.211,3.925
																													l4.213,0.036l-3.361,2.363C81.098,66.012,82.366,70.029,82.366,70.029z"/>
																											</g>
																										</g>
																									</g>
																								</g>
																							</g>
																						</g>
																					</g>
																				</g>
																			</g>
																		</g>
																	</g>
																</g>
															</g>
														</g>
													</g>
												</g>
											</g>
										</g>
									</g>
								</g>
							</g>
						</g>
					</g>
				</g>
			</g>
		</g>
	</g>
</g>
</svg>
