<?xml version="1.0" encoding="utf-8"?>
<!-- Generator: Adobe Illustrator 17.0.0, SVG Export Plug-In . SVG Version: 6.00 Build 0)  -->
<!DOCTYPE svg PUBLIC "-//W3C//DTD SVG 1.1//EN" "http://www.w3.org/Graphics/SVG/1.1/DTD/svg11.dtd">
<svg version="1.1" id="Layer_1" xmlns="http://www.w3.org/2000/svg" xmlns:xlink="http://www.w3.org/1999/xlink" x="0px" y="0px"
	 width="100px" height="100px" viewBox="0 0 100 100" enable-background="new 0 0 100 100" xml:space="preserve">
<path fill="#EDEDED" d="M98.99,53.86c-0.08,1.04-0.19,2.08-0.34,3.12c-0.21,1.48-0.48,2.96-0.83,4.43
	c-0.45,1.87-1.01,3.73-1.69,5.56c-0.24,0.67-0.5,1.33-0.78,1.99c-0.52,1.27-1.11,2.53-1.76,3.77c-0.67,1.3-1.4,2.55-2.17,3.76
	c-0.01,0.01-0.02,0.02-0.02,0.02c-1.75,2.74-3.73,5.25-5.91,7.53c-2.54,2.65-5.33,4.96-8.33,6.94c-0.32,0.21-0.64,0.42-0.96,0.61
	c-7.82,4.92-16.91,7.56-26.17,7.56c-0.69,0-1.39-0.01-2.08-0.05c-2.48-0.1-4.96-0.4-7.43-0.9c-4.43-0.88-8.82-2.39-13.04-4.58
	c-0.02-0.01-0.04-0.02-0.06-0.03c-1.2-0.63-2.37-1.29-3.49-2c-0.37-0.23-0.73-0.46-1.09-0.7c-3.02-2.01-5.76-4.31-8.19-6.85
	c-2.23-2.33-4.21-4.85-5.91-7.53c-0.01-0.01-0.02-0.01-0.01-0.02c-1.54-2.4-2.85-4.92-3.94-7.53c-0.27-0.66-0.53-1.32-0.78-1.99
	c-0.67-1.82-1.22-3.67-1.67-5.56c-0.35-1.46-0.63-2.94-0.83-4.43c-0.16-1.03-0.27-2.07-0.35-3.12c-0.2-2.5-0.21-5.03-0.01-7.56
	c0.02-0.32,0.04-0.64,0.08-0.96c0.09-0.99,0.22-1.99,0.38-2.98c0.19-1.2,0.42-2.39,0.71-3.59c0,0,0-0.01,0-0.02
	c0.18-0.74,0.37-1.49,0.59-2.23c0.18-0.63,0.38-1.27,0.59-1.9c0.1-0.29,0.19-0.57,0.3-0.85c0.06-0.18,0.12-0.36,0.18-0.53
	c0.08-0.21,0.16-0.42,0.25-0.63c0.09-0.28,0.2-0.55,0.31-0.81c0.08-0.2,0.16-0.4,0.25-0.6c0.52-1.26,1.11-2.51,1.75-3.75
	c0.05-0.1,0.1-0.2,0.16-0.29c0.11-0.22,0.23-0.44,0.35-0.65c0.53-0.98,1.08-1.92,1.67-2.84c1.75-2.75,3.74-5.27,5.93-7.55
	c2.5-2.59,5.24-4.88,8.19-6.84c0.37-0.24,0.73-0.48,1.11-0.71c1.15-0.73,2.34-1.41,3.54-2.03c1.89-0.98,3.83-1.83,5.82-2.55
	c0.14-0.06,0.27-0.11,0.41-0.15c2.22-0.79,4.49-1.42,6.8-1.87c2.45-0.5,4.93-0.8,7.43-0.91c0.73-0.03,1.46-0.05,2.19-0.05
	c0.68,0,1.37,0.01,2.05,0.05c6.95,0.29,13.96,2.08,20.54,5.5c1.21,0.63,2.37,1.3,3.5,2.01c0.31,0.19,0.62,0.4,0.93,0.6
	c3.08,2.04,5.87,4.37,8.34,6.95c2.24,2.34,4.22,4.87,5.92,7.55c1.54,2.4,2.85,4.92,3.94,7.53c0.28,0.67,0.54,1.35,0.79,2.04
	c0.4,1.08,0.75,2.17,1.07,3.28c0.21,0.74,0.4,1.48,0.58,2.23c0.01,0.01,0.01,0.01,0,0.02c0.6,2.47,0.99,4.99,1.19,7.53
	C99.19,48.8,99.19,51.33,98.99,53.86z"/>
<title>portugal-flat</title>
<path fill="#003580" d="M98.99,53.86c-0.08,1.04-0.19,2.08-0.34,3.12H1.51c-0.16-1.03-0.27-2.07-0.35-3.12
	c-0.2-2.5-0.21-5.03-0.01-7.56c0.02-0.32,0.04-0.64,0.08-0.96c0.09-0.99,0.22-1.99,0.38-2.98c0.19-1.2,0.42-2.39,0.71-3.59
	c0,0,0-0.01,0-0.02c0.18-0.74,0.37-1.49,0.59-2.23h94.31c0.21,0.74,0.4,1.48,0.58,2.23c0.01,0.01,0.01,0.01,0,0.02
	c0.6,2.47,0.99,4.99,1.19,7.53C99.19,48.8,99.19,51.33,98.99,53.86z"/>
<path fill="#003580" d="M47.95,1.06V99.1c-2.48-0.1-4.96-0.4-7.43-0.9c-4.43-0.88-8.82-2.39-13.04-4.58V56.98l0.01-20.46V6.54
	c1.89-0.98,3.83-1.83,5.82-2.55c0.14-0.06,0.27-0.11,0.41-0.15c2.22-0.79,4.49-1.42,6.8-1.87C42.97,1.47,45.45,1.17,47.95,1.06z"/>
</svg>
