<?xml version="1.0" encoding="utf-8"?>
<!-- Generator: Adobe Illustrator 17.0.0, SVG Export Plug-In . SVG Version: 6.00 Build 0)  -->
<!DOCTYPE svg PUBLIC "-//W3C//DTD SVG 1.1//EN" "http://www.w3.org/Graphics/SVG/1.1/DTD/svg11.dtd">
<svg version="1.1" id="Layer_1" xmlns="http://www.w3.org/2000/svg" xmlns:xlink="http://www.w3.org/1999/xlink" x="0px" y="0px"
	 width="100px" height="100px" viewBox="0 0 100 100" enable-background="new 0 0 100 100" xml:space="preserve">
<path fill="#D52B1E" d="M98.99,53.86c-0.06,0.75-0.13,1.51-0.23,2.26c-0.21,1.77-0.53,3.54-0.94,5.29
	c-0.45,1.87-1.01,3.73-1.69,5.56c-0.04,0.12-0.09,0.24-0.13,0.36c-0.2,0.55-0.42,1.09-0.65,1.63c-0.52,1.27-1.11,2.53-1.76,3.77
	c-0.67,1.3-1.4,2.55-2.17,3.76c-0.01,0.01-0.02,0.02-0.02,0.02c-0.44,0.7-0.9,1.38-1.38,2.04c-1.39,1.96-2.9,3.79-4.53,5.49
	c-2.04,2.13-4.25,4.05-6.6,5.74c-0.57,0.42-1.15,0.81-1.73,1.2c-0.32,0.21-0.64,0.42-0.96,0.61c-2.99,1.88-6.16,3.43-9.46,4.62
	c-0.57,0.21-1.15,0.4-1.73,0.59c-4.82,1.55-9.87,2.35-14.98,2.35c-3.16,0-6.35-0.31-9.51-0.95c-2.39-0.47-4.77-1.13-7.12-1.99
	c-1.14-0.41-2.28-0.87-3.41-1.38c-0.86-0.38-1.72-0.8-2.57-1.24c-1.2-0.63-2.37-1.29-3.49-2c-0.37-0.23-0.73-0.46-1.09-0.7
	c-0.54-0.36-1.07-0.73-1.59-1.11c-2.4-1.73-4.6-3.65-6.6-5.74c-1.66-1.73-3.17-3.56-4.54-5.49c-0.48-0.67-0.93-1.35-1.37-2.04
	c-0.01-0.01-0.02-0.01-0.01-0.02c-1.54-2.4-2.85-4.92-3.94-7.53c-0.22-0.54-0.44-1.08-0.64-1.63c-0.05-0.12-0.09-0.24-0.14-0.36
	c-0.67-1.82-1.22-3.67-1.67-5.56c-0.42-1.75-0.74-3.51-0.95-5.29c-0.1-0.75-0.17-1.5-0.23-2.26c-0.2-2.5-0.21-5.03-0.01-7.56
	c0.02-0.32,0.04-0.64,0.08-0.96c0.01-0.15,0.03-0.31,0.05-0.46c0.08-0.84,0.19-1.68,0.33-2.52c0.19-1.2,0.42-2.39,0.71-3.59
	c0,0,0-0.01,0-0.02c0.33-1.38,0.72-2.76,1.18-4.13c0.1-0.29,0.19-0.57,0.3-0.85c0.01-0.03,0.02-0.07,0.03-0.1
	c0.05-0.15,0.1-0.29,0.15-0.43c0.08-0.21,0.16-0.42,0.25-0.63c0.09-0.28,0.2-0.55,0.31-0.81c0.08-0.2,0.16-0.4,0.25-0.6
	c0.52-1.26,1.11-2.51,1.75-3.75c0.05-0.1,0.1-0.2,0.16-0.29c0.11-0.22,0.23-0.44,0.35-0.65c0.53-0.98,1.08-1.92,1.67-2.84
	c0.26-0.41,0.53-0.82,0.81-1.22c0-0.01,0-0.01,0-0.01c1.55-2.28,3.26-4.38,5.12-6.32c1.72-1.78,3.54-3.41,5.48-4.9
	c0.88-0.68,1.78-1.33,2.71-1.94c0.05-0.03,0.11-0.07,0.16-0.1c0.32-0.21,0.63-0.41,0.95-0.61c1.94-1.23,3.96-2.31,6.04-3.24
	c1.09-0.49,2.2-0.93,3.32-1.34c0.03-0.01,0.06-0.03,0.09-0.03c0.11-0.05,0.21-0.09,0.32-0.12c0.26-0.09,0.52-0.18,0.78-0.26
	c1.97-0.67,3.98-1.21,6.02-1.61c3.16-0.64,6.38-0.96,9.62-0.96c0.68,0,1.37,0.01,2.05,0.05c1.77,0.07,3.55,0.25,5.32,0.53
	c2.52,0.37,5.02,0.96,7.5,1.76c0.58,0.18,1.15,0.38,1.73,0.59c2.03,0.72,4.03,1.6,5.99,2.62c1.21,0.63,2.37,1.3,3.5,2.01
	c0.31,0.19,0.62,0.4,0.93,0.6c0.98,0.65,1.94,1.33,2.86,2.05c1.97,1.5,3.8,3.14,5.48,4.9c1.9,1.98,3.61,4.1,5.12,6.33
	c0.27,0.4,0.54,0.81,0.8,1.22c1.54,2.4,2.85,4.92,3.94,7.53c0.28,0.67,0.54,1.35,0.79,2.04c0.05,0.14,0.1,0.28,0.15,0.43
	c0.6,1.66,1.09,3.36,1.5,5.08c0.01,0.01,0.01,0.01,0,0.02c0.49,2.01,0.84,4.05,1.05,6.11c0.06,0.47,0.1,0.95,0.14,1.42
	C99.19,48.8,99.19,51.33,98.99,53.86z"/>
<title>portugal-flat</title>
<g>
	<path fill="#FFFFFF" d="M98.99,53.86c-0.06,0.75-0.13,1.51-0.23,2.26c-0.21,1.77-0.53,3.54-0.94,5.29
		c-0.45,1.87-1.01,3.73-1.69,5.56c-0.04,0.12-0.09,0.24-0.13,0.36c-0.2,0.55-0.42,1.09-0.65,1.63c-0.52,1.27-1.11,2.53-1.76,3.77
		c-0.67,1.3-1.4,2.55-2.17,3.76c-0.01,0.01-0.02,0.02-0.02,0.02c-0.44,0.7-0.9,1.38-1.38,2.04c-1.39,1.96-2.9,3.79-4.53,5.49
		c-2.04,2.13-4.25,4.05-6.6,5.74c-0.57,0.42-1.15,0.81-1.73,1.2c-0.32,0.21-0.64,0.42-0.96,0.61c-2.99,1.88-6.16,3.43-9.46,4.62
		c-0.57,0.21-1.15,0.4-1.73,0.59c-4.82,1.55-9.87,2.35-14.98,2.35c-3.16,0-6.35-0.31-9.51-0.95c-2.39-0.47-4.77-1.13-7.12-1.99
		c-1.14-0.41-2.28-0.87-3.41-1.38c-0.86-0.38-1.72-0.8-2.57-1.24c-1.2-0.63-2.37-1.29-3.49-2c-0.37-0.23-0.73-0.46-1.09-0.7
		c-0.54-0.36-1.07-0.73-1.59-1.11c-2.4-1.73-4.6-3.65-6.6-5.74c-1.66-1.73-3.17-3.56-4.54-5.49c-0.48-0.67-0.93-1.35-1.37-2.04
		c-0.01-0.01-0.02-0.01-0.01-0.02c-1.54-2.4-2.85-4.92-3.94-7.53c-0.22-0.54-0.44-1.08-0.64-1.63c-0.05-0.12-0.09-0.24-0.14-0.36
		c-0.67-1.82-1.22-3.67-1.67-5.56c-0.42-1.75-0.74-3.51-0.95-5.29c-0.1-0.75-0.17-1.5-0.23-2.26c-0.2-2.5-0.21-5.03-0.01-7.56
		c0.02-0.32,0.04-0.64,0.08-0.96c0.01-0.15,0.03-0.31,0.05-0.46c0.08-0.84,0.19-1.68,0.33-2.52c0.19-1.2,0.42-2.39,0.71-3.59
		c0,0,0-0.01,0-0.02c0.33-1.38,0.72-2.76,1.18-4.13c0.1-0.29,0.19-0.57,0.3-0.85c0.01-0.03,0.02-0.07,0.03-0.1
		c0.05-0.15,0.1-0.29,0.15-0.43c0.08-0.21,0.16-0.42,0.25-0.63c0.09-0.28,0.2-0.55,0.31-0.81c0.08-0.2,0.16-0.4,0.25-0.6
		c0.52-1.26,1.11-2.51,1.75-3.75c0.05-0.1,0.1-0.2,0.16-0.29c0.11-0.22,0.23-0.44,0.35-0.65c0.53-0.98,1.08-1.92,1.67-2.84
		c0.26-0.41,0.53-0.82,0.81-1.22c0-0.01,0-0.01,0-0.01c1.55-2.28,3.26-4.38,5.12-6.32c1.72-1.78,3.54-3.41,5.48-4.9
		c0.88-0.68,1.78-1.33,2.71-1.94c0.05-0.03,0.11-0.07,0.16-0.1c0.32-0.21,0.63-0.41,0.95-0.61c1.94-1.23,3.96-2.31,6.04-3.24
		c1.09-0.49,2.2-0.93,3.32-1.34c0.03-0.01,0.06-0.03,0.09-0.03c0.11-0.05,0.21-0.09,0.32-0.12c0.26-0.09,0.52-0.18,0.78-0.26
		c1.97-0.67,3.98-1.21,6.02-1.61c3.16-0.64,6.38-0.96,9.62-0.96c0.68,0,1.37,0.01,2.05,0.05c1.77,0.07,3.55,0.25,5.32,0.53
		c2.52,0.37,5.02,0.96,7.5,1.76c0.58,0.18,1.15,0.38,1.73,0.59c2.03,0.72,4.03,1.6,5.99,2.62c1.21,0.63,2.37,1.3,3.5,2.01
		c0.31,0.19,0.62,0.4,0.93,0.6c0.98,0.65,1.94,1.33,2.86,2.05c1.97,1.5,3.8,3.14,5.48,4.9c1.9,1.98,3.61,4.1,5.12,6.33
		c0.27,0.4,0.54,0.81,0.8,1.22c1.54,2.4,2.85,4.92,3.94,7.53c0.28,0.67,0.54,1.35,0.79,2.04c0.05,0.14,0.1,0.28,0.15,0.43
		c0.6,1.66,1.09,3.36,1.5,5.08c0.01,0.01,0.01,0.01,0,0.02c0.49,2.01,0.84,4.05,1.05,6.11c0.06,0.47,0.1,0.95,0.14,1.42
		C99.19,48.8,99.19,51.33,98.99,53.86z"/>
	<path fill="#009246" d="M33.4,3.96v92.25c-1.14-0.41-2.28-0.87-3.41-1.38c-0.86-0.38-1.72-0.8-2.57-1.24
		c-1.2-0.63-2.37-1.29-3.49-2c-0.37-0.23-0.73-0.46-1.09-0.7c-0.54-0.36-1.07-0.73-1.59-1.11c-2.4-1.73-4.6-3.65-6.6-5.74
		c-1.66-1.73-3.17-3.56-4.54-5.49c-0.48-0.67-0.93-1.35-1.37-2.04c-0.01-0.01-0.02-0.01-0.01-0.02c-1.54-2.4-2.85-4.92-3.94-7.53
		c-0.22-0.54-0.44-1.08-0.64-1.63c-0.05-0.12-0.09-0.24-0.14-0.36c-0.67-1.82-1.22-3.67-1.67-5.56c-0.42-1.75-0.74-3.51-0.95-5.29
		c-0.1-0.75-0.17-1.5-0.23-2.26c-0.2-2.5-0.21-5.03-0.01-7.56c0.02-0.32,0.04-0.64,0.08-0.96c0.01-0.15,0.03-0.31,0.05-0.46
		c0.08-0.84,0.19-1.68,0.33-2.52c0.19-1.2,0.42-2.39,0.71-3.59c0,0,0-0.01,0-0.02c0.33-1.38,0.72-2.76,1.18-4.13
		c0.1-0.29,0.19-0.57,0.3-0.85c0.01-0.03,0.02-0.07,0.03-0.1c0.05-0.15,0.1-0.29,0.15-0.43c0.08-0.21,0.16-0.42,0.25-0.63
		c0.09-0.28,0.2-0.55,0.31-0.81c0.08-0.2,0.16-0.4,0.25-0.6c0.52-1.26,1.11-2.51,1.75-3.75c0.05-0.1,0.1-0.2,0.16-0.29
		c0.11-0.22,0.23-0.44,0.35-0.65c0.53-0.98,1.08-1.92,1.67-2.84c0.26-0.41,0.53-0.82,0.81-1.22c0-0.01,0-0.01,0-0.01
		c1.55-2.28,3.26-4.38,5.12-6.32c1.72-1.78,3.54-3.41,5.48-4.9c0.88-0.68,1.78-1.33,2.71-1.94c0.05-0.03,0.11-0.07,0.16-0.1
		c0.32-0.21,0.63-0.41,0.95-0.61c1.94-1.23,3.96-2.31,6.04-3.24c1.09-0.49,2.2-0.93,3.32-1.34C33.34,3.98,33.37,3.96,33.4,3.96z"/>
	<path fill="#CE2B37" d="M98.99,53.86c-0.06,0.75-0.13,1.51-0.23,2.26c-0.21,1.77-0.53,3.54-0.94,5.29
		c-0.45,1.87-1.01,3.73-1.69,5.56c-0.04,0.12-0.09,0.24-0.13,0.36c-0.2,0.55-0.42,1.09-0.65,1.63c-0.52,1.27-1.11,2.53-1.76,3.77
		c-0.67,1.3-1.4,2.55-2.17,3.76c-0.01,0.01-0.02,0.02-0.02,0.02c-0.44,0.7-0.9,1.38-1.38,2.04c-1.39,1.96-2.9,3.79-4.53,5.49
		c-2.04,2.13-4.25,4.05-6.6,5.74c-0.57,0.42-1.15,0.81-1.73,1.2c-0.32,0.21-0.64,0.42-0.96,0.61c-2.99,1.88-6.16,3.43-9.46,4.62
		V3.94c2.03,0.72,4.03,1.6,5.99,2.62c1.21,0.63,2.37,1.3,3.5,2.01c0.31,0.19,0.62,0.4,0.93,0.6c0.98,0.65,1.94,1.33,2.86,2.05
		c1.97,1.5,3.8,3.14,5.48,4.9c1.9,1.98,3.61,4.1,5.12,6.33c0.27,0.4,0.54,0.81,0.8,1.22c1.54,2.4,2.85,4.92,3.94,7.53
		c0.28,0.67,0.54,1.35,0.79,2.04c0.05,0.14,0.1,0.28,0.15,0.43c0.6,1.66,1.09,3.36,1.5,5.08c0.01,0.01,0.01,0.01,0,0.02
		c0.49,2.01,0.84,4.05,1.05,6.11c0.06,0.47,0.1,0.95,0.14,1.42C99.19,48.8,99.19,51.33,98.99,53.86z"/>
</g>
</svg>
