<?xml version="1.0" encoding="utf-8"?>
<!-- Generator: Adobe Illustrator 17.0.0, SVG Export Plug-In . SVG Version: 6.00 Build 0)  -->
<!DOCTYPE svg PUBLIC "-//W3C//DTD SVG 1.1//EN" "http://www.w3.org/Graphics/SVG/1.1/DTD/svg11.dtd">
<svg version="1.1" id="Layer_1" xmlns="http://www.w3.org/2000/svg" xmlns:xlink="http://www.w3.org/1999/xlink" x="0px" y="0px"
	 width="100px" height="100px" viewBox="0 0 100 100" enable-background="new 0 0 100 100" xml:space="preserve">
<path fill="#D52B1E" d="M98.99,53.86c-0.06,0.75-0.13,1.51-0.23,2.26c-0.21,1.77-0.53,3.54-0.94,5.29
	c-0.45,1.87-1.01,3.73-1.69,5.56c-0.04,0.12-0.09,0.24-0.13,0.36c-0.2,0.55-0.42,1.09-0.65,1.63c-0.52,1.27-1.11,2.53-1.76,3.77
	c-0.56,1.09-1.16,2.14-1.8,3.16c-0.12,0.2-0.24,0.4-0.37,0.6c-0.01,0.01-0.02,0.02-0.02,0.02c-0.44,0.7-0.9,1.38-1.38,2.04
	c-1.39,1.96-2.9,3.79-4.53,5.49c-2.04,2.13-4.25,4.05-6.6,5.74c-0.57,0.42-1.15,0.81-1.73,1.2c-0.32,0.21-0.64,0.42-0.96,0.61
	c-2.99,1.88-6.16,3.43-9.46,4.62c-0.02,0.01-0.05,0.02-0.07,0.02c-0.55,0.21-1.1,0.39-1.66,0.57c-4.82,1.55-9.87,2.35-14.98,2.35
	c-3.16,0-6.35-0.31-9.51-0.95c-2.39-0.47-4.77-1.13-7.12-1.99c-0.02-0.01-0.05-0.02-0.07-0.03c-1.12-0.4-2.23-0.85-3.34-1.35
	c-0.86-0.38-1.72-0.8-2.57-1.24c-1.2-0.63-2.37-1.29-3.49-2c-0.37-0.23-0.73-0.46-1.09-0.7c-0.54-0.36-1.07-0.73-1.59-1.11
	c-2.4-1.73-4.6-3.65-6.6-5.74c-1.66-1.73-3.17-3.56-4.54-5.49c-0.28-0.39-0.55-0.79-0.82-1.19c-0.19-0.28-0.37-0.57-0.55-0.85
	c-0.01-0.01-0.02-0.01-0.01-0.02c-1.54-2.4-2.85-4.92-3.94-7.53c-0.22-0.54-0.44-1.08-0.64-1.63c-0.05-0.12-0.09-0.24-0.14-0.36
	c-0.67-1.82-1.22-3.67-1.67-5.56c-0.42-1.75-0.74-3.51-0.95-5.29c-0.1-0.75-0.17-1.5-0.23-2.26c-0.2-2.5-0.21-5.03-0.01-7.56
	c0.02-0.32,0.04-0.64,0.08-0.96c0.01-0.15,0.03-0.31,0.05-0.46c0.08-0.84,0.19-1.68,0.33-2.52c0.19-1.2,0.42-2.39,0.71-3.59
	c0,0,0-0.01,0-0.02c0.33-1.38,0.72-2.76,1.18-4.13c0.1-0.29,0.19-0.57,0.3-0.85c0.01-0.03,0.02-0.07,0.03-0.1
	c0.05-0.15,0.1-0.29,0.15-0.43c0.08-0.21,0.16-0.42,0.25-0.63c0.05-0.14,0.1-0.28,0.15-0.42c0.05-0.13,0.11-0.26,0.16-0.39
	c0.08-0.2,0.16-0.4,0.25-0.6c0.52-1.26,1.11-2.51,1.75-3.75c0.05-0.1,0.1-0.2,0.16-0.29c0.11-0.22,0.23-0.44,0.35-0.65
	c0.53-0.98,1.08-1.92,1.67-2.84c0.26-0.41,0.53-0.82,0.81-1.22c0-0.01,0-0.01,0-0.01c1.55-2.28,3.26-4.38,5.12-6.32
	c1.72-1.78,3.54-3.41,5.48-4.9c0.88-0.68,1.78-1.33,2.71-1.94c0.05-0.03,0.11-0.07,0.16-0.1c0.32-0.21,0.63-0.41,0.95-0.61
	c1.94-1.23,3.96-2.31,6.04-3.24c1.09-0.49,2.2-0.93,3.32-1.34c0.01,0,0.01,0,0.02-0.01c0.02-0.01,0.05-0.02,0.07-0.02
	c0.11-0.05,0.21-0.09,0.32-0.12c0.26-0.09,0.52-0.18,0.78-0.26c1.97-0.67,3.98-1.21,6.02-1.61c3.16-0.64,6.38-0.96,9.62-0.96
	c0.68,0,1.37,0.01,2.05,0.05c1.77,0.07,3.55,0.25,5.32,0.53c2.52,0.37,5.02,0.96,7.5,1.76c0.56,0.17,1.1,0.36,1.66,0.56
	c0.02,0.01,0.05,0.02,0.07,0.03c2.03,0.72,4.03,1.6,5.99,2.62c1.21,0.63,2.37,1.3,3.5,2.01c0.31,0.19,0.62,0.4,0.93,0.6
	c0.98,0.65,1.94,1.33,2.86,2.05c1.97,1.5,3.8,3.14,5.48,4.9c1.9,1.98,3.61,4.1,5.12,6.33c0.27,0.4,0.54,0.81,0.8,1.22
	c1.54,2.4,2.85,4.92,3.94,7.53c0.28,0.67,0.54,1.35,0.79,2.04c0.05,0.14,0.1,0.28,0.15,0.43c0.02,0.05,0.04,0.1,0.05,0.15
	c0.58,1.61,1.05,3.26,1.45,4.93c0.01,0.01,0.01,0.01,0,0.02c0.49,2.01,0.84,4.05,1.05,6.11c0.06,0.47,0.1,0.95,0.14,1.42
	C99.19,48.8,99.19,51.33,98.99,53.86z"/>
<title>portugal-flat</title>
<g>
	<path fill="#012169" d="M98.99,53.86c-0.06,0.75-0.13,1.51-0.23,2.26c-0.21,1.77-0.53,3.54-0.94,5.29
		c-0.45,1.87-1.01,3.73-1.69,5.56c-0.04,0.12-0.09,0.24-0.13,0.36c-0.2,0.55-0.42,1.09-0.65,1.63c-0.52,1.27-1.11,2.53-1.76,3.77
		c-0.56,1.09-1.16,2.14-1.8,3.16c-0.12,0.2-0.24,0.4-0.37,0.6c-0.01,0.01-0.02,0.02-0.02,0.02c-0.44,0.7-0.9,1.38-1.38,2.04
		c-1.39,1.96-2.9,3.79-4.53,5.49c-2.04,2.13-4.25,4.05-6.6,5.74c-0.57,0.42-1.15,0.81-1.73,1.2c-0.32,0.21-0.64,0.42-0.96,0.61
		c-2.99,1.88-6.16,3.43-9.46,4.62c-0.02,0.01-0.05,0.02-0.07,0.02c-0.55,0.21-1.1,0.39-1.66,0.57c-4.82,1.55-9.87,2.35-14.98,2.35
		c-3.16,0-6.35-0.31-9.51-0.95c-2.39-0.47-4.77-1.13-7.12-1.99c-0.02-0.01-0.05-0.02-0.07-0.03c-1.12-0.4-2.23-0.85-3.34-1.35
		c-0.86-0.38-1.72-0.8-2.57-1.24c-1.2-0.63-2.37-1.29-3.49-2c-0.37-0.23-0.73-0.46-1.09-0.7c-0.54-0.36-1.07-0.73-1.59-1.11
		c-2.4-1.73-4.6-3.65-6.6-5.74c-1.66-1.73-3.17-3.56-4.54-5.49c-0.28-0.39-0.55-0.79-0.82-1.19c-0.19-0.28-0.37-0.57-0.55-0.85
		c-0.01-0.01-0.02-0.01-0.01-0.02c-1.54-2.4-2.85-4.92-3.94-7.53c-0.22-0.54-0.44-1.08-0.64-1.63c-0.05-0.12-0.09-0.24-0.14-0.36
		c-0.67-1.82-1.22-3.67-1.67-5.56c-0.42-1.75-0.74-3.51-0.95-5.29c-0.1-0.75-0.17-1.5-0.23-2.26c-0.2-2.5-0.21-5.03-0.01-7.56
		c0.02-0.32,0.04-0.64,0.08-0.96c0.01-0.15,0.03-0.31,0.05-0.46c0.08-0.84,0.19-1.68,0.33-2.52c0.19-1.2,0.42-2.39,0.71-3.59
		c0,0,0-0.01,0-0.02c0.33-1.38,0.72-2.76,1.18-4.13c0.1-0.29,0.19-0.57,0.3-0.85c0.01-0.03,0.02-0.07,0.03-0.1
		c0.05-0.15,0.1-0.29,0.15-0.43c0.08-0.21,0.16-0.42,0.25-0.63c0.05-0.14,0.1-0.28,0.15-0.42c0.05-0.13,0.11-0.26,0.16-0.39
		c0.08-0.2,0.16-0.4,0.25-0.6c0.52-1.26,1.11-2.51,1.75-3.75c0.05-0.1,0.1-0.2,0.16-0.29c0.11-0.22,0.23-0.44,0.35-0.65
		c0.53-0.98,1.08-1.92,1.67-2.84c0.26-0.41,0.53-0.82,0.81-1.22c0-0.01,0-0.01,0-0.01c1.55-2.28,3.26-4.38,5.12-6.32
		c1.72-1.78,3.54-3.41,5.48-4.9c0.88-0.68,1.78-1.33,2.71-1.94c0.05-0.03,0.11-0.07,0.16-0.1c0.32-0.21,0.63-0.41,0.95-0.61
		c1.94-1.23,3.96-2.31,6.04-3.24c1.09-0.49,2.2-0.93,3.32-1.34c0.01,0,0.01,0,0.02-0.01c0.02-0.01,0.05-0.02,0.07-0.02
		c0.11-0.05,0.21-0.09,0.32-0.12c0.26-0.09,0.52-0.18,0.78-0.26c1.97-0.67,3.98-1.21,6.02-1.61c3.16-0.64,6.38-0.96,9.62-0.96
		c0.68,0,1.37,0.01,2.05,0.05c1.77,0.07,3.55,0.25,5.32,0.53c2.52,0.37,5.02,0.96,7.5,1.76c0.56,0.17,1.1,0.36,1.66,0.56
		c0.02,0.01,0.05,0.02,0.07,0.03c2.03,0.72,4.03,1.6,5.99,2.62c1.21,0.63,2.37,1.3,3.5,2.01c0.31,0.19,0.62,0.4,0.93,0.6
		c0.98,0.65,1.94,1.33,2.86,2.05c1.97,1.5,3.8,3.14,5.48,4.9c1.9,1.98,3.61,4.1,5.12,6.33c0.27,0.4,0.54,0.81,0.8,1.22
		c1.54,2.4,2.85,4.92,3.94,7.53c0.28,0.67,0.54,1.35,0.79,2.04c0.05,0.14,0.1,0.28,0.15,0.43c0.02,0.05,0.04,0.1,0.05,0.15
		c0.58,1.61,1.05,3.26,1.45,4.93c0.01,0.01,0.01,0.01,0,0.02c0.49,2.01,0.84,4.05,1.05,6.11c0.06,0.47,0.1,0.95,0.14,1.42
		C99.19,48.8,99.19,51.33,98.99,53.86z"/>
	<path fill="none" stroke="#FFFFFF" stroke-width="6" d="M5.096,30.553C34.5,45.5,63.5,59.5,92.71,74.35"/>
	<path fill="none" stroke="#FFFFFF" stroke-width="6" d="M95.05,30.47C65.5,44.5,36.5,59.5,7.765,74.123"/>
	<g>
		<defs>
			<polygon id="SVGID_1_" points="50,53 650,53 650,353 50,353 -550,353 -550,53 -550,-247 50,-247 650,-247 			"/>
		</defs>
		<clipPath id="SVGID_2_">
			<use xlink:href="#SVGID_1_"  overflow="visible"/>
		</clipPath>
		<path clip-path="url(#SVGID_2_)" stroke="#FFFFFF" stroke-width="10" d="M49,108.809c-0.001,0-0.001,0-0.002,0
			c0.01,62.26,0.79,124.652,1.002,187.182V108.809c-0.163,0.014-0.328,0.024-0.5,0.024C49.328,108.833,49.163,108.823,49,108.809z"
			/>
		<path clip-path="url(#SVGID_2_)" stroke="#FFFFFF" stroke-width="10" d="M49.667,94.5c0.115,0,0.223,0.01,0.333,0.016V1.944
			c-0.661,30.833-0.923,61.698-0.981,92.594C49.228,94.515,49.443,94.5,49.667,94.5z"/>
		<path clip-path="url(#SVGID_2_)" stroke="#FFFFFF" stroke-width="10" d="M50,353c0.081-19.016,0.064-38.018,0-57.009V353z"/>
		<path clip-path="url(#SVGID_2_)" stroke="#FFFFFF" stroke-width="10" d="M50-35.167C48.5-25.5,50.5-16.5,50-6.672"/>
		<path clip-path="url(#SVGID_2_)" stroke="#FFFFFF" stroke-width="10" d="M106.798,53C287.5,55.5,468.5,52.5,650,53"/>
		<path clip-path="url(#SVGID_2_)" stroke="#FFFFFF" stroke-width="10" d="M6.601,53h91.128c-30.382-0.07-60.758-0.062-91.13-0.018
			C6.599,52.988,6.601,52.994,6.601,53z"/>
		<path clip-path="url(#SVGID_2_)" stroke="#FFFFFF" stroke-width="10" d="M-550,53c180.623,2.095,361.598,0.333,542.764,0H-550z"/>
		<path clip-path="url(#SVGID_2_)" stroke="#C8102E" stroke-width="6" d="M50,353c0.081-19.016,0.064-38.018,0-57.009V353z"/>
		<path clip-path="url(#SVGID_2_)" stroke="#C8102E" stroke-width="6" d="M49.667,94.5c0.115,0,0.223,0.01,0.333,0.016V1.944
			c-0.661,30.833-0.923,61.698-0.981,92.594C49.228,94.515,49.443,94.5,49.667,94.5z"/>
		<path clip-path="url(#SVGID_2_)" stroke="#C8102E" stroke-width="6" d="M49,108.809c-0.001,0-0.001,0-0.002,0
			c0.01,62.26,0.79,124.652,1.002,187.182V108.809c-0.163,0.014-0.328,0.024-0.5,0.024C49.328,108.833,49.163,108.823,49,108.809z"
			/>
		<path clip-path="url(#SVGID_2_)" stroke="#C8102E" stroke-width="6" d="M50-35.167C48.5-25.5,50.5-16.5,50-6.672"/>
		<path clip-path="url(#SVGID_2_)" stroke="#C8102E" stroke-width="6" d="M106.798,53C287.5,55.5,468.5,52.5,650,53"/>
		<path clip-path="url(#SVGID_2_)" stroke="#C8102E" stroke-width="6" d="M-550,53c180.623,2.095,361.598,0.333,542.764,0H-550z"/>
		<path clip-path="url(#SVGID_2_)" stroke="#C8102E" stroke-width="6" d="M6.601,53h91.128c-30.382-0.07-60.758-0.062-91.13-0.018
			C6.599,52.988,6.601,52.994,6.601,53z"/>
		<path clip-path="url(#SVGID_2_)" stroke="#C8102E" stroke-width="4" d="M100.4,77.844c-0.041,0.098-0.088,0.193-0.135,0.288
			l306.968,153.484C304.984,180.27,202.879,128.889,100.4,77.844z"/>
		<path clip-path="url(#SVGID_2_)" stroke="#C8102E" stroke-width="4" d="M91.464,73.41c0.002-0.003,0.003-0.006,0.004-0.009
			C63.21,59.335,34.929,45.289,6.599,31.283c-0.001,0.005-0.003,0.01-0.004,0.014l84.74,42.37
			C91.376,73.58,91.419,73.495,91.464,73.41z"/>
		<path clip-path="url(#SVGID_2_)" stroke="#C8102E" stroke-width="4" d="M407.233,231.617C487.977,272.164,568.813,312.688,650,353
			L407.233,231.617z"/>
		<path clip-path="url(#SVGID_2_)" stroke="#C8102E" stroke-width="4" d="M-550-247C-369.5-155.5-186.5-66.5-5.962,25.019"/>
		<path clip-path="url(#SVGID_2_)" stroke="#C8102E" stroke-width="4" d="M-5.027,80.513C-186.5,171.5-367.5,262.5-550,353"/>
		<path clip-path="url(#SVGID_2_)" stroke="#C8102E" stroke-width="4" d="M102.233,26.665c0.045,0.05,0.088,0.101,0.13,0.153
			l386.52-193.26C360.057-102.141,230.967-37.877,102.233,26.665z"/>
		<path clip-path="url(#SVGID_2_)" stroke="#C8102E" stroke-width="4" d="M93.253,31.167C65.334,45.17,37.426,59.181,9.549,73.213
			c0.001,0.003,0.002,0.007,0.003,0.011l83.784-41.892C93.306,31.278,93.281,31.222,93.253,31.167z"/>
		<path clip-path="url(#SVGID_2_)" stroke="#C8102E" stroke-width="4" d="M488.883-166.442C542.652-193.279,596.373-220.124,650-247
			L488.883-166.442z"/>
	</g>
</g>
</svg>
