<?xml version="1.0" encoding="utf-8"?>
<!-- Generator: Adobe Illustrator 17.0.0, SVG Export Plug-In . SVG Version: 6.00 Build 0)  -->
<!DOCTYPE svg PUBLIC "-//W3C//DTD SVG 1.1//EN" "http://www.w3.org/Graphics/SVG/1.1/DTD/svg11.dtd">
<svg version="1.1" id="Layer_1" xmlns="http://www.w3.org/2000/svg" xmlns:xlink="http://www.w3.org/1999/xlink" x="0px" y="0px"
	 width="100px" height="100px" viewBox="0 0 100 100" enable-background="new 0 0 100 100" xml:space="preserve">
<path fill="#10689A" d="M72.729,6.563C96.761,19.076,106.1,48.702,93.587,72.734s-42.139,33.371-66.171,20.858
	C3.394,81.085-5.949,51.477,6.544,27.448C19.055,3.406,48.685-5.944,72.729,6.563L72.729,6.563L72.729,6.563z"/>
<path display="none" fill="#FFFFFF" d="M69.924,67.028c-3.938,4.269-9.172,7.124-14.894,8.124l-2.321,10.464l-6.77-1.509
	l1.934-8.723c-2.333-0.243-4.622-0.796-6.808-1.644l-1.934,8.839l-6.77-1.509l2.399-10.85c-11.553-8.791-13.792-25.283-5.001-36.836
	c3.778-4.965,9.198-8.424,15.292-9.759l2.398-10.851l6.77,1.509l-1.934,8.839c2.341,0.156,4.65,0.625,6.867,1.393l1.934-8.723
	l6.77,1.509l-2.321,10.464c2.858,1.988,5.291,4.526,7.157,7.466c1.254,1.926,2.237,4.015,2.921,6.209l-10.89,3.443
	c-0.399-1.24-0.944-2.429-1.625-3.54c-4.432-6.93-13.642-8.955-20.571-4.523c-6.93,4.432-8.955,13.642-4.523,20.571
	c4.432,6.93,13.642,8.955,20.571,4.523c0.005-0.003,0.011-0.007,0.016-0.01c1.092-0.713,2.093-1.557,2.979-2.514l8.395,7.737l0,0
	L69.924,67.028z"/>
<g>
	<path fill="#FFFFFF" d="M39.545,21.362H29.424c-2.014,0-3.944,0.8-5.368,2.223c-1.423,1.424-2.223,3.354-2.223,5.368v10.121
		c0,2.014,0.8,3.944,2.223,5.368c1.424,1.423,3.354,2.223,5.368,2.223h10.121c2.014,0,3.944-0.8,5.368-2.223
		c1.423-1.424,2.223-3.354,2.223-5.368V28.953c0-2.014-0.8-3.944-2.223-5.368C43.489,22.161,41.559,21.362,39.545,21.362z
		 M42.076,39.074c0,0.671-0.267,1.315-0.741,1.789c-0.474,0.474-1.118,0.741-1.789,0.741H29.424c-0.671,0-1.315-0.267-1.789-0.741
		c-0.474-0.474-0.741-1.118-0.741-1.789V28.953c0-0.671,0.267-1.315,0.741-1.789c0.474-0.474,1.118-0.741,1.789-0.741h10.121
		c0.671,0,1.315,0.267,1.789,0.741c0.474,0.474,0.741,1.118,0.741,1.789L42.076,39.074L42.076,39.074z"/>
	<path fill="#FFFFFF" d="M39.545,51.725H29.424c-2.014,0-3.944,0.8-5.368,2.223c-1.423,1.424-2.223,3.354-2.223,5.368v10.121
		c0,2.014,0.8,3.944,2.223,5.368c1.424,1.423,3.354,2.223,5.368,2.223h10.121c2.014,0,3.944-0.8,5.368-2.223
		c1.423-1.424,2.223-3.354,2.223-5.368V59.316c0-2.014-0.8-3.944-2.223-5.368C43.489,52.525,41.559,51.725,39.545,51.725z
		 M42.076,69.437c0,0.671-0.267,1.315-0.741,1.789c-0.474,0.474-1.118,0.741-1.789,0.741H29.424c-0.671,0-1.315-0.267-1.789-0.741
		c-0.474-0.474-0.741-1.118-0.741-1.789V59.316c0-0.671,0.267-1.315,0.741-1.789c0.474-0.474,1.118-0.741,1.789-0.741h10.121
		c0.671,0,1.315,0.267,1.789,0.741c0.474,0.474,0.741,1.118,0.741,1.789L42.076,69.437L42.076,69.437z"/>
	<path fill="#FFFFFF" d="M69.909,51.725H59.788c-2.014,0-3.944,0.8-5.368,2.223c-1.423,1.424-2.223,3.354-2.223,5.368v10.121
		c0,2.014,0.8,3.944,2.223,5.368c1.424,1.423,3.354,2.223,5.368,2.223h10.121c2.014,0,3.944-0.8,5.368-2.223
		c1.423-1.424,2.223-3.354,2.223-5.368V59.316c0-2.014-0.8-3.944-2.223-5.368C73.853,52.525,71.923,51.725,69.909,51.725z
		 M72.439,69.437c0,0.671-0.267,1.315-0.741,1.789s-1.118,0.741-1.789,0.741H59.788c-0.671,0-1.315-0.267-1.789-0.741
		c-0.474-0.474-0.741-1.118-0.741-1.789V59.316c0-0.671,0.267-1.315,0.741-1.789c0.474-0.474,1.118-0.741,1.789-0.741h10.121
		c0.671,0,1.315,0.267,1.789,0.741c0.474,0.474,0.741,1.118,0.741,1.789C72.439,59.316,72.439,69.437,72.439,69.437z"/>
	<path fill="#FFFFFF" d="M69.909,21.362H59.788c-2.014,0-3.944,0.8-5.368,2.223c-1.423,1.424-2.223,3.354-2.223,5.368v10.121
		c0,2.014,0.8,3.944,2.223,5.368c1.424,1.423,3.354,2.223,5.368,2.223h10.121c2.014,0,3.944-0.8,5.368-2.223
		c1.423-1.424,2.223-3.354,2.223-5.368V28.953c0-2.014-0.8-3.944-2.223-5.368C73.853,22.161,71.923,21.362,69.909,21.362z
		 M72.439,39.074c0,0.671-0.267,1.315-0.741,1.789c-0.474,0.474-1.118,0.741-1.789,0.741H59.788c-0.671,0-1.315-0.267-1.789-0.741
		c-0.474-0.474-0.741-1.118-0.741-1.789V28.953c0-0.671,0.267-1.315,0.741-1.789c0.474-0.474,1.118-0.741,1.789-0.741h10.121
		c0.671,0,1.315,0.267,1.789,0.741c0.474,0.474,0.741,1.118,0.741,1.789C72.439,28.953,72.439,39.074,72.439,39.074z"/>
</g>
<line fill="none" stroke="#1E7E31" stroke-width="9" stroke-linecap="round" stroke-miterlimit="10" x1="80" y1="19.362" x2="21.644" y2="77.718"/>
<line fill="none" stroke="#FFFFFF" stroke-width="6" stroke-linecap="round" stroke-miterlimit="10" x1="80" y1="19.362" x2="21.347" y2="78.014"/>
<line display="none" fill="none" stroke="#FFFFFF" stroke-width="6" stroke-linecap="round" stroke-miterlimit="10" x1="79" y1="79.574" x2="20.347" y2="20.921"/>
<rect x="25.5" y="25.25" fill="#FFFFFF" width="18" height="18"/>
<rect x="55.848" y="55.377" fill="#FFFFFF" width="18" height="18"/>
</svg>
