<?xml version="1.0" encoding="utf-8"?>
<!-- Generator: Adobe Illustrator 17.0.0, SVG Export Plug-In . SVG Version: 6.00 Build 0)  -->
<!DOCTYPE svg PUBLIC "-//W3C//DTD SVG 1.1//EN" "http://www.w3.org/Graphics/SVG/1.1/DTD/svg11.dtd">
<svg version="1.1" id="Layer_1" xmlns="http://www.w3.org/2000/svg" xmlns:xlink="http://www.w3.org/1999/xlink" x="0px" y="0px"
	 width="100px" height="100px" viewBox="0 0 100 100" enable-background="new 0 0 100 100" xml:space="preserve">
<g>
	<g>
		<g>
			<g>
				<g>
					<g enable-background="new    ">
						
							<path fill="none" stroke="#000000" stroke-width="3" stroke-linecap="round" stroke-linejoin="round" stroke-miterlimit="10" d="
							M88.488,13.916c-2.395-0.961-9.757-1.658-9.757-1.658c3.196,1.857,7.105,3.514,7.12,9.125
							c0.03,11.295-7.913,25.053-17.744,30.73c-4.946,2.857-9.428,3.12-12.664,1.24l8.102,4.707
							c3.236,1.881,7.718,1.617,12.664-1.24c9.83-5.677,17.776-19.435,17.744-30.73C93.939,20.481,91.919,15.29,88.488,13.916z"/>
						
							<path fill="none" stroke="#000000" stroke-width="3" stroke-linecap="round" stroke-linejoin="round" stroke-miterlimit="10" d="
							M81.982,5.176c-3.841-2.232-9.16-1.918-15.032,1.472l0,0c-11.667,6.735-21.095,23.065-21.055,36.47
							c0.018,6.66,2.369,11.346,6.164,13.55l7.034,4.088c-3.792-2.204-6.143-6.89-6.164-13.55
							c-0.039-13.406,9.39-29.734,21.055-36.47c5.872-3.388,11.189-3.704,15.032-1.472L81.982,5.176z"/>
						<path d="M75.721,10.144c12.389-7.152,22.465-1.411,22.504,12.823c0.041,14.235-9.97,31.574-22.357,38.726
							s-22.465,1.411-22.504-12.823C53.323,34.632,63.331,17.296,75.721,10.144z M75.851,56.485
							c9.885-5.708,17.871-19.541,17.84-30.897c-0.031-11.357-8.072-15.941-17.957-10.233s-17.87,19.543-17.838,30.899
							C57.927,57.608,65.966,62.19,75.851,56.485L75.851,56.485z"/>
					</g>
					<g>
						
							<path fill="none" stroke="#000000" stroke-width="3" stroke-linecap="round" stroke-linejoin="round" stroke-miterlimit="10" d="
							M23.182,72.169l24.569-19.336c0.553-0.434,1.472-0.389,2.576,0.229c1.975,1.11,3.793,3.641,4.056,5.657
							c0.116,0.89-0.087,1.53-0.523,1.87L29.29,79.923c0.435-0.343,0.64-0.983,0.523-1.87c-0.265-2.015-2.079-4.547-4.056-5.657
							C24.651,71.78,23.731,71.735,23.182,72.169z"/>
						<path d="M5.106,83.156l33.174-26.112c0.86-0.676,2.295-0.608,4.014,0.358c3.08,1.727,5.911,5.675,6.322,8.816
							c0.182,1.387-0.139,2.385-0.815,2.917L14.628,95.248c0.679-0.533,0.998-1.533,0.815-2.917
							c-0.411-3.141-3.242-7.089-6.322-8.816C7.4,82.547,5.965,82.479,5.106,83.156z"/>
						
							<path fill="none" stroke="#000000" stroke-width="3" stroke-linecap="round" stroke-linejoin="round" stroke-miterlimit="10" d="
							M2.715,89.953c-0.027-0.268-0.053-0.628-0.059-0.9c-0.004-0.171,0.004-0.396,0.022-0.567c0.033-0.292,0.088-0.684,0.148-0.973
							c0.054-0.253,0.147-0.59,0.245-0.829c0.088-0.216,0.198-0.507,0.305-0.712c0.148-0.281,0.36-0.655,0.546-0.913
							c0.417-0.574,0.812-0.989,1.366-1.433c0.772-0.607,2.06-0.546,3.604,0.321c2.765,1.551,5.307,5.095,5.676,7.915
							c0.164,1.245-0.125,2.141-0.732,2.619c-0.268,0.195-0.638,0.443-0.922,0.614c-0.172,0.104-0.415,0.216-0.598,0.295
							c-0.789,0.343-1.459,0.459-1.712,0.494c-0.9,0.122-2.136,0.181-3.706-0.457C5.146,94.714,3.125,92.902,2.715,89.953
							c0.142,1.081,0.858,2.092,2.136,2.809C3.574,92.046,2.856,91.036,2.715,89.953z"/>
					</g>
				</g>
			</g>
		</g>
	</g>
</g>
</svg>
