<?xml version="1.0" encoding="utf-8"?>
<!-- Generator: Adobe Illustrator 17.0.0, SVG Export Plug-In . SVG Version: 6.00 Build 0)  -->
<!DOCTYPE svg PUBLIC "-//W3C//DTD SVG 1.1//EN" "http://www.w3.org/Graphics/SVG/1.1/DTD/svg11.dtd">
<svg version="1.1" id="Layer_1" xmlns="http://www.w3.org/2000/svg" xmlns:xlink="http://www.w3.org/1999/xlink" x="0px" y="0px"
	 width="100px" height="100px" viewBox="0 0 100 100" enable-background="new 0 0 100 100" xml:space="preserve">
<g>
	<g>
		<g>
			<path fill="none" stroke="#000000" stroke-width="3" stroke-linecap="round" stroke-miterlimit="10" d="M77.48,62.294
				c0.64-0.894,1.164-0.726,1.164,0.374v6.749c0,1.1-0.543,2.718-1.207,3.595c0,0-8.727,11.527-27.346,11.527
				c-19.589,0-28.156-11.517-28.156-11.517c-0.657-0.883-1.194-2.505-1.194-3.605v-6.757c0-1.1,0.49-1.245,1.09-0.323
				c0,0,1.57,2.416,5.757,5.323c5.657,3.93,14.104,7.902,22.503,7.816c7.553-0.077,15.073-3.543,20.5-7.137
				C75.467,65.105,77.48,62.294,77.48,62.294z"/>
		</g>
		<g display="none">
			<polygon display="inline" fill="#23292C" points="84.422,63.289 84.422,63.279 84.422,63.299 			"/>
			<path display="inline" fill="#18521E" d="M84.404,62.889c-0.571-6.86-15.806-12.355-34.519-12.355
				c-18.722,0-33.962,5.5-34.519,12.365c-0.011,0.129-0.018,0.259-0.018,0.39c0,6.986,15.215,14.319,34.079,14.411
				c0.152,0,0.307,0.002,0.459,0.002c0.02,0,0.041,0,0.059,0c0.14,0,0.276,0.002,0.416,0.002c0.083,0,0.167-0.002,0.251-0.005
				c18.73-0.142,33.797-7.45,33.812-14.401v-0.02C84.422,63.147,84.413,63.018,84.404,62.889z"/>
		</g>
		<path fill="none" stroke="#000000" stroke-width="3" stroke-miterlimit="10" d="M23.472,46.595l0.034,14.362
			c0,4.343,8.221,12.566,26.708,12.566c19.872,0,26.038-8.653,25.978-12.566l0.034-14.272"/>
		<path display="none" opacity="0.5" fill="#0F1214" enable-background="new    " d="M17.193,56.555
			c0-3.621,5.541-3.857,13.11-0.462c12.639,5.67,27.133,19.059,37.557,16.891c9.816-2.825,13.888-7.613,14.586-9.652
			c0.048-0.444,0.086-0.819,0.114-1.088l0.028-13.148c-0.477-0.015-13.331-0.403-26.073-0.824l-6.631,3.621l-7.523-4.111
			c-6.601-0.241-11.312-0.444-11.229-0.528c0.276-0.276-13.169-2.485-13.169-2.485l-0.791,0.469L17.193,56.555z"/>
		<defs>
			<filter id="Adobe_OpacityMaskFilter" filterUnits="userSpaceOnUse" x="72.105" y="48.513" width="10.498" height="23.325">
				<feColorMatrix  type="matrix" values="1 0 0 0 0  0 1 0 0 0  0 0 1 0 0  0 0 0 1 0"/>
			</filter>
		</defs>
		<mask maskUnits="userSpaceOnUse" x="72.105" y="48.513" width="10.498" height="23.325" id="SVGID_2_">
			<g filter="url(#Adobe_OpacityMaskFilter)">
				
					<linearGradient id="SVGID_1_" gradientUnits="userSpaceOnUse" x1="603.811" y1="751.0649" x2="584.4689" y2="751.0649" gradientTransform="matrix(1 0 0 1 -512 -690)">
					<stop  offset="0" style="stop-color:#FFFFFF"/>
					<stop  offset="0.0389" style="stop-color:#EAE8E5"/>
					<stop  offset="0.308" style="stop-color:#776E68"/>
					<stop  offset="0.5482" style="stop-color:#37302E"/>
					<stop  offset="0.7507" style="stop-color:#181414"/>
					<stop  offset="0.9076" style="stop-color:#11100F"/>
					<stop  offset="1" style="stop-color:#0D0D0C"/>
				</linearGradient>
				<rect x="49.27" y="33.534" fill="url(#SVGID_1_)" width="59.3" height="55.062"/>
			</g>
		</mask>
		<polygon display="none" opacity="0.7" mask="url(#SVGID_2_)" fill="#CFCCC4" enable-background="new    " points="82.604,59.069 
			82.604,48.513 72.105,53.055 72.658,71.838 81.99,63.859 		"/>
		<path display="none" fill="#0F1214" fill-opacity="0" d="M32.633,66.529c4.991,1.76,10.891,2.856,17.243,2.856
			c20.073,0,32.681-7.488,32.681-13.154l0.063-19.979l-32.734-3.268l-32.738,2.315l0.063,17.263c0,4.698,5.18,9.79,13.231,13.128
			L32.633,66.529z"/>
		<polygon display="none" fill="#18521E" points="85.473,33.628 49.863,17.61 14.535,33.628 -2.382,36.94 -2.382,40.429 
			-2.382,40.429 49.863,63.631 102.573,40.429 102.575,40.429 102.575,36.94 		"/>
		<g>
			<path d="M49.894,17.679c1.621,0,3.156,0.272,4.21,0.746L95.196,36.91l-41.05,18.069c-1.065,0.469-2.614,0.738-4.251,0.738
				c-1.656,0-3.222-0.274-4.298-0.752L4.943,36.91l40.697-18.471C46.704,17.956,48.255,17.679,49.894,17.679 M49.894,14.679
				c-1.992,0-3.985,0.343-5.495,1.028L3.082,34.46c-3.005,1.364-2.996,3.576,0.02,4.915l41.277,18.331
				c1.515,0.673,3.516,1.01,5.515,1.01c1.98,0,3.957-0.33,5.46-0.992l41.729-18.368c3.02-1.329,3.029-3.525,0.02-4.879
				l-41.768-18.79C53.837,15.015,51.867,14.679,49.894,14.679L49.894,14.679z"/>
		</g>
		<path display="none" opacity="0.4" fill="#0F1214" enable-background="new    " d="M50.622,33.922c0,0-23.75,7.059-27.357,13.422
			c-0.377,0.666-0.629,1.803-0.789,3.137l2.072,1.194c0,0,0.026-2.81,0.375-3.423c3.598-6.299,27.754-13.564,27.754-13.564
			L50.622,33.922z"/>
		
			<ellipse display="none" opacity="0.5" fill="#0F1214" enable-background="new    " cx="50.043" cy="34.262" rx="4.641" ry="2.221"/>
		<g>
			<g>
				<path d="M49.006,33.063c0,0-36.291,7.059-41.802,13.422c-2.359,2.726-1.426,13.244-1.426,13.244l2.874-0.284
					c0,0-1.062-9.59,1.088-12.053c5.498-6.299,41.628-13.158,41.628-13.158L49.006,33.063z"/>
			</g>
			<path d="M44.276,35.299l2.109-0.396c0,0-0.973-0.67-1.124-0.72c-0.152-0.051-0.903,0.195-0.903,0.195L43.95,34.49
				C44.315,34.447,44.748,35.175,44.276,35.299z"/>
		</g>
		<g>
			<ellipse cx="50.043" cy="33.138" rx="4.321" ry="2.067"/>
		</g>
		<g display="none">
			
				<linearGradient id="SVGID_3_" gradientUnits="userSpaceOnUse" x1="533.4166" y1="755.2909" x2="535.222" y2="755.2909" gradientTransform="matrix(1 0 0 1 -512 -690)">
				<stop  offset="0" style="stop-color:#F2F31E"/>
				<stop  offset="1" style="stop-color:#F88212"/>
			</linearGradient>
			<rect x="21.417" y="62.383" display="inline" fill="url(#SVGID_3_)" width="1.805" height="5.815"/>
		</g>
		<g>
			<path d="M12.126,78.273c0-0.649-0.576-5.768-1.57-10.276c-0.776-3.514-1.639-6.721-3.778-6.721
				c-4.881,0-5.448,15.663-5.347,16.996c0.058,0.783,0.458,1.591,1.587,2.224c0.353,0.199,0.911,0.349,1.132,0.402
				c0.695,0.171,1.56,0.27,2.629,0.272c0.503,0,0.964,0.002,1.38-0.068c0.548-0.096,0.806-0.122,1.105-0.186
				C11.484,80.43,12.126,79.156,12.126,78.273z"/>
			<path d="M7.281,61.34c-0.146-0.039-0.298-0.06-0.456-0.064c-0.244,0.146-0.562,0.349-0.971,0.621
				c-3.224,2.15-4.096,13.248-4.115,17.407c0.244,0.428,0.646,0.837,1.277,1.192c0.353,0.199,0.911,0.349,1.132,0.402
				c0.304,0.075,0.641,0.135,1.014,0.18c0.068-7.056,0.95-17.984,1.472-19.103C6.633,61.976,7.014,61.631,7.281,61.34z"/>
			<path d="M11.125,80.088c0.74-0.569,1.001-1.262,1.001-1.818c0-1.153-0.466-16.996-5.347-16.996c-0.674,0-1.264,0.3-1.784,0.817
				c-0.281,0.402,2.139,0.559,2.881,1.67c1.76,2.642,3.261,7.612,3.261,16.207C11.138,80.011,11.129,80.05,11.125,80.088z"/>
		</g>
	</g>
	<g>
		<path d="M7.188,62.711H6.891c-1.111,0-2.019-0.907-2.019-2.019v-1.476c0-1.111,0.907-2.019,2.019-2.019h0.296
			c1.111,0,2.019,0.907,2.019,2.019v1.476C9.206,61.803,8.299,62.711,7.188,62.711z"/>
		<path d="M7.926,57.394c-0.271-0.122-0.571-0.193-0.885-0.193l0,0c-1.192,0-2.166,0.974-2.166,2.166v1.179
			c0,1.022,0.718,1.881,1.671,2.107c-0.396-0.431-0.434-1.217-0.363-3.281C6.232,57.9,7.155,57.479,7.926,57.394z"/>
	</g>
</g>
<path d="M2.506,39.111L42,59.729c0,0,8,5.354,15.875,0l39.768-20.619L89.125,41.5L54.364,57.201h-4.268l-3.712-0.003l-7.134-2.323
	L2.506,39.111z"/>
<path d="M19.667,71.917c0,0,5.316,18.667,30.408,17.5l-0.075-4L36.667,83.5L30.5,80.088L23,74.333l-1.333-1.734L19.667,71.917z"/>
<path d="M79.528,71.917c0,0-5.316,18.667-30.408,17.5l0.075-4L62.528,83.5l6.167-3.412l7.5-5.754l1.333-1.734L79.528,71.917z"/>
</svg>
