<?xml version="1.0" encoding="utf-8"?>
<!-- Generator: Adobe Illustrator 17.0.0, SVG Export Plug-In . SVG Version: 6.00 Build 0)  -->
<!DOCTYPE svg PUBLIC "-//W3C//DTD SVG 1.1//EN" "http://www.w3.org/Graphics/SVG/1.1/DTD/svg11.dtd">
<svg version="1.1" id="Layer_1" xmlns="http://www.w3.org/2000/svg" xmlns:xlink="http://www.w3.org/1999/xlink" x="0px" y="0px"
	 width="100px" height="100px" viewBox="0 0 100 100" enable-background="new 0 0 100 100" xml:space="preserve">
<g>
	<g>
		<path display="none" opacity="0.5" fill="#D7E8ED" enable-background="new    " d="M89.063,26.976
			c-9.281-5.358-24.328-5.358-33.608,0c-3.848,2.221-6.095,5.015-6.752,7.907c0.58,2.55,2.4,5.024,5.461,7.097
			c0.765-0.625,1.623-1.224,2.593-1.784c9.281-5.358,24.327-5.358,33.608,0c0.457,0.264,0.885,0.538,1.297,0.818
			c2.278-1.856,3.662-3.966,4.154-6.131C95.158,31.992,92.911,29.198,89.063,26.976z"/>
		<path d="M48.139,39.161l3.626-4.727l11.009-5.116l9.485-0.842l11.108,1.36l7.706,3.983l4.922,3.141l0.885-5.116l-1.662-5.893
			c0,0-4.209-2.785-4.468-3.044s-9.843-3.691-9.843-3.691l-9.584-0.648l-7.706,0.971l-7.836,2.331L50.6,25.496l-3.885,4.922
			l-0.437,6.152L48.139,39.161z"/>
		<polygon points="99.542,33.089 99.542,43.047 96.88,38.729 		"/>
		<path d="M55.455,33.606c9.28-5.358,24.327-5.358,33.608,0c2.919,1.685,4.919,3.7,6.001,5.837c0.818-0.732,1.87-1.307,2.307-2.292
			c-1.33-1.81-3.265-3.506-5.821-4.982c-10.655-6.151-27.929-6.152-38.584,0c-2.332,1.346-4.153,2.876-5.464,4.508
			c0.429,1.003,1.08,1.973,1.947,2.774C50.532,37.312,52.532,35.294,55.455,33.606z"/>
		<path d="M97.372,37.152c-0.186,0.419-0.486,0.762-0.829,1.076l-0.008-0.104l-2.461,1.468l-3.022,2.806l-4.188,1.856l-5.785,2.072
			l-5.137,1.209l-7.08,0.302l-4.576-0.475l-9.066-2.374l-5.908-5.223c0.048-0.105,0.087-0.21,0.139-0.314
			c-0.867-0.801-1.518-1.77-1.947-2.774c-0.16,0.199-0.311,0.4-0.455,0.602l-2.071-4.314v10.343l0.005-0.009
			c-0.004,4.034,2.655,8.069,7.986,11.147c10.655,6.152,27.929,6.152,38.584,0C99.65,49.771,101.586,42.887,97.372,37.152z"/>
		<path d="M51.441,41.65l-2.131-1.884c0.048-0.105,0.087-0.21,0.139-0.314c-0.867-0.801-1.518-1.77-1.947-2.774
			c-0.16,0.199-0.311,0.4-0.455,0.602l-2.071-4.314v10.343l0.005-0.009c-0.004,3.627,2.152,7.252,6.46,10.184V41.65z"/>
		<path d="M91.551,21.951c-10.655-6.151-27.929-6.152-38.584,0c-10.654,6.151-10.654,16.125,0.001,22.276s27.929,6.152,38.584,0
			C102.206,38.076,102.206,28.102,91.551,21.951z M89.063,42.791c-9.281,5.358-24.327,5.358-33.608,0s-9.281-14.046,0-19.404
			c9.28-5.358,24.327-5.358,33.608,0S98.344,37.433,89.063,42.791z"/>
		<g>
			<g>
				<polygon fill="none" stroke="#000000" stroke-miterlimit="10" points="35.122,55.516 50.243,46.716 52.254,49.973 37.063,58.82 
									"/>
				<path fill="#983898" d="M37.448,57.951c0,0.864-0.607,1.215-1.355,0.783c-0.749-0.432-1.355-1.483-1.355-2.348
					c0-0.864,0.607-1.215,1.355-0.782C36.841,56.035,37.448,57.086,37.448,57.951z"/>
				<path fill="#983898" d="M37.448,57.951c0,0.864-0.607,1.215-1.355,0.783c-0.749-0.432-1.355-1.483-1.355-2.348
					c0-0.864,0.607-1.215,1.355-0.782C36.841,56.035,37.448,57.086,37.448,57.951z"/>
				<path fill="#FFFFFF" d="M52.574,49.148c0,0.864-0.607,1.215-1.355,0.783c-0.749-0.432-1.355-1.483-1.355-2.348
					s0.607-1.215,1.355-0.783C51.968,47.233,52.574,48.284,52.574,49.148z"/>
			</g>
			<path d="M44.887,58.589c0-3.719-2.611-8.242-5.833-10.102c-1.649-0.952-3.135-1.017-4.196-0.359l-0.002-0.003L2.887,66.706
				l8.354,14.22L42.874,62.51c0.217-0.092,0.421-0.21,0.608-0.354l0.027-0.015l-0.001-0.002
				C44.366,61.461,44.887,60.246,44.887,58.589z"/>
			<path d="M5.2,70.643l35.782-20.659c-0.604-0.594-1.251-1.107-1.928-1.498c-1.649-0.952-3.135-1.017-4.196-0.359l-0.002-0.003
				L2.887,66.706L5.2,70.643z"/>
			<g>
				<path d="M12.896,77.183c0,3.719-2.611,5.227-5.833,3.367C3.842,78.69,1.23,74.167,1.23,70.448c0-3.719,2.611-5.227,5.833-3.367
					C10.285,68.94,12.896,73.463,12.896,77.183z"/>
				<circle fill="#FFFFFF" stroke="#000000" stroke-miterlimit="10" cx="4.361" cy="75.445" r="3.799"/>
				<circle fill="#FFFFFF" cx="2.543" cy="74.053" r="1.122"/>
			</g>
			<path fill="#FFFFFF" d="M7.494,66.831c-1.724-0.995-3.268-1.018-4.336-0.262c1.034-0.482,2.401-0.356,3.905,0.512
				c3.221,1.86,5.833,6.383,5.833,10.102c0,1.729-0.569,2.972-1.497,3.629c1.181-0.551,1.927-1.897,1.927-3.879
				C13.327,73.213,10.715,68.691,7.494,66.831z"/>
		</g>
		<g>
			<path fill="#FFFFFF" d="M89.063,23.387c-9.281-5.358-24.328-5.358-33.608,0c-4.833,2.79-7.143,6.483-6.942,10.139
				c0.185-3.364,2.495-6.697,6.942-9.264c9.28-5.358,24.327-5.358,33.608,0c4.448,2.568,6.758,5.901,6.943,9.265
				C96.206,29.871,93.896,26.178,89.063,23.387z"/>
			<path fill="#FFFFFF" d="M91.551,44.227c-10.654,6.151-27.929,6.151-38.584,0c-5.135-2.965-7.788-6.817-7.973-10.701
				c-0.2,4.176,2.453,8.389,7.973,11.576c10.655,6.152,27.929,6.152,38.584,0c5.52-3.187,8.172-7.399,7.973-11.575
				C99.338,37.411,96.686,41.263,91.551,44.227z"/>
		</g>
	</g>
</g>
</svg>
