<?xml version="1.0" encoding="utf-8"?>
<!-- Generator: Adobe Illustrator 17.0.0, SVG Export Plug-In . SVG Version: 6.00 Build 0)  -->
<!DOCTYPE svg PUBLIC "-//W3C//DTD SVG 1.1//EN" "http://www.w3.org/Graphics/SVG/1.1/DTD/svg11.dtd">
<svg version="1.1" id="Layer_1" xmlns="http://www.w3.org/2000/svg" xmlns:xlink="http://www.w3.org/1999/xlink" x="0px" y="0px"
	 width="100px" height="100px" viewBox="0 0 100 100" enable-background="new 0 0 100 100" xml:space="preserve">
<g>
	<g>
		<g display="none">
			<path display="inline" fill="#FF0000" d="M50.23,45.429c-5.096,0-9.844,1.128-13.37,3.178c-3.176,1.845-4.922,4.189-4.918,6.597
				c0.004,2.434,1.783,4.8,5.011,6.665c3.552,2.052,8.318,3.182,13.414,3.182c5.094,0,9.839-1.128,13.363-3.176
				c3.18-1.847,4.929-4.193,4.924-6.603c-0.004-2.432-1.783-4.8-5.014-6.663C60.092,46.558,55.328,45.429,50.23,45.429z"/>
			<path display="inline" fill="#FF0000" d="M42.38,119.586l-0.897,0.803"/>
		</g>
		<g>
			<g>
				<g>
					<g>
						<g>
							<g>
								<g>
									<g>
										<path d="M70.608,45.133v0.348c-0.087,1.612-0.743,3.224-1.969,4.701c-0.985-1.236-2.355-2.384-4.103-3.388
											c-7.954-4.585-20.841-4.595-28.747,0c-1.651,0.965-2.954,2.056-3.91,3.215c-1.265-1.573-1.892-3.272-1.892-4.971
											c0-0.801,0.135-1.602,0.425-2.384c0.106-0.319,0.241-0.637,0.405-0.956c0.55-1.091,1.38-2.143,2.491-3.118
											c0.367-0.328,0.763-0.637,1.197-0.946c0.425-0.309,0.878-0.608,1.371-0.888c1.12-0.647,2.326-1.197,3.61-1.66
											c0.425-0.154,0.859-0.299,1.303-0.434c0.589-0.183,1.187-0.338,1.796-0.483c1.226-0.28,2.481-0.502,3.765-0.647
											c0.637-0.068,1.284-0.125,1.931-0.154c1.294-0.077,2.606-0.077,3.9,0c0.647,0.029,1.294,0.087,1.931,0.154
											c1.284,0.145,2.548,0.367,3.774,0.647c0.618,0.145,1.216,0.299,1.805,0.483c0.444,0.135,0.878,0.28,1.313,0.434
											c1.284,0.463,2.5,1.014,3.62,1.66c0.251,0.145,0.492,0.29,0.724,0.444c0.232,0.154,0.454,0.299,0.676,0.454
											c0,0,0,0.01,0.01,0.01c0.434,0.309,0.84,0.618,1.207,0.946c0,0,0,0.01,0.01,0.01c0.183,0.164,0.367,0.328,0.531,0.502
											c1.197,1.168,2.018,2.433,2.452,3.736C70.483,43.598,70.608,44.37,70.608,45.133z"/>
										<polygon fill="#164717" points="2.972,47.193 2.883,57.235 2.855,52.991 2.942,42.951 										"/>
										<path d="M97.653,47.193l-0.087,10.041c-0.511,0.324-0.819,0.526-1.329,0.856l0.087-10.041
											C96.835,47.721,97.142,47.517,97.653,47.193L97.653,47.193z"/>
										<path fill="#174917" d="M4.305,48.047L4.218,58.089c-0.515-0.324-0.824-0.526-1.335-0.854L2.97,47.193
											C3.481,47.522,3.793,47.723,4.305,48.047L4.305,48.047z"/>
										<polygon points="96.324,48.052 96.238,58.091 85.18,58.767 85.269,48.726 										"/>
										<polygon fill="#2C7A23" points="15.369,48.724 15.282,58.763 4.218,58.09 4.305,48.047 										"/>
										<path fill="#247424" d="M80.319,65.395l1.545-0.898c-0.734,0.84-1.564,1.641-2.5,2.423l0.01-1.496
											C79.663,65.414,79.962,65.405,80.319,65.395z"/>
										<path d="M85.262,48.743l-0.087,10.02c-0.174,0.579-0.396,1.158-0.656,1.728l-5.058-3.62
											c0.376-0.309,0.734-0.627,1.072-0.946c2.211-2.085,3.736-4.334,4.556-6.661C85.146,49.091,85.204,48.917,85.262,48.743z"
											/>
										<path fill="none" d="M21.28,56.881L21.193,66.92c-1.091-0.898-2.046-1.824-2.848-2.79l2.153,1.245l-1.989-6.506
											l-2.471,1.776c-0.299-0.618-0.55-1.245-0.753-1.882l0.087-10.039C16.279,51.601,18.249,54.39,21.28,56.881z"/>
										<path fill="#216820" d="M85.573,61.241l-0.087,10.041c-0.036,0.443-0.064,0.712-0.096,1.151l0.087-10.041
											C85.506,61.952,85.534,61.682,85.573,61.241L85.573,61.241z"/>
										<path fill="#174917" d="M15.321,62.393l-0.087,10.039c-0.046-0.439-0.072-0.712-0.112-1.149l0.087-10.041
											C15.248,61.681,15.273,61.952,15.321,62.393L15.321,62.393z"/>
										<path d="M56.715,65.32l-0.087,10.041c4.963-0.517,9.768-1.654,14.063-3.4l0.087-10.041
											C66.483,63.666,61.68,64.8,56.715,65.32z"/>
										<polygon points="85.477,62.393 85.388,72.432 80.226,75.432 80.315,65.392 										"/>
										<path d="M30.013,61.92l-0.087,10.041c4.303,1.746,9.121,2.883,14.095,3.398l0.087-10.041
											C39.134,64.8,34.316,63.666,30.013,61.92z"/>
										<polygon points="78.327,65.451 78.24,75.492 70.691,71.959 70.778,61.918 										"/>
										<path d="M80.315,65.392l-0.087,10.041c-0.764,0.023-1.223,0.036-1.987,0.059l0.087-10.041
											C79.091,65.428,79.55,65.413,80.315,65.392L80.315,65.392z"/>
										<polygon points="18.509,58.869 15.275,61.196 15.324,48.724 15.324,48.444 15.652,49.515 										"/>
										<path d="M20.507,65.395l-0.087,10.039l-5.184-3.002l0.039-10.532c0.01,0.154,0.029,0.309,0.048,0.492l5.174,2.983
											L20.507,65.395z"/>
										<polygon points="30.013,61.92 29.926,71.959 22.411,75.495 22.498,65.454 										"/>
										<path d="M21.977,65.437c-0.494-0.017-0.895-0.032-1.464-0.046l-0.087,10.041c0.571,0.017,0.973,0.032,1.464,0.046
											c0.159,0.002,0.333,0.009,0.521,0.017l0.087-10.041C22.31,65.445,22.136,65.439,21.977,65.437z"/>
										<polygon points="56.715,65.32 56.628,75.359 55.498,81.766 55.587,71.724 										"/>
										<polygon points="45.31,71.722 45.223,81.763 44.021,75.357 44.108,65.316 										"/>
										<path d="M55.587,71.724L55.5,81.765c-0.564,0.294-0.911,0.473-1.471,0.769l0.087-10.041
											C54.675,72.199,55.023,72.019,55.587,71.724L55.587,71.724z"/>
										<polygon points="54.115,72.496 54.029,82.536 46.706,82.536 46.793,72.496 										"/>
										<path d="M46.793,72.496l-0.087,10.041c-0.569-0.294-0.922-0.477-1.484-0.774l0.087-10.041
											C45.873,72.019,46.228,72.201,46.793,72.496L46.793,72.496z"/>
									</g>
									
										<path fill="none" stroke="#000000" stroke-width="3" stroke-linecap="round" stroke-linejoin="round" stroke-miterlimit="10" d="
										M70.232,42.845c-0.434-1.303-1.255-2.568-2.452-3.736c-0.164-0.174-0.348-0.338-0.531-0.502c-0.01,0-0.01-0.01-0.01-0.01
										c-0.376-0.319-0.782-0.637-1.207-0.946c-0.01,0-0.01-0.01-0.01-0.01c-0.222-0.154-0.444-0.299-0.676-0.454
										c-0.241-0.145-0.473-0.29-0.724-0.434c-1.12-0.647-2.336-1.207-3.62-1.67c-0.434-0.154-0.869-0.299-1.313-0.434
										c-0.589-0.174-1.187-0.338-1.805-0.483c-1.226-0.28-2.491-0.502-3.774-0.647c-0.637-0.068-1.284-0.125-1.931-0.154
										c-1.294-0.077-2.606-0.077-3.9,0c-0.647,0.029-1.294,0.087-1.931,0.154c-1.284,0.145-2.539,0.367-3.765,0.647
										c-0.608,0.145-1.207,0.309-1.796,0.483c-0.444,0.135-0.878,0.28-1.303,0.434c-1.284,0.463-2.491,1.023-3.61,1.67
										c-0.483,0.28-0.946,0.579-1.371,0.878c-0.434,0.309-0.83,0.618-1.197,0.946c-1.11,0.975-1.94,2.027-2.491,3.118
										c-0.164,0.319-0.299,0.637-0.405,0.956c-0.29,0.782-0.425,1.583-0.425,2.384c0,1.699,0.627,3.398,1.892,4.971
										c0,0,0,0,0,0.01c0.985,1.226,2.346,2.365,4.093,3.379c7.954,4.595,20.851,4.595,28.747,0
										c1.651-0.956,2.964-2.046,3.919-3.215c1.226-1.477,1.882-3.089,1.969-4.701C70.656,44.602,70.531,43.714,70.232,42.845z
										 M15.208,61.244c0.019,0.251,0.039,0.454,0.068,0.656v-0.705L15.208,61.244z M79.45,56.871h0.01
										c0.376-0.319,0.734-0.627,1.072-0.946c2.211-2.085,3.736-4.334,4.556-6.661c0.068-0.174,0.125-0.348,0.174-0.521
										c0-0.01,0.01-0.019,0.01-0.029l11.053-0.666c0.512-0.338,0.821-0.541,1.323-0.859l-0.019-4.238
										c-0.512-0.328-0.83-0.531-1.342-0.859l-11.063-0.676c-0.907-2.877-2.877-5.666-5.908-8.147l6.072-4.363
										c-0.039-0.444-0.068-0.714-0.116-1.158l-5.193-2.993c-0.753-0.029-1.226-0.039-1.989-0.058l-7.51,3.523
										c-4.305-1.747-9.132-2.877-14.094-3.398l-1.207-6.4c-0.57-0.299-0.907-0.473-1.477-0.772h-7.327
										c-0.56,0.299-0.907,0.473-1.477,0.772l-1.12,6.41c-4.971,0.512-9.769,1.641-14.055,3.398l-7.559-3.533
										c-0.753,0.019-1.226,0.039-1.989,0.058l-5.155,2.993c-0.039,0.444-0.058,0.714-0.097,1.158l6.12,4.363
										c-3.002,2.491-4.942,5.28-5.821,8.157L4.261,42.092c-0.502,0.328-0.811,0.531-1.323,0.859l0.029,4.238
										c0.512,0.328,0.821,0.531,1.342,0.859l11.063,0.676c0.087,0.261,0.174,0.531,0.28,0.792
										c0.994,2.597,2.877,5.107,5.628,7.356l-2.77,1.998 M20.498,65.376l0.019,0.01c0.57,0.019,0.965,0.029,1.458,0.048
										c0.164,0,0.338,0.01,0.521,0.019l7.52-3.543c4.305,1.757,9.122,2.886,14.094,3.398l1.197,6.41
										c0.56,0.299,0.917,0.483,1.487,0.772h7.327c0.56-0.29,0.907-0.473,1.467-0.763l1.129-6.41
										c4.962-0.521,9.769-1.651,14.065-3.398l7.549,3.533c0.405-0.019,0.724-0.029,1.043-0.029
										c0.29-0.01,0.589-0.019,0.946-0.029l1.545-0.898l3.61-2.104c0.039-0.444,0.058-0.705,0.097-1.149l-1.052-0.753l-5.058-3.62
										"/>
									
										<line fill="none" stroke="#000000" stroke-width="3" stroke-linecap="round" stroke-linejoin="round" stroke-miterlimit="10" x1="20.498" y1="65.376" x2="18.345" y2="64.131"/>
									
										<line fill="none" stroke="#000000" stroke-width="3" stroke-linecap="round" stroke-linejoin="round" stroke-miterlimit="10" x1="18.509" y1="58.869" x2="16.038" y2="60.646"/>
									
										<path fill="none" stroke="#000000" stroke-width="3" stroke-linecap="round" stroke-linejoin="round" stroke-miterlimit="10" d="
										M16.038,60.646l-0.763,0.55v0.705c0.01,0.154,0.029,0.309,0.048,0.492l3.021,1.738"/>
								</g>
								<g>
									<g>
										<path d="M4.305,48.047L4.218,58.089c-0.515-0.324-0.824-0.526-1.335-0.854L2.97,47.193
											C3.481,47.522,3.793,47.723,4.305,48.047L4.305,48.047z"/>
										<polygon points="15.369,48.724 15.282,58.763 4.218,58.09 4.305,48.047 										"/>
										
											<path fill="none" stroke="#000000" stroke-width="3" stroke-linecap="round" stroke-linejoin="round" stroke-miterlimit="10" d="
											M15.369,48.724L4.305,48.047c-0.515-0.324-0.824-0.526-1.335-0.854l-0.03-4.244c0.511-0.324,0.819-0.526,1.324-0.854
											l11.059-0.672L15.369,48.724z"/>
									</g>
								</g>
							</g>
						</g>
					</g>
				</g>
			</g>
		</g>
	</g>
</g>
<rect x="78.945" y="56.487" transform="matrix(0.7071 -0.7071 0.7071 0.7071 -16.9575 72.7381)" width="0.757" height="0.703"/>
<path d="M16.25,51.475c0,0,3.449,4.526,4.652,5.079l-2.621,2.479l-2.913-3.779l0.783-4.1"/>
</svg>
