<svg width="71" height="71" viewBox="0 0 71 71" fill="none" xmlns="http://www.w3.org/2000/svg">
<path d="M35.1745 0C44.5033 0 53.4499 3.70584 60.0463 10.3023C66.6428 16.8987 70.3486 25.8454 70.3486 35.1741C70.3641 39.7976 69.4649 44.3785 67.7027 48.653C65.9406 52.9275 63.3502 56.8113 60.0809 60.0806C56.8116 63.3499 52.9278 65.9402 48.6533 67.7024C44.3788 69.4646 39.798 70.3638 35.1745 70.3483C30.5496 70.369 25.9663 69.4733 21.6895 67.713C17.4126 65.9526 13.5268 63.3625 10.2565 60.0922C6.98614 56.8218 4.39596 52.936 2.63562 48.6592C0.875283 44.3823 -0.0203429 39.7991 0.000350569 35.1741C0.000350569 25.8454 3.70622 16.8987 10.3027 10.3023C16.8991 3.70584 25.8457 0 35.1745 0Z" fill="#E6E6E6"/>
<path d="M39.239 29.0775H48.2083C48.2083 29.5074 48.1693 29.9177 48.0911 30.3086C47.7589 32.8294 47.4071 35.3502 47.0945 37.8905C47.0945 38.2423 46.9382 38.3009 46.6255 38.3009H39.6688C39.278 38.3009 39.1803 38.4182 39.1803 38.7895C39.1803 46.1565 39.1803 53.504 39.1803 60.871C39.1705 61.0011 39.1705 61.1317 39.1803 61.2618C39.1803 61.6526 39.0435 61.7308 38.6918 61.7308C37.2067 61.7308 35.7216 61.7308 34.2365 61.7308H30.3282C29.742 61.7308 29.7419 61.7308 29.7419 61.1641V38.3205H22.3163C21.945 38.3205 21.8473 38.2032 21.8473 37.8515C21.8473 35.0962 21.8473 32.3409 21.8473 29.566C21.8473 29.2143 21.945 29.097 22.3163 29.097H29.7419V22.2381C29.7027 20.1593 30.1441 18.0996 31.0317 16.2194C31.7542 14.7307 32.8266 13.4394 34.1573 12.4558C35.4879 11.4723 37.0371 10.8259 38.6722 10.572C40.6132 10.2912 42.5792 10.2257 44.5346 10.3766C45.7852 10.3766 47.0359 10.5524 48.2866 10.6306C48.5602 10.6306 48.6383 10.7674 48.6383 11.0214C48.6383 13.5422 48.6383 16.063 48.6383 18.5643C48.6383 18.916 48.4624 18.9356 48.1888 18.9356C46.4301 18.9356 44.6715 18.9356 42.9128 18.9356C42.4217 18.9699 41.9363 19.0617 41.4666 19.2092C40.8464 19.3932 40.304 19.776 39.9227 20.2986C39.5413 20.8211 39.3424 21.4545 39.3562 22.1013C39.3562 24.3485 39.3562 26.6153 39.3562 28.8625C39.3085 28.9291 39.2691 29.0013 39.239 29.0775Z" fill="#0E6F37"/>
</svg>
