<svg width="21" height="28" viewBox="0 0 21 28" fill="none" xmlns="http://www.w3.org/2000/svg">
<path d="M15.9942 25.122C15.8648 25.1409 15.7473 25.2076 15.6647 25.309C15.5822 25.4105 15.5407 25.5391 15.5484 25.6697C15.5484 25.6697 15.4593 25.8225 15.3956 25.8607C14.2249 26.5474 12.9232 26.9813 11.5746 27.1344C10.0602 27.301 8.52797 27.101 7.10708 26.5512C5.6862 26.0015 4.41835 25.1182 3.41044 23.9757C1.81566 22.2839 0.927231 20.047 0.926788 17.722C0.926788 15.4167 0.926788 13.1114 0.926788 10.806C0.926788 10.2838 1.13058 10.0928 1.65278 10.0928H19.484C20.0317 10.0928 20.21 10.2711 20.21 10.8188C20.21 13.2132 20.21 15.6205 20.21 18.0277C20.1975 19.5776 19.7568 21.094 18.9364 22.4091C18.7329 22.8628 18.4174 23.2573 18.0193 23.5554C17.892 23.6191 17.8538 23.8483 17.7519 23.9757C17.6262 24.097 17.4945 24.2118 17.357 24.3196C17.357 24.3196 17.3571 24.4215 17.2806 24.4469L16.5546 25.0838C16.5546 25.0838 16.4527 25.0838 16.4018 25.0838L15.9942 25.122ZM9.47308 19.0211V19.9382C9.45509 20.0991 9.47136 20.2619 9.52085 20.416C9.57035 20.5702 9.65195 20.7121 9.76025 20.8324C9.86854 20.9527 10.0011 21.0487 10.1492 21.1141C10.2973 21.1795 10.4575 21.2128 10.6194 21.2118C10.7785 21.2074 10.935 21.1702 11.0791 21.1026C11.2232 21.035 11.3518 20.9384 11.457 20.819C11.5622 20.6995 11.6416 20.5596 11.6903 20.408C11.739 20.2565 11.756 20.0966 11.7402 19.9382C11.7402 19.3523 11.7402 18.7791 11.7402 18.1933C11.7302 17.9955 11.7664 17.7982 11.846 17.6169C11.9256 17.4356 12.0463 17.2753 12.1987 17.1489C12.5377 16.8577 12.7802 16.4703 12.894 16.0381C13.0077 15.6058 12.9873 15.1493 12.8355 14.7289C12.714 14.2953 12.464 13.9086 12.1184 13.6199C11.7728 13.3311 11.3479 13.1538 10.8996 13.1114C10.4521 13.0444 9.99489 13.1144 9.58798 13.3122C9.18107 13.51 8.84352 13.8262 8.61971 14.2194C8.32651 14.6804 8.20656 15.2305 8.2812 15.7717C8.35585 16.3129 8.62025 16.81 9.02729 17.1743C9.17382 17.2994 9.29007 17.4561 9.36728 17.6326C9.4445 17.8091 9.48067 18.0008 9.47308 18.1933C9.46035 18.4607 9.47308 18.7409 9.47308 19.0211V19.0211Z" fill="#A5A5A5"/>
<path d="M6.26344 8.4753H2.93921C2.83726 6.65223 3.42118 4.85701 4.57614 3.44278C5.73109 2.02855 7.37346 1.09769 9.18014 0.833334C11.1458 0.456366 13.1808 0.865586 14.848 1.97304C16.5151 3.0805 17.6813 4.7978 18.0958 6.75586L14.7842 7.571C14.5494 7.06801 14.2857 6.57896 13.9946 6.10629C13.6414 5.5295 13.1477 5.0517 12.5596 4.71759C11.9716 4.38347 11.3084 4.20395 10.6321 4.1958C9.97439 4.18678 9.32456 4.34014 8.74026 4.64229C8.15596 4.94444 7.65523 5.38604 7.2824 5.92798C6.73927 6.68083 6.38935 7.55556 6.26344 8.4753V8.4753Z" fill="#A5A5A5"/>
</svg>
