<svg width="23" height="28" viewBox="0 0 23 28" fill="none" xmlns="http://www.w3.org/2000/svg">
<path d="M11.5401 27.2438C7.80257 27.2957 4.19548 25.8711 1.50204 23.2794C1.01919 22.822 0.574476 22.301 0.117046 21.8055C0.0792728 21.7623 0.0507337 21.7118 0.0332491 21.6572C0.0157645 21.6025 0.00968469 21.5449 0.015373 21.4878C0.376443 18.4796 1.9165 15.7377 4.29742 13.864C4.6659 13.5717 5.08523 13.343 5.46642 13.0762C5.64431 12.9491 5.74595 12.9618 5.88572 13.0762C6.98175 14.2677 8.46121 15.0366 10.0661 15.249C11.1927 15.4261 12.3455 15.3229 13.4226 14.9483C14.4997 14.5738 15.4679 13.9395 16.2414 13.1016C16.4193 12.9237 16.521 12.911 16.7243 13.1016C18.0264 13.8702 19.1579 14.8967 20.0494 16.1181C20.9408 17.3394 21.5734 18.73 21.9085 20.2045C22.0101 20.6111 22.0864 21.0177 22.1499 21.4751C22.1586 21.5353 22.1553 21.5967 22.14 21.6556C22.1247 21.7145 22.0979 21.7698 22.061 21.8182C19.99 24.4321 17.0827 26.2537 13.8272 26.977C12.9251 27.1167 11.9721 27.1803 11.5401 27.2438Z" fill="#A5A5A5"/>
<path d="M17.7281 7.44729C17.7248 8.3243 17.548 9.19197 17.2077 10.0003C16.8675 10.8086 16.3707 11.5416 15.7458 12.157C15.121 12.7724 14.3805 13.258 13.5671 13.5859C12.7537 13.9138 11.8834 14.0774 11.0064 14.0673C10.1343 14.0574 9.27273 13.8755 8.47098 13.5322C7.66923 13.1888 6.94307 12.6907 6.33407 12.0664C5.72506 11.442 5.24516 10.7037 4.92186 9.89364C4.59856 9.0836 4.43819 8.21774 4.44994 7.34564C4.45488 6.46921 4.63349 5.60244 4.97541 4.79545C5.31732 3.98845 5.81578 3.25722 6.44198 2.64401C7.06819 2.0308 7.80969 1.54779 8.62368 1.22287C9.43768 0.897955 10.308 0.737579 11.1843 0.751025C12.9369 0.7811 14.6069 1.50107 15.832 2.7547C17.0571 4.00833 17.7384 5.69449 17.7281 7.44729V7.44729Z" fill="#A5A5A5"/>
</svg>
