<svg width="82" height="81" viewBox="0 0 82 81" fill="none" xmlns="http://www.w3.org/2000/svg">
<g clip-path="url(#clip0_520_603)">
<path d="M39.0608 13.3479L30.5203 59.5631C30.4022 60.2024 30.8247 60.8165 31.464 60.9346L70.0844 68.0716C70.7237 68.1897 71.3377 67.7672 71.4559 67.1279L79.9963 20.9127C80.1145 20.2734 79.692 19.6594 79.0527 19.5412L40.4323 12.4043C39.793 12.2861 39.1789 12.7086 39.0608 13.3479Z" fill="#4D4D4D"/>
<path fill-rule="evenodd" clip-rule="evenodd" d="M39.1297 12.9489L30.5915 59.1655C30.5349 59.4725 30.6026 59.7894 30.7796 60.0465C30.9567 60.3036 31.2286 60.4799 31.5355 60.5365L70.158 67.6727C70.4649 67.7285 70.7814 67.6606 71.0384 67.4837C71.2953 67.3068 71.4717 67.0353 71.5291 66.7287L80.0672 20.5093C80.0952 20.3574 80.093 20.2016 80.0607 20.0506C80.0284 19.8996 79.9666 19.7565 79.8789 19.6294C79.7913 19.5023 79.6794 19.3938 79.5497 19.31C79.42 19.2262 79.2751 19.1688 79.1232 19.141L40.5007 12.0049C40.1937 11.9483 39.8768 12.0159 39.6197 12.193C39.3626 12.37 39.1863 12.6419 39.1297 12.9489V12.9489Z" fill="#666666"/>
<path fill-rule="evenodd" clip-rule="evenodd" d="M35.9322 60.02L34.873 65.7571L37.8905 64.195L39.9976 66.5578L41.0315 60.9612L36.4998 60.124L35.9322 60.02Z" fill="#DB1F21"/>
<g style="mix-blend-mode:multiply">
<g style="mix-blend-mode:multiply" opacity="0.13">
<path fill-rule="evenodd" clip-rule="evenodd" d="M76.7209 24.3444C76.5381 24.3124 76.3744 24.2119 76.2629 24.0635C76.2093 23.9919 76.171 23.91 76.1506 23.8229C76.1303 23.7358 76.1282 23.6454 76.1446 23.5574C76.161 23.4695 76.1954 23.3859 76.2458 23.312C76.2961 23.238 76.3613 23.1754 76.4371 23.1279C76.5928 23.0253 76.7824 22.988 76.9653 23.024C77.1444 23.0556 77.3037 23.1564 77.4089 23.3047C77.5141 23.453 77.5566 23.6368 77.5272 23.8162C77.5121 23.9032 77.4794 23.9862 77.4311 24.0601C77.3828 24.134 77.3199 24.1973 77.2463 24.2461C77.0903 24.3451 76.9021 24.3804 76.7209 24.3444V24.3444ZM34.0948 63.6496L35.2186 63.8604L35.2945 63.4417L40.3938 64.3829L40.3179 64.8015L72.8297 70.8083L81.4409 24.2292L79.1258 19.9419L77.6143 19.661L76.9316 23.3555L76.1449 23.2094C76.1893 23.3189 76.202 23.4386 76.1815 23.555C76.1472 23.7412 76.0403 23.9063 75.8844 24.0138C75.7284 24.1212 75.5361 24.1624 75.3498 24.1281C75.1636 24.0938 74.9985 23.9869 74.891 23.831C74.7835 23.675 74.7424 23.4828 74.7767 23.2965C74.7996 23.1809 74.854 23.0739 74.934 22.9874L73.5714 22.7346C73.6148 22.8443 73.6265 22.9641 73.6051 23.0801C73.5712 23.2664 73.4647 23.4316 73.309 23.5394C73.1533 23.6471 72.9612 23.6886 72.7749 23.6547C72.5886 23.6208 72.4234 23.5143 72.3157 23.3586C72.208 23.2029 72.1665 23.0108 72.2004 22.8245C72.2228 22.7085 72.2762 22.6007 72.3549 22.5126L71.0007 22.2626C71.0444 22.3722 71.0561 22.4921 71.0344 22.6081C71.0001 22.7944 70.8933 22.9595 70.7373 23.0669C70.5813 23.1744 70.3891 23.2156 70.2028 23.1813C70.0165 23.147 69.8515 23.0401 69.744 22.8842C69.6365 22.7282 69.5954 22.5359 69.6297 22.3497C69.6521 22.2337 69.7055 22.1259 69.7842 22.0378L68.4244 21.7878C68.4666 21.8978 68.4783 22.0172 68.4581 22.1333C68.4238 22.3196 68.3169 22.4847 68.161 22.5921C68.005 22.6996 67.8127 22.7408 67.6265 22.7065C67.4402 22.6722 67.2751 22.5653 67.1677 22.4094C67.0602 22.2534 67.019 22.0611 67.0533 21.8749C67.0757 21.7589 67.1291 21.6511 67.2078 21.563L65.848 21.313C65.8903 21.423 65.902 21.5424 65.8818 21.6585C65.8475 21.8448 65.7406 22.0098 65.5846 22.1173C65.4287 22.2248 65.2364 22.2659 65.0501 22.2317C64.8639 22.1974 64.6988 22.0905 64.5913 21.9346C64.4838 21.7786 64.4427 21.5863 64.477 21.4C64.4982 21.2836 64.5517 21.1756 64.6315 21.0882L63.2717 20.8381C63.314 20.9482 63.3256 21.0676 63.3054 21.1837C63.2711 21.37 63.1643 21.535 63.0083 21.6425C62.8524 21.75 62.6601 21.7911 62.4738 21.7569C62.2875 21.7226 62.1225 21.6157 62.015 21.4598C61.9075 21.3038 61.8664 21.1115 61.9007 20.9252C61.9222 20.8092 61.9769 20.7019 62.058 20.6162L60.6954 20.3633C60.74 20.4727 60.7527 20.5926 60.7319 20.7089C60.6976 20.8952 60.5907 21.0602 60.4348 21.1677C60.2788 21.2752 60.0866 21.3163 59.9003 21.282C59.714 21.2478 59.549 21.1409 59.4415 20.9849C59.334 20.829 59.2929 20.6367 59.3271 20.4504C59.3487 20.3344 59.4034 20.2271 59.4845 20.1414L58.3045 19.9222C58.349 20.0317 58.3616 20.1515 58.341 20.2678C58.3067 20.4541 58.1998 20.6191 58.0439 20.7266C57.8879 20.8341 57.6957 20.8752 57.5094 20.841C57.3231 20.8067 57.1581 20.6998 57.0506 20.5438C56.9431 20.3879 56.902 20.1956 56.9362 20.0093C56.9586 19.8936 57.0131 19.7865 57.0936 19.7003L55.7309 19.4474C55.7739 19.5573 55.7865 19.6766 55.7675 19.793C55.7332 19.9793 55.6263 20.1443 55.4704 20.2518C55.3144 20.3593 55.1221 20.4004 54.9359 20.3661C54.7496 20.3319 54.5845 20.225 54.477 20.069C54.3696 19.9131 54.3284 19.7208 54.3627 19.5345C54.3857 19.4196 54.4391 19.3129 54.5172 19.2255L53.1574 18.9726C53.2008 19.0824 53.2125 19.2021 53.1911 19.3182C53.1569 19.5045 53.05 19.6695 52.894 19.777C52.7381 19.8845 52.5458 19.9256 52.3595 19.8913C52.1732 19.8571 52.0082 19.7502 51.9007 19.5942C51.7932 19.4383 51.7521 19.246 51.7864 19.0597C51.8094 18.9448 51.8628 18.8381 51.9409 18.7507L50.5811 18.4978C50.6231 18.6079 50.6347 18.7273 50.6148 18.8434C50.5809 19.0297 50.4744 19.1949 50.3187 19.3026C50.163 19.4104 49.9709 19.4518 49.7846 19.4179C49.5983 19.384 49.4331 19.2775 49.3254 19.1218C49.2176 18.9661 49.1761 18.774 49.2101 18.5877C49.2325 18.4717 49.2859 18.364 49.3646 18.2759L48.0048 18.0258C48.047 18.1358 48.0587 18.2553 48.0385 18.3714C48.0042 18.5577 47.8973 18.7227 47.7414 18.8302C47.5854 18.9377 47.3931 18.9788 47.2069 18.9445C47.0206 18.9103 46.8555 18.8034 46.7481 18.6474C46.6406 18.4915 46.5994 18.2992 46.6337 18.1129C46.6549 17.9965 46.7084 17.8884 46.7882 17.8011L45.4284 17.551C45.4707 17.661 45.4824 17.7805 45.4622 17.8966C45.4279 18.0829 45.321 18.2479 45.165 18.3554C45.0091 18.4629 44.8168 18.504 44.6305 18.4697C44.4443 18.4354 44.2792 18.3286 44.1717 18.1726C44.0642 18.0167 44.0231 17.8244 44.0574 17.6381C44.0796 17.5215 44.1342 17.4134 44.2147 17.3262L41.6862 16.8599L40.5118 23.2178L39.3964 22.8245L32.6873 59.1516L34.0948 63.6496Z" fill="black"/>
</g>
</g>
<g style="mix-blend-mode:multiply" opacity="0.55">
<path d="M76.8997 21.9219L77.3357 19.5625L41.956 13.0244L41.52 15.3838L76.8997 21.9219Z" fill="black"/>
</g>
<path fill-rule="evenodd" clip-rule="evenodd" d="M32.0552 59.3036L70.113 66.3274L78.7522 19.5629L40.6945 12.5391L32.0552 59.3036ZM76.0523 21.0941C75.9229 21.0633 75.8054 20.9954 75.7143 20.8985C75.6232 20.8017 75.5625 20.6803 75.5396 20.5494C75.5168 20.4184 75.5329 20.2836 75.5858 20.1617C75.6388 20.0397 75.7264 19.936 75.8377 19.8633C75.949 19.7906 76.0792 19.7521 76.2121 19.7527C76.345 19.7532 76.4749 19.7927 76.5857 19.8662C76.6964 19.9398 76.7831 20.0442 76.8351 20.1666C76.8872 20.2889 76.9022 20.4238 76.8783 20.5546C76.8417 20.7358 76.7348 20.8951 76.5811 20.9978C76.4274 21.1004 76.2393 21.1381 76.0579 21.1025L76.0523 21.0941ZM73.476 20.6164C73.3463 20.5861 73.2284 20.5183 73.1369 20.4215C73.0454 20.3248 72.9843 20.2032 72.9612 20.0721C72.9382 19.9409 72.9542 19.8058 73.0072 19.6837C73.0603 19.5615 73.148 19.4576 73.2596 19.3849C73.3712 19.3121 73.5017 19.2738 73.6348 19.2745C73.768 19.2753 73.8981 19.3152 74.0088 19.3892C74.1195 19.4632 74.206 19.5681 74.2577 19.6909C74.3093 19.8137 74.3237 19.9489 74.2991 20.0798C74.2814 20.1699 74.2459 20.2556 74.1948 20.3319C74.1437 20.4082 74.078 20.4736 74.0014 20.5243C73.9248 20.575 73.8389 20.61 73.7488 20.6272C73.6586 20.6445 73.5658 20.6437 73.476 20.6249V20.6164ZM70.8968 20.1416C70.8047 20.1304 70.7158 20.1004 70.6358 20.0535C70.5557 20.0066 70.486 19.9438 70.4311 19.869C70.3762 19.7941 70.3372 19.7088 70.3165 19.6184C70.2958 19.5279 70.2939 19.4342 70.3108 19.3429C70.3277 19.2516 70.3631 19.1648 70.4148 19.0878C70.4666 19.0107 70.5335 18.9451 70.6116 18.8949C70.6897 18.8447 70.7772 18.811 70.8687 18.7959C70.9603 18.7808 71.054 18.7846 71.1441 18.8071C71.2362 18.8184 71.325 18.8484 71.4051 18.8953C71.4852 18.9422 71.5548 19.005 71.6098 19.0798C71.6647 19.1546 71.7037 19.2399 71.7244 19.3304C71.745 19.4208 71.747 19.5146 71.7301 19.6058C71.7132 19.6971 71.6778 19.7839 71.626 19.861C71.5743 19.938 71.5074 20.0037 71.4293 20.0539C71.3512 20.1041 71.2637 20.1378 71.1721 20.1528C71.0806 20.1679 70.9869 20.1641 70.8968 20.1416ZM68.3177 19.664C68.1883 19.6332 68.0707 19.565 67.9797 19.468C67.8886 19.3711 67.828 19.2495 67.8053 19.1184C67.7827 18.9873 67.799 18.8524 67.8522 18.7305C67.9055 18.6086 67.9933 18.505 68.1049 18.4325C68.2165 18.36 68.3468 18.3218 68.4799 18.3227C68.6129 18.3236 68.7428 18.3635 68.8534 18.4375C68.9639 18.5115 69.0504 18.6163 69.102 18.7389C69.1536 18.8615 69.1681 18.9966 69.1437 19.1274C69.1256 19.2176 69.0898 19.3033 69.0384 19.3797C68.987 19.456 68.921 19.5214 68.8442 19.572C68.7675 19.6227 68.6814 19.6577 68.591 19.6749C68.5006 19.6921 68.4077 19.6913 68.3177 19.6724V19.664ZM65.7385 19.1892C65.6092 19.1585 65.4917 19.0905 65.4006 18.9937C65.3095 18.8969 65.2487 18.7755 65.2259 18.6445C65.203 18.5135 65.2191 18.3787 65.2721 18.2568C65.325 18.1349 65.4126 18.0311 65.5239 17.9584C65.6352 17.8857 65.7654 17.8473 65.8983 17.8478C66.0313 17.8483 66.1612 17.8878 66.2719 17.9614C66.3826 18.035 66.4694 18.1394 66.5214 18.2617C66.5734 18.3841 66.5884 18.519 66.5645 18.6498C66.5468 18.7402 66.5112 18.8263 66.46 18.9029C66.4087 18.9795 66.3428 19.0452 66.2659 19.0962C66.1891 19.1472 66.1029 19.1824 66.0124 19.1998C65.9219 19.2172 65.8288 19.2165 65.7385 19.1976V19.1892ZM63.1622 18.7116C63.0325 18.6812 62.9146 18.6135 62.8231 18.5167C62.7316 18.4199 62.6705 18.2984 62.6475 18.1672C62.6245 18.036 62.6404 17.901 62.6935 17.7788C62.7465 17.6566 62.8343 17.5527 62.9459 17.48C63.0574 17.4073 63.1879 17.3689 63.3211 17.3697C63.4543 17.3704 63.5843 17.4103 63.695 17.4843C63.8057 17.5584 63.8923 17.6633 63.9439 17.7861C63.9955 17.9088 64.01 18.0441 63.9854 18.175C63.9673 18.2649 63.9316 18.3504 63.8804 18.4265C63.8292 18.5026 63.7635 18.5678 63.687 18.6184C63.6105 18.6691 63.5248 18.7041 63.4347 18.7216C63.3447 18.739 63.2521 18.7385 63.1622 18.72V18.7116ZM60.5831 18.2368C60.4537 18.206 60.3362 18.1381 60.2451 18.0413C60.154 17.9444 60.0932 17.823 60.0704 17.6921C60.0476 17.5611 60.0636 17.4263 60.1166 17.3044C60.1696 17.1824 60.2571 17.0787 60.3684 17.006C60.4798 16.9333 60.6099 16.8949 60.7429 16.8954C60.8758 16.8959 61.0057 16.9354 61.1164 17.009C61.2272 17.0825 61.3139 17.1869 61.3659 17.3093C61.4179 17.4316 61.4329 17.5666 61.4091 17.6973C61.3909 17.7876 61.3552 17.8735 61.3039 17.9499C61.2525 18.0263 61.1866 18.0919 61.1098 18.1428C61.0331 18.1937 60.947 18.2289 60.8567 18.2465C60.7663 18.2641 60.6733 18.2636 60.5831 18.2452V18.2368ZM58.0039 17.7592C57.8745 17.7283 57.757 17.6602 57.6659 17.5632C57.5748 17.4662 57.5142 17.3446 57.4916 17.2135C57.4689 17.0824 57.4852 16.9476 57.5385 16.8256C57.5917 16.7037 57.6796 16.6001 57.7912 16.5276C57.9027 16.4551 58.0331 16.417 58.1661 16.4179C58.2992 16.4188 58.429 16.4587 58.5396 16.5327C58.6502 16.6066 58.7366 16.7114 58.7882 16.8341C58.8398 16.9567 58.8543 17.0918 58.8299 17.2225C58.8122 17.3129 58.7766 17.3989 58.7253 17.4754C58.674 17.5519 58.608 17.6174 58.5311 17.6682C58.4543 17.7189 58.368 17.7538 58.2775 17.7709C58.187 17.788 58.094 17.7868 58.0039 17.7676V17.7592ZM55.6102 17.3181C55.4809 17.2873 55.3634 17.2194 55.2722 17.1225C55.1811 17.0257 55.1204 16.9043 55.0976 16.7734C55.0747 16.6424 55.0908 16.5076 55.1437 16.3857C55.1967 16.2637 55.2843 16.16 55.3956 16.0873C55.5069 16.0146 55.6371 15.9761 55.77 15.9767C55.903 15.9772 56.0328 16.0167 56.1436 16.0902C56.2543 16.1638 56.3411 16.2682 56.3931 16.3906C56.4451 16.5129 56.4601 16.6478 56.4362 16.7786C56.4181 16.8689 56.3823 16.9547 56.331 17.0312C56.2796 17.1076 56.2137 17.1732 56.137 17.2241C56.0602 17.275 55.9742 17.3102 55.8838 17.3278C55.7934 17.3454 55.7004 17.3449 55.6102 17.3265V17.3181ZM53.0339 16.8404C52.9042 16.8101 52.7863 16.7423 52.6948 16.6455C52.6033 16.5488 52.5422 16.4272 52.5192 16.2961C52.4961 16.1649 52.5121 16.0298 52.5652 15.9077C52.6182 15.7855 52.706 15.6816 52.8175 15.6089C52.9291 15.5361 53.0596 15.4978 53.1928 15.4985C53.3259 15.4993 53.456 15.5392 53.5667 15.6132C53.6774 15.6872 53.764 15.7921 53.8156 15.9149C53.8672 16.0377 53.8816 16.1729 53.8571 16.3038C53.839 16.3937 53.8033 16.4792 53.7521 16.5553C53.7009 16.6314 53.6351 16.6967 53.5587 16.7473C53.4822 16.7979 53.3965 16.833 53.3064 16.8504C53.2163 16.8678 53.1237 16.8673 53.0339 16.8489V16.8404ZM50.4547 16.3628C50.3251 16.3325 50.2071 16.2647 50.1156 16.1679C50.0241 16.0711 49.9631 15.9496 49.94 15.8184C49.917 15.6873 49.933 15.5522 49.986 15.43C50.0391 15.3079 50.1268 15.204 50.2384 15.1312C50.35 15.0585 50.4804 15.0201 50.6136 15.0209C50.7468 15.0217 50.8768 15.0616 50.9876 15.1356C51.0983 15.2096 51.1848 15.3145 51.2364 15.4373C51.2881 15.5601 51.3025 15.6953 51.2779 15.8262C51.2592 15.9155 51.2231 16.0003 51.1715 16.0757C51.12 16.151 51.0541 16.2155 50.9777 16.2653C50.9012 16.3152 50.8157 16.3494 50.7259 16.3662C50.6362 16.3829 50.544 16.3818 50.4547 16.3628V16.3628ZM47.8756 15.888C47.7462 15.8573 47.6287 15.7893 47.5376 15.6925C47.4465 15.5957 47.3858 15.4743 47.3629 15.3433C47.3401 15.2123 47.3562 15.0776 47.4091 14.9556C47.4621 14.8337 47.5497 14.7299 47.661 14.6573C47.7723 14.5846 47.9025 14.5461 48.0354 14.5466C48.1684 14.5471 48.2982 14.5866 48.409 14.6602C48.5197 14.7338 48.6064 14.8382 48.6584 14.9605C48.7105 15.0829 48.7255 15.2178 48.7016 15.3486C48.6835 15.4389 48.6477 15.5247 48.5964 15.6011C48.545 15.6776 48.4791 15.7431 48.4024 15.794C48.3256 15.8449 48.2396 15.8802 48.1492 15.8978C48.0588 15.9153 47.9658 15.9149 47.8756 15.8964V15.888ZM45.2993 15.4104C45.1696 15.38 45.0517 15.3123 44.9602 15.2155C44.8687 15.1187 44.8076 14.9972 44.7846 14.866C44.7615 14.7348 44.7775 14.5998 44.8306 14.4776C44.8836 14.3554 44.9713 14.2515 45.0829 14.1788C45.1945 14.1061 45.325 14.0677 45.4582 14.0685C45.5913 14.0693 45.7214 14.1091 45.8321 14.1832C45.9428 14.2572 46.0294 14.3621 46.081 14.4849C46.1326 14.6076 46.147 14.7429 46.1225 14.8738C46.1047 14.9639 46.0692 15.0496 46.0181 15.1259C45.967 15.2021 45.9013 15.2675 45.8247 15.3182C45.7481 15.3689 45.6623 15.4039 45.5721 15.4212C45.4819 15.4385 45.3891 15.4377 45.2993 15.4188V15.4104ZM42.7201 14.9581C42.628 14.9468 42.5391 14.9168 42.4591 14.8699C42.379 14.823 42.3093 14.7602 42.2544 14.6854C42.1995 14.6106 42.1605 14.5253 42.1398 14.4348C42.1191 14.3443 42.1172 14.2506 42.1341 14.1593C42.151 14.0681 42.1864 13.9812 42.2381 13.9042C42.2899 13.8271 42.3568 13.7615 42.4349 13.7113C42.513 13.6611 42.6005 13.6274 42.692 13.6123C42.7836 13.5972 42.8773 13.601 42.9674 13.6235C43.0595 13.6348 43.1483 13.6648 43.2284 13.7117C43.3085 13.7586 43.3782 13.8214 43.4331 13.8962C43.488 13.971 43.527 14.0563 43.5477 14.1468C43.5684 14.2373 43.5703 14.331 43.5534 14.4223C43.5365 14.5135 43.5011 14.6004 43.4494 14.6774C43.3976 14.7545 43.3307 14.8201 43.2526 14.8703C43.1745 14.9205 43.087 14.9542 42.9954 14.9693C42.9039 14.9844 42.8102 14.9806 42.7201 14.9581V14.9581Z" fill="#F5F5F5"/>
<path d="M66.8566 15.8315L66.5757 17.3206L66.3706 18.4247C66.3598 18.4829 66.3376 18.5383 66.3053 18.5879C66.2731 18.6375 66.2313 18.6802 66.1825 18.7136C66.1337 18.747 66.0788 18.7704 66.0209 18.7826C65.963 18.7947 65.9033 18.7953 65.8452 18.7843H65.8227C65.7646 18.7735 65.7091 18.7514 65.6596 18.7191C65.61 18.6868 65.5673 18.6451 65.5339 18.5963C65.5005 18.5475 65.477 18.4926 65.4649 18.4347C65.4527 18.3768 65.4521 18.3171 65.4631 18.259L65.6654 17.1548L65.9463 15.6686C65.9682 15.551 66.0357 15.4468 66.1342 15.3789C66.2327 15.311 66.354 15.2848 66.4717 15.3062H66.4942C66.5528 15.3163 66.6087 15.338 66.6588 15.37C66.7089 15.4021 66.7521 15.4438 66.7858 15.4927C66.8196 15.5416 66.8432 15.5968 66.8554 15.655C66.8675 15.7132 66.868 15.7732 66.8566 15.8315ZM48.5723 11.9965H48.5498C48.4321 11.9752 48.3107 12.0014 48.2123 12.0693C48.1138 12.1372 48.0463 12.2414 48.0244 12.359L47.7434 13.8452L47.5412 14.9494C47.5302 15.0075 47.5308 15.0672 47.5429 15.1251C47.5551 15.183 47.5785 15.2379 47.6119 15.2867C47.6453 15.3355 47.688 15.3772 47.7376 15.4095C47.7872 15.4418 47.8426 15.4639 47.9008 15.4747H47.9232C48.0409 15.4961 48.1623 15.4699 48.2608 15.402C48.3592 15.3341 48.4268 15.2299 48.4486 15.1123L48.6509 14.0082L48.9319 12.5219C48.9428 12.4638 48.9422 12.4041 48.9301 12.3462C48.918 12.2883 48.8945 12.2334 48.8611 12.1846C48.8277 12.1358 48.785 12.0941 48.7354 12.0618C48.6859 12.0295 48.6304 12.0073 48.5723 11.9965V11.9965ZM63.901 14.8398H63.8785C63.7608 14.8184 63.6395 14.8446 63.541 14.9125C63.4425 14.9804 63.375 15.0846 63.3531 15.2022L63.0722 16.6884L62.8671 17.7926C62.8561 17.8507 62.8567 17.9104 62.8689 17.9683C62.881 18.0262 62.9045 18.0811 62.9379 18.1299C62.9713 18.1787 63.014 18.2205 63.0636 18.2527C63.1131 18.285 63.1686 18.3072 63.2267 18.318H63.2492C63.3669 18.3393 63.4882 18.3131 63.5867 18.2452C63.6852 18.1773 63.7527 18.0731 63.7746 17.9555L63.9797 16.8514L64.2606 15.3624C64.2716 15.3044 64.2709 15.2449 64.2588 15.1872C64.2466 15.1295 64.2231 15.0747 64.1897 15.0261C64.1562 14.9776 64.1135 14.9361 64.064 14.9041C64.0144 14.8721 63.959 14.8503 63.901 14.8398V14.8398ZM58.754 13.8761H58.7315C58.6734 13.8651 58.6136 13.8657 58.5558 13.8779C58.4979 13.89 58.443 13.9135 58.3942 13.9469C58.3453 13.9803 58.3036 14.023 58.2713 14.0726C58.2391 14.1221 58.2169 14.1776 58.2061 14.2357L57.9251 15.7248L57.7229 16.8289C57.7119 16.887 57.7125 16.9468 57.7246 17.0046C57.7368 17.0625 57.7602 17.1174 57.7936 17.1662C57.827 17.2151 57.8697 17.2568 57.9193 17.2891C57.9689 17.3213 58.0243 17.3435 58.0825 17.3543H58.105C58.1631 17.3653 58.2228 17.3647 58.2807 17.3525C58.3386 17.3404 58.3935 17.3169 58.4423 17.2835C58.4911 17.2501 58.5328 17.2074 58.5651 17.1578C58.5974 17.1083 58.6195 17.0528 58.6303 16.9947L58.8326 15.8877L59.1136 14.4015C59.1246 14.3434 59.1239 14.2837 59.1118 14.2258C59.0997 14.1679 59.0762 14.113 59.0428 14.0642C59.0094 14.0154 58.9667 13.9736 58.9171 13.9414C58.8676 13.9091 58.8121 13.8869 58.754 13.8761V13.8761ZM61.3134 14.3509H61.291C61.1733 14.3296 61.0519 14.3557 60.9534 14.4237C60.855 14.4916 60.7874 14.5958 60.7656 14.7134L60.4846 16.1996L60.2795 17.3037C60.2686 17.3618 60.2692 17.4216 60.2813 17.4794C60.2934 17.5373 60.3169 17.5923 60.3503 17.6411C60.3837 17.6899 60.4264 17.7316 60.476 17.7639C60.5255 17.7961 60.581 17.8183 60.6391 17.8291H60.6616C60.7793 17.8504 60.9007 17.8243 60.9991 17.7564C61.0976 17.6884 61.1651 17.5843 61.187 17.4667L61.3921 16.3625L61.673 14.8735C61.684 14.8155 61.6834 14.756 61.6712 14.6983C61.659 14.6406 61.6355 14.5859 61.6021 14.5373C61.5687 14.4887 61.5259 14.4472 61.4764 14.4152C61.4269 14.3833 61.3715 14.3614 61.3134 14.3509ZM51.1992 12.4826H51.1767C51.1186 12.4716 51.0588 12.4722 51.001 12.4844C50.9431 12.4965 50.8882 12.52 50.8394 12.5534C50.7905 12.5868 50.7488 12.6295 50.7165 12.679C50.6843 12.7286 50.6621 12.7841 50.6513 12.8422L50.3703 14.3284L50.1681 15.4354C50.1571 15.4933 50.1577 15.5529 50.1699 15.6106C50.1821 15.6683 50.2056 15.723 50.239 15.7716C50.2724 15.8202 50.3152 15.8617 50.3647 15.8937C50.4143 15.9256 50.4696 15.9475 50.5277 15.958H50.5502C50.6678 15.9793 50.7892 15.9531 50.8877 15.8852C50.9861 15.8173 51.0537 15.7131 51.0755 15.5955L51.2806 14.4914L51.5616 13.0052C51.583 12.8886 51.5575 12.7683 51.4907 12.6705C51.4239 12.5726 51.3211 12.5051 51.2048 12.4826H51.1992ZM53.7586 12.9546H53.7361C53.6782 12.9436 53.6187 12.9443 53.561 12.9564C53.5033 12.9686 53.4485 12.9921 53.4 13.0255C53.3514 13.059 53.3099 13.1017 53.2779 13.1512C53.2459 13.2008 53.2241 13.2562 53.2136 13.3142L52.9326 14.8033L52.7275 15.9074C52.7062 16.0251 52.7324 16.1465 52.8003 16.2449C52.8682 16.3434 52.9724 16.4109 53.09 16.4328H53.1124C53.1704 16.4437 53.2299 16.4431 53.2876 16.4309C53.3453 16.4187 53.4001 16.3953 53.4486 16.3618C53.4972 16.3284 53.5387 16.2857 53.5707 16.2361C53.6027 16.1866 53.6245 16.1312 53.635 16.0732L53.8626 14.9578L54.1435 13.4715C54.1527 13.4127 54.1502 13.3526 54.1361 13.2947C54.122 13.2368 54.0965 13.1823 54.0613 13.1343C54.0261 13.0862 53.9817 13.0456 53.9307 13.0148C53.8797 12.984 53.8232 12.9635 53.7642 12.9546H53.7586ZM56.3069 13.4266H56.2844C56.2264 13.4156 56.1669 13.4163 56.1092 13.4284C56.0515 13.4406 55.9968 13.4641 55.9482 13.4975C55.8996 13.531 55.8581 13.5737 55.8261 13.6232C55.7941 13.6728 55.7723 13.7282 55.7618 13.7862L55.4809 15.2724L55.2758 16.3794C55.2652 16.4375 55.2662 16.4971 55.2788 16.5548C55.2913 16.6126 55.315 16.6673 55.3487 16.7158C55.3824 16.7643 55.4253 16.8057 55.4749 16.8377C55.5246 16.8696 55.5801 16.8915 55.6382 16.902H55.6607C55.7188 16.9125 55.7784 16.9115 55.8361 16.899C55.8938 16.8865 55.9485 16.8627 55.9971 16.829C56.0456 16.7954 56.087 16.7525 56.119 16.7028C56.1509 16.6531 56.1728 16.5977 56.1832 16.5395L56.3883 15.4354L56.6693 13.9492C56.6899 13.8327 56.6642 13.7128 56.5975 13.6151C56.5308 13.5174 56.4285 13.4498 56.3125 13.4266H56.3069ZM69.0509 15.781H69.034C68.9761 15.77 68.9165 15.7706 68.8588 15.7828C68.8011 15.795 68.7464 15.8185 68.6978 15.8519C68.6492 15.8853 68.6077 15.9281 68.5757 15.9776C68.5438 16.0272 68.5219 16.0826 68.5114 16.1406L68.2305 17.6268L68.0254 18.7338C68.0148 18.7919 68.0159 18.8515 68.0284 18.9092C68.0409 18.9669 68.0647 19.0216 68.0983 19.0702C68.132 19.1187 68.1749 19.1601 68.2245 19.1921C68.2742 19.224 68.3297 19.2459 68.3878 19.2563H68.4075C68.4658 19.2673 68.5257 19.2666 68.5837 19.2543C68.6418 19.2419 68.6968 19.2183 68.7457 19.1846C68.7945 19.1509 68.8362 19.1078 68.8683 19.058C68.9004 19.0081 68.9224 18.9523 68.9329 18.8939L69.1379 17.7898L69.4189 16.3035C69.4394 16.1863 69.4129 16.0656 69.345 15.9678C69.2772 15.87 69.1735 15.8028 69.0565 15.781H69.0509ZM43.4421 11.0497H43.4196C43.3019 11.0284 43.1805 11.0546 43.0821 11.1225C42.9836 11.1904 42.9161 11.2946 42.8942 11.4122L42.6133 12.8984L42.4082 14.0054C42.3972 14.0633 42.3978 14.1228 42.41 14.1805C42.4222 14.2383 42.4457 14.293 42.4791 14.3415C42.5125 14.3901 42.5553 14.4316 42.6048 14.4636C42.6544 14.4956 42.7097 14.5174 42.7678 14.5279H42.7903C42.908 14.5493 43.0293 14.5231 43.1278 14.4552C43.2262 14.3873 43.2938 14.2831 43.3156 14.1655L43.5207 13.0614L43.8017 11.5751C43.8232 11.4586 43.7982 11.3383 43.732 11.2401C43.6658 11.1419 43.5637 11.0735 43.4477 11.0497H43.4421ZM71.6188 16.253H71.5963C71.5382 16.242 71.4785 16.2426 71.4206 16.2547C71.3627 16.2669 71.3078 16.2903 71.259 16.3237C71.2101 16.3571 71.1684 16.3999 71.1361 16.4494C71.1039 16.499 71.0817 16.5544 71.0709 16.6126L70.7899 18.1016L70.5849 19.2058C70.5635 19.3235 70.5897 19.4448 70.6576 19.5433C70.7255 19.6418 70.8297 19.7093 70.9473 19.7312H70.9698C71.0871 19.7526 71.208 19.7268 71.3064 19.6594C71.4048 19.5921 71.4726 19.4886 71.4951 19.3715L71.6974 18.2646L71.9784 16.7783C71.9894 16.7202 71.9887 16.6605 71.9766 16.6026C71.9645 16.5447 71.941 16.4898 71.9076 16.441C71.8742 16.3922 71.8315 16.3505 71.7819 16.3182C71.7324 16.2859 71.6769 16.2638 71.6188 16.253V16.253ZM74.2429 16.739H74.2204C74.1623 16.728 74.1025 16.7286 74.0447 16.7408C73.9868 16.7529 73.9319 16.7764 73.883 16.8098C73.8342 16.8432 73.7925 16.8859 73.7602 16.9355C73.728 16.985 73.7058 17.0405 73.695 17.0986L73.414 18.5849L73.2089 19.6918C73.198 19.75 73.1988 19.8097 73.2111 19.8676C73.2235 19.9254 73.2472 19.9803 73.2809 20.0289C73.3146 20.0775 73.3577 20.1189 73.4075 20.1508C73.4574 20.1826 73.5131 20.2043 73.5714 20.2144H73.591C73.7087 20.2357 73.8301 20.2096 73.9286 20.1416C74.027 20.0737 74.0946 19.9696 74.1164 19.852L74.3215 18.7478L74.6025 17.2616C74.6231 17.1447 74.5969 17.0244 74.5296 16.9267C74.4623 16.8289 74.3594 16.7615 74.2429 16.739V16.739ZM76.8023 17.211H76.7827C76.7245 17.2 76.6648 17.2006 76.6069 17.2128C76.5491 17.2249 76.4941 17.2484 76.4453 17.2818C76.3965 17.3152 76.3548 17.3579 76.3225 17.4075C76.2903 17.457 76.2681 17.5125 76.2573 17.5706L75.9763 19.0597L75.7712 20.1638C75.7499 20.2815 75.7761 20.4029 75.844 20.5013C75.9119 20.5998 76.0161 20.6673 76.1337 20.6892H76.1561C76.2734 20.7106 76.3944 20.6848 76.4928 20.6175C76.5912 20.5501 76.659 20.4467 76.6815 20.3296L76.8838 19.2226L77.1648 17.7364C77.1761 17.6777 77.1758 17.6173 77.1637 17.5588C77.1516 17.5002 77.128 17.4447 77.0943 17.3953C77.0606 17.3459 77.0174 17.3037 76.9673 17.2711C76.9172 17.2385 76.8611 17.2162 76.8023 17.2054V17.211ZM46.0465 11.5302H46.024C45.9659 11.5196 45.9063 11.5206 45.8486 11.5332C45.7908 11.5457 45.7362 11.5694 45.6876 11.6031C45.6391 11.6368 45.5977 11.6796 45.5657 11.7293C45.5338 11.779 45.5119 11.8345 45.5014 11.8926L45.2205 13.3788L45.0154 14.483C45.0045 14.5413 45.0052 14.6012 45.0175 14.6592C45.0298 14.7173 45.0535 14.7723 45.0872 14.8211C45.1209 14.87 45.1639 14.9117 45.2138 14.9438C45.2637 14.9759 45.3194 14.9979 45.3778 15.0083H45.4003C45.4584 15.0189 45.518 15.0179 45.5758 15.0054C45.6335 14.9928 45.6882 14.9691 45.7367 14.9354C45.7852 14.9018 45.8266 14.8589 45.8586 14.8092C45.8905 14.7595 45.9124 14.704 45.9229 14.6459L46.128 13.5418L46.4089 12.0555C46.4303 11.9378 46.4041 11.8165 46.3362 11.718C46.2682 11.6196 46.1641 11.552 46.0465 11.5302Z" fill="#586066"/>
<path d="M66.3576 26.6508L44.2556 22.5664L44.0223 23.829L66.1242 27.9134L66.3576 26.6508Z" fill="#C5D5D9"/>
<path d="M65.0778 33.579L42.9758 29.4946L42.7425 30.7572L64.8445 34.8416L65.0778 33.579Z" fill="#C5D5D9"/>
<path d="M63.7953 40.5077L41.6934 36.4233L41.46 37.6859L63.562 41.7703L63.7953 40.5077Z" fill="#C5D5D9"/>
<path d="M62.5177 47.4364L40.4158 43.3521L40.1825 44.6146L62.2844 48.699L62.5177 47.4364Z" fill="#C5D5D9"/>
<path d="M61.235 54.3651L39.1331 50.2808L38.8997 51.5433L61.0017 55.6277L61.235 54.3651Z" fill="#C5D5D9"/>
<path d="M70.3827 29.0588L69.1409 27.6091L69.7927 27.1202L70.5035 27.9518L72.2651 26.6313L72.7933 27.2494L70.3827 29.0588Z" fill="#2E602D"/>
<path d="M69.0819 36.0969L67.8401 34.6471L68.4919 34.1583L69.2027 34.9899L70.9643 33.6694L71.4925 34.2875L69.0819 36.0969Z" fill="#2E602D"/>
<path d="M67.7445 43.3371L66.5027 41.8874L67.1545 41.3985L67.8653 42.2301L69.6269 40.9097L70.1551 41.5278L67.7445 43.3371Z" fill="#2E602D"/>
<g style="mix-blend-mode:multiply" opacity="0.13">
<path d="M64.1117 78.3489L42.588 78.5175L5.37869 80.4898L1.38354 5.17494L57.1048 0.474609L59.226 14.5026L57.942 16.8682L60.4453 54.6L61.7714 64.7424L62.7632 64.9279L64.1117 78.3489Z" fill="black"/>
</g>
<path d="M59.9116 74.545L41.7284 76.3291L4.51907 78.3042L0.523926 2.98652L56.8492 0L59.8048 55.7072L59.9116 74.545Z" fill="white"/>
<path opacity="0.03" d="M58.771 73.5673L41.5964 76.3459L4.89564 78.2929L0.920166 3.33209L56.8212 0.365234L59.9314 58.9887L58.771 73.5673Z" fill="url(#paint0_linear_520_603)"/>
<path opacity="0.03" d="M58.771 73.5673L41.5964 76.3459L4.89564 78.2929L0.920166 3.33209L56.8212 0.365234L59.9314 58.9887L58.771 73.5673Z" fill="url(#paint1_linear_520_603)"/>
<path d="M49.4489 11.3055L38.0507 11.9096C37.8581 11.9195 37.6695 11.8526 37.5262 11.7236C37.3829 11.5945 37.2967 11.4138 37.2865 11.2213C37.2812 11.1262 37.2948 11.031 37.3264 10.9412C37.358 10.8514 37.4071 10.7687 37.4709 10.6979C37.5346 10.6272 37.6117 10.5697 37.6977 10.5288C37.7837 10.488 37.8769 10.4645 37.972 10.4599L49.3675 9.85302C49.5601 9.84307 49.7487 9.90998 49.892 10.039C50.0353 10.1681 50.1215 10.3488 50.1317 10.5414V10.5414C50.1416 10.733 50.0755 10.9209 49.9476 11.064C49.8198 11.2071 49.6405 11.2939 49.4489 11.3055Z" fill="#2E602D"/>
<path d="M49.6485 15.2837L38.2503 15.8877C38.0577 15.8977 37.869 15.8308 37.7257 15.7017C37.5824 15.5726 37.4962 15.392 37.4861 15.1994C37.4761 15.0068 37.543 14.8182 37.6721 14.6749C37.8012 14.5316 37.9818 14.4454 38.1744 14.4352L49.5839 13.834C49.7765 13.824 49.9651 13.8909 50.1084 14.02C50.2517 14.1491 50.3379 14.3297 50.3481 14.5223C50.3526 14.6183 50.338 14.7143 50.3052 14.8047C50.2725 14.8951 50.2221 14.9781 50.157 15.0489C50.092 15.1197 50.0136 15.1769 49.9263 15.2172C49.839 15.2575 49.7446 15.2801 49.6485 15.2837Z" fill="#FF1C48"/>
<path d="M50.0585 22.7541L38.6575 23.3609C38.4649 23.3709 38.2762 23.304 38.133 23.1749C37.9897 23.0459 37.9035 22.8652 37.8933 22.6726V22.6726C37.8834 22.48 37.9503 22.2914 38.0793 22.1481C38.2084 22.0048 38.3891 21.9186 38.5816 21.9084L49.9799 21.3044C50.1708 21.2936 50.3583 21.3587 50.5014 21.4855C50.6445 21.6124 50.7318 21.7906 50.7441 21.9815C50.7505 22.0774 50.7378 22.1736 50.7068 22.2646C50.6757 22.3555 50.6268 22.4394 50.563 22.5113C50.4992 22.5832 50.4218 22.6417 50.3352 22.6834C50.2486 22.725 50.1545 22.7491 50.0585 22.7541V22.7541Z" fill="#FFB60E"/>
<path d="M50.2692 26.7326L38.8682 27.3366C38.6761 27.3466 38.4878 27.2801 38.3446 27.1516C38.2014 27.0231 38.1149 26.8432 38.104 26.6511V26.6511C38.094 26.4585 38.161 26.2698 38.29 26.1266C38.4191 25.9833 38.5998 25.8971 38.7923 25.8869L50.1906 25.2829C50.2858 25.2776 50.3811 25.2911 50.4711 25.3227C50.5611 25.3543 50.6439 25.4033 50.7149 25.467C50.7859 25.5307 50.8436 25.6078 50.8848 25.6938C50.926 25.7798 50.9497 25.8731 50.9547 25.9684C50.9601 26.0636 50.9465 26.1589 50.9149 26.2489C50.8833 26.3389 50.8343 26.4218 50.7706 26.4928C50.7069 26.5637 50.6298 26.6215 50.5438 26.6626C50.4578 26.7038 50.3645 26.7275 50.2692 26.7326V26.7326Z" fill="#2E602D"/>
<path d="M50.5614 32.2535L10.3853 34.3832C10.29 34.3885 10.1947 34.3749 10.1047 34.3433C10.0147 34.3117 9.93188 34.2627 9.86089 34.199C9.7899 34.1353 9.73217 34.0582 9.69102 33.9722C9.64987 33.8862 9.62609 33.7929 9.62107 33.6976V33.6976C9.61616 33.6021 9.63028 33.5066 9.66262 33.4165C9.69495 33.3265 9.74485 33.2438 9.80941 33.1732C9.87398 33.1027 9.95192 33.0456 10.0387 33.0054C10.1255 32.9652 10.2194 32.9427 10.315 32.9391L50.4912 30.8066C50.6838 30.7967 50.8724 30.8636 51.0157 30.9927C51.159 31.1217 51.2452 31.3024 51.2554 31.495V31.495C51.2638 31.6875 51.1954 31.8756 51.0653 32.0178C50.9352 32.16 50.754 32.2448 50.5614 32.2535V32.2535Z" fill="#A3BBC4"/>
<path d="M50.7497 35.7963L10.5735 37.9259C10.3814 37.9358 10.1931 37.8693 10.0499 37.7409C9.90671 37.6124 9.8202 37.4324 9.80932 37.2404V37.2404C9.79937 37.0478 9.86628 36.8591 9.99534 36.7158C10.1244 36.5725 10.3051 36.4863 10.4977 36.4762L50.6738 34.3437C50.8664 34.3338 51.0551 34.4007 51.1983 34.5298C51.3416 34.6588 51.4278 34.8395 51.438 35.0321C51.4433 35.1275 51.4297 35.2231 51.3979 35.3132C51.3661 35.4034 51.3168 35.4864 51.2528 35.5574C51.1889 35.6284 51.1115 35.6861 51.0251 35.7271C50.9388 35.7681 50.8452 35.7916 50.7497 35.7963V35.7963Z" fill="#A3BBC4"/>
<path d="M42.6247 48.8775L24.2644 49.8496C24.0723 49.8595 23.884 49.793 23.7408 49.6645C23.5976 49.5361 23.5111 49.3561 23.5002 49.164C23.4903 48.9714 23.5572 48.7828 23.6863 48.6395C23.8153 48.4962 23.996 48.41 24.1886 48.3998L42.546 47.4249C42.6414 47.4196 42.737 47.4333 42.8271 47.4651C42.9173 47.4968 43.0003 47.5461 43.0713 47.6101C43.1423 47.6741 43.2 47.7515 43.241 47.8378C43.282 47.9242 43.3055 48.0178 43.3102 48.1133C43.3201 48.3054 43.2536 48.4937 43.1252 48.6369C42.9967 48.7801 42.8167 48.8666 42.6247 48.8775Z" fill="#A3BBC4"/>
<path d="M50.9858 44.4578L24.0537 45.8625C23.8616 45.8725 23.6734 45.806 23.5301 45.6775C23.3869 45.549 23.3004 45.3691 23.2895 45.177V45.177C23.2796 44.9844 23.3465 44.7958 23.4756 44.6525C23.6046 44.5092 23.7853 44.423 23.9779 44.4128L50.91 42.9828C51.1024 42.9736 51.2906 43.0407 51.4337 43.1696C51.5768 43.2986 51.6632 43.4788 51.6741 43.6711C51.6822 43.7683 51.6706 43.8661 51.6401 43.9587C51.6096 44.0513 51.5608 44.1368 51.4966 44.2102C51.4324 44.2836 51.3541 44.3433 51.2663 44.3858C51.1786 44.4284 51.0832 44.4528 50.9858 44.4578V44.4578Z" fill="#A3BBC4"/>
<path d="M19.286 52.9143L10.8012 53.3638L10.3489 44.8763L18.8364 44.4268L19.286 52.9143ZM11.7649 52.2906L18.2268 51.9478L17.8868 45.4859L11.4249 45.8287L11.7649 52.2906Z" fill="#A3BBC4"/>
<path d="M14.7008 50.8353L12.5122 49.2479L13.2455 48.3601L14.5013 49.2704L16.4877 46.8711L17.4204 47.5482L14.7008 50.8353Z" fill="#C3D82E"/>
<path d="M19.286 52.9143L10.8012 53.3638L10.3489 44.8763L18.8364 44.4268L19.286 52.9143ZM11.7649 52.2906L18.2268 51.9478L17.8868 45.4859L11.4249 45.8287L11.7649 52.2906Z" fill="#A3BBC4"/>
<path d="M14.7008 50.8353L12.5122 49.2479L13.2455 48.3601L14.5013 49.2704L16.4877 46.8711L17.4204 47.5482L14.7008 50.8353Z" fill="#2E602D"/>
<path d="M43.1864 60.6773L24.8262 61.6494C24.6341 61.6593 24.4458 61.5928 24.3026 61.4643C24.1594 61.3359 24.0729 61.1559 24.062 60.9638V60.9638C24.0521 60.7713 24.119 60.5826 24.248 60.4393C24.3771 60.296 24.5578 60.2098 24.7503 60.1997L43.1078 59.2247C43.2032 59.2194 43.2988 59.2331 43.3889 59.2649C43.4791 59.2966 43.562 59.3459 43.6331 59.4099C43.7041 59.4739 43.7618 59.5513 43.8028 59.6376C43.8438 59.724 43.8673 59.8176 43.8719 59.9131C43.8819 60.1052 43.8154 60.2935 43.6869 60.4367C43.5585 60.5799 43.3785 60.6664 43.1864 60.6773Z" fill="#A3BBC4"/>
<path d="M51.5476 56.2581L24.6155 57.6628C24.4234 57.6728 24.2351 57.6063 24.0919 57.4778C23.9487 57.3493 23.8622 57.1694 23.8513 56.9773V56.9773C23.8414 56.7847 23.9083 56.596 24.0373 56.4528C24.1664 56.3095 24.3471 56.2233 24.5396 56.2131L51.4717 54.7831C51.6641 54.7739 51.8524 54.841 51.9955 54.9699C52.1386 55.0989 52.225 55.2791 52.2359 55.4714V55.4714C52.2439 55.5686 52.2324 55.6664 52.2019 55.759C52.1714 55.8516 52.1225 55.9371 52.0583 56.0105C51.9941 56.0839 51.9158 56.1436 51.8281 56.1861C51.7404 56.2287 51.645 56.2531 51.5476 56.2581Z" fill="#A3BBC4"/>
<path d="M19.8477 64.7146L11.363 65.1641L10.9106 56.6766L19.3982 56.2271L19.8477 64.7146ZM12.3266 64.0909L18.7885 63.7481L18.4486 57.2862L11.9867 57.629L12.3266 64.0909Z" fill="#A3BBC4"/>
<path d="M15.2626 62.6356L13.074 61.0482L13.8073 60.1604L15.0631 61.0707L17.0494 58.6714L17.9822 59.3485L15.2626 62.6356Z" fill="#C3D82E"/>
<path d="M19.8477 64.7146L11.363 65.1641L10.9106 56.6766L19.3982 56.2271L19.8477 64.7146ZM12.3266 64.0909L18.7885 63.7481L18.4486 57.2862L11.9867 57.629L12.3266 64.0909Z" fill="#A3BBC4"/>
<path d="M15.2626 62.6356L13.074 61.0482L13.8073 60.1604L15.0631 61.0707L17.0494 58.6714L17.9822 59.3485L15.2626 62.6356Z" fill="#2E602D"/>
<path d="M25.1116 16.9408L17.7273 17.333L18.3161 28.4206L25.7004 28.0285L25.1116 16.9408Z" fill="#FFB60E"/>
<path d="M16.698 20.7074L9.31372 21.0996L9.72689 28.8794L17.1111 28.4873L16.698 20.7074Z" fill="#BE1E2D"/>
<path d="M33.405 10.9135L26.0208 11.3057L26.9056 27.9679L34.2899 27.5758L33.405 10.9135Z" fill="#2E602D"/>
<g style="mix-blend-mode:multiply">
<path d="M47.9628 54.7181C46.485 54.7507 45.0501 55.2208 43.8394 56.069C42.6288 56.9172 41.6969 58.1053 41.1616 59.4831C40.6263 60.861 40.5116 62.3666 40.832 63.8096C41.1524 65.2526 41.8936 66.5682 42.9617 67.59C44.0299 68.6118 45.377 69.2939 46.8328 69.55C48.2887 69.8061 49.7877 69.6247 51.1405 69.0288C52.4932 68.4328 53.6388 67.4492 54.4324 66.2021C55.2261 64.9551 55.6321 63.5007 55.5991 62.0229C55.5549 60.0417 54.7256 58.1591 53.2935 56.7893C51.8615 55.4194 49.944 54.6744 47.9628 54.7181V54.7181ZM53.5819 62.0678C53.606 63.1428 53.3109 64.2008 52.7338 65.108C52.1567 66.0152 51.3235 66.7309 50.3396 67.1646C49.3558 67.5983 48.2654 67.7305 47.2064 67.5445C46.1473 67.3585 45.1673 66.8627 44.3901 66.1197C43.6129 65.3767 43.0735 64.4199 42.84 63.3703C42.6066 62.3207 42.6897 61.2255 43.0787 60.2231C43.4678 59.2207 44.1453 58.3562 45.0257 57.7389C45.906 57.1216 46.9497 56.7792 48.0246 56.755C49.4661 56.7226 50.8614 57.2642 51.9036 58.2605C52.9457 59.2568 53.5494 60.6264 53.5819 62.0678Z" fill="#D6F2F5"/>
</g>
<g style="mix-blend-mode:multiply">
<path d="M48.6313 71.3087H48.3503C45.9366 71.2716 43.6354 70.282 41.9483 68.5555C40.2611 66.829 39.3247 64.5056 39.3433 62.0917C39.3618 59.6778 40.3337 57.3691 42.0472 55.6687C43.7607 53.9683 46.0768 53.0142 48.4908 53.0142C50.9048 53.0142 53.2209 53.9683 54.9344 55.6687C56.6479 57.3691 57.6198 59.6778 57.6383 62.0917C57.6569 64.5056 56.7205 66.829 55.0334 68.5555C53.3462 70.282 51.045 71.2716 48.6313 71.3087V71.3087ZM47.6817 53.7885C45.4303 53.823 43.2838 54.746 41.71 56.3563C40.1362 57.9666 39.2628 60.1338 39.28 62.3854C39.2973 64.6369 40.2038 66.7904 41.802 68.3765C43.4003 69.9625 45.5607 70.8525 47.8123 70.8525C50.064 70.8525 52.2243 69.9625 53.8226 68.3765C55.4208 66.7904 56.3273 64.6369 56.3446 62.3854C56.3618 60.1338 55.4884 57.9666 53.9146 56.3563C52.3408 54.746 50.1943 53.823 47.9429 53.7885H47.6817Z" fill="#D6F2F5"/>
</g>
<path d="M47.3502 65.4141L44.3047 62.6861L45.5493 61.4639L47.2968 63.0288L50.6598 59.7305L51.9606 60.8936L47.3502 65.4141Z" fill="#2E602D"/>
</g>
<defs>
<linearGradient id="paint0_linear_520_603" x1="-53.7866" y1="2.1082" x2="28.4298" y2="38.256" gradientUnits="userSpaceOnUse">
<stop offset="0.36"/>
<stop offset="1"/>
</linearGradient>
<linearGradient id="paint1_linear_520_603" x1="-53.7866" y1="2.1082" x2="28.4298" y2="38.256" gradientUnits="userSpaceOnUse">
<stop offset="0.36"/>
<stop offset="1"/>
</linearGradient>
<clipPath id="clip0_520_603">
<rect width="80.917" height="80.49" fill="white" transform="translate(0.523926)"/>
</clipPath>
</defs>
</svg>
