<?xml version="1.0" encoding="utf-8"?>
<!-- Generator: Adobe Illustrator 17.0.0, SVG Export Plug-In . SVG Version: 6.00 Build 0)  -->
<!DOCTYPE svg PUBLIC "-//W3C//DTD SVG 1.1//EN" "http://www.w3.org/Graphics/SVG/1.1/DTD/svg11.dtd">
<svg version="1.1" id="Layer_1" xmlns="http://www.w3.org/2000/svg" xmlns:xlink="http://www.w3.org/1999/xlink" x="0px" y="0px"
	 width="100px" height="100px" viewBox="0 0 100 100" enable-background="new 0 0 100 100" xml:space="preserve">
<g>
	<g>
		<path fill="#F4BD46" d="M25.583,25.532c0-1.106-0.897-2.003-2.003-2.003c-1.106,0-2.003,0.897-2.003,2.003v5.906
			c0,1.106,0.897,2.003,2.003,2.003c1.106,0,2.003-0.897,2.003-2.003V25.532z"/>
		<path fill="#F4BD46" d="M43.345,9.713c0-1.106-0.897-2.003-2.003-2.003c-1.106,0-2.003,0.897-2.003,2.003v5.906
			c0,1.106,0.897,2.003,2.003,2.003c1.106,0,2.003-0.897,2.003-2.003V9.713z"/>
		<path fill="#F4BD46" d="M60.596,20.049c0-1.106-0.897-2.003-2.003-2.003s-2.003,0.897-2.003,2.003v5.906
			c0,1.106,0.897,2.003,2.003,2.003s2.003-0.897,2.003-2.003V20.049z"/>
		<path fill="#F4BD46" d="M78.155,15.093c0-1.106-0.897-2.003-2.003-2.003s-2.003,0.897-2.003,2.003V21
			c0,1.106,0.897,2.003,2.003,2.003s2.003-0.897,2.003-2.003V15.093z"/>
		<path fill="#EB9A30" d="M8.815,37.943c-0.388,0.048-0.779-0.059-1.087-0.299c-0.308-0.24-0.509-0.592-0.557-0.98
			c-0.049-0.388,0.059-0.779,0.299-1.087c0.24-0.308,0.592-0.509,0.98-0.557l14.517-3.713l17.251-15.394
			c0.226-0.202,0.509-0.329,0.81-0.363c0.301-0.034,0.606,0.026,0.871,0.173l17.003,9.43l17.148-4.927l15.073-8.859
			c0.33-0.149,0.703-0.17,1.047-0.06c0.344,0.11,0.637,0.345,0.818,0.657c0.182,0.313,0.241,0.682,0.167,1.036
			c-0.075,0.354-0.279,0.668-0.571,0.881l-15.248,8.962L77,22.988l-17.908,5.146c-0.373,0.105-0.773,0.058-1.112-0.132l-16.622-9.21
			l-16.74,14.926c-0.176,0.155-0.386,0.265-0.614,0.322L9.151,37.856L8.815,37.943z"/>
		<path fill="#F4BD46" d="M94.164,16.292c2.842,0,5.146-2.304,5.146-5.146C99.31,8.304,97.006,6,94.164,6
			c-2.842,0-5.146,2.304-5.146,5.146C89.018,13.988,91.322,16.292,94.164,16.292z"/>
		<path fill="#F4BD46" d="M5.964,42.578c2.842,0,5.146-2.304,5.146-5.146c0-2.842-2.304-5.146-5.146-5.146
			c-2.842,0-5.146,2.304-5.146,5.146C0.818,40.274,3.122,42.578,5.964,42.578z"/>
		<path fill="#76C582" d="M41.211,24.932h-0.015c-0.888,0-1.608,0.72-1.608,1.608v49.692c0,0.888,0.72,1.607,1.608,1.607h0.015
			c0.888,0,1.608-0.72,1.608-1.607V26.54C42.819,25.652,42.099,24.932,41.211,24.932z"/>
		<path fill="#3F8847" d="M46.269,33.426H35.992v35.745h10.277V33.426z"/>
		<path fill="#76C582" d="M93.666,21.804h-0.219c-0.832,0-1.506,0.674-1.506,1.506v43.274c0,0.831,0.674,1.505,1.506,1.505h0.219
			c0.831,0,1.505-0.674,1.505-1.505V23.309C95.171,22.478,94.497,21.804,93.666,21.804z"/>
		<path fill="#3F8847" d="M98.622,29.23H88.345v31.271h10.277V29.23z"/>
		<path fill="#76C582" d="M6.154,48.382H5.935c-0.832,0-1.506,0.674-1.506,1.506v43.273c0,0.832,0.674,1.506,1.506,1.506h0.219
			c0.832,0,1.506-0.674,1.506-1.506V49.888C7.66,49.056,6.986,48.382,6.154,48.382z"/>
		<path fill="#3F8847" d="M11.095,55.823H0.818v31.271h10.278V55.823z"/>
		<path fill="#E57676" d="M58.681,33.835h-0.015c-0.888,0-1.607,0.72-1.607,1.608V88.95c0,0.889,0.72,1.609,1.607,1.609h0.015
			c0.888,0,1.609-0.72,1.609-1.609V35.444C60.289,34.555,59.569,33.835,58.681,33.835z"/>
		<path fill="#E54B3C" d="M63.741,42.958H53.462v38.333h10.279V42.958z"/>
		<path fill="#E57676" d="M23.756,39.727h-0.19c-0.84,0-1.52,0.681-1.52,1.52v47.791c0,0.839,0.681,1.52,1.52,1.52h0.19
			c0.84,0,1.521-0.681,1.521-1.52V41.248C25.276,40.408,24.595,39.727,23.756,39.727z"/>
		<path fill="#E54B3C" d="M28.726,47.885H18.448V82.24h10.277V47.885z"/>
		<path fill="#E57676" d="M76.239,27.257h-0.015c-0.888,0-1.607,0.72-1.607,1.608v53.507c0,0.889,0.72,1.609,1.607,1.609h0.015
			c0.889,0,1.609-0.72,1.609-1.609V28.865C77.848,27.977,77.128,27.257,76.239,27.257z"/>
		<path fill="#E54B3C" d="M81.298,36.379H71.02v38.332h10.277V36.379z"/>
	</g>
</g>
</svg>
