<?xml version="1.0" encoding="utf-8"?>
<!-- Generator: Adobe Illustrator 17.0.0, SVG Export Plug-In . SVG Version: 6.00 Build 0)  -->
<!DOCTYPE svg PUBLIC "-//W3C//DTD SVG 1.1//EN" "http://www.w3.org/Graphics/SVG/1.1/DTD/svg11.dtd">
<svg version="1.1" id="Layer_1" xmlns="http://www.w3.org/2000/svg" xmlns:xlink="http://www.w3.org/1999/xlink" x="0px" y="0px"
	 width="100px" height="100px" viewBox="0 0 100 100" enable-background="new 0 0 100 100" xml:space="preserve">
<g>
	<g>
		<path fill="#EACE93" d="M74.752,4.683H7.349c-3.188,0-5.772,2.585-5.772,5.775v82.856c0,3.19,2.584,5.775,5.772,5.775h67.402
			c3.187,0,5.772-2.585,5.772-5.775V10.458C80.523,7.268,77.939,4.683,74.752,4.683z"/>
		<path fill="#EFEFEF" d="M74.466,92.982H27.652l-5.43-13.843l-14.625-6.28V10.752h66.869V92.982z"/>
		<path fill="#E54B3C" d="M27.652,92.982V72.859H7.597L27.652,92.982z"/>
		<path fill="#E54B3C" d="M25.778,1.667h30.543v12.026c0.006,0.792-0.144,1.578-0.442,2.312c-0.299,0.734-0.741,1.401-1.298,1.964
			c-0.558,0.563-1.222,1.009-1.952,1.314c-0.732,0.305-1.516,0.462-2.308,0.462H31.778c-1.591,0-3.118-0.632-4.243-1.758
			c-1.125-1.126-1.757-2.653-1.757-4.245V1.667z"/>
		<path fill="#A7A9AC" d="M59.232,25.88H35.106c-1.675,0-3.033,1.357-3.033,3.03c0,1.674,1.358,3.03,3.033,3.03h24.125
			c1.675,0,3.034-1.357,3.034-3.03C62.265,27.236,60.906,25.88,59.232,25.88z"/>
		<path fill="#A7A9AC" d="M26.14,25.88h-6.067v6.06h6.067V25.88z"/>
		<path fill="#A7A9AC" d="M26.14,38.134h-6.067v6.06h6.067V38.134z"/>
		<path fill="#A7A9AC" d="M26.14,50.378h-6.067v6.06h6.067V50.378z"/>
		<path fill="#A7A9AC" d="M26.14,62.632h-6.067v6.06h6.067V62.632z"/>
		<path fill="#A7A9AC" d="M53.612,38.134h-18.81c-1.502,0-2.72,1.218-2.72,2.721v0.618c0,1.503,1.218,2.721,2.72,2.721h18.81
			c1.501,0,2.719-1.218,2.719-2.721v-0.618C56.331,39.352,55.114,38.134,53.612,38.134z"/>
		<path fill="#A7A9AC" d="M41.173,50.378h-6.057c-1.675,0-3.033,1.357-3.033,3.03c0,1.674,1.358,3.03,3.033,3.03h6.057
			c1.676,0,3.034-1.356,3.034-3.03C44.207,51.735,42.849,50.378,41.173,50.378z"/>
		<path fill="#168240" d="M71.603,99.013C86.733,99.013,99,86.742,99,71.604s-12.267-27.41-27.397-27.41
			s-27.396,12.272-27.396,27.41S56.472,99.013,71.603,99.013z"/>
		<path fill="#FFFFFF" d="M65.907,82.288c-0.383,0-0.763-0.077-1.115-0.229c-0.353-0.15-0.672-0.37-0.938-0.647l-6.334-6.574
			c-0.272-0.267-0.49-0.587-0.637-0.939c-0.146-0.352-0.222-0.731-0.22-1.113c0.001-0.381,0.079-0.759,0.23-1.11
			c0.15-0.351,0.368-0.669,0.643-0.934c0.275-0.265,0.601-0.472,0.957-0.608c0.357-0.137,0.737-0.201,1.119-0.187
			c0.381,0.012,0.756,0.101,1.103,0.262c0.346,0.161,0.657,0.39,0.913,0.672l4.441,4.614l15.661-13.699
			c0.573-0.463,1.304-0.687,2.038-0.623c0.733,0.064,1.415,0.408,1.901,0.963c0.485,0.555,0.737,1.275,0.703,2.012
			c-0.034,0.736-0.352,1.431-0.887,1.938L67.781,81.575C67.264,82.031,66.598,82.284,65.907,82.288z"/>
	</g>
</g>
</svg>
