<svg width="134" height="144" viewBox="0 0 134 144" fill="none" xmlns="http://www.w3.org/2000/svg">
<g clip-path="url(#clip0_263_301)">
<path d="M81.0743 52.4109H18.9918C8.50292 52.4109 0 60.9138 0 71.4027V113.157C0 123.646 8.50292 132.149 18.9918 132.149H81.0743C91.5632 132.149 100.066 123.646 100.066 113.157V71.4027C100.066 60.9138 91.5632 52.4109 81.0743 52.4109Z" fill="#F4DD45"/>
<path d="M5.96492 113.157V71.4027C5.96492 66.3658 7.96581 61.5351 11.5275 57.9735C15.0891 54.4118 19.9198 52.4109 24.9567 52.4109H18.9719C13.935 52.4109 9.1043 54.4118 5.54265 57.9735C1.98099 61.5351 -0.0198975 66.3658 -0.0198975 71.4027V113.157C-0.0198975 118.194 1.98099 123.024 5.54265 126.586C9.1043 130.148 13.935 132.149 18.9719 132.149H24.9567C19.9198 132.149 15.0891 130.148 11.5275 126.586C7.96581 123.024 5.96492 118.194 5.96492 113.157Z" fill="#ECC32E"/>
<path d="M18.9918 52.4109H28.1087V27.3545C28.1087 24.5855 29.2073 21.9297 31.1634 19.9698C33.1195 18.01 35.7732 16.9063 38.5422 16.901H62.4814C65.2504 16.9063 67.9042 18.01 69.8603 19.9698C71.8164 21.9297 72.915 24.5855 72.915 27.3545V35.1946H88.8745V27.3346C88.8745 20.3347 86.0938 13.6215 81.1442 8.67185C76.1945 3.7222 69.4813 0.941528 62.4814 0.941528H38.5422C31.5439 0.946812 24.8338 3.72919 19.8853 8.6777C14.9368 13.6262 12.1545 20.3363 12.1492 27.3346V53.2687C12.1492 53.4483 12.1492 53.6079 12.1492 53.7875C14.3257 52.9107 16.6456 52.444 18.9918 52.4109Z" fill="#A0A0A0"/>
<path d="M72.0373 16.901H62.4017C65.1707 16.9063 67.8244 18.0099 69.7805 19.9698C71.7366 21.9296 72.8352 24.5855 72.8352 27.3545V35.1946H82.4708V27.3545C82.4708 24.5855 81.3722 21.9296 79.4161 19.9698C77.46 18.0099 74.8062 16.9063 72.0373 16.901Z" fill="#5E5E5E"/>
<path d="M21.7846 27.3346C21.7899 20.3363 24.5723 13.6262 29.5208 8.6777C34.4693 3.72919 41.1795 0.946812 48.1777 0.941528H38.5421C31.5439 0.946812 24.8338 3.72919 19.8853 8.6777C14.9368 13.6262 12.1544 20.3363 12.1491 27.3346V53.2687C12.1393 53.4415 12.1393 53.6147 12.1491 53.7875C14.317 52.9384 16.6236 52.4987 18.9519 52.4907H21.7448L21.7846 27.3346Z" fill="#5E5E5E"/>
<path d="M119.018 94.8234H32.4377C24.1634 94.8234 17.4557 101.531 17.4557 109.805V128.438C17.4557 136.712 24.1634 143.42 32.4377 143.42H119.018C127.292 143.42 134 136.712 134 128.438V109.805C134 101.531 127.292 94.8234 119.018 94.8234Z" fill="#E2DFE2"/>
<path d="M130.01 128.438V109.805C130.01 103.735 125.089 98.8132 119.018 98.8132H32.4377C26.3669 98.8132 21.4456 103.735 21.4456 109.805V128.438C21.4456 134.509 26.3669 139.43 32.4377 139.43H119.018C125.089 139.43 130.01 134.509 130.01 128.438Z" fill="#F9F6F9"/>
<path d="M31.3405 125.725L36.0286 120.558L29.2059 119.082L31.2009 113.097L37.5847 115.77L36.9263 108.948H43.4897L42.8713 115.71L49.0157 113.097L51.0106 119.082L44.3874 120.558L48.9558 125.785L43.4897 129.356L40.1382 123.59L36.7268 129.356L31.3405 125.725Z" fill="#665E66"/>
<path d="M55.1201 125.725L59.7883 120.558L52.9856 119.082L54.9805 113.097L61.3643 115.77L60.686 108.948H67.1297L66.5312 115.71L72.6756 113.097L74.6706 119.082L68.0474 120.558L72.5958 125.785L67.1895 129.356L63.858 123.59L60.4466 129.356L55.1201 125.725Z" fill="#665E66"/>
<path d="M78.8799 125.725L83.568 120.558L76.7653 119.082L78.7602 113.097L85.144 115.77L84.4857 108.948H90.9293L90.3109 115.71L96.4553 113.097L98.4502 119.082L91.8271 120.558L96.3755 125.785L90.9692 129.356L87.6177 123.59L84.2264 129.356L78.8799 125.725Z" fill="#665E66"/>
<path d="M102.66 125.725L107.328 120.558L100.505 119.082L102.5 113.097L108.884 115.77L108.225 108.948H114.669L114.051 115.71L120.295 112.997L122.29 118.982L115.667 120.458L120.235 125.685L114.829 129.256L111.477 123.491L108.066 129.256L102.66 125.725Z" fill="#665E66"/>
<path d="M98.351 37.6189L112.398 30.9702C113.652 30.3762 114.188 28.8776 113.594 27.6228C113 26.3681 111.501 25.8323 110.247 26.4262L96.2002 33.075C94.9454 33.6689 94.4097 35.1676 95.0036 36.4224C95.5976 37.6771 97.0963 38.2128 98.351 37.6189Z" fill="#BE1E2D"/>
<path d="M112.439 55.5538L98.3929 48.9051C97.1381 48.3112 95.6395 48.8469 95.0456 50.1017C94.4516 51.3564 94.9873 52.8551 96.2421 53.449L110.289 60.0978C111.543 60.6917 113.042 60.156 113.636 58.9012C114.23 57.6464 113.694 56.1478 112.439 55.5538Z" fill="#BE1E2D"/>
<path d="M112.854 40.7804H97.3131C95.9248 40.7804 94.7994 41.9058 94.7994 43.294C94.7994 44.6823 95.9248 45.8076 97.3131 45.8076H112.854C114.242 45.8076 115.367 44.6823 115.367 43.294C115.367 41.9058 114.242 40.7804 112.854 40.7804Z" fill="#BE1E2D"/>
</g>
<defs>
<clipPath id="clip0_263_301">
<rect width="134" height="142.478" fill="white" transform="translate(0 0.941528)"/>
</clipPath>
</defs>
</svg>
