<svg width="32" height="29" viewBox="0 0 32 29" fill="none" xmlns="http://www.w3.org/2000/svg">
<path d="M31.9998 27.3528C31.5822 28.1461 31.0479 28.2672 30.3046 27.7369C28.7054 26.5928 27.933 25.4571 26.3379 24.3047C25.8136 23.9219 25.1791 23.7197 24.5299 23.7285C20.8722 23.7285 16.3836 23.7285 12.7259 23.7285C12.2218 23.7541 11.7178 23.6739 11.2465 23.493C10.7753 23.3121 10.3471 23.0346 9.98961 22.6783C9.63208 22.3219 9.35315 21.8947 9.17072 21.424C8.98829 20.9533 8.90638 20.4497 8.93035 19.9455V18.3421H9.3062C12.6466 18.3421 16.0008 18.3421 19.369 18.3421C20.571 18.3604 21.7456 17.9816 22.7104 17.2644C23.6752 16.5472 24.3764 15.5317 24.7053 14.3754C24.8477 13.8641 24.9221 13.3362 24.9266 12.8054C24.9516 11.0851 24.9266 9.36904 24.9266 7.64875V7.28131C25.4861 7.28131 26.0164 7.28131 26.5425 7.28131C27.3322 7.25401 28.1228 7.27494 28.91 7.34395C29.6654 7.44101 30.3687 7.78103 30.914 8.31276C31.4593 8.84449 31.817 9.53909 31.933 10.2918C31.9482 10.3516 31.9676 10.4103 31.9914 10.4672L31.9998 27.3528Z" fill="#BC2133"/>
<path d="M21.8537 0.00346404H12.701C9.71973 0.00346404 6.74266 0.00346404 3.76138 0.00346404C3.26205 -0.0184452 2.76358 0.063757 2.29773 0.244858C1.83188 0.425959 1.4088 0.701988 1.05538 1.05541C0.701962 1.40883 0.425959 1.83193 0.244858 2.29778C0.063757 2.76363 -0.0184452 3.26205 0.00346404 3.76138C0.00346404 9.0503 0.00346404 14.3392 0.00346404 19.6281C-0.00220377 19.7524 0.00481178 19.8769 0.0243618 19.9998C0.0574407 20.1615 0.13245 20.3116 0.242004 20.4351C0.351557 20.5585 0.491711 20.6509 0.648337 20.703C0.804962 20.755 0.972624 20.7649 1.13429 20.7316C1.29595 20.6984 1.44596 20.6231 1.56926 20.5133C3.2144 19.3442 4.86373 18.1751 6.50051 16.9934C7.01425 16.6156 7.63745 16.4162 8.27508 16.4256C11.9328 16.4256 15.5891 16.4256 19.244 16.4256C19.5765 16.4313 19.9084 16.3991 20.2336 16.3295C21.0453 16.1541 21.7712 15.703 22.2881 15.053C22.8049 14.4029 23.0807 13.594 23.0687 12.7637C23.0687 8.90277 23.0687 5.03907 23.0687 1.17259C23.0604 0.329145 22.7431 0.00346404 21.8537 0.00346404ZM16.6093 11.7407C16.6093 11.9899 16.5102 12.2288 16.3341 12.405C16.1579 12.5812 15.919 12.6802 15.6698 12.6802H6.31671C6.06755 12.6802 5.82866 12.5812 5.65247 12.405C5.47629 12.2288 5.37723 11.9899 5.37723 11.7407V11.7407C5.37723 11.4915 5.47629 11.2526 5.65247 11.0764C5.82866 10.9002 6.06755 10.8012 6.31671 10.8012H15.6698C15.7933 10.8007 15.9157 10.8246 16.03 10.8716C16.1442 10.9186 16.248 10.9878 16.3354 11.0751C16.4227 11.1625 16.4918 11.2663 16.5389 11.3805C16.5859 11.4947 16.6098 11.6172 16.6093 11.7407V11.7407ZM5.37723 8.05793C5.37723 7.80876 5.47629 7.56982 5.65247 7.39363C5.82866 7.21745 6.06755 7.11845 6.31671 7.11845H12.7761C12.9045 7.10987 13.0333 7.12777 13.1544 7.171C13.2756 7.21423 13.3866 7.28187 13.4806 7.36975C13.5745 7.45764 13.6494 7.56388 13.7006 7.68189C13.7518 7.79991 13.7783 7.92719 13.7783 8.05584C13.7783 8.18448 13.7518 8.31176 13.7006 8.42978C13.6494 8.5478 13.5745 8.65406 13.4806 8.74194C13.3866 8.82983 13.2756 8.89747 13.1544 8.9407C13.0333 8.98393 12.9045 9.00182 12.7761 8.99325H6.31671C6.06937 8.99437 5.8317 8.89744 5.65563 8.72372C5.47956 8.55 5.37944 8.31362 5.37723 8.06629V8.05793ZM17.1479 5.31049H6.31671C6.18835 5.31906 6.05968 5.30117 5.93852 5.25794C5.81735 5.21471 5.70626 5.14707 5.61231 5.05918C5.51836 4.9713 5.44353 4.86506 5.39232 4.74704C5.34112 4.62902 5.31464 4.50175 5.31464 4.3731C5.31464 4.24445 5.34112 4.11717 5.39232 3.99916C5.44353 3.88114 5.51836 3.77488 5.61231 3.68699C5.70626 3.59911 5.81735 3.53146 5.93852 3.48823C6.05968 3.44501 6.18835 3.42711 6.31671 3.43568H17.1479C17.2763 3.42711 17.405 3.44501 17.5261 3.48823C17.6473 3.53146 17.7584 3.59911 17.8524 3.68699C17.9463 3.77488 18.0211 3.88114 18.0723 3.99916C18.1235 4.11717 18.15 4.24445 18.15 4.3731C18.15 4.50175 18.1235 4.62902 18.0723 4.74704C18.0211 4.86506 17.9463 4.9713 17.8524 5.05918C17.7584 5.14707 17.6473 5.21471 17.5261 5.25794C17.405 5.30117 17.2763 5.31906 17.1479 5.31049Z" fill="#F9C52E"/>
</svg>
