<svg width="53" height="55" viewBox="0 0 53 55" fill="none" xmlns="http://www.w3.org/2000/svg">
<g clip-path="url(#clip0_78_399)">
<path d="M45.8114 7.38731H38.6675V26.881H45.8114V7.38731Z" fill="#BE1E2D"/>
<path d="M47.7684 8.1292V0.985352L36.7041 0.985352V8.1292H47.7684Z" fill="#F3705A"/>
<path d="M47.7684 26.0879L26.5671 4.55408L4.92456 26.0879V54.19H47.7684V26.0879Z" fill="#FFD15C"/>
<path d="M13.936 35.2336C14.7758 35.2336 15.6075 35.399 16.3834 35.7204C17.1594 36.0418 17.8644 36.5129 18.4583 37.1068C19.0522 37.7007 19.5233 38.4057 19.8447 39.1817C20.1661 39.9576 20.3315 40.7892 20.3315 41.6291V54.19H7.52121V41.6483C7.51867 40.8052 7.68287 39.9699 8.00434 39.1905C8.32582 38.4111 8.79823 37.7029 9.39439 37.1068C9.99056 36.5106 10.6987 36.0382 11.4781 35.7167C12.2576 35.3952 13.0928 35.231 13.936 35.2336V35.2336Z" fill="#58595B"/>
<path d="M43.2212 35.2336H26.5032V49.7515H43.2212V35.2336Z" fill="#58595B"/>
<path d="M34.05 37.1266H28.0701V47.8648H34.05V37.1266Z" fill="#E6E7E8"/>
<path d="M41.6543 37.1266H35.6744V47.8648H41.6543V37.1266Z" fill="#E6E7E8"/>
<path d="M52.0087 25.7809L28.9846 2.79529C28.6694 2.47871 28.2946 2.22758 27.8819 2.05635C27.4692 1.88513 27.0267 1.79718 26.5799 1.79758H26.3625C25.9147 1.79704 25.4712 1.8849 25.0575 2.05611C24.6437 2.22732 24.2678 2.47852 23.9513 2.79529L0.965706 25.7809C0.649148 26.0969 0.397998 26.4723 0.226648 26.8855C0.0552985 27.2987 -0.0328979 27.7416 -0.0328979 28.1889C-0.0328979 28.6362 0.0552985 29.0791 0.226648 29.4922C0.397998 29.9054 0.649148 30.2808 0.965706 30.5968V30.5968C1.28173 30.9133 1.65705 31.1645 2.07023 31.3358C2.48341 31.5072 2.92632 31.5954 3.37362 31.5954C3.82092 31.5954 4.26384 31.5072 4.67702 31.3358C5.09019 31.1645 5.46554 30.9133 5.78156 30.5968L24.0601 12.3119C24.3761 11.9953 24.7514 11.7442 25.1646 11.5728C25.5778 11.4015 26.0207 11.3133 26.468 11.3133C26.9153 11.3133 27.3582 11.4015 27.7714 11.5728C28.1846 11.7442 28.5599 11.9953 28.8759 12.3119L47.1608 30.5968C47.4768 30.9133 47.8522 31.1645 48.2654 31.3358C48.6785 31.5072 49.1215 31.5954 49.5688 31.5954C50.0161 31.5954 50.459 31.5072 50.8721 31.3358C51.2853 31.1645 51.6607 30.9133 51.9767 30.5968V30.5968C52.6171 29.9611 52.98 29.0978 52.986 28.1955C52.992 27.2931 52.6406 26.425 52.0087 25.7809V25.7809Z" fill="#F3705A"/>
<path d="M47.7684 31.0573C47.5611 30.9241 47.3682 30.7698 47.1928 30.5968L28.9079 12.3119C28.5919 11.9953 28.2165 11.7442 27.8034 11.5728C27.3902 11.4015 26.9473 11.3133 26.5 11.3133C26.0527 11.3133 25.6098 11.4015 25.1966 11.5728C24.7834 11.7442 24.4081 11.9953 24.0921 12.3119L5.81353 30.5968C5.55283 30.8556 5.25279 31.0714 4.92456 31.2364V32.912C5.25546 32.7515 5.55619 32.5352 5.81353 32.2724L24.0921 13.9939C24.4081 13.6774 24.7834 13.4262 25.1966 13.2549C25.6098 13.0835 26.0527 12.9953 26.5 12.9953C26.9473 12.9953 27.3902 13.0835 27.8034 13.2549C28.2165 13.4262 28.5919 13.6774 28.9079 13.9939L47.1928 32.2724C47.3666 32.4473 47.5597 32.6018 47.7684 32.7329V31.0573Z" fill="#F7B64C"/>
</g>
<defs>
<clipPath id="clip0_78_399">
<rect width="53" height="53.2047" fill="white" transform="translate(0 0.985352)"/>
</clipPath>
</defs>
</svg>
