<svg width="39" height="31" viewBox="0 0 39 31" fill="none" xmlns="http://www.w3.org/2000/svg">
<path d="M-3.89852e-05 14.8315C0.066996 14.3027 0.12643 13.7664 0.21581 13.245C0.532136 11.1854 1.29645 9.22031 2.45467 7.48812C3.6129 5.75593 5.13685 4.29887 6.91931 3.21961C9.7275 1.40292 13.0966 0.659815 16.4085 1.12663C18.4657 1.36629 20.4467 2.04905 22.2148 3.12787C23.9828 4.20669 25.4958 5.6559 26.6499 7.37574C26.7902 7.56334 26.8918 7.77698 26.9487 8.0042C27.0056 8.23141 27.0166 8.46767 26.9812 8.69921C26.9459 8.93074 26.8647 9.15295 26.7427 9.35284C26.6206 9.55273 26.4601 9.72632 26.2702 9.86351C26.0819 10.0087 25.8658 10.1137 25.6352 10.172C25.4047 10.2302 25.1645 10.2404 24.9299 10.202C24.6952 10.1636 24.471 10.0773 24.271 9.94865C24.0711 9.81996 23.8997 9.65154 23.7675 9.45386C22.6408 7.82919 21.118 6.51913 19.3433 5.64777C17.0562 4.56154 14.4652 4.29511 12.0049 4.89321C9.54472 5.49131 7.36499 6.91752 5.83188 8.93246C4.84841 10.2195 4.16217 11.7083 3.82232 13.292C3.48248 14.8758 3.49748 16.5151 3.86633 18.0923C4.23518 19.6695 4.94879 21.1455 5.95572 22.4143C6.96264 23.6831 8.23801 24.7131 9.69025 25.4305C13.9954 27.5235 18.0992 26.9202 21.8085 23.9409C22.5301 23.2753 23.1862 22.542 23.7675 21.7511C24.012 21.4068 24.3696 21.1592 24.778 21.0517C25.1864 20.9441 25.6196 20.9834 26.002 21.1626C26.2388 21.2704 26.4489 21.4292 26.6172 21.6276C26.7855 21.8261 26.9076 22.0593 26.9752 22.3105C27.0429 22.5618 27.0541 22.8248 27.0082 23.0809C26.9622 23.337 26.8603 23.5798 26.7096 23.7919C26.0184 24.835 25.189 25.7796 24.2441 26.5999C22.1433 28.4432 19.5568 29.6438 16.7929 30.0585C14.0289 30.4731 11.2041 30.0844 8.65483 28.9387C5.78088 27.6627 3.40142 25.4845 1.87695 22.7342C0.843893 20.9058 0.230604 18.8704 0.0817906 16.7756C0.0692313 16.6381 0.0492826 16.5013 0.0221458 16.3659L-3.89852e-05 14.8315Z" fill="#F9C52E"/>
<path d="M39 16L29 10.2265L29 21.7735L39 16Z" fill="#BC2133"/>
<rect x="14" y="14" width="17" height="4" fill="#BC2133"/>
</svg>
