<svg width="128" height="98" viewBox="0 0 128 98" fill="none" xmlns="http://www.w3.org/2000/svg">
<path d="M17.5374 46.4852C17.1302 46.4858 16.728 46.3968 16.3592 46.2243C15.9904 46.0519 15.6641 45.8004 15.4036 45.4876L0.647426 27.8357C0.3087 27.4317 0.0923765 26.9393 0.023658 26.4166C-0.0450604 25.8938 0.0366377 25.3624 0.259431 24.8845C0.481049 24.4056 0.834884 24 1.27914 23.7153C1.7234 23.4305 2.23969 23.2785 2.76736 23.2772H32.2933C32.821 23.2785 33.3374 23.4305 33.7817 23.7153C34.226 24 34.5796 24.4056 34.8012 24.8845C35.024 25.3624 35.1059 25.8938 35.0372 26.4166C34.9685 26.9393 34.752 27.4317 34.4132 27.8357L19.6571 45.4876C19.3981 45.7986 19.0742 46.0491 18.7079 46.2215C18.3417 46.3938 17.9421 46.4838 17.5374 46.4852V46.4852ZM8.69755 28.8194L17.5374 39.3911L26.3633 28.8194H8.69755Z" fill="#DDDDDD"/>
<path d="M17.5374 97.03C16.8025 97.03 16.0975 96.738 15.5778 96.2184C15.0581 95.6987 14.7663 94.9939 14.7663 94.2589V43.714C14.7663 42.9791 15.0581 42.2743 15.5778 41.7546C16.0975 41.2349 16.8025 40.9429 17.5374 40.9429C18.2723 40.9429 18.9771 41.2349 19.4968 41.7546C20.0165 42.2743 20.3085 42.9791 20.3085 43.714V94.2589C20.3085 94.9939 20.0165 95.6987 19.4968 96.2184C18.9771 96.738 18.2723 97.03 17.5374 97.03Z" fill="#DDDDDD"/>
<path d="M45.1375 58.0822H32.8061C31.0997 58.0822 29.7164 59.4655 29.7164 61.172V93.9263C29.7164 95.6328 31.0997 97.0161 32.8061 97.0161H45.1375C46.844 97.0161 48.2273 95.6328 48.2273 93.9263V61.172C48.2273 59.4655 46.844 58.0822 45.1375 58.0822Z" fill="#6D6E71"/>
<path d="M71.7124 43.4231H59.381C57.6745 43.4231 56.2912 44.8065 56.2912 46.5129V93.9403C56.2912 95.6467 57.6745 97.03 59.381 97.03H71.7124C73.4188 97.03 74.8021 95.6467 74.8021 93.9403V46.5129C74.8021 44.8065 73.4188 43.4231 71.7124 43.4231Z" fill="#414042"/>
<path d="M98.1763 23.4019H85.8449C84.1385 23.4019 82.7551 24.7853 82.7551 26.4917V93.9264C82.7551 95.6328 84.1385 97.0162 85.8449 97.0162H98.1763C99.8827 97.0162 101.266 95.6328 101.266 93.9264V26.4917C101.266 24.7853 99.8827 23.4019 98.1763 23.4019Z" fill="#BE1E2D"/>
<path d="M124.626 0H112.295C110.589 0 109.205 1.38334 109.205 3.08977V93.9264C109.205 95.6328 110.589 97.0161 112.295 97.0161H124.626C126.333 97.0161 127.716 95.6328 127.716 93.9264V3.08977C127.716 1.38334 126.333 0 124.626 0Z" fill="#108240"/>
<path d="M35.9374 32.5604C40.9802 32.5604 45.0682 28.4724 45.0682 23.4296C45.0682 18.3869 40.9802 14.2989 35.9374 14.2989C30.8946 14.2989 26.8066 18.3869 26.8066 23.4296C26.8066 28.4724 30.8946 32.5604 35.9374 32.5604Z" fill="#BE1E2D"/>
</svg>
