<?xml version="1.0" encoding="utf-8"?>
<!-- Generator: Adobe Illustrator 17.0.0, SVG Export Plug-In . SVG Version: 6.00 Build 0)  -->
<!DOCTYPE svg PUBLIC "-//W3C//DTD SVG 1.1//EN" "http://www.w3.org/Graphics/SVG/1.1/DTD/svg11.dtd">
<svg version="1.1" id="Layer_1" xmlns="http://www.w3.org/2000/svg" xmlns:xlink="http://www.w3.org/1999/xlink" x="0px" y="0px"
	 width="100px" height="100px" viewBox="0 0 100 100" enable-background="new 0 0 100 100" xml:space="preserve">
<path fill="#137E40" d="M1,42.12c0.255-1.781,0.445-3.562,0.772-5.29c1.852-9.891,6.531-18.268,13.619-25.351
	c0.263-0.27,0.578-0.485,0.926-0.632c0.348-0.147,0.721-0.222,1.099-0.222c0.377,0,0.751,0.076,1.099,0.222
	c0.348,0.147,0.663,0.362,0.926,0.632c0.268,0.266,0.48,0.582,0.626,0.931c0.145,0.348,0.22,0.722,0.22,1.1
	c0,0.377-0.075,0.751-0.22,1.1c-0.145,0.348-0.358,0.665-0.626,0.931c-2.822,2.878-5.271,6.1-7.29,9.588
	C8.2,32.078,6.407,40.046,7,48.017c0.593,7.971,3.545,15.586,8.48,21.875c1.187,1.502,2.488,2.915,3.77,4.34
	s1.359,3.188,0.125,4.346c-1.235,1.158-2.933,1.021-4.263-0.333C7.762,70.76,3.09,61.902,1.475,51.488
	C1.291,50.301,1.16,49.113,1,47.896V42.12z"/>
<path fill="#137E40" d="M93.425,42.879c-0.107-8.775-4.085-18.143-11.434-26.123c-0.344-0.38-0.713-0.736-1.058-1.116
	c-0.282-0.272-0.508-0.598-0.661-0.96c-0.154-0.361-0.233-0.75-0.233-1.142c0-0.393,0.078-0.781,0.233-1.142
	c0.153-0.361,0.379-0.688,0.661-0.96c0.279-0.266,0.608-0.472,0.969-0.608c0.361-0.135,0.744-0.197,1.129-0.18
	c0.385,0.017,0.763,0.111,1.11,0.277c0.348,0.166,0.658,0.4,0.913,0.689c3.985,3.947,7.265,8.547,9.696,13.601
	c3.165,6.486,4.715,13.642,4.518,20.857c-0.326,11.132-4.316,20.856-11.47,29.323c-0.861,1.027-1.781,2.007-2.725,2.968
	c-1.265,1.288-3.004,1.348-4.192,0.196c-0.281-0.275-0.502-0.606-0.651-0.97c-0.149-0.364-0.221-0.756-0.213-1.149
	c0.008-0.394,0.096-0.781,0.258-1.14c0.164-0.358,0.398-0.68,0.689-0.945c4.257-4.271,7.588-9.374,9.784-14.99
	C92.523,54.748,93.431,49.974,93.425,42.879z"/>
<path fill="#137E40" d="M13.776,44.958c-0.008-9.198,3.62-18.026,10.093-24.561c1.294-1.348,3.04-1.449,4.263-0.261
	c0.287,0.271,0.515,0.599,0.669,0.963c0.154,0.364,0.23,0.756,0.224,1.151c-0.006,0.395-0.094,0.784-0.259,1.143
	c-0.165,0.359-0.403,0.679-0.698,0.941c-4.062,4.041-6.808,9.214-7.878,14.842c-1.829,9.861,0.629,18.553,7.415,25.974
	c0.772,0.843,1.526,1.668,1.383,2.915c-0.036,0.55-0.236,1.074-0.573,1.508c-0.338,0.434-0.798,0.757-1.321,0.926
	c-0.543,0.206-1.137,0.239-1.7,0.093c-0.562-0.146-1.066-0.463-1.441-0.907C17.427,63.11,13.769,54.22,13.776,44.958z"/>
<path fill="#137E40" d="M86.497,45.041c0.018,9.123-3.536,17.89-9.902,24.424c-1.414,1.485-3.124,1.633-4.394,0.404
	c-1.27-1.229-1.187-2.898,0.19-4.34c5.937-6.258,8.758-13.714,8.27-22.335c-0.342-6.902-3.185-13.444-7.997-18.405
	c-0.789-0.837-1.496-1.692-1.311-2.969c0.053-0.547,0.268-1.065,0.619-1.488c0.35-0.423,0.819-0.732,1.346-0.887
	c0.535-0.182,1.112-0.2,1.657-0.05c0.546,0.149,1.034,0.458,1.401,0.888c6.514,6.579,10.155,15.474,10.122,24.733V45.041z"/>
<path fill="#137E40" d="M26.065,44.263c0.126-5.682,2.427-11.099,6.43-15.133c1.294-1.354,3.04-1.484,4.257-0.344
	c1.217,1.14,1.187,2.915-0.119,4.34c-6.43,6.875-6.442,16.867,0,23.747c1.342,1.437,1.407,3.154,0.166,4.335
	c-1.241,1.181-2.969,1.034-4.328-0.362C28.345,56.594,26.047,50.894,26.065,44.263z"/>
<path fill="#137E40" d="M74.202,46.341c-0.071,4.803-2.167,10.093-6.365,14.498c-1.318,1.395-3.111,1.527-4.328,0.339
	c-1.218-1.187-1.188-2.874,0.13-4.269c6.466-6.97,6.459-16.855,0-23.83c-1.282-1.383-1.324-3.087-0.107-4.269
	c1.218-1.181,2.969-1.033,4.263,0.291C71.922,33.333,74.232,39.068,74.202,46.341z"/>
<path fill="#6D6E71" d="M50.127,51.405H50.02c-1.649,0-2.986,1.337-2.986,2.987v32.748c0,1.65,1.338,2.986,2.986,2.986h0.107
	c1.649,0,2.986-1.337,2.986-2.986V54.392C53.114,52.742,51.776,51.405,50.127,51.405z"/>
<g>
	<path fill="#F9C912" d="M50.139,54.771c5.823,0,10.544-4.72,10.544-10.544s-4.721-10.544-10.544-10.544
		s-10.544,4.721-10.544,10.544S44.316,54.771,50.139,54.771z"/>
</g>
</svg>
