<svg width="33" height="38" viewBox="0 0 33 38" fill="none" xmlns="http://www.w3.org/2000/svg">
<g clip-path="url(#clip0_85_543)">
<path d="M16.5803 37.9767C17.3003 37.9696 18.0117 37.8207 18.6741 37.5385C19.3365 37.2563 19.9368 36.8463 20.4406 36.332C20.9444 35.8177 21.3419 35.2092 21.6105 34.5411C21.879 33.8731 22.0133 33.1587 22.0056 32.4388L11.0885 32.5181C11.094 33.9699 11.6753 35.3601 12.705 36.3836C13.7347 37.4071 15.1285 37.98 16.5803 37.9767V37.9767Z" fill="#F7A231"/>
<path d="M31.8462 28.0068C30.5066 27.4893 27.31 25.3317 27.1472 24.038C26.8926 22.0265 26.8133 19.9732 26.6463 17.9534C26.5253 16.4552 26.4001 14.957 26.2541 13.4588C26.108 11.9606 26.0745 10.2454 25.6405 8.79724C24.9895 6.63966 22.2186 4.8702 20.4366 4.18161C19.9147 3.98199 19.379 3.8202 18.8339 3.69751V2.52483C18.8284 1.85401 18.5585 1.21248 18.0826 0.739688C17.6067 0.2669 16.9633 0.0010772 16.2925 0V0C15.622 0.00989385 14.9827 0.284313 14.5137 0.763479C14.0447 1.24264 13.784 1.88773 13.7885 2.55821V3.73507C13.2452 3.86315 12.7124 4.03195 12.1944 4.24004C10.4166 4.95366 7.67472 6.74399 7.05707 8.92661C6.63975 10.3831 6.63962 12.0732 6.50607 13.5965C6.37253 15.1197 6.27673 16.5971 6.17657 18.0953C6.03885 20.1193 5.98877 22.1725 5.75924 24.1882C5.61318 25.4861 2.33283 28.1445 1.00156 28.687C0.727824 28.7767 0.486914 28.9456 0.309142 29.1722C0.13137 29.3989 0.02476 29.6732 0.00287186 29.9604C-0.0190163 30.2476 0.0446901 30.5349 0.186063 30.7859C0.327437 31.0369 0.540193 31.2403 0.797178 31.3704C1.77789 32.0131 8.43838 32.468 16.5095 32.4137C24.5806 32.3595 31.2327 31.8044 32.2051 31.1618C33.3611 30.5483 33.0857 28.4909 31.8462 28.0068Z" fill="#FFDE17"/>
<path d="M23.1448 18.5543H23.1114C23.0111 18.55 22.9127 18.526 22.8217 18.4836C22.7306 18.4412 22.6488 18.3813 22.581 18.3072C22.5132 18.2332 22.4606 18.1465 22.4263 18.0521C22.3921 17.9578 22.3766 17.8575 22.3811 17.7572C22.4838 15.0964 22.2569 12.4331 21.7052 9.82803C21.672 9.63591 21.7132 9.43836 21.8203 9.27546C21.9275 9.11257 22.0923 8.99652 22.2819 8.95086C22.4714 8.9052 22.6713 8.93335 22.8408 9.02959C23.0104 9.12584 23.137 9.28298 23.195 9.46913C23.7812 12.2105 24.0209 15.0146 23.9086 17.8157C23.9021 18.0138 23.8188 18.2017 23.6763 18.3396C23.5338 18.4774 23.3431 18.5544 23.1448 18.5543V18.5543Z" fill="white"/>
<path d="M22.9863 22.0265C22.9377 22.0306 22.8888 22.0306 22.8402 22.0265C22.7415 22.0079 22.6475 21.9701 22.5635 21.9152C22.4794 21.8602 22.4069 21.7893 22.3503 21.7063C22.2937 21.6234 22.2541 21.5301 22.2336 21.4317C22.2131 21.3334 22.2122 21.2321 22.2309 21.1334C22.3041 20.7344 22.3294 20.3281 22.3061 19.9232C22.2971 19.8231 22.3078 19.7223 22.3377 19.6265C22.3676 19.5306 22.4162 19.4416 22.4805 19.3644C22.5449 19.2873 22.6237 19.2236 22.7126 19.177C22.8016 19.1304 22.8987 19.1017 22.9987 19.0927C23.0987 19.0836 23.1996 19.0944 23.2954 19.1243C23.3913 19.1542 23.4804 19.2027 23.5575 19.2671C23.6346 19.3314 23.6983 19.4103 23.7449 19.4992C23.7916 19.5882 23.8203 19.6854 23.8293 19.7854C23.8665 20.3312 23.8342 20.8795 23.7333 21.4172C23.6978 21.5891 23.6041 21.7436 23.468 21.8546C23.332 21.9656 23.1619 22.0263 22.9863 22.0265V22.0265Z" fill="white"/>
</g>
<defs>
<clipPath id="clip0_85_543">
<rect width="32.9396" height="37.96" fill="white"/>
</clipPath>
</defs>
</svg>
