<svg width="135" height="134" viewBox="0 0 135 134" fill="none" xmlns="http://www.w3.org/2000/svg">
<g clip-path="url(#clip0_12_2)">
<path d="M63.3106 4.51266C64.8135 1.30532 67.3685 0 70.9379 0C87.0944 0.0745895 103.251 0.0372947 119.37 0.0372947C119.783 0.0372947 120.196 0.0745895 120.647 0.0745895C124.179 0.745895 126.358 3.28194 126.358 6.89953C126.396 17.1929 126.396 27.4489 126.358 37.7423C126.358 41.882 123.127 45.052 118.956 45.0893C110.277 45.1266 101.635 45.1266 92.9558 45.0893C91.6031 45.0893 90.5511 45.425 89.5366 46.3201C85.1781 50.0868 80.8197 53.779 76.4236 57.4712C74.545 59.0376 72.8542 58.7019 71.727 56.6134C71.4264 54.8606 71.6143 53.0704 71.5767 51.3176C71.5391 49.7512 71.464 49.6766 69.9235 49.5647C65.565 49.3409 62.5967 46.3201 62.5967 41.9939C62.5967 33.9382 62.5592 25.9198 62.5967 17.8642C62.5592 16.3724 62.5592 14.8806 62.5967 13.3888C62.5216 11.1511 62.5592 8.87615 62.5967 6.63846C62.5592 5.85527 62.6343 5.07209 63.3106 4.51266Z" fill="#0E8242"/>
<path d="M63.3106 4.51266C62.7094 7.45895 63.1979 10.4798 62.9724 13.4261C62.221 14.0601 61.2817 13.8736 60.4175 13.8736C44.7871 13.8736 29.1191 13.8736 13.4887 13.8736C9.73142 13.8736 9.50598 14.0974 9.50598 17.7896C9.50598 37.2202 9.50598 56.6507 9.50598 76.0813C9.50598 79.6989 9.76899 79.9226 13.4136 79.9226C14.9541 79.9226 16.4946 79.8853 18.0351 79.9599C26.3763 79.8853 34.6799 79.9226 43.0211 79.9226C48.1687 79.9226 53.3162 79.848 58.4637 79.9599C61.4695 79.9226 64.5129 79.8853 67.5188 79.9599C72.4784 79.8853 77.4381 79.9226 82.3977 79.9226C91.0395 79.9226 99.7189 79.9226 108.361 79.9226C111.141 79.9226 113.959 80.1837 116.702 79.4751C117.266 80.221 116.89 80.9296 116.476 81.5263C115.161 83.6894 113.283 84.9947 110.69 85.2185C110.239 85.2558 109.751 85.2558 109.3 85.2558C75.4467 85.2558 41.5934 85.2558 7.74004 85.2558C5.44809 85.2558 3.41914 84.6964 1.72835 83.0554C0.676309 82.0484 0.300579 80.8177 0.0375671 79.4751C0.0375671 56.6507 0.0375671 33.8263 0.0375671 11.0019C0.0375671 7.53354 3.1937 4.40078 6.688 4.40078C25.5497 4.51266 44.4113 4.51266 63.3106 4.51266Z" fill="#C2C2C2"/>
<path d="M0.0375807 79.587C0.63875 80.8923 1.20235 82.1976 2.32954 83.1673C3.60702 84.2488 4.99722 84.8828 6.65044 84.8828C41.2177 84.8828 75.7849 84.8828 110.352 84.8828C113.471 84.8828 116.401 82.3841 116.664 79.5124C116.477 79.214 116.477 78.9157 116.477 78.58C116.589 69.4801 116.477 60.3802 116.514 51.2803C116.514 50.5344 116.401 49.7885 116.89 49.1172C117.303 48.7815 117.829 48.7442 118.318 48.7442C120.347 48.7069 122.375 48.7069 124.442 48.7442C125.006 48.7442 125.569 48.7442 125.982 49.2291C125.982 60.3056 125.907 71.3448 126.02 82.4214C126.058 86.0763 122.638 89.4328 119.031 89.4328C81.6463 89.3582 44.2986 89.3582 6.91345 89.4328C3.30644 89.4328 -0.263004 86.1136 7.58663e-06 82.5706C0.0751537 81.5263 0.0375807 80.5566 0.0375807 79.587Z" fill="#D6D7D8"/>
<path d="M125.982 49.1918C122.977 49.1918 119.971 49.1918 116.965 49.1918C116.364 49.6393 115.612 49.5274 114.936 49.5274C107.647 49.5274 100.32 49.5647 93.0309 49.5274C91.6407 49.5274 90.5511 49.9004 89.499 50.8327C85.2157 54.5249 80.9324 58.1798 76.6115 61.7974C76.2358 62.133 75.8225 62.4687 75.334 62.6552C74.0565 63.2146 72.4785 62.7671 71.99 61.5363C71.3888 59.9699 71.2761 58.329 72.0276 56.7253C73.4178 58.5527 74.5825 58.5527 76.3109 57.061C79.8428 54.0028 83.4498 51.0192 87.0568 47.9983C87.8458 47.327 88.71 46.7676 89.3863 45.9844C90.2881 44.9029 91.3777 44.7164 92.7303 44.7164C101.485 44.7537 110.239 44.7537 118.994 44.7537C122.939 44.7537 125.982 41.7328 125.982 37.7796C125.982 28.0084 125.87 18.2744 126.058 8.5032C126.133 4.32619 124.63 1.56638 120.685 0.111884C123.39 0.111884 126.133 0.0372948 128.838 0.0745895C132.069 0.149179 135 3.13276 135 6.34011C135.038 18.4982 135.038 30.6936 135 42.8517C135 46.1336 131.957 49.0426 128.688 49.1545C127.748 49.1545 126.884 49.1918 125.982 49.1918Z" fill="#0E6739"/>
<path d="M47.3045 128.145C46.9663 121.133 51.2872 115.726 58.5388 114.047C58.877 113.6 59.403 113.488 59.929 113.488C62.2961 113.488 64.7008 113.339 67.0679 113.562C70.3743 114.196 73.2675 115.539 75.5594 118.075C77.6635 120.425 78.8283 123.147 79.1289 126.243C79.3543 128.779 78.3022 129.898 75.7473 129.898C67.2182 129.935 58.7267 129.935 50.1976 129.898C48.3189 129.935 47.8681 129.599 47.3045 128.145Z" fill="#F9DC62"/>
<path d="M0.0751524 128.145C-0.225432 121.171 4.28333 115.502 11.2344 114.085C11.5725 113.674 12.061 113.488 12.587 113.488C14.9917 113.488 17.4339 113.339 19.8386 113.562C23.145 114.196 26.0381 115.539 28.3301 118.075C30.4342 120.425 31.5989 123.147 31.8995 126.243C32.125 128.779 31.0729 129.898 28.5555 129.935C20.0264 129.972 11.5349 129.972 3.00585 129.935C1.08963 129.935 0.638748 129.599 0.0751524 128.145Z" fill="#C6283F"/>
<path d="M94.5338 128.145C94.2332 121.133 98.5917 115.651 105.768 114.047C106.106 113.637 106.595 113.488 107.121 113.488C109.525 113.488 111.93 113.339 114.335 113.562C117.641 114.196 120.534 115.539 122.826 118.075C124.93 120.425 126.095 123.147 126.396 126.243C126.621 128.779 125.569 129.898 123.014 129.898C114.485 129.935 105.994 129.935 97.4645 129.898C95.5483 129.935 95.0974 129.599 94.5338 128.145Z" fill="#2A8750"/>
<path d="M0.0751461 128.145C0.713888 129.189 1.65321 129.562 2.89313 129.562C11.4974 129.525 20.1016 129.525 28.7058 129.525C30.7723 129.525 31.5238 128.779 31.5238 126.802C31.5238 121.021 26.4514 115.129 20.6276 114.197C20.4022 114.159 20.2143 114.047 19.9889 113.973C20.1016 113.824 20.2519 113.712 20.4022 113.637C22.9947 113.301 25.6248 113.525 28.2174 113.525C28.5931 113.525 28.9688 113.637 29.2318 113.935C32.5758 114.793 35.5065 116.248 37.6482 119.045C39.4141 121.357 40.4662 123.93 40.4662 126.877C40.4662 128.518 40.5038 130.121 40.4662 131.762C40.4286 133.18 39.602 134 38.1742 134C26.226 134 14.2778 134 2.32953 134C0.826607 134 0.0375731 133.142 0 131.65C0 130.457 0.0375731 129.301 0.0751461 128.145Z" fill="#BE1C2C"/>
<path d="M94.5338 128.145C95.1726 129.189 96.1119 129.562 97.3518 129.562C105.956 129.525 114.56 129.525 123.164 129.525C125.231 129.525 125.982 128.779 125.982 126.802C125.982 121.021 120.91 115.129 115.086 114.197C114.861 114.159 114.673 114.047 114.448 113.973C114.56 113.824 114.711 113.712 114.861 113.637C117.453 113.301 120.084 113.525 122.676 113.525C123.052 113.525 123.39 113.674 123.691 113.973C127.035 114.793 129.965 116.285 132.107 119.082C133.873 121.394 134.925 123.968 134.925 126.914C134.925 128.48 134.962 130.084 134.925 131.65C134.887 133.18 134.098 134 132.595 134C120.647 134 108.699 134 96.7882 134C95.2853 134 94.4963 133.18 94.4587 131.65C94.4963 130.457 94.5338 129.301 94.5338 128.145Z" fill="#1B7F44"/>
<path d="M47.3045 128.145C47.9432 129.189 48.8826 129.562 50.1225 129.562C58.7267 129.525 67.3309 129.525 75.9352 129.525C78.0017 129.525 78.7531 128.779 78.7531 126.802C78.7531 121.021 73.6808 115.129 67.857 114.197C67.6315 114.159 67.4436 114.047 67.2182 113.973C67.3309 113.824 67.4812 113.712 67.6315 113.637C70.2241 113.301 72.8542 113.525 75.4467 113.525C75.8224 113.525 76.1606 113.674 76.4612 113.973C80.4815 114.905 83.7879 116.956 85.892 120.574C87.0568 122.588 87.7331 124.714 87.6955 127.063C87.6955 128.592 87.7331 130.121 87.6955 131.65C87.6579 133.18 86.8689 134 85.366 134C73.4178 134 61.5071 134 49.5589 134C48.0559 134 47.2669 133.18 47.2293 131.65C47.2293 130.457 47.2669 129.301 47.3045 128.145Z" fill="#FBD512"/>
<path d="M20.2895 113.861C20.2143 113.898 20.1016 113.898 20.0264 113.935C17.0957 113.935 14.165 113.712 11.2719 114.085C9.69385 111.437 8.90482 108.64 9.01754 105.507C9.2054 100.435 11.3471 96.7426 16.0813 94.6541C19.6131 95.8848 21.6045 98.6446 22.4687 102.038C23.3704 105.581 23.3329 109.199 21.4918 112.593C21.1912 113.115 20.8906 113.637 20.2895 113.861Z" fill="#FCD4A5"/>
<path d="M67.5188 113.861C67.4061 113.898 67.3309 113.935 67.2182 113.935C64.3251 113.898 61.4319 113.749 58.5388 114.047C55.6833 109.647 55.4203 105.022 57.3741 100.248C58.4637 97.5257 60.6053 95.7729 63.3106 94.6541C66.9552 95.9594 68.9466 98.7565 69.7732 102.299C70.5622 105.768 70.5622 109.274 68.7587 112.556C68.4205 113.115 68.1199 113.6 67.5188 113.861Z" fill="#FCD4A5"/>
<path d="M114.748 113.861C114.635 113.898 114.56 113.935 114.448 113.935C111.554 113.898 108.624 113.749 105.731 114.047C103.439 110.728 103.025 106.999 103.664 103.157C104.34 99.0921 106.67 96.2577 110.502 94.6541C114.147 95.9594 116.138 98.7565 116.965 102.299C117.754 105.768 117.792 109.311 115.95 112.556C115.65 113.115 115.349 113.6 114.748 113.861Z" fill="#FCD4A5"/>
<path d="M20.2895 113.861C23.7462 109.385 23.4832 100.472 18.749 96.5934C17.8848 95.8848 16.7952 95.5491 16.0813 94.6541C23.1826 91.5959 31.4487 96.8917 31.5614 104.574C31.5989 107.894 31.5614 111.176 29.2694 113.935C26.2636 113.898 23.2577 113.861 20.2895 113.861Z" fill="#FCCB92"/>
<path d="M114.748 113.861C118.28 109.385 117.792 100.36 113.283 96.7053C112.381 95.9967 111.442 95.3254 110.54 94.6541C117.716 91.5586 125.907 96.929 126.02 104.724C126.058 108.006 125.945 111.213 123.728 113.935C120.722 113.898 117.716 113.861 114.748 113.861Z" fill="#FCCB92"/>
<path d="M67.5188 113.861C70.9755 109.46 70.6374 100.472 66.0534 96.7053C65.1517 95.9967 64.2124 95.3254 63.3106 94.654C70.4871 91.5959 78.678 96.9663 78.7907 104.724C78.8283 108.006 78.678 111.213 76.4988 113.935C73.4929 113.898 70.4871 113.861 67.5188 113.861Z" fill="#FCCB92"/>
<path d="M72.0276 56.688C72.0276 57.8068 72.0276 58.9257 71.99 60.0445C71.9524 61.0515 72.253 61.872 73.2299 62.3195C74.2068 62.8043 75.1086 62.5806 75.9352 61.872C79.0913 59.1867 82.2474 56.5015 85.4036 53.8163C86.9816 52.4737 88.5221 51.1311 90.0626 49.8258C90.4759 49.4528 90.8892 49.1545 91.528 49.1545C99.9819 49.1918 108.473 49.1918 116.927 49.2291C116.927 58.6273 116.927 68.0629 116.927 77.4612C116.927 78.1698 116.852 78.8411 116.589 79.5124C115.988 80.0718 115.349 80.4448 114.485 80.4448C98.8172 80.4075 83.1116 80.4075 67.4437 80.4075C66.8425 79.6616 67.0679 78.8038 67.0679 77.9833C67.0679 75.5591 67.0679 73.1723 66.0534 70.8973C64.0621 66.2728 59.2527 62.9908 54.1804 62.9535C53.3162 62.9535 52.3769 63.1773 51.5878 62.5806C51.1745 60.0072 50.6109 57.4712 52.7526 55.1589C54.9318 52.8093 55.8336 49.9377 55.796 46.7303C55.796 46.059 55.6833 45.3504 56.059 44.6791C57.7874 43.9332 58.1631 42.5533 58.088 40.8377C57.9752 38.9357 58.088 37.0337 58.0504 35.1316C58.0128 28.7169 52.1138 22.8617 45.6513 22.7498C43.5848 22.7125 41.5558 22.7498 39.4893 22.7498C32.0498 23.7567 27.3908 28.978 27.3908 36.437C27.3908 38.0033 27.4659 39.607 27.3532 41.1734C27.2405 42.8144 27.7665 43.9705 29.307 44.6045C29.9457 45.9471 29.5324 47.4389 29.7579 48.8561C30.2087 51.4667 31.2984 53.7044 33.0643 55.6438C33.4776 56.0913 33.8909 56.5015 34.0412 57.1355C34.1915 58.7765 34.1915 60.4175 34.0412 62.0584C34.0036 62.2076 33.9661 62.3568 33.8533 62.506C33.3273 63.0654 32.651 62.9162 32.0123 62.9162C25.3242 63.0281 20.6652 66.4965 18.6738 72.9112C18.3357 74.0674 18.3357 74.0674 17.6218 73.5825C17.3963 72.8366 17.4715 72.0907 17.4715 71.3821C17.4715 54.8979 17.4715 38.4136 17.4715 21.892C17.4715 21.6309 17.4715 21.3326 17.4715 21.0715C17.5091 18.3863 18.4484 17.4539 21.1161 17.4539C34.4169 17.4539 47.7178 17.4539 60.9811 17.4539C61.6198 17.4539 62.2961 17.3793 62.8222 17.9015C62.8222 25.7707 63.01 33.6026 62.8222 41.4717C62.7094 46.2082 66.2789 49.602 70.5622 49.1545C71.5767 49.0426 71.9524 49.3409 71.9148 50.4225C71.9524 52.511 72.0276 54.5995 72.0276 56.688Z" fill="#494949"/>
<path d="M62.9724 17.9015C49.0328 17.9015 35.0557 17.9015 21.1161 17.9015C18.6738 17.9015 18.0351 18.5355 18.0351 20.9223C18.0351 38.2271 18.0351 55.4946 18.0351 72.7993C18.0351 73.2096 18.0726 73.6198 18.0726 74.0674C18.7114 76.1559 18.749 78.2817 18.0351 80.3702C15.9685 80.3702 13.902 80.4075 11.8355 80.4075C9.73142 80.4075 9.01753 79.6989 9.01753 77.5358C9.01753 58.2917 9.01753 39.0476 9.01753 19.8035C9.01753 18.6101 9.01753 17.3794 9.01753 16.1859C9.01753 14.1347 9.73142 13.4261 11.7979 13.4261C28.8561 13.4261 45.8767 13.4261 62.9349 13.4261C62.9724 14.9179 62.9724 16.4097 62.9724 17.9015Z" fill="#414141"/>
<path d="M87.7331 24.6145C87.7331 21.0342 87.7331 17.4539 87.7331 13.8736C87.7331 11.4868 89.4615 10.5171 91.4904 11.7478C97.2391 15.2908 103.025 18.8711 108.736 22.4514C110.728 23.7195 110.765 25.4723 108.774 26.7403C102.988 30.3579 97.2015 33.9382 91.3777 37.5185C89.499 38.6746 87.7331 37.6677 87.7331 35.5046C87.7331 31.8497 87.7331 28.2321 87.7331 24.6145Z" fill="white"/>
<path d="M18.0351 80.3702C18.0351 78.2817 18.0726 76.1559 18.0726 74.0674C18.8992 70.1514 20.8155 66.9441 24.2346 64.7064C27.1277 62.8043 30.3966 62.4687 33.7406 62.5433C34.1163 62.8416 34.1163 63.2892 34.1163 63.6994C34.0412 66.5338 35.6193 68.4731 37.8736 69.8158C41.5934 71.9788 46.9663 71.6805 50.0473 67.7273C50.8363 66.7203 51.0618 65.4523 51.7757 64.408C52.3393 64.2215 52.7901 64.5199 53.2035 64.8556C56.6226 67.5035 58.6891 70.9719 58.877 75.2981C58.9521 76.9763 59.3279 78.7292 58.5388 80.3702C49.897 80.3702 41.2552 80.4075 32.6134 80.4075C27.7289 80.4075 22.882 80.3702 18.0351 80.3702Z" fill="#FBBB60"/>
<path d="M58.5013 80.3702C58.3885 77.3866 58.8394 74.3284 57.6747 71.4194C56.4723 68.4358 54.6688 66.0117 51.7757 64.4826C51.2497 63.9232 51.3248 63.3265 51.5878 62.6925C51.663 62.6552 51.7005 62.5806 51.7757 62.5433C55.0445 62.3941 58.2007 62.6552 61.0562 64.4826C65.1517 67.1305 67.4437 70.86 67.5188 75.7829C67.5564 77.312 67.5188 78.8411 67.5188 80.3702C64.513 80.3702 61.5071 80.3702 58.5013 80.3702Z" fill="#FAAF4F"/>
<path d="M29.2694 44.7164C27.5035 44.2689 26.9775 43.7094 27.015 41.9193C27.0902 39.0103 26.752 36.1013 27.278 33.1923C28.3301 27.4489 33.44 22.8617 39.3766 22.3768C41.9691 23.16 44.2611 24.3535 46.1397 26.4047C48.4693 28.9407 49.7843 31.9243 49.8595 35.3181C49.897 37.1456 50.0849 39.0103 49.7092 40.875C48.9201 41.4718 47.9808 41.882 47.1166 42.3295C41.8564 44.9029 36.2204 45.3504 30.4718 45.052C30.0209 45.052 29.6076 45.0148 29.2694 44.7164Z" fill="#5A626E"/>
<path d="M47.2669 41.9193C48.0184 41.6582 48.5444 40.8004 49.5213 41.0615C50.5358 41.3599 51.0618 42.2176 51.7381 42.889C52.6399 43.8213 53.6543 44.4553 55.007 44.3434C55.4578 44.3062 55.9463 44.2689 56.2844 44.7164C56.6226 49.3036 55.533 53.3688 52.1138 56.6507C51.7381 56.9864 51.8132 57.3966 51.8132 57.8068C51.8132 59.3732 51.8133 60.9769 51.8508 62.5433V62.5806C49.5964 64.3707 46.8912 64.8929 44.1483 65.1166C41.1425 65.3777 38.2118 64.781 35.4314 63.5875C34.7927 63.2892 34.1539 62.9908 33.8909 62.2822C33.8909 60.5294 33.8909 58.7392 33.8909 56.9864C34.9429 56.9491 35.5817 57.695 36.3331 58.1798C37.6482 59.0376 38.8505 59.1122 40.2407 58.2917C44.4865 55.7556 46.7409 52.0262 47.0039 47.1406C47.079 45.9471 47.0039 44.7164 47.0039 43.523C46.8912 42.9635 46.8912 42.4041 47.2669 41.9193Z" fill="#FCCB92"/>
<path d="M47.2669 41.9193C47.1918 45.0893 47.6426 48.334 46.4779 51.4294C45.0877 55.1216 42.5703 57.695 39.0008 59.2986C38.3997 59.5597 37.9488 59.4478 37.3852 59.1868C36.1077 58.59 34.9805 57.7323 33.8158 56.9864C30.2463 53.6671 28.9313 49.4901 29.307 44.7537C32.2001 44.7164 35.0932 44.8283 37.9488 44.6045C41.1801 44.3434 44.2611 43.15 47.2669 41.9193Z" fill="#FCD4A5"/>
<path d="M56.2469 44.7164C53.0156 45.3131 51.2497 43.15 49.4837 41.0615C49.371 38.4882 49.7843 35.8775 49.2207 33.3042C48.1311 28.0829 44.975 24.6891 39.9402 22.9363C39.6772 22.8244 39.0384 23.0854 39.339 22.3768C42.1194 22.4141 44.9374 22.0785 47.7178 22.6006C53.8046 23.7567 58.4261 29.2764 58.4637 35.43C58.4637 37.6677 58.4637 39.8681 58.4637 42.1058C58.5013 43.784 57.9752 44.3807 56.2469 44.7164Z" fill="#515663"/>
<path d="M33.8157 62.2822C37.31 64.408 41.0673 65.1166 45.1628 64.6318C47.4923 64.3334 49.5964 63.3265 51.7757 62.5806C51.7757 63.2146 51.7757 63.8486 51.8132 64.5199C51.3624 67.5781 49.5213 69.5174 46.816 70.7108C43.0963 72.3518 38.5875 71.4194 35.6944 68.5477C34.0036 66.8695 33.5903 64.8183 33.7782 62.5433C33.7406 62.4314 33.7782 62.3568 33.8157 62.2822Z" fill="#FCD4A5"/>
</g>
<defs>
<clipPath id="clip0_12_2">
<rect width="135" height="134" fill="white"/>
</clipPath>
</defs>
</svg>
