<?xml version="1.0" encoding="utf-8"?>
<!-- Generator: Adobe Illustrator 17.0.0, SVG Export Plug-In . SVG Version: 6.00 Build 0)  -->
<!DOCTYPE svg PUBLIC "-//W3C//DTD SVG 1.1//EN" "http://www.w3.org/Graphics/SVG/1.1/DTD/svg11.dtd">
<svg version="1.1" id="Layer_1" xmlns="http://www.w3.org/2000/svg" xmlns:xlink="http://www.w3.org/1999/xlink" x="0px" y="0px"
	 width="100px" height="100px" viewBox="0 0 100 100" enable-background="new 0 0 100 100" xml:space="preserve">
<g>
	<g>
		<path fill="#969696" d="M62.204,70.521H38.227v13.997h23.977V70.521z"/>
		<path fill="#C1C1C1" d="M0.645,57.224V62.5c0,2.598,1.032,5.091,2.87,6.928c1.837,1.838,4.33,2.87,6.928,2.87h78.972
			c2.599,0,5.091-1.032,6.929-2.87c1.837-1.837,2.87-4.33,2.87-6.928v-5.277H0.645z"/>
		<path fill="#414042" d="M0.855,23.406c0-2.599,1.032-5.091,2.87-6.928c1.837-1.837,4.33-2.87,6.928-2.87h78.903
			c2.598,0,5.09,1.032,6.928,2.87c1.838,1.837,2.87,4.33,2.87,6.928v33.818H0.855V23.406z"/>
		<path fill="#C1C1C1" d="M75.488,82.754h-50.53c-0.881,0-1.596,0.715-1.596,1.596v7.055c0,0.882,0.714,1.596,1.596,1.596h50.53
			c0.881,0,1.596-0.714,1.596-1.596V84.35C77.084,83.469,76.369,82.754,75.488,82.754z"/>
		<path fill="#E1901F" d="M49.901,50.21c0,0-6.145-3.009-9.21-3.429c-3.555-0.49-17.049,0.112-17.049,0.112
			c-0.632,0-1.239-0.25-1.688-0.696c-0.448-0.446-0.702-1.051-0.706-1.683V9.451c0-0.635,0.252-1.244,0.701-1.692
			c0.449-0.449,1.058-0.701,1.692-0.701c0,0,11.492-0.56,15.271,0c3.722,0.897,7.391,2.005,10.988,3.317V50.21z"/>
		<path fill="#F6BA30" d="M49.901,50.21c0,0,6.159-3.009,9.224-3.429c3.555-0.49,17.049,0.112,17.049,0.112
			c0.631,0,1.235-0.251,1.682-0.697c0.446-0.446,0.697-1.051,0.697-1.683V9.451c0.002-0.314-0.059-0.625-0.177-0.915
			c-0.119-0.29-0.294-0.554-0.515-0.777c-0.221-0.222-0.484-0.399-0.774-0.519c-0.29-0.12-0.601-0.182-0.914-0.182
			c0,0-11.493-0.56-15.271,0c-3.727,0.898-7.401,2.005-11.002,3.317V50.21z"/>
		<path fill="#BE1A2D" d="M70.141,20.648H56.759v3.541h13.381V20.648z"/>
		<path fill="#BE1A2D" d="M64.976,27.381h-8.216v3.541h8.216V27.381z"/>
		<path fill="#BE1A2D" d="M67.705,34.114H56.759v3.541h10.946V34.114z"/>
		<path fill="#BE1A2D" d="M38.283,30.852V7.057c-3.402-0.206-6.812-0.238-10.218-0.098v23.963c0,1.092,0.924,2.267,1.974,1.974
			c1.107-0.526,2.158-1.164,3.135-1.904c0.977,0.74,2.028,1.378,3.135,1.904C37.359,33.12,38.283,31.944,38.283,30.852z"/>
		<path fill="#6D6E71" d="M49.901,67.119c1.306,0,2.365-1.06,2.365-2.366c0-1.306-1.059-2.366-2.365-2.366
			c-1.307,0-2.366,1.06-2.366,2.366C47.536,66.06,48.594,67.119,49.901,67.119z"/>
	</g>
</g>
</svg>
