<?xml version="1.0" encoding="utf-8"?>
<!-- Generator: Adobe Illustrator 17.0.0, SVG Export Plug-In . SVG Version: 6.00 Build 0)  -->
<!DOCTYPE svg PUBLIC "-//W3C//DTD SVG 1.1//EN" "http://www.w3.org/Graphics/SVG/1.1/DTD/svg11.dtd">
<svg version="1.1" id="Layer_1" xmlns="http://www.w3.org/2000/svg" xmlns:xlink="http://www.w3.org/1999/xlink" x="0px" y="0px"
	 width="100px" height="100px" viewBox="0 0 100 100" enable-background="new 0 0 100 100" xml:space="preserve">
<path fill="#CF455C" d="M72.729,6.563C96.761,19.076,106.1,48.702,93.587,72.734s-42.139,33.371-66.171,20.858
	C3.394,81.085-5.949,51.477,6.544,27.448C19.055,3.406,48.685-5.944,72.729,6.563L72.729,6.563L72.729,6.563z"/>
<path fill="none" stroke="#FFFFFF" stroke-width="10" stroke-linecap="round" stroke-miterlimit="10" d="M85.168,54.205
	c0.043-0.683,0.062-1.372,0.062-2.065c0-19.149-15.522-34.671-34.671-34.671S15.889,32.992,15.889,52.14
	c0,0.693,0.019,1.383,0.062,2.065"/>
<circle fill="#FFFFFF" cx="49.56" cy="71.249" r="11.305"/>
<g>
	<path fill="#FFFFFF" d="M55.477,70.329c-0.667,1.509-2.277,2.274-3.576,1.699c-1.3-0.575-1.817-2.28-1.15-3.789l9.937-22.475
		c0.667-1.509,2.277-2.274,3.576-1.699c1.3,0.575,1.817,2.28,1.15,3.789L55.477,70.329z"/>
</g>
</svg>
