<?xml version="1.0" encoding="utf-8"?>
<!-- Generator: Adobe Illustrator 17.0.0, SVG Export Plug-In . SVG Version: 6.00 Build 0)  -->
<!DOCTYPE svg PUBLIC "-//W3C//DTD SVG 1.1//EN" "http://www.w3.org/Graphics/SVG/1.1/DTD/svg11.dtd">
<svg version="1.1" id="Layer_1" xmlns="http://www.w3.org/2000/svg" xmlns:xlink="http://www.w3.org/1999/xlink" x="0px" y="0px"
	 width="100px" height="100px" viewBox="0 0 100 100" enable-background="new 0 0 100 100" xml:space="preserve">
<path fill="#29C7AC" d="M72.729,6.563C96.761,19.076,106.1,48.702,93.587,72.734s-42.139,33.371-66.171,20.858
	C3.394,81.085-5.949,51.477,6.544,27.448C19.055,3.406,48.685-5.944,72.729,6.563L72.729,6.563L72.729,6.563z"/>
<path fill="#FFFFFF" d="M67.346,39.508c0,0,1.946,2.372,1.946,3.907l-0.07,0.07H57.179c-4.393,0-5.585,2.861-5.585,2.861
	c-1.443-4.465-6.025-10.116-6.025-10.116c-0.628,0.419-4.581,6.698-4.581,6.698c-4.393,7.256,0.063,10.884,0.063,10.884
	c3.389,3.488,7.405,1.186,7.405,1.186c-1.067,2.791-0.628,5.512-0.628,5.512c-3.703-0.279-5.711,3.907-5.711,3.907l-2.51,8.163
	h0.196l-0.07,0.07H27.432c0,0-5.397-0.907-5.837-6.837c0,0-0.314-3.349,2.197-5.861v-7.744c0,0-4.895-5.861-0.126-12.628v-7.605
	c0,0-5.397-6.349,0.941-11.651c0,0,1.694-0.977,3.263-1.186h35.96c0,0,5.021,1.047,5.648,6c0,0,0.941,3.907-2.134,6.698V39.508z"/>
<path fill="#FFFFFF" d="M43.498,53.322c0,0-4.079-2.442-2.322-6.837l3.64-7.116c0,0-3.012,9.419-1.694,12.209L43.498,53.322z"/>
<path fill="#FFFFFF" d="M52.033,60.647v-1.713l2.322-8.495c0,0,0.879-2.07,2.197-2.07s8.221,0,8.221,0s1.694-0.214,2.259,1.571
	c0.565,1.785,2.583,8.781,2.583,8.781v1.928H52.033z"/>
<path fill="#FFFFFF" d="M43.31,77.531v-1.713l2.322-8.495c0,0,0.879-2.07,2.197-2.07s8.221,0,8.221,0s1.694-0.214,2.259,1.571
	c0.565,1.785,2.583,8.781,2.583,8.781v1.928H43.31z"/>
<path fill="#FFFFFF" d="M60.825,77.531v-1.713l2.322-8.495c0,0,0.879-2.07,2.197-2.07s8.221,0,8.221,0s1.694-0.214,2.259,1.571
	c0.565,1.785,2.583,8.781,2.583,8.781v1.928H60.825z"/>
</svg>
