<?xml version="1.0" encoding="utf-8"?>
<!-- Generator: Adobe Illustrator 17.0.0, SVG Export Plug-In . SVG Version: 6.00 Build 0)  -->
<!DOCTYPE svg PUBLIC "-//W3C//DTD SVG 1.1//EN" "http://www.w3.org/Graphics/SVG/1.1/DTD/svg11.dtd">
<svg version="1.1" id="Layer_1" xmlns="http://www.w3.org/2000/svg" xmlns:xlink="http://www.w3.org/1999/xlink" x="0px" y="0px"
	 width="100px" height="100px" viewBox="0 0 100 100" enable-background="new 0 0 100 100" xml:space="preserve">
<path fill="#1597BB" d="M72.901,6.563c24.032,12.513,33.371,42.139,20.858,66.171S51.62,106.105,27.588,93.592
	C3.566,81.085-5.777,51.477,6.716,27.448C19.227,3.406,48.857-5.944,72.901,6.563L72.901,6.563L72.901,6.563z"/>
<g>
	<path fill="#FFFFFF" d="M55.964,66.714C57.909,68.659,59.5,72.5,59.5,75.25v3.16c0,2.75-2.25,4.999-5,4.997l-21.8-0.014
		c-2.75-0.002-3.409-1.594-1.464-3.539l15.399-15.399c1.945-1.945,5.127-1.945,7.071,0L55.964,66.714z"/>
</g>
<g>
	<path fill="#FFFFFF" d="M45.062,66.808c-1.941,1.949-3.528,5.793-3.528,8.543v3.068c0,2.75,2.25,4.999,5,4.997l21.446-0.014
		c2.75-0.002,3.412-1.597,1.472-3.546L54.288,64.63c-1.941-1.949-5.116-1.949-7.056,0L45.062,66.808z"/>
</g>
<g>
	<path fill="#FFFFFF" d="M88.5,54.285c0,1.65-1.35,3-3,3H15.661c-1.65,0-3-1.35-3-3v-0.737c0-1.65,1.35-3,3-3H85.5
		c1.65,0,3,1.35,3,3V54.285z"/>
</g>
<g>
	<path fill="#FFFFFF" d="M85.25,41.5c0,1.65-1.35,3-3,3H69c-1.65,0-3-1.35-3-3V28.25c0-1.65,1.35-3,3-3h13.25c1.65,0,3,1.35,3,3
		V41.5z"/>
</g>
<circle fill="#FFFFFF" cx="23.438" cy="34.042" r="10.458"/>
</svg>
