<?xml version="1.0" encoding="utf-8"?>
<!-- Generator: Adobe Illustrator 17.0.0, SVG Export Plug-In . SVG Version: 6.00 Build 0)  -->
<!DOCTYPE svg PUBLIC "-//W3C//DTD SVG 1.1//EN" "http://www.w3.org/Graphics/SVG/1.1/DTD/svg11.dtd">
<svg version="1.1" id="Layer_1" xmlns="http://www.w3.org/2000/svg" xmlns:xlink="http://www.w3.org/1999/xlink" x="0px" y="0px"
	 width="100px" height="100px" viewBox="0 0 100 100" enable-background="new 0 0 100 100" xml:space="preserve">
<path display="none" fill="#229E45" d="M93.59,72.73c-3.99,7.65-9.71,13.82-16.43,18.25c-14.38,9.52-33.36,11.14-49.74,2.61
	c-1.59-0.83-3.12-1.73-4.58-2.7c-20.59-13.71-27.96-41-16.3-63.44c3.96-7.61,9.63-13.74,16.3-18.17
	c14.41-9.6,33.45-11.27,49.89-2.72c1.54,0.8,3.02,1.67,4.43,2.61C97.87,22.85,105.3,50.24,93.59,72.73z"/>
<path display="none" fill="#FFFFFF" d="M69.924,67.028c-3.938,4.269-9.172,7.124-14.894,8.124l-2.321,10.464l-6.77-1.509
	l1.934-8.723c-2.333-0.243-4.622-0.796-6.808-1.644l-1.934,8.839l-6.77-1.509l2.399-10.85c-11.553-8.791-13.792-25.283-5.001-36.836
	c3.778-4.965,9.198-8.424,15.292-9.759l2.398-10.851l6.77,1.509l-1.934,8.839c2.341,0.156,4.65,0.625,6.867,1.393l1.934-8.723
	l6.77,1.509l-2.321,10.464c2.858,1.988,5.291,4.526,7.157,7.466c1.254,1.926,2.237,4.015,2.921,6.209l-10.89,3.443
	c-0.399-1.24-0.944-2.429-1.625-3.54c-4.432-6.93-13.642-8.955-20.571-4.523c-6.93,4.432-8.955,13.642-4.523,20.571
	c4.432,6.93,13.642,8.955,20.571,4.523c0.005-0.003,0.011-0.007,0.016-0.01c1.092-0.713,2.093-1.557,2.979-2.514l8.395,7.737l0,0
	L69.924,67.028z"/>
<g>
	<path fill="#FF0000" d="M93.59,72.73c-3.99,7.65-9.71,13.82-16.43,18.25c-14.38,9.52-33.36,11.14-49.74,2.61
		c-1.59-0.83-3.12-1.73-4.58-2.7c-20.59-13.71-27.96-41-16.3-63.44c3.96-7.61,9.63-13.74,16.3-18.17
		c14.41-9.6,33.45-11.27,49.89-2.72c1.54,0.8,3.02,1.67,4.43,2.61C97.87,22.85,105.3,50.24,93.59,72.73z"/>
	<path fill="#FFFFFF" d="M77.16,9.17v81.81c-14.38,9.52-33.36,11.14-49.74,2.61c-1.59-0.83-3.12-1.73-4.58-2.7V9.28
		c14.41-9.6,33.45-11.27,49.89-2.72C74.27,7.36,75.75,8.23,77.16,9.17z"/>
	<path fill="#FF0000" d="M50,26.073l-3.683,6.873c-0.422,0.745-1.167,0.675-1.926,0.253l-2.671-1.377l1.982,10.542
		c0.422,1.926-0.928,1.926-1.588,1.096l-4.652-5.201l-0.745,2.642c-0.084,0.351-0.464,0.717-1.04,0.633l-5.875-1.237l1.546,5.622
		c0.337,1.251,0.59,1.771-0.337,2.094l-2.094,0.984l10.134,8.223c0.408,0.309,0.604,0.871,0.45,1.377l-0.886,2.91
		c3.486-0.408,6.62-1.012,10.106-1.377c0.309-0.028,0.815,0.464,0.815,0.829l-0.45,10.654h1.687l-0.267-10.626
		c0-0.365,0.464-0.886,0.773-0.857c3.486,0.38,6.62,0.984,10.106,1.377l-0.9-2.924c-0.155-0.506,0.056-1.054,0.45-1.377
		l10.134-8.223L68.975,48c-0.928-0.337-0.675-0.843-0.337-2.094l1.546-5.622l-5.875,1.237c-0.576,0.084-0.956-0.281-1.04-0.633
		l-0.745-2.642l-4.652,5.201c-0.661,0.829-1.996,0.829-1.588-1.096l1.982-10.542l-2.671,1.377c-0.745,0.422-1.504,0.478-1.926-0.253
		L50,26.073L50,26.073L50,26.073z M50,26.073L50,26.073L50,26.073L50,26.073L50,26.073z"/>
</g>
</svg>
