<?xml version="1.0" encoding="utf-8"?>
<!-- Generator: Adobe Illustrator 17.0.0, SVG Export Plug-In . SVG Version: 6.00 Build 0)  -->
<!DOCTYPE svg PUBLIC "-//W3C//DTD SVG 1.1//EN" "http://www.w3.org/Graphics/SVG/1.1/DTD/svg11.dtd">
<svg version="1.1" id="Layer_1" xmlns="http://www.w3.org/2000/svg" xmlns:xlink="http://www.w3.org/1999/xlink" x="0px" y="0px"
	 width="100px" height="100px" viewBox="0 0 100 100" enable-background="new 0 0 100 100" xml:space="preserve">
<path fill="#F36600" d="M72.729,6.563C96.761,19.076,106.1,48.702,93.587,72.734s-42.139,33.371-66.171,20.858
	C3.394,81.085-5.949,51.477,6.544,27.448C19.055,3.406,48.685-5.944,72.729,6.563L72.729,6.563L72.729,6.563z"/>
<path fill="#FFFFFF" d="M69.924,67.028c-3.938,4.269-9.172,7.124-14.894,8.124l-2.321,10.464l-6.77-1.509l1.934-8.723
	c-2.333-0.243-4.622-0.796-6.808-1.644l-1.934,8.839l-6.77-1.509l2.399-10.85c-11.553-8.791-13.792-25.283-5.001-36.836
	c3.778-4.965,9.198-8.424,15.292-9.759l2.398-10.851l6.77,1.509l-1.934,8.839c2.341,0.156,4.65,0.625,6.867,1.393l1.934-8.723
	l6.77,1.509l-2.321,10.464c2.858,1.988,5.291,4.526,7.157,7.466c1.254,1.926,2.237,4.015,2.921,6.209l-10.89,3.443
	c-0.399-1.24-0.944-2.429-1.625-3.54c-4.432-6.93-13.642-8.955-20.571-4.523c-6.93,4.432-8.955,13.642-4.523,20.571
	c4.432,6.93,13.642,8.955,20.571,4.523c0.005-0.003,0.011-0.007,0.016-0.01c1.092-0.713,2.093-1.557,2.979-2.514l8.395,7.737l0,0
	L69.924,67.028z"/>
</svg>
