<?xml version="1.0" encoding="utf-8"?>
<!-- Generator: Adobe Illustrator 17.0.0, SVG Export Plug-In . SVG Version: 6.00 Build 0)  -->
<!DOCTYPE svg PUBLIC "-//W3C//DTD SVG 1.1//EN" "http://www.w3.org/Graphics/SVG/1.1/DTD/svg11.dtd">
<svg version="1.1" id="Layer_1" xmlns="http://www.w3.org/2000/svg" xmlns:xlink="http://www.w3.org/1999/xlink" x="0px" y="0px"
	 width="100px" height="100px" viewBox="0 0 100 100" enable-background="new 0 0 100 100" xml:space="preserve">
<path fill="#F79933" d="M72.729,6.563C96.761,19.076,106.1,48.702,93.587,72.734s-42.139,33.371-66.171,20.858
	C3.394,81.085-5.949,51.477,6.544,27.448C19.055,3.406,48.685-5.944,72.729,6.563L72.729,6.563L72.729,6.563z"/>
<path display="none" fill="#FFFFFF" d="M69.924,67.028c-3.938,4.269-9.172,7.124-14.894,8.124l-2.321,10.464l-6.77-1.509
	l1.934-8.723c-2.333-0.243-4.622-0.796-6.808-1.644l-1.934,8.839l-6.77-1.509L34.76,70.22c-11.553-8.791-13.792-25.283-5.001-36.836
	c3.778-4.965,9.198-8.424,15.292-9.759l2.398-10.851l6.77,1.509l-1.934,8.839c2.341,0.156,4.65,0.625,6.867,1.393l1.934-8.723
	l6.77,1.509l-2.321,10.464c2.858,1.988,5.291,4.526,7.157,7.466c1.254,1.926,2.237,4.015,2.921,6.209l-10.89,3.443
	c-0.399-1.24-0.944-2.429-1.625-3.54c-4.432-6.93-13.642-8.955-20.571-4.523c-6.93,4.432-8.955,13.642-4.523,20.571
	c4.432,6.93,13.642,8.955,20.571,4.523c0.005-0.003,0.011-0.007,0.016-0.01c1.092-0.713,2.093-1.557,2.979-2.514l8.395,7.737l0,0
	L69.924,67.028z"/>
<path fill="#FFFFFF" stroke="#F29832" stroke-width="5" stroke-miterlimit="10" d="M38.572,75.607
	c-0.636-0.154-1.263-0.341-1.879-0.563l-3.283-1.056l-2.02-0.7c-0.65-0.235-1.304-0.482-1.944-0.744
	c-0.64-0.262-1.304-0.55-1.861-0.803l-0.755-0.349l2.211-13.004l3.627,0.928l2.673,0.619l2.81,0.608l2.855,0.576l2.778,0.529
	l2.595,0.441c0.786,0.134,1.474,0.251,2.081,0.275c0.563,0.049,1.128,0.06,1.692,0.033c0.411-0.017,0.819-0.083,1.216-0.195
	c0.276-0.075,0.537-0.195,0.773-0.355c0.181-0.129,0.331-0.297,0.44-0.491c0.14-0.258,0.234-0.539,0.277-0.83l0.143-0.841
	c0.148-0.57-0.004-1.176-0.406-1.608c-0.239-0.242-0.517-0.442-0.821-0.592c-0.34-0.163-0.702-0.276-1.074-0.335l-3.794-0.645
	c-2.572-0.4-5.075-1.159-7.435-2.254c-1.996-0.918-3.772-2.254-5.206-3.918c-1.394-1.71-2.302-3.764-2.627-5.946
	c-0.386-2.625-0.328-5.297,0.173-7.903l0.401-2.359c0.377-2.489,1.224-4.883,2.495-7.055c1.164-1.932,2.799-3.536,4.753-4.663
	c1.325-0.801,2.747-1.429,4.232-1.866c1.411-0.378,2.868-0.559,4.329-0.537l0.983-5.779l11.998,2.04l-0.942,5.537
	c1.806,0.474,3.584,1.046,5.326,1.715l0.982,0.348c0.816,0.292,1.625,0.593,2.425,0.91c0.8,0.317,1.473,0.584,2.159,0.876
	l0.78,0.336L69.519,39.01l-1.138-0.295c-1.127-0.293-2.272-0.579-3.426-0.848c-1.256-0.298-2.543-0.585-3.857-0.871
	c-1.315-0.286-2.677-0.563-3.876-0.795c-1.1-0.187-2.286-0.428-3.535-0.641c-0.654-0.111-1.259-0.214-1.82-0.242
	c-0.537-0.053-1.077-0.077-1.617-0.071c-0.391,0.004-0.781,0.057-1.159,0.159c-0.294,0.079-0.572,0.208-0.823,0.381
	c-0.21,0.153-0.381,0.352-0.501,0.582c-0.173,0.336-0.291,0.699-0.346,1.073l-0.122,0.715c-0.079,0.396-0.079,0.803,0,1.199
	c0.073,0.305,0.219,0.588,0.425,0.825c0.269,0.292,0.599,0.522,0.966,0.673c0.562,0.238,1.151,0.405,1.754,0.496l4.729,0.804
	c1.623,0.264,3.212,0.709,4.736,1.326c1.362,0.551,2.636,1.299,3.781,2.221c2.105,1.684,3.664,3.953,4.481,6.521
	c0.406,1.286,0.647,2.617,0.718,3.964c0.071,1.418-0.015,2.84-0.257,4.239L68.23,62.79c-0.341,2.095-0.913,4.146-1.707,6.114
	c-0.637,1.623-1.56,3.117-2.725,4.413c-1.051,1.141-2.304,2.079-3.695,2.766c-1.424,0.686-2.957,1.121-4.529,1.284l-0.42,0.042
	c-1.51,0.215-3.038,0.284-4.562,0.209l-1.061,6.241l-12.014-2.043L38.572,75.607z"/>
</svg>
