<?xml version="1.0" encoding="utf-8"?>
<!-- Generator: Adobe Illustrator 17.0.0, SVG Export Plug-In . SVG Version: 6.00 Build 0)  -->
<!DOCTYPE svg PUBLIC "-//W3C//DTD SVG 1.1//EN" "http://www.w3.org/Graphics/SVG/1.1/DTD/svg11.dtd">
<svg version="1.1" id="Layer_1" xmlns="http://www.w3.org/2000/svg" xmlns:xlink="http://www.w3.org/1999/xlink" x="0px" y="0px"
	 width="100px" height="100px" viewBox="0 0 100 100" enable-background="new 0 0 100 100" xml:space="preserve">
<path fill="#000099" d="M98.99,53.86c-0.06,0.75-0.13,1.51-0.23,2.26c-0.21,1.77-0.53,3.54-0.94,5.29
	c-0.45,1.87-1.01,3.73-1.69,5.56c-0.04,0.12-0.09,0.24-0.13,0.36c-0.2,0.55-0.42,1.09-0.65,1.63c-0.52,1.27-1.11,2.53-1.76,3.77
	c-0.67,1.3-1.4,2.55-2.17,3.76c-0.01,0.01-0.02,0.02-0.02,0.02c-0.44,0.7-0.9,1.38-1.38,2.04c-1.39,1.96-2.9,3.79-4.53,5.49
	c-2.04,2.13-4.25,4.05-6.6,5.74c-0.57,0.42-1.15,0.81-1.73,1.2c-0.32,0.21-0.64,0.42-0.96,0.61c-3.51,2.21-7.27,3.96-11.19,5.21
	c-4.82,1.55-9.87,2.35-14.98,2.35c-3.16,0-6.35-0.31-9.51-0.95c-3.56-0.7-7.09-1.82-10.53-3.37c-0.86-0.38-1.72-0.8-2.57-1.24
	c-1.2-0.63-2.37-1.29-3.49-2c-0.37-0.23-0.73-0.46-1.09-0.7c-0.54-0.36-1.07-0.73-1.59-1.11c-2.4-1.73-4.6-3.65-6.6-5.74
	c-1.66-1.73-3.17-3.56-4.54-5.49c-0.48-0.67-0.93-1.35-1.37-2.04c-0.01-0.01-0.02-0.01-0.01-0.02c-1.54-2.4-2.85-4.92-3.94-7.53
	c-0.22-0.54-0.44-1.08-0.64-1.63c-0.05-0.12-0.09-0.24-0.14-0.36c-0.67-1.82-1.22-3.67-1.67-5.56c-0.42-1.75-0.74-3.51-0.95-5.29
	c-0.1-0.75-0.17-1.5-0.23-2.26c-0.2-2.5-0.21-5.03-0.01-7.56c0.02-0.32,0.04-0.64,0.08-0.96c0.01-0.15,0.03-0.31,0.05-0.46
	c0.08-0.84,0.19-1.68,0.33-2.52c0.19-1.2,0.42-2.39,0.71-3.59c0,0,0-0.01,0-0.02c0.33-1.38,0.72-2.76,1.18-4.13
	c0.1-0.29,0.19-0.57,0.3-0.85c0.01-0.03,0.02-0.07,0.03-0.1c0.05-0.15,0.1-0.29,0.15-0.43c0.08-0.21,0.16-0.42,0.25-0.63
	c0.09-0.28,0.2-0.55,0.31-0.81c0.08-0.2,0.16-0.4,0.25-0.6c0.52-1.26,1.11-2.51,1.75-3.75c0.05-0.1,0.1-0.2,0.16-0.29
	c0.11-0.22,0.23-0.44,0.35-0.65c0.53-0.98,1.08-1.92,1.67-2.84c0.26-0.41,0.53-0.82,0.81-1.22c0-0.01,0-0.01,0-0.01
	c1.55-2.28,3.26-4.38,5.12-6.32c1.72-1.78,3.54-3.41,5.48-4.9c0.88-0.68,1.78-1.33,2.71-1.94c0.05-0.03,0.11-0.07,0.16-0.1
	c0.32-0.21,0.63-0.41,0.95-0.61c1.94-1.23,3.96-2.31,6.04-3.24c1.09-0.49,2.2-0.93,3.32-1.34c0.14-0.06,0.27-0.11,0.41-0.15
	c0.26-0.09,0.52-0.18,0.78-0.26c1.97-0.67,3.98-1.21,6.02-1.61c3.16-0.64,6.38-0.96,9.62-0.96c0.68,0,1.37,0.01,2.05,0.05
	c1.77,0.07,3.55,0.25,5.32,0.53c2.52,0.37,5.02,0.96,7.5,1.76c2.62,0.83,5.2,1.9,7.72,3.21c1.21,0.63,2.37,1.3,3.5,2.01
	c0.31,0.19,0.62,0.4,0.93,0.6c0.98,0.65,1.94,1.33,2.86,2.05c1.97,1.5,3.8,3.14,5.48,4.9c1.9,1.98,3.61,4.1,5.12,6.33
	c0.27,0.4,0.54,0.81,0.8,1.22c1.54,2.4,2.85,4.92,3.94,7.53c0.28,0.67,0.54,1.35,0.79,2.04c0.05,0.14,0.1,0.28,0.15,0.43
	c0.6,1.66,1.09,3.36,1.5,5.08c0.01,0.01,0.01,0.01,0,0.02c0.49,2.01,0.84,4.05,1.05,6.11c0.06,0.47,0.1,0.95,0.14,1.42
	C99.19,48.8,99.19,51.33,98.99,53.86z"/>
<title>portugal-flat</title>
<path fill="#005BAE" d="M80.02,11.22H20.13c0.88-0.68,1.78-1.33,2.71-1.94c0.05-0.03,0.11-0.07,0.16-0.1
	c0.32-0.21,0.63-0.41,0.95-0.61c1.94-1.23,3.96-2.31,6.04-3.24c1.09-0.49,2.2-0.93,3.32-1.34c0.14-0.06,0.27-0.11,0.41-0.15
	c0.26-0.09,0.52-0.18,0.78-0.26c1.97-0.67,3.98-1.21,6.02-1.61c3.16-0.64,6.38-0.96,9.62-0.96c0.68,0,1.37,0.01,2.05,0.05
	c1.77,0.07,3.55,0.25,5.32,0.53c2.52,0.37,5.02,0.96,7.5,1.76c2.62,0.83,5.2,1.9,7.72,3.21c1.21,0.63,2.37,1.3,3.5,2.01
	c0.31,0.19,0.62,0.4,0.93,0.6C78.14,9.82,79.1,10.5,80.02,11.22z"/>
<path fill="#FFFFFF" d="M90.62,22.45H0v-0.01h9.53c1.55-2.28,3.26-4.38,5.12-6.32c1.72-1.78,3.54-3.41,5.48-4.9h59.89
	c1.97,1.5,3.8,3.14,5.48,4.9C87.4,18.1,89.11,20.22,90.62,22.45z"/>
<path fill="#005BAE" d="M96.3,33.67H3.83c0.05-0.15,0.1-0.29,0.15-0.43c0.08-0.21,0.16-0.42,0.25-0.63c0.09-0.28,0.2-0.55,0.31-0.81
	c0.08-0.2,0.16-0.4,0.25-0.6c0.52-1.26,1.11-2.51,1.75-3.75c0.05-0.1,0.1-0.2,0.16-0.29c0.11-0.22,0.23-0.44,0.35-0.65
	c0.53-0.98,1.08-1.92,1.67-2.84c0.26-0.41,0.53-0.82,0.81-1.22h81.09c0.27,0.4,0.54,0.81,0.8,1.22c1.54,2.4,2.85,4.92,3.94,7.53
	c0.28,0.67,0.54,1.35,0.79,2.04C96.2,33.38,96.25,33.52,96.3,33.67z"/>
<path fill="#FFFFFF" d="M98.85,44.88H1.28c0.08-0.84,0.19-1.68,0.33-2.52c0.19-1.2,0.42-2.39,0.71-3.59c0,0,0-0.01,0-0.02
	c0.33-1.38,0.72-2.76,1.18-4.13c0.1-0.29,0.19-0.57,0.3-0.85c0.01-0.03,0.02-0.07,0.03-0.1H96.3c0.6,1.66,1.09,3.36,1.5,5.08
	c0.01,0.01,0.01,0.01,0,0.02C98.29,40.78,98.64,42.82,98.85,44.88z"/>
<path fill="#005BAE" d="M57.51,1.59v54.53H1.39c-0.1-0.75-0.17-1.5-0.23-2.26c-0.2-2.5-0.21-5.03-0.01-7.56
	c0.02-0.32,0.04-0.64,0.08-0.96c0.01-0.15,0.03-0.31,0.05-0.46c0.08-0.84,0.19-1.68,0.33-2.52c0.19-1.2,0.42-2.39,0.71-3.59
	c0,0,0-0.01,0-0.02c0.33-1.38,0.72-2.76,1.18-4.13c0.1-0.29,0.19-0.57,0.3-0.85c0.01-0.03,0.02-0.07,0.03-0.1
	c0.05-0.15,0.1-0.29,0.15-0.43c0.08-0.21,0.16-0.42,0.25-0.63c0.09-0.28,0.2-0.55,0.31-0.81c0.08-0.2,0.16-0.4,0.25-0.6
	c0.52-1.26,1.11-2.51,1.75-3.75c0.05-0.1,0.1-0.2,0.16-0.29c0.11-0.22,0.23-0.44,0.35-0.65c0.53-0.98,1.08-1.92,1.67-2.84
	c0.26-0.41,0.53-0.82,0.81-1.22H0v-0.01h9.53c1.55-2.28,3.26-4.38,5.12-6.32c1.72-1.78,3.54-3.41,5.48-4.9
	c0.88-0.68,1.78-1.33,2.71-1.94c0.05-0.03,0.11-0.07,0.16-0.1c0.32-0.21,0.63-0.41,0.95-0.61c1.94-1.23,3.96-2.31,6.04-3.24
	c1.09-0.49,2.2-0.93,3.32-1.34c0.14-0.06,0.27-0.11,0.41-0.15c0.26-0.09,0.52-0.18,0.78-0.26c1.97-0.67,3.98-1.21,6.02-1.61
	c3.16-0.64,6.38-0.96,9.62-0.96c0.68,0,1.37,0.01,2.05,0.05C53.96,1.13,55.74,1.31,57.51,1.59z"/>
<path fill="#005BAE" d="M98.99,53.86c-0.06,0.75-0.13,1.51-0.23,2.26H1.39c-0.1-0.75-0.17-1.5-0.23-2.26
	c-0.2-2.5-0.21-5.03-0.01-7.56c0.02-0.32,0.04-0.64,0.08-0.96c0.01-0.15,0.03-0.31,0.05-0.46h97.57c0.06,0.47,0.1,0.95,0.14,1.42
	C99.19,48.8,99.19,51.33,98.99,53.86z"/>
<path fill="#FFFFFF" d="M98.76,56.12c-0.21,1.77-0.53,3.54-0.94,5.29c-0.45,1.87-1.01,3.73-1.69,5.56
	c-0.04,0.12-0.09,0.24-0.13,0.36H4.15c-0.05-0.12-0.09-0.24-0.14-0.36c-0.67-1.82-1.22-3.67-1.67-5.56
	c-0.42-1.75-0.74-3.51-0.95-5.29H98.76z"/>
<path fill="#005BAE" d="M96,67.33c-0.2,0.55-0.42,1.09-0.65,1.63c-0.52,1.27-1.11,2.53-1.76,3.77c-0.67,1.3-1.4,2.55-2.17,3.76
	c-0.01,0.01-0.02,0.02-0.02,0.02c-0.44,0.7-0.9,1.38-1.38,2.04H10.11c-0.48-0.67-0.93-1.35-1.37-2.04
	c-0.01-0.01-0.02-0.01-0.01-0.02c-1.54-2.4-2.85-4.92-3.94-7.53c-0.22-0.54-0.44-1.08-0.64-1.63H96z"/>
<path fill="#FFFFFF" d="M90.02,78.55c-1.39,1.96-2.9,3.79-4.53,5.49c-2.04,2.13-4.25,4.05-6.6,5.74H21.25
	c-2.4-1.73-4.6-3.65-6.6-5.74c-1.66-1.73-3.17-3.56-4.54-5.49H90.02z"/>
<g>
	<path fill="#FFFFFF" d="M34.5,3.58v52.53H23V9.18c0.32-0.21,0.63-0.41,0.95-0.61c1.94-1.23,3.96-2.31,6.04-3.24
		c1.09-0.49,2.2-0.93,3.32-1.34c0.14-0.06,0.27-0.11,0.41-0.15C33.98,3.75,34.24,3.66,34.5,3.58z"/>
	<path fill="#FFFFFF" d="M57.5,22.44v11.23H3.83c0.05-0.15,0.1-0.29,0.15-0.43c0.08-0.21,0.16-0.42,0.25-0.63
		c0.09-0.28,0.2-0.55,0.31-0.81c0.08-0.2,0.16-0.4,0.25-0.6c0.52-1.26,1.11-2.51,1.75-3.75c0.05-0.1,0.1-0.2,0.16-0.29
		c0.11-0.22,0.23-0.44,0.35-0.65c0.53-0.98,1.08-1.92,1.67-2.84c0.26-0.41,0.53-0.82,0.81-1.22H0v-0.01H57.5z"/>
</g>
<path fill="#005BAE" d="M78.89,89.78c-0.57,0.42-1.15,0.81-1.73,1.2c-0.32,0.21-0.64,0.42-0.96,0.61
	c-3.51,2.21-7.27,3.96-11.19,5.21c-4.82,1.55-9.87,2.35-14.98,2.35c-3.16,0-6.35-0.31-9.51-0.95c-3.56-0.7-7.09-1.82-10.53-3.37
	c-0.86-0.38-1.72-0.8-2.57-1.24c-1.2-0.63-2.37-1.29-3.49-2c-0.37-0.23-0.73-0.46-1.09-0.7c-0.54-0.36-1.07-0.73-1.59-1.11H78.89z"
	/>
</svg>
