<?xml version="1.0" encoding="utf-8"?>
<!-- Generator: Adobe Illustrator 17.0.0, SVG Export Plug-In . SVG Version: 6.00 Build 0)  -->
<!DOCTYPE svg PUBLIC "-//W3C//DTD SVG 1.1//EN" "http://www.w3.org/Graphics/SVG/1.1/DTD/svg11.dtd">
<svg version="1.1" id="Layer_1" xmlns="http://www.w3.org/2000/svg" xmlns:xlink="http://www.w3.org/1999/xlink" x="0px" y="0px"
	 width="100px" height="100px" viewBox="0 0 100 100" enable-background="new 0 0 100 100" xml:space="preserve">
<path fill="#ED2939" d="M98.99,53.86c-0.06,0.75-0.13,1.51-0.23,2.26c-0.02,0.13-0.03,0.25-0.05,0.38
	c-0.06,0.48-0.13,0.96-0.21,1.44c-0.18,1.16-0.41,2.32-0.68,3.47c-0.1,0.4-0.2,0.81-0.31,1.21c-0.33,1.27-0.72,2.53-1.17,3.77
	c-0.07,0.2-0.14,0.39-0.21,0.58c-0.01,0.04-0.03,0.07-0.04,0.11c-0.03,0.08-0.06,0.17-0.09,0.25c-0.2,0.55-0.42,1.09-0.65,1.63
	c-0.52,1.27-1.11,2.53-1.76,3.77c-0.56,1.09-1.16,2.14-1.8,3.16c-0.12,0.2-0.24,0.4-0.37,0.6c-0.01,0.01-0.02,0.02-0.02,0.02
	c-0.44,0.7-0.9,1.38-1.38,2.04c-1.39,1.96-2.9,3.79-4.53,5.49c-2.04,2.13-4.25,4.05-6.6,5.74c-0.57,0.42-1.15,0.81-1.73,1.2
	c-0.32,0.21-0.64,0.42-0.96,0.61c-2.99,1.88-6.16,3.43-9.46,4.62c-0.02,0.01-0.05,0.02-0.07,0.02c-0.55,0.21-1.1,0.39-1.66,0.57
	c-4.82,1.55-9.87,2.35-14.98,2.35c-1.34,0-2.68-0.06-4.02-0.17c-1.57-0.13-3.13-0.34-4.68-0.63c-0.27-0.04-0.54-0.1-0.81-0.15
	c-0.01,0-0.01,0-0.02,0c-2.38-0.47-4.76-1.13-7.1-1.99c-0.02-0.01-0.05-0.02-0.07-0.03c-0.46-0.17-0.92-0.34-1.38-0.53
	c-0.66-0.25-1.31-0.53-1.96-0.82c-0.86-0.38-1.72-0.8-2.57-1.24c-0.05-0.03-0.11-0.06-0.16-0.09c-0.6-0.31-1.18-0.63-1.76-0.96
	c-0.53-0.31-1.06-0.62-1.57-0.95c-0.37-0.23-0.73-0.46-1.09-0.7c-0.54-0.36-1.07-0.73-1.59-1.11c-2.4-1.73-4.6-3.65-6.6-5.74
	c-1.66-1.73-3.17-3.56-4.54-5.49c-0.28-0.39-0.55-0.79-0.82-1.19c-0.19-0.28-0.37-0.57-0.55-0.85c-0.01-0.01-0.02-0.01-0.01-0.02
	c-1.54-2.4-2.85-4.92-3.94-7.53c-0.22-0.54-0.44-1.08-0.64-1.63c-0.03-0.08-0.06-0.17-0.1-0.25c-0.01-0.04-0.02-0.07-0.04-0.11
	c-0.07-0.19-0.14-0.39-0.2-0.58c-0.45-1.24-0.83-2.49-1.16-3.77c-0.11-0.4-0.21-0.8-0.31-1.21c-0.28-1.15-0.51-2.31-0.69-3.47
	c-0.08-0.48-0.15-0.96-0.21-1.44c-0.02-0.13-0.04-0.25-0.05-0.38c-0.1-0.75-0.17-1.5-0.23-2.26c-0.14-1.76-0.19-3.53-0.13-5.3
	c0.02-0.75,0.06-1.51,0.12-2.26c0.02-0.32,0.04-0.64,0.08-0.96c0.01-0.15,0.03-0.31,0.05-0.46c0.03-0.33,0.07-0.67,0.11-1
	c0.06-0.51,0.14-1.01,0.22-1.52c0.05-0.29,0.09-0.57,0.14-0.86c0.16-0.91,0.35-1.82,0.57-2.73c0,0,0-0.01,0-0.02
	c0.33-1.38,0.72-2.76,1.18-4.13c0.1-0.29,0.19-0.57,0.3-0.85c0.01-0.03,0.02-0.07,0.03-0.1c0.05-0.15,0.1-0.29,0.15-0.43
	c0.07-0.19,0.15-0.38,0.23-0.57v-0.01c0.01-0.02,0.01-0.03,0.02-0.05c0.05-0.14,0.1-0.28,0.15-0.42c0.05-0.13,0.11-0.26,0.16-0.39
	c0.08-0.2,0.16-0.4,0.25-0.6c0.52-1.26,1.11-2.51,1.75-3.75c0.05-0.1,0.1-0.2,0.16-0.29c0.11-0.22,0.23-0.44,0.35-0.65
	c0.53-0.98,1.08-1.92,1.67-2.84c0.26-0.41,0.53-0.82,0.81-1.22c0-0.01,0-0.01,0-0.01c1.55-2.28,3.26-4.38,5.12-6.32
	c1.72-1.78,3.54-3.41,5.48-4.9c0.88-0.68,1.78-1.33,2.71-1.94c0.05-0.03,0.11-0.07,0.16-0.1c0.32-0.21,0.63-0.41,0.95-0.61
	c0.51-0.32,1.03-0.64,1.55-0.93c0.58-0.34,1.17-0.67,1.76-0.98c0.9-0.47,1.81-0.91,2.73-1.33c0.65-0.29,1.3-0.56,1.96-0.82
	c0.45-0.18,0.9-0.35,1.36-0.52c0.01,0,0.01,0,0.02-0.01c0.02-0.01,0.05-0.02,0.07-0.02c0.11-0.05,0.21-0.09,0.32-0.12
	c0.26-0.09,0.52-0.18,0.78-0.26c1.96-0.67,3.97-1.21,6-1.61c0.01,0,0.01,0,0.02,0c0.27-0.05,0.54-0.11,0.81-0.16
	c1.55-0.28,3.11-0.49,4.68-0.62c1.37-0.12,2.75-0.18,4.13-0.18c0.68,0,1.37,0.01,2.05,0.05c1.77,0.07,3.55,0.25,5.32,0.53
	c2.52,0.37,5.02,0.96,7.5,1.76c0.56,0.17,1.1,0.36,1.66,0.56c0.02,0.01,0.05,0.02,0.07,0.03c2.03,0.72,4.03,1.6,5.99,2.62
	c1.21,0.63,2.37,1.3,3.5,2.01c0.31,0.19,0.62,0.4,0.93,0.6c0.98,0.65,1.94,1.33,2.86,2.05c1.97,1.5,3.8,3.14,5.48,4.9
	c1.9,1.98,3.61,4.1,5.12,6.33c0.27,0.4,0.54,0.81,0.8,1.22c1.54,2.4,2.85,4.92,3.94,7.53c0.2,0.48,0.39,0.97,0.58,1.46v0.01
	l0.21,0.57c0.05,0.14,0.1,0.28,0.15,0.43c0.02,0.05,0.04,0.1,0.05,0.15c0.58,1.61,1.05,3.26,1.45,4.93c0.01,0.01,0.01,0.01,0,0.02
	c0.22,0.9,0.41,1.81,0.57,2.73c0.15,0.79,0.27,1.58,0.36,2.38c0.05,0.33,0.08,0.67,0.12,1c0.06,0.47,0.1,0.95,0.14,1.42
	c0.06,0.75,0.1,1.5,0.12,2.26C99.17,50.32,99.13,52.09,98.99,53.86z"/>
<title>portugal-flat</title>
<g>
	<path fill="#FFFFFF" d="M98.99,53.86c-0.06,0.75-0.13,1.51-0.23,2.26c-0.02,0.13-0.03,0.25-0.05,0.38
		c-0.06,0.48-0.13,0.96-0.21,1.44c-0.18,1.16-0.41,2.32-0.68,3.47c-0.1,0.4-0.2,0.81-0.31,1.21c-0.33,1.27-0.72,2.53-1.17,3.77
		c-0.07,0.2-0.14,0.39-0.21,0.58c-0.01,0.04-0.03,0.07-0.04,0.11c-0.03,0.08-0.06,0.17-0.09,0.25c-0.2,0.55-0.42,1.09-0.65,1.63
		c-0.52,1.27-1.11,2.53-1.76,3.77c-0.56,1.09-1.16,2.14-1.8,3.16c-0.12,0.2-0.24,0.4-0.37,0.6c-0.01,0.01-0.02,0.02-0.02,0.02
		c-0.44,0.7-0.9,1.38-1.38,2.04c-1.39,1.96-2.9,3.79-4.53,5.49c-2.04,2.13-4.25,4.05-6.6,5.74c-0.57,0.42-1.15,0.81-1.73,1.2
		c-0.32,0.21-0.64,0.42-0.96,0.61c-2.99,1.88-6.16,3.43-9.46,4.62c-0.02,0.01-0.05,0.02-0.07,0.02c-0.55,0.21-1.1,0.39-1.66,0.57
		c-4.82,1.55-9.87,2.35-14.98,2.35c-1.34,0-2.68-0.06-4.02-0.17c-1.57-0.13-3.13-0.34-4.68-0.63c-0.27-0.04-0.54-0.1-0.81-0.15
		c-0.01,0-0.01,0-0.02,0c-2.38-0.47-4.76-1.13-7.1-1.99c-0.02-0.01-0.05-0.02-0.07-0.03c-0.46-0.17-0.92-0.34-1.38-0.53
		c-0.66-0.25-1.31-0.53-1.96-0.82c-0.86-0.38-1.72-0.8-2.57-1.24c-0.05-0.03-0.11-0.06-0.16-0.09c-0.6-0.31-1.18-0.63-1.76-0.96
		c-0.53-0.31-1.06-0.62-1.57-0.95c-0.37-0.23-0.73-0.46-1.09-0.7c-0.54-0.36-1.07-0.73-1.59-1.11c-2.4-1.73-4.6-3.65-6.6-5.74
		c-1.66-1.73-3.17-3.56-4.54-5.49c-0.28-0.39-0.55-0.79-0.82-1.19c-0.19-0.28-0.37-0.57-0.55-0.85c-0.01-0.01-0.02-0.01-0.01-0.02
		c-1.54-2.4-2.85-4.92-3.94-7.53c-0.22-0.54-0.44-1.08-0.64-1.63c-0.03-0.08-0.06-0.17-0.1-0.25c-0.01-0.04-0.02-0.07-0.04-0.11
		c-0.07-0.19-0.14-0.39-0.2-0.58c-0.45-1.24-0.83-2.49-1.16-3.77c-0.11-0.4-0.21-0.8-0.31-1.21c-0.28-1.15-0.51-2.31-0.69-3.47
		c-0.08-0.48-0.15-0.96-0.21-1.44c-0.02-0.13-0.04-0.25-0.05-0.38c-0.1-0.75-0.17-1.5-0.23-2.26c-0.14-1.76-0.19-3.53-0.13-5.3
		c0.02-0.75,0.06-1.51,0.12-2.26c0.02-0.32,0.04-0.64,0.08-0.96c0.01-0.15,0.03-0.31,0.05-0.46c0.03-0.33,0.07-0.67,0.11-1
		c0.06-0.51,0.14-1.01,0.22-1.52c0.05-0.29,0.09-0.57,0.14-0.86c0.16-0.91,0.35-1.82,0.57-2.73c0,0,0-0.01,0-0.02
		c0.33-1.38,0.72-2.76,1.18-4.13c0.1-0.29,0.19-0.57,0.3-0.85c0.01-0.03,0.02-0.07,0.03-0.1c0.05-0.15,0.1-0.29,0.15-0.43
		c0.07-0.19,0.15-0.38,0.23-0.57v-0.01c0.01-0.02,0.01-0.03,0.02-0.05c0.05-0.14,0.1-0.28,0.15-0.42c0.05-0.13,0.11-0.26,0.16-0.39
		c0.08-0.2,0.16-0.4,0.25-0.6c0.52-1.26,1.11-2.51,1.75-3.75c0.05-0.1,0.1-0.2,0.16-0.29c0.11-0.22,0.23-0.44,0.35-0.65
		c0.53-0.98,1.08-1.92,1.67-2.84c0.26-0.41,0.53-0.82,0.81-1.22c0-0.01,0-0.01,0-0.01c1.55-2.28,3.26-4.38,5.12-6.32
		c1.72-1.78,3.54-3.41,5.48-4.9c0.88-0.68,1.78-1.33,2.71-1.94c0.05-0.03,0.11-0.07,0.16-0.1c0.32-0.21,0.63-0.41,0.95-0.61
		c0.51-0.32,1.03-0.64,1.55-0.93c0.58-0.34,1.17-0.67,1.76-0.98c0.9-0.47,1.81-0.91,2.73-1.33c0.65-0.29,1.3-0.56,1.96-0.82
		c0.45-0.18,0.9-0.35,1.36-0.52c0.01,0,0.01,0,0.02-0.01c0.02-0.01,0.05-0.02,0.07-0.02c0.11-0.05,0.21-0.09,0.32-0.12
		c0.26-0.09,0.52-0.18,0.78-0.26c1.96-0.67,3.97-1.21,6-1.61c0.01,0,0.01,0,0.02,0c0.27-0.05,0.54-0.11,0.81-0.16
		c1.55-0.28,3.11-0.49,4.68-0.62c1.37-0.12,2.75-0.18,4.13-0.18c0.68,0,1.37,0.01,2.05,0.05c1.77,0.07,3.55,0.25,5.32,0.53
		c2.52,0.37,5.02,0.96,7.5,1.76c0.56,0.17,1.1,0.36,1.66,0.56c0.02,0.01,0.05,0.02,0.07,0.03c2.03,0.72,4.03,1.6,5.99,2.62
		c1.21,0.63,2.37,1.3,3.5,2.01c0.31,0.19,0.62,0.4,0.93,0.6c0.98,0.65,1.94,1.33,2.86,2.05c1.97,1.5,3.8,3.14,5.48,4.9
		c1.9,1.98,3.61,4.1,5.12,6.33c0.27,0.4,0.54,0.81,0.8,1.22c1.54,2.4,2.85,4.92,3.94,7.53c0.2,0.48,0.39,0.97,0.58,1.46v0.01
		l0.21,0.57c0.05,0.14,0.1,0.28,0.15,0.43c0.02,0.05,0.04,0.1,0.05,0.15c0.58,1.61,1.05,3.26,1.45,4.93c0.01,0.01,0.01,0.01,0,0.02
		c0.22,0.9,0.41,1.81,0.57,2.73c0.15,0.79,0.27,1.58,0.36,2.38c0.05,0.33,0.08,0.67,0.12,1c0.06,0.47,0.1,0.95,0.14,1.42
		c0.06,0.75,0.1,1.5,0.12,2.26C99.17,50.32,99.13,52.09,98.99,53.86z"/>
	<path fill="#0039A6" d="M98.99,53.86c-0.06,0.75-0.13,1.51-0.23,2.26c-0.02,0.13-0.03,0.25-0.05,0.38
		c-0.06,0.48-0.13,0.96-0.21,1.44c-0.18,1.16-0.41,2.32-0.68,3.47c-0.1,0.4-0.2,0.81-0.31,1.21c-0.33,1.27-0.72,2.53-1.17,3.77
		c-0.07,0.2-0.14,0.39-0.21,0.58c-0.01,0.04-0.03,0.07-0.04,0.11c-0.03,0.08-0.06,0.17-0.09,0.25c-0.2,0.55-0.42,1.09-0.65,1.63
		c-0.52,1.27-1.11,2.53-1.76,3.77c-0.56,1.09-1.16,2.14-1.8,3.16c-0.12,0.2-0.24,0.4-0.37,0.6c-0.01,0.01-0.02,0.02-0.02,0.02
		c-0.44,0.7-0.9,1.38-1.38,2.04c-1.39,1.96-2.9,3.79-4.53,5.49c-2.04,2.13-4.25,4.05-6.6,5.74c-0.57,0.42-1.15,0.81-1.73,1.2
		c-0.32,0.21-0.64,0.42-0.96,0.61c-2.99,1.88-6.16,3.43-9.46,4.62c-0.02,0.01-0.05,0.02-0.07,0.02c-0.55,0.21-1.1,0.39-1.66,0.57
		c-4.82,1.55-9.87,2.35-14.98,2.35c-1.34,0-2.68-0.06-4.02-0.17c-1.57-0.13-3.13-0.34-4.68-0.63c-0.27-0.04-0.54-0.1-0.81-0.15
		c-0.01,0-0.01,0-0.02,0c-2.38-0.47-4.76-1.13-7.1-1.99c-0.02-0.01-0.05-0.02-0.07-0.03c-0.46-0.17-0.92-0.34-1.38-0.53
		c-0.66-0.25-1.31-0.53-1.96-0.82c-0.86-0.38-1.72-0.8-2.57-1.24c-0.05-0.03-0.11-0.06-0.16-0.09c-0.6-0.31-1.18-0.63-1.76-0.96
		c-0.53-0.31-1.06-0.62-1.57-0.95c-0.37-0.23-0.73-0.46-1.09-0.7c-0.54-0.36-1.07-0.73-1.59-1.11c-2.4-1.73-4.6-3.65-6.6-5.74
		c-1.66-1.73-3.17-3.56-4.54-5.49c-0.28-0.39-0.55-0.79-0.82-1.19c-0.19-0.28-0.37-0.57-0.55-0.85c-0.01-0.01-0.02-0.01-0.01-0.02
		c-1.54-2.4-2.85-4.92-3.94-7.53c-0.22-0.54-0.44-1.08-0.64-1.63c-0.03-0.08-0.06-0.17-0.1-0.25c-0.01-0.04-0.02-0.07-0.04-0.11
		c-0.07-0.19-0.14-0.39-0.2-0.58c-0.45-1.24-0.83-2.49-1.16-3.77c-0.11-0.4-0.21-0.8-0.31-1.21c-0.28-1.15-0.51-2.31-0.69-3.47
		c-0.08-0.48-0.15-0.96-0.21-1.44c-0.02-0.13-0.04-0.25-0.05-0.38c-0.1-0.75-0.17-1.5-0.23-2.26c-0.14-1.76-0.19-3.53-0.13-5.3
		c0.02-0.75,0.06-1.51,0.12-2.26c0.02-0.32,0.04-0.64,0.08-0.96c0.01-0.15,0.03-0.31,0.05-0.46c0.03-0.33,0.07-0.67,0.11-1
		c0.06-0.51,0.14-1.01,0.22-1.52c0.05-0.29,0.09-0.57,0.14-0.86c0.16-0.91,0.35-1.82,0.57-2.73c0,0,0-0.01,0-0.02
		c0.33-1.38,0.72-2.76,1.18-4.13c0.1-0.29,0.19-0.57,0.3-0.85c0.01-0.03,0.02-0.07,0.03-0.1c0.05-0.15,0.1-0.29,0.15-0.43
		c0.07-0.19,0.15-0.38,0.23-0.57h91.73l0.21,0.57c0.05,0.14,0.1,0.28,0.15,0.43c0.02,0.05,0.04,0.1,0.05,0.15
		c0.58,1.61,1.05,3.26,1.45,4.93c0.01,0.01,0.01,0.01,0,0.02c0.22,0.9,0.41,1.81,0.57,2.73c0.15,0.79,0.27,1.58,0.36,2.38
		c0.05,0.33,0.08,0.67,0.12,1c0.06,0.47,0.1,0.95,0.14,1.42c0.06,0.75,0.1,1.5,0.12,2.26C99.17,50.32,99.13,52.09,98.99,53.86z"/>
	<path fill="#D52B1E" d="M96.09,67.08c-0.03,0.08-0.06,0.17-0.09,0.25c-0.2,0.55-0.42,1.09-0.65,1.63
		c-0.52,1.27-1.11,2.53-1.76,3.77c-0.56,1.09-1.16,2.14-1.8,3.16c-0.12,0.2-0.24,0.4-0.37,0.6c-0.01,0.01-0.02,0.02-0.02,0.02
		c-0.44,0.7-0.9,1.38-1.38,2.04c-1.39,1.96-2.9,3.79-4.53,5.49c-2.04,2.13-4.25,4.05-6.6,5.74c-0.57,0.42-1.15,0.81-1.73,1.2
		c-0.32,0.21-0.64,0.42-0.96,0.61c-2.99,1.88-6.16,3.43-9.46,4.62c-0.02,0.01-0.05,0.02-0.07,0.02c-0.55,0.21-1.1,0.39-1.66,0.57
		c-4.82,1.55-9.87,2.35-14.98,2.35c-1.34,0-2.68-0.06-4.02-0.17c-1.57-0.13-3.13-0.34-4.68-0.63c-0.27-0.04-0.54-0.1-0.81-0.15
		c-0.01,0-0.01,0-0.02,0c-2.38-0.47-4.76-1.13-7.1-1.99c-0.02-0.01-0.05-0.02-0.07-0.03c-0.46-0.17-0.92-0.34-1.38-0.53
		c-0.66-0.25-1.31-0.53-1.96-0.82c-0.86-0.38-1.72-0.8-2.57-1.24c-0.05-0.03-0.11-0.06-0.16-0.09c-0.6-0.31-1.18-0.63-1.76-0.96
		c-0.53-0.31-1.06-0.62-1.57-0.95c-0.37-0.23-0.73-0.46-1.09-0.7c-0.54-0.36-1.07-0.73-1.59-1.11c-2.4-1.73-4.6-3.65-6.6-5.74
		c-1.66-1.73-3.17-3.56-4.54-5.49c-0.28-0.39-0.55-0.79-0.82-1.19c-0.19-0.28-0.37-0.57-0.55-0.85c-0.01-0.01-0.02-0.01-0.01-0.02
		c-1.54-2.4-2.85-4.92-3.94-7.53c-0.22-0.54-0.44-1.08-0.64-1.63c-0.03-0.08-0.06-0.17-0.1-0.25H96.09z"/>
</g>
</svg>
