<?xml version="1.0" encoding="utf-8"?>
<!-- Generator: Adobe Illustrator 17.0.0, SVG Export Plug-In . SVG Version: 6.00 Build 0)  -->
<!DOCTYPE svg PUBLIC "-//W3C//DTD SVG 1.1//EN" "http://www.w3.org/Graphics/SVG/1.1/DTD/svg11.dtd">
<svg version="1.1" id="Layer_1" xmlns="http://www.w3.org/2000/svg" xmlns:xlink="http://www.w3.org/1999/xlink" x="0px" y="0px"
	 width="100px" height="100px" viewBox="0 0 100 100" enable-background="new 0 0 100 100" xml:space="preserve">
<path fill="#0E6C36" d="M72.729,6.563C96.761,19.076,106.1,48.702,93.587,72.734s-42.139,33.371-66.171,20.858
	C3.394,81.085-5.949,51.477,6.544,27.448C19.055,3.406,48.685-5.944,72.729,6.563L72.729,6.563L72.729,6.563z"/>
<path display="none" fill="#FFFFFF" d="M69.924,67.028c-3.938,4.269-9.172,7.124-14.894,8.124l-2.321,10.464l-6.77-1.509
	l1.934-8.723c-2.333-0.243-4.622-0.796-6.808-1.644l-1.934,8.839l-6.77-1.509L34.76,70.22c-11.553-8.791-13.792-25.283-5.001-36.836
	c3.778-4.965,9.198-8.424,15.292-9.759l2.398-10.851l6.77,1.509l-1.934,8.839c2.341,0.156,4.65,0.625,6.867,1.393l1.934-8.723
	l6.77,1.509l-2.321,10.464c2.858,1.988,5.291,4.526,7.157,7.466c1.254,1.926,2.237,4.015,2.921,6.209l-10.89,3.443
	c-0.399-1.24-0.944-2.429-1.625-3.54c-4.432-6.93-13.642-8.955-20.571-4.523c-6.93,4.432-8.955,13.642-4.523,20.571
	c4.432,6.93,13.642,8.955,20.571,4.523c0.005-0.003,0.011-0.007,0.016-0.01c1.092-0.713,2.093-1.557,2.979-2.514l8.395,7.737l0,0
	L69.924,67.028z"/>
<path display="none" fill="#FFFFFF" stroke="#F29832" stroke-width="5" stroke-miterlimit="10" d="M38.572,75.607
	c-0.636-0.154-1.263-0.341-1.879-0.563l-3.283-1.056l-2.02-0.7c-0.65-0.235-1.304-0.482-1.944-0.744
	c-0.64-0.262-1.304-0.55-1.861-0.803l-0.755-0.349l2.211-13.004l3.627,0.928l2.673,0.619l2.81,0.608l2.855,0.576l2.778,0.529
	l2.595,0.441c0.786,0.134,1.474,0.251,2.081,0.275c0.563,0.049,1.128,0.06,1.692,0.033c0.411-0.017,0.819-0.083,1.216-0.195
	c0.276-0.075,0.537-0.195,0.773-0.355c0.181-0.129,0.331-0.297,0.44-0.491c0.14-0.258,0.234-0.539,0.277-0.83l0.143-0.841
	c0.148-0.57-0.004-1.176-0.406-1.608c-0.239-0.242-0.517-0.442-0.821-0.592c-0.34-0.163-0.702-0.276-1.074-0.335l-3.794-0.645
	c-2.572-0.4-5.075-1.159-7.435-2.254c-1.996-0.918-3.772-2.254-5.206-3.918c-1.394-1.71-2.302-3.764-2.627-5.946
	c-0.386-2.625-0.328-5.297,0.173-7.903l0.401-2.359c0.377-2.489,1.224-4.883,2.495-7.055c1.164-1.932,2.799-3.536,4.753-4.663
	c1.325-0.801,2.747-1.429,4.232-1.866c1.411-0.378,2.868-0.559,4.329-0.537l0.983-5.779l11.998,2.04l-0.942,5.537
	c1.806,0.474,3.584,1.046,5.326,1.715l0.982,0.348c0.816,0.292,1.625,0.593,2.425,0.91c0.8,0.317,1.473,0.584,2.159,0.876
	l0.78,0.336L69.519,39.01l-1.138-0.295c-1.127-0.293-2.272-0.579-3.426-0.848c-1.256-0.298-2.543-0.585-3.857-0.871
	c-1.315-0.286-2.677-0.563-3.876-0.795c-1.1-0.187-2.286-0.428-3.535-0.641c-0.654-0.111-1.259-0.214-1.82-0.242
	c-0.537-0.053-1.077-0.077-1.617-0.071c-0.391,0.004-0.781,0.057-1.159,0.159c-0.294,0.079-0.572,0.208-0.823,0.381
	c-0.21,0.153-0.381,0.352-0.501,0.582c-0.173,0.336-0.291,0.699-0.346,1.073l-0.122,0.715c-0.079,0.396-0.079,0.803,0,1.199
	c0.073,0.305,0.219,0.588,0.425,0.825c0.269,0.292,0.599,0.522,0.966,0.673c0.562,0.238,1.151,0.405,1.754,0.496l4.729,0.804
	c1.623,0.264,3.212,0.709,4.736,1.326c1.362,0.551,2.636,1.299,3.781,2.221c2.105,1.684,3.664,3.953,4.481,6.521
	c0.406,1.286,0.647,2.617,0.718,3.964c0.071,1.418-0.015,2.84-0.257,4.239L68.23,62.79c-0.341,2.095-0.913,4.146-1.707,6.114
	c-0.637,1.623-1.56,3.117-2.725,4.413c-1.051,1.141-2.304,2.079-3.695,2.766c-1.424,0.686-2.957,1.121-4.529,1.284l-0.42,0.042
	c-1.51,0.215-3.038,0.284-4.562,0.209l-1.061,6.241l-12.014-2.043L38.572,75.607z"/>
<g display="none">
	<path display="inline" fill="#FFFFFF" d="M79.491,71.557v3.922c0,0.541-0.439,0.981-0.981,0.981H21.635
		c-0.541,0-0.981-0.439-0.981-0.981v-3.922c0-0.541,0.439-0.981,0.981-0.981H78.51C79.051,70.576,79.49,71.016,79.491,71.557
		L79.491,71.557z M78.911,30.457L50.474,17.709c-0.256-0.114-0.547-0.114-0.802,0L21.234,30.457c-0.366,0.166-0.58,0.56-0.58,0.895
		v3.922c0,0.541,0.439,0.981,0.981,0.981H78.51c0.541,0,0.981-0.439,0.981-0.981v-3.922C79.49,31.022,79.28,30.626,78.911,30.457
		L78.911,30.457z M27.519,63.712V43.12h-0.981c-0.541,0-0.981-0.439-0.981-0.981v-1.961h-1.961c-0.541,0-0.981-0.439-0.981-0.981
		v-1.961h54.914v1.961c0,0.541-0.439,0.981-0.981,0.981h-1.961v1.961c0,0.541-0.439,0.981-0.981,0.981h-0.981v20.593h0.981
		c0.541,0,0.981,0.439,0.981,0.981v1.961h1.961c0.541,0,0.981,0.439,0.981,0.981v1.961l-54.914-0.001v-1.961
		c0-0.541,0.439-0.981,0.981-0.981h1.961v-1.961c0-0.541,0.439-0.981,0.981-0.981L27.519,63.712z M55.956,40.178v1.961
		c0,0.541-0.439,0.981-0.981,0.981h-0.981v20.593h0.981c0.541,0,0.981,0.439,0.981,0.981v1.961h6.864v-1.961
		c0-0.541,0.439-0.981,0.981-0.981h0.981L64.782,43.12h-0.981c-0.541,0-0.981-0.439-0.981-0.981v-1.961H55.956z M37.325,40.178
		v1.961c0,0.541-0.439,0.981-0.981,0.981h-0.981v20.593h0.981c0.541,0,0.981,0.439,0.981,0.981v1.961h6.864v-1.961
		c0-0.541,0.439-0.981,0.981-0.981h0.981V43.12H45.17c-0.541,0-0.981-0.439-0.981-0.981v-1.961H37.325z"/>
</g>
<g display="none">
	<path display="inline" fill="none" stroke="#FFFFFF" stroke-width="4" stroke-miterlimit="10" d="M71.326,37.687
		c-0.012,0.111-0.047,0.217-0.1,0.322c-0.059,0.246-0.088,0.527-0.088,0.838c0,0.029,0.006,0.059,0.006,0.088v20.357
		c0.258,0.639,0.574,1.119,0.955,1.418c0.352,0.281,0.785,0.416,1.313,0.393c0.035-0.006,0.076-0.006,0.111-0.006h5.836l0,0
		c0.012,0,0.029,0,0.047,0c0.908,0.047,1.565-0.199,2.004-0.703c0.498-0.574,0.785-1.494,0.885-2.731l0,0v-0.018l1.776-18.365
		c0-0.029,0-0.059,0.006-0.088c0.123-1.043-0.105-1.723-0.621-2.121c-0.592-0.457-1.57-0.645-2.842-0.645
		c-0.029,0-0.059,0.006-0.088,0.006h-6.575v-0.006c-1.002,0-1.74,0.199-2.192,0.609C71.573,37.207,71.432,37.424,71.326,37.687
		L71.326,37.687z M64.892,60.207c-0.141-0.135-0.24-0.311-0.281-0.504l-9.376-16.876c-1.043-1.74-1.981-1.781-2.889-1.242
		c-0.645,0.381-1.324,1.002-2.004,1.623c-0.41,0.375-0.82,0.75-1.166,1.037l-1.611,1.33l0,0l-0.012,0.006
		c-1.172,0.943-2.496,1.453-3.75,1.553c-0.826,0.07-1.623-0.035-2.35-0.311c-0.744-0.281-1.4-0.732-1.893-1.348
		c-0.533-0.662-0.885-1.506-0.967-2.502H38.6c-0.018-0.24,0.053-0.481,0.217-0.68l5.121-6.094c-1.078-0.018-2.033,0.129-2.93,0.41
		c-1.365,0.428-2.643,1.166-4.037,2.121c-0.158,0.123-0.363,0.199-0.58,0.199H30.49v11.151l0.023,7.131h3.434l0,0
		c0.328,0,0.645,0.17,0.815,0.475l4.266,7.436c0.621,1.084,1.172,2.022,1.858,2.637c0.645,0.58,1.488,0.938,2.789,0.973
		c0.486,0.012,0.955-0.07,1.395-0.252c0.27-0.111,0.539-0.264,0.803-0.457l-2.766-5.168c-0.246-0.457-0.07-1.025,0.387-1.266
		c0.457-0.246,1.025-0.07,1.266,0.387l3.006,5.62c1.119,0.568,2.133,0.744,3.041,0.551c0.832-0.182,1.617-0.68,2.356-1.488
		l-4.33-6.797c-0.275-0.434-0.152-1.014,0.287-1.295c0.434-0.275,1.014-0.152,1.295,0.287l4.559,7.161
		c0.803,0.328,1.57,0.398,2.303,0.199c0.697-0.193,1.4-0.639,2.098-1.365l-4.131-7.782c-0.246-0.457-0.07-1.031,0.393-1.272
		c0.457-0.246,1.031-0.07,1.272,0.393l4.278,8.051c0.557,0.322,1.201,0.404,1.817,0.305c0.539-0.088,1.061-0.322,1.488-0.656
		c0.41-0.328,0.732-0.75,0.885-1.231c0.17-0.522,0.152-1.131-0.123-1.793L64.892,60.207L64.892,60.207z M66.135,58.578h3.129V38.936
		c0-0.023,0-0.053,0.006-0.076c0-0.305,0.018-0.598,0.059-0.873l-3.188-2.115c-0.018-0.012-0.035-0.023-0.053-0.035
		c-0.416-0.275-0.914-0.627-1.412-0.979c-1.811-1.266-3.668-2.572-5.678-3.1c-1.084-0.287-2.338-0.475-3.615-0.498
		c-1.119-0.023-2.256,0.082-3.328,0.363c-0.639,0.164-1.26,0.393-1.834,0.697c-0.51,0.27-0.984,0.598-1.406,0.996l-2.133,2.537
		c-0.064,0.129-0.158,0.234-0.27,0.322l-5.883,7.008c0.088,0.445,0.264,0.82,0.504,1.125c0.281,0.346,0.656,0.604,1.084,0.768
		c0.457,0.17,0.984,0.234,1.535,0.188c0.897-0.076,1.858-0.445,2.719-1.137l0,0l1.611-1.33c0.41-0.34,0.756-0.656,1.102-0.967
		c0.756-0.691,1.506-1.377,2.303-1.852c1.834-1.096,3.662-1.131,5.467,1.899l0.018,0.029L66.135,58.578L66.135,58.578z
		 M69.615,60.459h-2.502c0.34,0.99,0.322,1.928,0.053,2.76c-0.275,0.856-0.815,1.582-1.506,2.133
		c-0.674,0.533-1.494,0.902-2.356,1.043c-0.838,0.141-1.717,0.064-2.537-0.275c-0.949,0.99-1.951,1.617-2.994,1.904
		c-1.049,0.287-2.11,0.229-3.182-0.146c-1.02,1.131-2.145,1.84-3.387,2.104c-1.266,0.275-2.608,0.082-4.032-0.586
		c-0.445,0.346-0.908,0.621-1.395,0.82c-0.686,0.287-1.406,0.416-2.162,0.393c-1.805-0.053-3.018-0.586-3.985-1.453
		c-0.926-0.826-1.541-1.881-2.244-3.1l-3.991-6.961h-3.094c-0.182,0.897-0.492,1.658-0.961,2.268
		c-0.791,1.02-1.945,1.559-3.551,1.524c-0.018,0-0.035,0-0.053,0h-5.303c-1.336,0.217-2.479-0.111-3.375-1.149
		c-0.797-0.92-1.336-2.414-1.57-4.606c-0.006-0.023-0.006-0.053-0.012-0.082l-1.395-17.286c-0.275-1.863,0.029-3.182,0.779-4.084
		c0.756-0.908,1.899-1.318,3.299-1.383c0.041-0.006,0.076-0.006,0.117-0.006h7.143v0.006c1.348-0.018,2.508,0.211,3.387,0.779
		c0.709,0.457,1.219,1.102,1.477,1.981h5.819c1.465-0.984,2.83-1.758,4.342-2.233c1.488-0.463,3.076-0.627,4.981-0.398l1.963-2.32
		c0.035-0.047,0.07-0.088,0.117-0.129c0.557-0.527,1.178-0.961,1.846-1.313c0.703-0.369,1.453-0.65,2.238-0.856
		c1.242-0.322,2.549-0.445,3.826-0.422c1.447,0.029,2.854,0.24,4.067,0.557c2.32,0.615,4.325,2.016,6.27,3.381
		c0.434,0.305,0.867,0.609,1.383,0.949c0.018,0.012,0.035,0.023,0.053,0.035l2.824,1.887c0.141-0.199,0.305-0.381,0.492-0.545
		c0.809-0.727,1.963-1.084,3.451-1.084v-0.006h6.575c0.023,0,0.053,0,0.076,0.006c1.682-0.006,3.053,0.299,4.002,1.031
		c1.055,0.815,1.553,2.051,1.342,3.826c0,0.018-0.006,0.029-0.006,0.047l-1.776,18.347l0,0c-0.129,1.641-0.568,2.924-1.342,3.815
		c-0.826,0.949-1.969,1.418-3.469,1.354l0,0h-5.836h-0.006c-1.008,0.053-1.869-0.223-2.59-0.797
		C70.401,61.759,69.961,61.185,69.615,60.459L69.615,60.459z M22.192,53.327c0.703,0,1.272,0.568,1.272,1.272
		c0,0.703-0.568,1.272-1.272,1.272c-0.703,0-1.272-0.568-1.272-1.272S21.489,53.327,22.192,53.327L22.192,53.327z M77.538,53.327
		c0.703,0,1.272,0.568,1.272,1.272c0,0.703-0.568,1.272-1.272,1.272s-1.272-0.568-1.272-1.272S76.835,53.327,77.538,53.327
		L77.538,53.327z M28.609,47.913l-0.035-9.921c0-0.018,0-0.035,0-0.059c-0.1-0.621-0.369-1.037-0.768-1.295
		c-0.545-0.352-1.359-0.486-2.361-0.475h-0.012v0.006h-7.149c-0.012,0-0.023,0-0.035,0c-0.885,0.041-1.559,0.252-1.94,0.709
		c-0.41,0.486-0.551,1.33-0.357,2.637c0.006,0.029,0.006,0.053,0.006,0.082l1.395,17.304v0.029c0.188,1.793,0.574,2.942,1.119,3.574
		c0.434,0.504,1.025,0.645,1.734,0.516c0.053-0.012,0.111-0.018,0.164-0.018v-0.006h5.362c0.035,0,0.07,0,0.1,0.006
		c0.949,0.018,1.606-0.264,2.016-0.797c0.481-0.621,0.715-1.594,0.75-2.848h-0.006v-9.446H28.609z M56.87,41.901L56.87,41.901
		L56.87,41.901L56.87,41.901z"/>
</g>
<g display="none">
	<path display="inline" fill="#FFFFFF" d="M39.02,71.429c-0.023-0.014-0.046-0.027-0.069-0.039l0.294-0.275l-0.225,0.316
		L39.02,71.429z M45.486,75.159c0.03,0.018,0.046,0.026,0.046,0.026c1.178,1.219,3.183,2.771,3.183,2.771
		c1.296,1.342,3.442,1.377,4.789,0.076c1.357-1.311,1.388-3.445,0.091-4.789c0,0-7.135-7.18-6.706-7.406l9.568,8.416
		c1.296,1.342,3.442,1.377,4.789,0.076c1.357-1.311,1.388-3.445,0.091-4.789c0,0-9.451-9.077-9.019-9.28l11.88,10.289
		c1.296,1.342,3.442,1.377,4.789,0.076c1.357-1.311,1.388-3.445,0.091-4.789c0,0-11.758-11.492-11.334-11.683L70.995,65.87
		c1.296,1.342,3.442,1.377,4.789,0.076c0.602-0.582,0.943-1.325,1.023-2.092c-5.142-4.588-24.053-21.31-26.526-21.233
		c-2.867,0.088-8.14,6.831-8.14,6.831c-1.064,1.243-3.754,1.035-5.039,0l-1.145-0.923c-1.281-1.032-2.112-3.16-1.278-4.552
		c0,0,1.943-6.717,6.667-10.854c0.712-0.623,1.639-1.032,2.652-1.338c-6.132-1.559-12.382-0.837-12.711-0.697
		c-3.868,1.656-12.889,23.742-12.889,27.135c0,0.301,1.077,1.156,2.803,2.332c0.114-0.474,0.339-0.931,0.677-1.336l2.24-2.687
		c1.233-1.48,3.503-1.749,5.094-0.583c1.275,0.933,1.703,2.51,1.172,3.858c1.328-1.054,3.449-1.18,4.971-0.225
		c0.924,0.579,1.431,1.693,1.469,2.794c1.37-0.468,3.386-0.913,4.636-0.08c1.597,1.065,1.813,3.4,1.276,4.998
		c0.581-0.035,1.271,0.262,2.115,1.107c2.714,2.714,2.411,4.63,1.357,6.105l-0.725,0.652L45.486,75.159z M15.684,36.519
		c1.787-4.334,6.032-10.425,6.032-10.425c0.415-0.612,1.262-0.784,1.902-0.379l4.485,2.834c0.637,0.401,0.819,1.224,0.397,1.86
		c0,0-5.305,7.858-7.562,12.554c-2.101,4.37-5.506,14.667-5.506,14.667c-0.236,0.704-0.883,0.864-1.435,0.365l-2.736-2.471
		c-0.556-0.502-0.855-1.494-0.659-2.226C10.602,53.298,13.744,41.225,15.684,36.519L15.684,36.519z M84.918,36.519
		c-1.787-4.334-6.032-10.425-6.032-10.425c-0.415-0.612-1.262-0.784-1.903-0.379l-4.485,2.834c-0.637,0.401-0.819,1.224-0.397,1.86
		c0,0,5.305,7.858,7.562,12.554c2.101,4.37,5.506,14.667,5.506,14.667c0.236,0.704,0.883,0.864,1.435,0.365l2.736-2.471
		c0.556-0.502,0.855-1.494,0.659-2.226c0,0-3.142-12.074-5.082-16.779L84.918,36.519z M24.262,57.894
		c0.921-1.18,2.618-1.395,3.807-0.466c1.18,0.923,1.388,2.631,0.47,3.807l-1.674,2.142c-0.921,1.18-2.618,1.395-3.807,0.466
		c-1.18-0.923-1.388-2.631-0.47-3.807L24.262,57.894z M30.443,61.001c0.921-1.18,2.618-1.395,3.807-0.466
		c1.18,0.923,1.397,2.618,0.47,3.807l-3.344,4.28c-0.921,1.18-2.618,1.395-3.807,0.466c-1.18-0.923-1.397-2.618-0.47-3.807
		L30.443,61.001z M36.623,64.108c0.921-1.18,2.618-1.395,3.807-0.466c1.18,0.923,1.397,2.618,0.47,3.807l-3.344,4.28
		c-0.921,1.18-2.618,1.395-3.807,0.466c-1.18-0.923-1.397-2.618-0.47-3.807L36.623,64.108z M40.298,70.423
		c0.921-1.18,2.618-1.395,3.807-0.466c1.18,0.923,1.388,2.631,0.47,3.807L42.9,75.907c-0.921,1.18-2.618,1.395-3.807,0.466
		c-1.18-0.923-1.388-2.631-0.47-3.807L40.298,70.423z M78.092,43.98c1.808,3.85,4.749,12.21,4.749,12.21l-6.429,4.775
		c0,0-23.842-20.432-26.456-20.351c-2.613,0.081-8.041,6.848-8.041,6.848c-0.97,1.138-2.698,1.299-3.869,0.35L37,46.968
		c-1.168-0.945-1.523-2.777-0.763-4.053c0,0,5.025-9.99,12.996-12.422s22.075,1.955,22.075,1.955S76.398,40.376,78.092,43.98
		L78.092,43.98z"/>
</g>
<g display="none">
	<g display="inline">
		<defs>
			<rect id="SVGID_1_" x="1.003" y="0.685" width="98.384" height="98.822"/>
		</defs>
		<clipPath id="SVGID_2_">
			<use xlink:href="#SVGID_1_"  display="none" overflow="visible"/>
		</clipPath>
		<g clip-path="url(#SVGID_2_)">
			<g>
				<defs>
					<path id="SVGID_3_" d="M50.235,1.028c27.004,0,48.895,21.961,48.895,49.051c0,27.089-21.891,49.049-48.895,49.049
						c-27.003,0-48.894-21.961-48.894-49.049C1.342,22.989,23.233,1.028,50.235,1.028"/>
				</defs>
				<clipPath id="SVGID_4_">
					<use xlink:href="#SVGID_3_"  overflow="visible"/>
				</clipPath>
				<g clip-path="url(#SVGID_4_)">
					
						<linearGradient id="SVGID_5_" gradientUnits="userSpaceOnUse" x1="1.5729" y1="100.5919" x2="1.7642" y2="100.5919" gradientTransform="matrix(-539.7938 31.7471 -17.5531 -298.4549 2716.6201 30019.2598)">
						<stop  offset="0" style="stop-color:#CACACB"/>
						<stop  offset="0.0039" style="stop-color:#CBCBCB"/>
						<stop  offset="0.0078" style="stop-color:#CBCCCC"/>
						<stop  offset="0.0117" style="stop-color:#CDCDCE"/>
						<stop  offset="0.0156" style="stop-color:#CECECE"/>
						<stop  offset="0.0195" style="stop-color:#CECFCF"/>
						<stop  offset="0.0234" style="stop-color:#CFD0D0"/>
						<stop  offset="0.0273" style="stop-color:#D1D1D2"/>
						<stop  offset="0.0313" style="stop-color:#D2D2D2"/>
						<stop  offset="0.0352" style="stop-color:#D2D3D3"/>
						<stop  offset="0.0391" style="stop-color:#D3D4D4"/>
						<stop  offset="0.043" style="stop-color:#D5D5D5"/>
						<stop  offset="0.0469" style="stop-color:#D5D6D6"/>
						<stop  offset="0.0508" style="stop-color:#D6D7D7"/>
						<stop  offset="0.0547" style="stop-color:#D8D8D8"/>
						<stop  offset="0.0586" style="stop-color:#D9D9D9"/>
						<stop  offset="0.0625" style="stop-color:#D9DADA"/>
						<stop  offset="0.0664" style="stop-color:#DADBDB"/>
						<stop  offset="0.0703" style="stop-color:#DCDCDC"/>
						<stop  offset="0.0742" style="stop-color:#DCDDDD"/>
						<stop  offset="0.0781" style="stop-color:#DDDEDE"/>
						<stop  offset="0.082" style="stop-color:#DEDEDE"/>
						<stop  offset="0.0859" style="stop-color:#DFE0E0"/>
						<stop  offset="0.0898" style="stop-color:#E0E0E0"/>
						<stop  offset="0.0938" style="stop-color:#E1E1E1"/>
						<stop  offset="0.0977" style="stop-color:#E2E3E3"/>
						<stop  offset="0.1016" style="stop-color:#E3E3E3"/>
						<stop  offset="0.1055" style="stop-color:#E4E4E4"/>
						<stop  offset="0.1094" style="stop-color:#E5E5E5"/>
						<stop  offset="0.1133" style="stop-color:#E6E6E6"/>
						<stop  offset="0.1172" style="stop-color:#E7E7E7"/>
						<stop  offset="0.1211" style="stop-color:#E7E8E8"/>
						<stop  offset="0.125" style="stop-color:#E8E9E9"/>
						<stop  offset="0.1289" style="stop-color:#EAEAEA"/>
						<stop  offset="0.1328" style="stop-color:#EAEBEB"/>
						<stop  offset="0.1367" style="stop-color:#EBEBEB"/>
						<stop  offset="0.1406" style="stop-color:#ECECEC"/>
						<stop  offset="0.1445" style="stop-color:#EDEEED"/>
						<stop  offset="0.1484" style="stop-color:#EEEEEE"/>
						<stop  offset="0.1523" style="stop-color:#EFEFEF"/>
						<stop  offset="0.1563" style="stop-color:#F0F0F0"/>
						<stop  offset="0.1602" style="stop-color:#F1F1F1"/>
						<stop  offset="0.1641" style="stop-color:#F2F2F2"/>
						<stop  offset="0.168" style="stop-color:#F3F3F3"/>
						<stop  offset="0.1719" style="stop-color:#F4F4F4"/>
						<stop  offset="0.1758" style="stop-color:#F5F5F5"/>
						<stop  offset="0.1797" style="stop-color:#F5F6F5"/>
						<stop  offset="0.1836" style="stop-color:#F6F6F6"/>
						<stop  offset="0.1875" style="stop-color:#F8F8F8"/>
						<stop  offset="0.1914" style="stop-color:#F8F8F8"/>
						<stop  offset="0.1953" style="stop-color:#F9F9F9"/>
						<stop  offset="0.1992" style="stop-color:#FBFBFB"/>
						<stop  offset="0.2031" style="stop-color:#FBFBFB"/>
						<stop  offset="0.207" style="stop-color:#FCFCFC"/>
						<stop  offset="0.2109" style="stop-color:#FDFDFD"/>
						<stop  offset="0.2148" style="stop-color:#FEFEFE"/>
						<stop  offset="0.2188" style="stop-color:#FFFFFF"/>
						<stop  offset="0.25" style="stop-color:#FFFFFF"/>
						<stop  offset="0.5" style="stop-color:#FFFFFF"/>
						<stop  offset="1" style="stop-color:#FFFFFF"/>
					</linearGradient>
					<path fill="url(#SVGID_5_)" d="M98.793-4.933l5.866,103.723L1.679,105.089L-4.186,1.367L98.793-4.933z"/>
				</g>
			</g>
			<path d="M96.718,65.327C90.325,84.95,71.932,99.128,50.235,99.128c-21.695,0-40.088-14.178-46.481-33.801
				C34.43,68.568,65.435,68.386,96.718,65.327"/>
			<g>
				<defs>
					<rect id="SVGID_6_" x="3.247" y="0.685" width="93.895" height="34.627"/>
				</defs>
				<clipPath id="SVGID_7_">
					<use xlink:href="#SVGID_6_"  display="none" overflow="visible"/>
				</clipPath>
				<g clip-path="url(#SVGID_7_)">
					<g>
						<defs>
							<path id="SVGID_8_" d="M50.235,1.028c21.872,0,40.386,14.407,46.636,34.276c-31.091-2.658-62.181-2.385-93.271,0
								C9.851,15.435,28.365,1.028,50.235,1.028"/>
						</defs>
						<clipPath id="SVGID_9_">
							<use xlink:href="#SVGID_8_"  overflow="visible"/>
						</clipPath>
						<g clip-path="url(#SVGID_9_)">
							
								<linearGradient id="SVGID_10_" gradientUnits="userSpaceOnUse" x1="1.4305" y1="100.4652" x2="1.7333" y2="100.4652" gradientTransform="matrix(-128.9052 225.9801 -296.4015 -169.0754 30032.1875 16646.8906)">
								<stop  offset="0" style="stop-color:#116324"/>
								<stop  offset="0.125" style="stop-color:#116324"/>
								<stop  offset="0.1875" style="stop-color:#116324"/>
								<stop  offset="0.1953" style="stop-color:#116324"/>
								<stop  offset="0.1992" style="stop-color:#116424"/>
								<stop  offset="0.2031" style="stop-color:#116424"/>
								<stop  offset="0.207" style="stop-color:#116424"/>
								<stop  offset="0.2109" style="stop-color:#116524"/>
								<stop  offset="0.2148" style="stop-color:#116524"/>
								<stop  offset="0.2188" style="stop-color:#126625"/>
								<stop  offset="0.2227" style="stop-color:#126625"/>
								<stop  offset="0.2266" style="stop-color:#126625"/>
								<stop  offset="0.2305" style="stop-color:#126725"/>
								<stop  offset="0.2344" style="stop-color:#126725"/>
								<stop  offset="0.2383" style="stop-color:#136825"/>
								<stop  offset="0.2422" style="stop-color:#136825"/>
								<stop  offset="0.2461" style="stop-color:#136825"/>
								<stop  offset="0.25" style="stop-color:#136926"/>
								<stop  offset="0.2539" style="stop-color:#136926"/>
								<stop  offset="0.2578" style="stop-color:#136B26"/>
								<stop  offset="0.2617" style="stop-color:#136B26"/>
								<stop  offset="0.2656" style="stop-color:#136B26"/>
								<stop  offset="0.2695" style="stop-color:#136C26"/>
								<stop  offset="0.2734" style="stop-color:#136C26"/>
								<stop  offset="0.2773" style="stop-color:#146D27"/>
								<stop  offset="0.2813" style="stop-color:#146D27"/>
								<stop  offset="0.2852" style="stop-color:#146D27"/>
								<stop  offset="0.2891" style="stop-color:#146E27"/>
								<stop  offset="0.293" style="stop-color:#146E27"/>
								<stop  offset="0.2969" style="stop-color:#146F27"/>
								<stop  offset="0.3008" style="stop-color:#146F27"/>
								<stop  offset="0.3047" style="stop-color:#147028"/>
								<stop  offset="0.3086" style="stop-color:#147028"/>
								<stop  offset="0.3125" style="stop-color:#147028"/>
								<stop  offset="0.3164" style="stop-color:#147128"/>
								<stop  offset="0.3203" style="stop-color:#147128"/>
								<stop  offset="0.3242" style="stop-color:#147229"/>
								<stop  offset="0.3281" style="stop-color:#147229"/>
								<stop  offset="0.332" style="stop-color:#147229"/>
								<stop  offset="0.3359" style="stop-color:#14752A"/>
								<stop  offset="0.3398" style="stop-color:#14752A"/>
								<stop  offset="0.3438" style="stop-color:#14762A"/>
								<stop  offset="0.3477" style="stop-color:#14762A"/>
								<stop  offset="0.3516" style="stop-color:#14762A"/>
								<stop  offset="0.3555" style="stop-color:#14772B"/>
								<stop  offset="0.3594" style="stop-color:#14772B"/>
								<stop  offset="0.3633" style="stop-color:#14782B"/>
								<stop  offset="0.3672" style="stop-color:#14782B"/>
								<stop  offset="0.3711" style="stop-color:#14782B"/>
								<stop  offset="0.375" style="stop-color:#14792B"/>
								<stop  offset="0.3789" style="stop-color:#14792B"/>
								<stop  offset="0.3828" style="stop-color:#147A2C"/>
								<stop  offset="0.3867" style="stop-color:#147A2C"/>
								<stop  offset="0.3906" style="stop-color:#147A2C"/>
								<stop  offset="0.3945" style="stop-color:#147B2C"/>
								<stop  offset="0.3984" style="stop-color:#147B2C"/>
								<stop  offset="0.4023" style="stop-color:#147C2D"/>
								<stop  offset="0.4063" style="stop-color:#147C2D"/>
								<stop  offset="0.4102" style="stop-color:#147C2D"/>
								<stop  offset="0.4141" style="stop-color:#147D2D"/>
								<stop  offset="0.418" style="stop-color:#147D2D"/>
								<stop  offset="0.4219" style="stop-color:#147E2E"/>
								<stop  offset="0.4258" style="stop-color:#147E2E"/>
								<stop  offset="0.4297" style="stop-color:#147F2E"/>
								<stop  offset="0.4336" style="stop-color:#147F2E"/>
								<stop  offset="0.4375" style="stop-color:#147E2E"/>
								<stop  offset="0.4414" style="stop-color:#14802F"/>
								<stop  offset="0.4453" style="stop-color:#147F2E"/>
								<stop  offset="0.4492" style="stop-color:#14802F"/>
								<stop  offset="0.4531" style="stop-color:#14802F"/>
								<stop  offset="0.457" style="stop-color:#14802F"/>
								<stop  offset="0.4609" style="stop-color:#14802F"/>
								<stop  offset="0.4648" style="stop-color:#14802F"/>
								<stop  offset="0.4688" style="stop-color:#148130"/>
								<stop  offset="0.4727" style="stop-color:#148130"/>
								<stop  offset="0.4766" style="stop-color:#148130"/>
								<stop  offset="0.4805" style="stop-color:#148130"/>
								<stop  offset="0.4844" style="stop-color:#148130"/>
								<stop  offset="0.4883" style="stop-color:#148230"/>
								<stop  offset="0.4922" style="stop-color:#148230"/>
								<stop  offset="0.4961" style="stop-color:#148130"/>
								<stop  offset="0.5" style="stop-color:#148231"/>
								<stop  offset="0.5039" style="stop-color:#148231"/>
								<stop  offset="0.5078" style="stop-color:#148331"/>
								<stop  offset="0.5117" style="stop-color:#148231"/>
								<stop  offset="0.5156" style="stop-color:#148231"/>
								<stop  offset="0.5195" style="stop-color:#148331"/>
								<stop  offset="0.5234" style="stop-color:#148331"/>
								<stop  offset="0.5273" style="stop-color:#148432"/>
								<stop  offset="0.5313" style="stop-color:#148332"/>
								<stop  offset="0.5352" style="stop-color:#148332"/>
								<stop  offset="0.5391" style="stop-color:#148432"/>
								<stop  offset="0.543" style="stop-color:#148432"/>
								<stop  offset="0.5469" style="stop-color:#148533"/>
								<stop  offset="0.5508" style="stop-color:#148533"/>
								<stop  offset="0.5547" style="stop-color:#148533"/>
								<stop  offset="0.5586" style="stop-color:#148533"/>
								<stop  offset="0.5625" style="stop-color:#148533"/>
								<stop  offset="0.5664" style="stop-color:#148634"/>
								<stop  offset="0.5703" style="stop-color:#148634"/>
								<stop  offset="0.5742" style="stop-color:#148634"/>
								<stop  offset="0.5781" style="stop-color:#148634"/>
								<stop  offset="0.582" style="stop-color:#148634"/>
								<stop  offset="0.5859" style="stop-color:#148735"/>
								<stop  offset="0.5898" style="stop-color:#148735"/>
								<stop  offset="0.5938" style="stop-color:#148735"/>
								<stop  offset="0.5977" style="stop-color:#148735"/>
								<stop  offset="0.6016" style="stop-color:#158736"/>
								<stop  offset="0.6055" style="stop-color:#148836"/>
								<stop  offset="0.6094" style="stop-color:#148836"/>
								<stop  offset="0.6133" style="stop-color:#148937"/>
								<stop  offset="0.6172" style="stop-color:#148937"/>
								<stop  offset="0.6211" style="stop-color:#148938"/>
								<stop  offset="0.625" style="stop-color:#148938"/>
								<stop  offset="0.6289" style="stop-color:#158A3A"/>
								<stop  offset="0.6328" style="stop-color:#148A38"/>
								<stop  offset="0.6367" style="stop-color:#148A3A"/>
								<stop  offset="0.6406" style="stop-color:#148A3A"/>
								<stop  offset="0.6445" style="stop-color:#148B3B"/>
								<stop  offset="0.6484" style="stop-color:#148B3B"/>
								<stop  offset="0.6523" style="stop-color:#148B3C"/>
								<stop  offset="0.6563" style="stop-color:#148B3C"/>
								<stop  offset="0.6602" style="stop-color:#148B3D"/>
								<stop  offset="0.6641" style="stop-color:#148B3C"/>
								<stop  offset="0.668" style="stop-color:#148B3D"/>
								<stop  offset="0.6719" style="stop-color:#148C3D"/>
								<stop  offset="0.6758" style="stop-color:#148C3E"/>
								<stop  offset="0.6797" style="stop-color:#158C40"/>
								<stop  offset="0.6836" style="stop-color:#148C3F"/>
								<stop  offset="0.6875" style="stop-color:#148C40"/>
								<stop  offset="0.6914" style="stop-color:#148D40"/>
								<stop  offset="0.6953" style="stop-color:#148D41"/>
								<stop  offset="0.6992" style="stop-color:#148D41"/>
								<stop  offset="0.7031" style="stop-color:#148D42"/>
								<stop  offset="0.707" style="stop-color:#148D42"/>
								<stop  offset="0.7109" style="stop-color:#148D42"/>
								<stop  offset="0.7188" style="stop-color:#148D42"/>
								<stop  offset="0.75" style="stop-color:#148D42"/>
								<stop  offset="1" style="stop-color:#148D42"/>
							</linearGradient>
							<path fill="url(#SVGID_10_)" d="M26.499-40.722l84.556,50.165l-37.081,67.61l-84.556-50.165L26.499-40.722z"/>
						</g>
					</g>
					<g>
						<defs>
							<rect id="SVGID_11_" x="1.003" y="7.299" width="25.064" height="85.594"/>
						</defs>
						<clipPath id="SVGID_12_">
							<use xlink:href="#SVGID_11_"  overflow="visible"/>
						</clipPath>
						<g id="surface1" clip-path="url(#SVGID_12_)">
							<g>
								<defs>
									<path id="SVGID_13_" d="M25.943,92.654c-14.7-8.459-24.602-24.356-24.602-42.575s9.902-34.118,24.602-42.577V92.654z"/>
								</defs>
								<clipPath id="SVGID_14_">
									<use xlink:href="#SVGID_13_"  overflow="visible"/>
								</clipPath>
								<g clip-path="url(#SVGID_14_)">
									
										<linearGradient id="SVGID_15_" gradientUnits="userSpaceOnUse" x1="2.5567" y1="100.4115" x2="2.9221" y2="100.4115" gradientTransform="matrix(82.784 -5.6129 17.1665 253.1861 -1936.8486 -25357.3301)">
										<stop  offset="0" style="stop-color:#CB100A"/>
										<stop  offset="0.25" style="stop-color:#CB100A"/>
										<stop  offset="0.2578" style="stop-color:#CB100A"/>
										<stop  offset="0.2617" style="stop-color:#CC1109"/>
										<stop  offset="0.2656" style="stop-color:#CC1109"/>
										<stop  offset="0.2695" style="stop-color:#CD1109"/>
										<stop  offset="0.2734" style="stop-color:#CE1209"/>
										<stop  offset="0.2773" style="stop-color:#CE1209"/>
										<stop  offset="0.2813" style="stop-color:#CF1209"/>
										<stop  offset="0.2852" style="stop-color:#D01209"/>
										<stop  offset="0.2891" style="stop-color:#D01309"/>
										<stop  offset="0.293" style="stop-color:#D21309"/>
										<stop  offset="0.2969" style="stop-color:#D1130A"/>
										<stop  offset="0.3008" style="stop-color:#D31409"/>
										<stop  offset="0.3047" style="stop-color:#D41409"/>
										<stop  offset="0.3086" style="stop-color:#D4150A"/>
										<stop  offset="0.3125" style="stop-color:#D5150A"/>
										<stop  offset="0.3164" style="stop-color:#D6150A"/>
										<stop  offset="0.3203" style="stop-color:#D6160B"/>
										<stop  offset="0.3242" style="stop-color:#D7160C"/>
										<stop  offset="0.3281" style="stop-color:#D7160C"/>
										<stop  offset="0.3438" style="stop-color:#D7160C"/>
										<stop  offset="0.3594" style="stop-color:#D8170D"/>
										<stop  offset="0.375" style="stop-color:#D8170D"/>
										<stop  offset="0.3906" style="stop-color:#D9170F"/>
										<stop  offset="0.4063" style="stop-color:#D91710"/>
										<stop  offset="0.4219" style="stop-color:#DA1711"/>
										<stop  offset="0.4375" style="stop-color:#DA1711"/>
										<stop  offset="0.4531" style="stop-color:#DB1812"/>
										<stop  offset="0.4688" style="stop-color:#DB1813"/>
										<stop  offset="0.4844" style="stop-color:#DB1915"/>
										<stop  offset="0.5" style="stop-color:#DC1916"/>
										<stop  offset="0.5156" style="stop-color:#DC1A16"/>
										<stop  offset="0.5313" style="stop-color:#DD1A17"/>
										<stop  offset="0.5469" style="stop-color:#DD1A18"/>
										<stop  offset="0.5625" style="stop-color:#DE1A19"/>
										<stop  offset="0.5781" style="stop-color:#DE1B1A"/>
										<stop  offset="0.5938" style="stop-color:#DF1B1A"/>
										<stop  offset="0.6094" style="stop-color:#DF1C1C"/>
										<stop  offset="0.625" style="stop-color:#DF1C1D"/>
										<stop  offset="0.6406" style="stop-color:#E01D1F"/>
										<stop  offset="0.6563" style="stop-color:#E01C20"/>
										<stop  offset="0.6719" style="stop-color:#E11C21"/>
										<stop  offset="0.6875" style="stop-color:#E11D21"/>
										<stop  offset="0.7031" style="stop-color:#E21D22"/>
										<stop  offset="0.7188" style="stop-color:#E21F23"/>
										<stop  offset="0.75" style="stop-color:#E21F23"/>
										<stop  offset="1" style="stop-color:#E21F23"/>
									</linearGradient>
									<path fill="url(#SVGID_15_)" d="M1.454,94.38L-4.183,7.893l30.014-2.117l5.638,86.489L1.454,94.38z"/>
								</g>
							</g>
						</g>
					</g>
				</g>
			</g>
		</g>
	</g>
</g>
<g>
	<g transform="translate(0.000000,338.000000) scale(0.100000,-0.100000)">
		<path fill="#FFFFFF" d="M391.54,3057.729c-7.578-6.456-9.128-12.252-4.015-16.487c2.453-2.002,4.454-2.233,7.798-0.22
			c5.345,2.893,6.236,6.687,1.342,6.687c-4.234,0-4.234,2.001,0.22,6.907C403.341,3061.744,399.106,3064.197,391.54,3057.729z"/>
		<path fill="#FFFFFF" d="M441.428,3057.51c-2.002-1.782-3.563-5.125-3.563-7.127s-0.671-6.236-1.562-8.909
			c-1.111-4.454-0.671-5.125,3.783-4.454c3.563,0.439,6.016,3.124,8.018,9.128C452.57,3058.84,448.786,3065.088,441.428,3057.51z"/>
		<path fill="#FFFFFF" d="M461.039,3055.508c-2.453-4.015-3.112-7.798-2.002-12.692c0.891-4.015,2.002-12.923,2.673-19.831
			c0.891-11.581,0.671-12.923-5.125-17.377c-4.454-3.563-8.018-4.454-12.032-3.563c-10.91,2.892-13.363,7.127-13.363,24.724
			c0,14.254-0.671,16.707-4.674,18.708c-8.469,4.674-21.161-8.469-29.85-30.521c-6.236-15.816-12.252-12.252-17.378,10.019
			c-3.563,15.376-4.906,18.049-8.469,14.474c-3.783-3.783-4.906-17.146-2.002-27.177c3.563-13.363,12.923-22.503,23.162-22.503
			c8.469,0,10.471,2.233,16.926,18.708c5.125,13.143,8.909,12.923,8.909-0.671c0-14.925,6.236-22.503,20.05-24.053
			c8.469-0.891,11.581,0,20.05,5.796c12.252,8.238,17.378,8.469,24.504,1.111c4.674-5.125,6.687-5.565,15.364-4.674
			c7.578,0.891,11.581,2.892,16.267,8.018c6.236,6.907,13.814,9.58,11.581,3.783c-0.671-1.562,0.44-3.563,2.673-4.454
			c2.453-0.891,6.016,1.111,11.142,6.687c11.142,11.801,9.58,14.925-5.345,9.58c-9.799-3.344-14.705,0.22-19.159,13.363
			c-4.454,13.814-4.454,13.583,0.671,13.583c7.567,0,7.347,4.015-0.44,12.472c-8.249,9.128-18.049,10.91-23.162,4.015
			c-4.674-6.236-3.344-13.594,3.783-23.614c10.019-13.814,8.238-26.286-3.783-26.286c-7.798,0-12.252,9.128-14.034,29.85
			C475.512,3059.291,469.056,3067.76,461.039,3055.508z"/>
		<path fill="#FFFFFF" d="M521.397,3056.399c-3.563-5.565,2.673-15.364,23.833-37.428c12.252-12.923,23.614-25.395,25.175-27.848
			c4.003-6.456,7.798-44.775,7.798-79.298c0-16.035,0.891-28.959,2.002-28.959s5.345,3.783,9.128,8.238l7.347,8.238l-1.331,32.302
			l-1.342,32.522l6.687-7.798c3.563-4.234,13.143-17.158,21.161-28.288c8.018-11.362,15.596-20.721,16.707-20.721
			s2.002,5.125,2.002,11.361c0,12.923-2.453,17.146-31.631,53.463c-15.596,19.599-17.817,23.833-19.819,34.975
			c-2.453,15.816-2.453,16.707,0.22,14.925c3.563-2.233,2.673,6.236-1.331,12.252c-6.456,9.8-21.612,24.285-23.833,22.943
			c-1.111-0.671-3.124-4.015-4.674-7.347l-2.673-6.236l-12.032,7.578C532.759,3058.84,524.07,3060.853,521.397,3056.399z
			 M562.608,3028.551c0-3.124-0.671-3.124-3.344-0.891c-1.782,1.562-3.344,3.124-3.344,3.563c0,0.439,1.562,0.891,3.344,0.891
			C561.046,3032.114,562.608,3030.552,562.608,3028.551z"/>
		<path fill="#FFFFFF" d="M757.742,3054.617c-3.112-3.344-3.563-6.456-2.221-16.036c1.562-11.142,1.342-11.801-2.221-8.909
			c-2.453,2.002-2.892,3.783-1.342,5.796c2.221,2.673-4.003,9.8-15.596,17.378c-9.128,6.236-11.142,4.906-11.142-7.798v-11.801
			l20.05-18.951l20.05-18.939l2.673-37.867c2.002-33.413,2.002-38.758-1.111-46.105c-5.125-12.032-13.363-11.801-24.504,0.451
			c-4.234,4.906-9.36,8.909-11.142,8.909c-6.016,0-14.925-9.128-23.833-24.724c-7.347-12.252-10.251-15.365-14.474-15.365
			c-10.019,0-15.376,9.129-17.158,30.07l-0.671,6.687l-4.234-7.578c-4.894-9.36-4.003-23.614,2.233-32.083
			c2.453-3.344,8.469-8.018,13.594-10.91c15.364-8.238,22.723-3.124,31.851,22.052c3.783,10.019,7.798,10.69,20.27,2.892
			c6.016-3.563,13.363-7.127,16.267-8.018c7.798-2.001,19.599,2.453,27.177,10.47l6.236,6.687l-0.22,35.866l-0.451,35.866
			l8.249-9.58c9.58-11.361,11.361-18.049,11.361-47.227c0.22-12.032,1.111-21.832,2.221-21.832s5.125,3.124,8.909,6.687
			c5.125,5.345,6.907,9.128,7.347,17.378l0.671,10.47l12.032-14.925c6.687-8.469,12.923-15.145,14.034-15.145
			c0.891,0,1.782,4.906,1.782,11.142c0,10.47-0.671,12.032-15.376,28.508c-13.814,15.816-15.364,18.488-17.817,31.631
			c-1.331,8.018-4.454,22.723-6.687,32.962c-3.344,14.705-3.563,18.269-1.331,18.269c6.016,0,5.345,4.234-2.233,19.599
			c-8.689,17.158-11.581,19.599-18.708,14.705c-6.016-4.454-6.016-7.798,2.233-42.993c3.563-16.267,6.236-30.069,5.796-30.521
			c-0.44-0.44-5.345,4.454-10.91,10.91c-8.469,9.799-10.251,13.583-10.91,22.271c-0.891,8.908-0.22,10.47,2.892,10.47
			c5.785,0,5.125,2.001-5.796,17.158C763.318,3059.071,762.427,3059.731,757.742,3054.617z"/>
		<path fill="#FFFFFF" d="M146.055,3054.166c0-1.342,2.002-4.894,4.454-8.018c2.453-3.124,4.454-8.238,4.454-11.581
			c0.22-5.565,0.22-5.565,3.344-1.562c4.015,5.345,4.454,17.158,0.671,20.941C155.635,3057.29,146.055,3057.51,146.055,3054.166z"/>
		<path fill="#FFFFFF" d="M236.056,3053.275c-1.111-2.673-2.233-2.892-4.454-0.891c-2.453,2.002-4.015,1.782-6.456-0.22
			c-2.233-2.001-3.344-2.001-3.344-0.22c0,1.342-1.562,2.453-3.563,2.453c-6.236,0-2.892-11.801,3.783-13.594
			c12.692-3.344,24.053,3.563,20.721,12.252C240.949,3057.51,237.606,3057.729,236.056,3053.275z"/>
		<path fill="#FFFFFF" d="M343.861,3055.057c-2.233-0.439-4.674-3.563-5.345-6.687c-1.111-4.454-0.22-6.687,3.563-9.58l5.345-4.015
			l-12.252-7.578c-6.687-4.234-16.926-10.69-23.162-14.254l-11.142-6.456l11.801-0.671c13.143-0.671,15.816,0.44,36.537,17.146
			c9.799,7.798,12.032,10.69,10.251,13.143c-1.782,2.001-1.782,3.563,0,5.345c4.454,4.454,2.892,10.69-3.124,12.923
			C350.549,3056.619,350.097,3056.838,343.861,3055.057z M352.77,3043.695c0.451-1.562-0.671-2.673-2.673-2.673
			s-3.563,1.562-3.563,3.563C346.534,3048.381,351.439,3047.71,352.77,3043.695z"/>
		<path fill="#FFFFFF" d="M667.973,3054.166c-1.331-1.782-3.563-7.347-4.906-12.472c-2.233-8.238-1.562-13.143,6.456-44.994
			c10.019-39.649,15.596-72.623,15.596-92.221c0-14.474,2.233-15.596,9.8-5.125c8.238,10.91,6.016,34.975-10.471,120.07
			c-0.22,1.342,1.782,2.892,4.674,3.344c6.687,1.111,6.236,2.233-3.344,14.034c-4.674,5.565-10.019,12.472-11.801,15.145
			C671.097,3056.167,669.975,3056.619,667.973,3054.166z"/>
		<path fill="#FFFFFF" d="M843.288,3052.384c-3.344-6.236-2.673-16.035,2.221-43.664c6.016-32.742,10.922-74.173,11.361-94.223
			c0.451-16.036,0.22-16.487-8.238-25.176c-4.906-4.906-13.594-10.69-20.27-13.143c-14.925-5.565-20.721-9.128-20.721-13.143
			c0-5.345,28.739-2.002,43.432,5.125c15.596,7.798,20.941,17.378,22.723,40.1c1.562,19.599-2.892,78.188-7.127,96.005
			c-4.234,17.377-4.234,23.394,0,23.394c1.782,0,3.344,1.111,3.344,2.453c0,3.124-19.83,26.506-22.491,26.506
			C846.4,3056.619,844.618,3054.617,843.288,3052.384z"/>
		<path fill="#FFFFFF" d="M186.156,3051.054c-2.233-2.673-2.453-6.236-0.671-15.145c1.331-6.456,3.783-17.817,5.345-25.615
			c2.002-10.47,2.233-14.473,0.22-16.487c-1.782-1.782-3.344-1.782-5.796,0.22c-2.673,2.233-3.124,5.796-2.002,16.036
			c1.331,13.594-2.673,24.285-9.128,24.285c-5.796,0-14.925-12.032-18.268-24.285c-2.002-6.907-4.894-13.814-6.456-15.596
			c-2.673-2.673-3.563-2.001-6.456,4.454c-1.782,4.234-4.674,12.032-6.236,17.597c-1.562,5.565-3.783,9.58-5.125,8.909
			c-1.111-0.671-2.233-8.909-2.233-18.269c0.22-21.161,4.674-29.179,17.378-30.289c10.019-0.891,14.925,5.565,14.925,19.159
			c0,10.47,3.344,19.159,6.907,17.158c1.111-0.891,2.002-8.689,2.002-17.817c0-20.721,2.002-23.162,21.161-26.066
			c4.003-0.671,4.674-3.124,6.456-25.176c0.891-13.583,2.002-24.724,2.453-25.176s2.673,0.22,5.125,1.562
			c7.578,4.015,10.019,16.487,8.469,39.649c-1.562,24.053-0.22,26.066,14.034,19.599c9.128-4.015,18.268-3.344,29.63,2.453
			c8.689,4.454,10.019,12.692,4.674,28.068c-3.563,10.251-3.783,12.923-1.562,12.923c4.894,0,3.563,5.565-2.673,12.032
			c-6.907,6.687-17.378,7.798-20.49,2.001c-2.892-4.894,0.22-14.925,7.347-24.053c5.565-7.578,7.578-18.939,3.124-18.939
			c-1.342,0-6.456,2.233-11.142,4.906c-8.018,4.454-8.689,5.565-8.689,14.474c0,16.035-10.019,30.069-18.049,25.176
			c-4.454-2.893-3.783-22.503,0.891-29.85c4.234-6.236,4.906-10.25,1.562-10.25c-4.015,0-6.907,8.908-8.909,27.177
			C201.081,3050.383,193.954,3060.402,186.156,3051.054z"/>
		<path fill="#FFFFFF" d="M266.565,3050.602l-4.674-4.015l8.689-41.211c8.018-37.196,8.469-41.431,5.125-43.884
			c-2.892-2.453-4.674-1.782-10.471,2.673c-9.799,7.347-16.926,8.689-26.286,4.906c-15.596-6.687-20.05-28.519-7.127-34.755
			c6.236-3.124,13.814-2.233,26.286,3.124c7.127,2.892,4.015-3.783-6.236-13.583c-15.596-15.145-41.651-20.941-52.792-12.032
			c-4.234,3.344-6.016,6.907-6.687,15.596c-0.671,6.236-1.782,11.801-2.453,12.472c-3.344,3.563-8.018-2.001-10.471-12.252
			c-2.233-9.8-2.233-12.252,1.562-19.599c6.907-13.814,13.814-17.378,34.744-17.378c14.485,0,20.27,1.111,27.397,4.906
			c12.252,6.456,24.944,21.612,28.508,33.853c4.015,14.034,9.128,15.145,7.578,1.782c-1.782-14.474-11.361-29.63-23.614-37.428
			c-33.193-20.941-78.407-15.596-78.407,9.36c0,3.344-1.111,8.908-2.233,12.252l-2.453,6.236l-4.454-4.674
			c-3.783-3.563-4.674-7.347-4.674-18.037c0-16.036,4.015-23.163,16.926-29.85c19.159-10.019,61.701-4.454,86.205,11.142
			c21.832,14.034,30.069,28.959,28.068,51.01c-1.342,13.363-1.111,14.034,2.892,11.801c5.796-3.124,13.363-2.673,20.941,1.111
			c4.454,2.233,9.58,2.892,17.817,2.001c15.364-1.782,20.721,2.453,22.723,18.939c1.562,11.801,1.562,11.801-3.783,10.251
			c-5.796-1.782-8.689-4.906-8.689-9.36s-5.345-3.344-8.469,1.562c-3.563,6.016-8.469,5.565-14.254-1.111
			c-6.236-7.127-14.474-7.347-17.378-0.22c-1.342,4.015-3.124,4.906-7.347,4.234c-5.345-1.111-5.565-0.439-9.128,20.941
			c-2.233,12.032-4.454,23.614-4.906,25.835c-0.891,2.892,0.22,3.783,4.454,3.783c7.127,0,7.127,1.782,0.22,15.365
			C280.599,3054.617,275.485,3057.729,266.565,3050.602z M250.309,2951.254c0.451-2.453-0.671-3.783-3.783-3.783
			c-5.125,0-7.798,3.344-5.796,6.907C242.963,2957.71,249.418,2955.708,250.309,2951.254z"/>
		<path fill="#FFFFFF" d="M598.914,3050.822c-0.671-2.001,1.111-5.796,4.454-9.36c3.344-3.563,6.016-9.36,6.456-13.814l0.671-7.798
			l4.003,7.127c4.906,9.36,4.906,14.254-0.891,21.612C608.493,3055.057,601.147,3056.167,598.914,3050.822z"/>
		<path fill="#FFFFFF" d="M632.558,3046.148c-3.124-7.347-3.124-10.251,0-29.63c4.234-25.835,12.472-95.565,12.472-105.804
			c0-6.016-1.782-8.689-8.909-14.474c-8.018-6.236-35.415-21.612-44.555-24.944c-2.892-1.111-2.673-1.782,0.671-5.345
			c9.36-10.019,38.978-0.22,53.683,17.817c14.705,18.049,15.596,21.161,13.814,54.794c-0.671,16.487-2.892,38.087-4.894,47.898
			c-6.236,32.962-6.236,34.975-2.233,37.196c2.002,1.111,3.563,3.124,3.563,4.674c0,4.454-14.254,26.066-17.378,26.066
			C637.232,3054.386,634.34,3050.602,632.558,3046.148z"/>
		<path fill="#FFFFFF" d="M820.333,3037.459c-2.892-2.892-1.562-9.128,2.892-13.143c2.892-2.673,4.454-6.907,4.454-12.692
			c0-11.142,3.563-10.91,7.127,0.671c2.233,8.238,2.233,10.251-1.782,17.377C829.022,3037.459,823.677,3040.583,820.333,3037.459z"
			/>
		<path fill="#FFFFFF" d="M338.077,3006.279c-11.801-8.238-0.451-23.614,12.472-16.487c8.238,4.674,8.689,8.689,1.111,8.238
			c-5.565-0.451-6.236,0.22-5.565,5.785C346.765,3010.733,345.203,3011.173,338.077,3006.279z"/>
		<path fill="#FFFFFF" d="M598.254,3004.266c0-5.796,6.687-10.019,15.816-10.019c4.454,0,13.143,7.347,13.143,11.141
			c0,3.563-7.347,5.796-8.469,2.453c-0.671-2.001-1.562-2.001-4.234,0c-2.673,2.233-3.783,2.233-5.565-0.451
			c-1.562-2.453-2.453-2.453-3.344-0.22C603.6,3012.064,598.254,3010.063,598.254,3004.266z"/>
		<path fill="#FFFFFF" d="M730.125,3004.937c-1.562-1.562-2.673-4.454-2.673-6.687c0-4.454-2.453-5.125-6.016-1.562
			c-4.003,4.003-12.923,1.562-13.583-3.783c-0.659-5.345,11.801-17.146,22.271-20.721c6.016-2.233,6.236-2.001,6.236,5.565
			c0,10.019,3.563,16.707,7.798,15.145c4.454-1.782,4.234,3.344-0.22,9.8C740.144,3008.061,734.359,3009.172,730.125,3004.937z"/>
		<path fill="#FFFFFF" d="M408.466,2985.118c-5.796-3.344-4.905-10.91,3.783-28.959c10.91-22.723,12.032-33.193,4.906-44.103
			c-6.687-10.251-29.398-25.835-42.322-29.41c-7.347-2.001-10.471-1.782-14.705,0.451c-3.124,1.782-5.565,4.234-5.565,5.345
			c0,1.342,6.016,5.565,13.363,9.58c30.521,17.158,39.429,34.975,28.288,57.027c-3.124,5.796-2.892,6.236,0.22,5.125
			c6.687-2.672,3.783,6.687-4.234,13.814c-9.128,7.798-11.581,8.238-18.488,3.344c-7.798-5.345-6.456-14.254,4.015-24.053
			c14.034-13.363,11.801-19.379-12.032-34.524c-6.236-3.783-12.032-6.907-13.143-6.907s-1.562,3.124-0.671,7.127l1.342,6.907
			l-4.674-4.235c-2.673-2.233-6.236-7.798-7.798-12.252c-2.892-7.127-5.565-8.908-24.944-17.377
			c-23.833-10.471-44.994-22.503-44.994-25.396c0-2.453,11.581-0.22,40.1,7.798c22.723,6.456,23.394,6.456,26.726,2.233
			c17.378-21.381,47.667-16.487,83.533,13.814l10.251,8.689l7.127-6.907c10.019-9.8,28.959-17.817,49.229-20.941
			c16.267-2.453,17.597-2.453,20.49,1.562c4.015,5.345,1.342,8.469-11.361,13.363c-6.907,2.453-10.019,4.906-10.019,7.798
			c0,6.236,6.687,8.908,27.397,11.141c30.069,3.344,48.338,7.127,48.338,10.019c0,1.562,2.453,6.456,5.565,10.91l5.345,8.018
			l-18.268,0.22c-10.019,0.22-27.177,0.891-38.319,1.781l-20.05,1.342l11.801,1.782c29.85,4.454,43.884,18.049,36.977,36.085
			c-2.002,5.345-12.923,10.02-22.943,10.02c-12.472,0-20.49-7.347-22.272-20.27l-1.342-9.8l-11.581-1.562
			c-15.596-2.233-34.524-9.58-41.651-16.255l-6.016-5.565l-2.002,5.796c-1.342,3.124-2.233,7.127-2.233,8.909
			c0,9.58-16.926,41.211-21.832,40.991C412.92,2987.56,410.468,2986.449,408.466,2985.118z M523.41,2966.179
			c2.002-0.671,3.563-2.233,3.563-3.344c0-3.344-8.238-2.233-11.141,1.342c-2.221,2.673-2.221,3.344,0.671,3.344
			C518.285,2967.521,521.397,2966.85,523.41,2966.179z M484.201,2919.403c7.127-1.342,5.125-5.345-4.003-8.469
			c-6.456-2.001-8.018-3.563-8.469-9.58c-0.891-8.689-4.454-9.36-15.376-2.673c-9.36,5.796-15.364,16.487-11.801,20.941
			C447.005,2922.515,469.496,2922.515,484.201,2919.403z"/>
		<path fill="#FFFFFF" d="M456.804,2976.429c-0.671-1.342-0.671-4.234,0-6.687c2.233-7.347,23.614-8.689,28.068-1.782
			c2.233,3.344-0.451,10.69-3.563,10.69c-1.562,0-3.563-1.342-4.015-2.673c-0.891-2.233-1.782-2.233-3.344,0.22
			c-1.782,2.672-2.892,2.672-5.565,0.451c-2.233-1.782-3.783-2.002-4.905-0.22C461.698,2979.322,458.586,2979.322,456.804,2976.429z
			"/>
		<path fill="#FFFFFF" d="M734.799,2959.052c-12.923-6.907-18.488-11.142-18.488-14.034c0-6.236,5.125-5.125,24.504,4.906
			c16.707,8.469,21.612,13.363,18.708,17.817C757.522,2971.084,753.958,2969.742,734.799,2959.052z"/>
		<path fill="#FFFFFF" d="M167.887,2959.943c-17.146-6.236-37.867-21.612-34.084-25.396c0.891-0.891,58.808,18.939,60.81,20.721
			c0.451,0.22-0.891,2.233-2.892,4.235C187.266,2963.726,179.029,2963.946,167.887,2959.943z"/>
		<path fill="#FFFFFF" d="M745.27,2944.798c0.22-2.892,1.562-7.578,3.344-10.69c1.782-3.124,3.124-8.238,3.344-11.581
			c0-3.563,0.891-6.236,1.782-6.236c7.347,0,9.799,19.599,3.563,28.508C752.848,2951.474,745.27,2951.254,745.27,2944.798z"/>
		<path fill="#FFFFFF" d="M318.697,2933.876c-0.891-1.342,0.451-4.674,3.112-7.347c2.673-2.673,4.674-7.798,4.674-11.581l0.22-6.456
			l4.234,5.345c5.565,6.456,5.565,9.36-0.22,16.707C326.044,2936.549,321.15,2937.891,318.697,2933.876z"/>
		<path fill="#FFFFFF" d="M130.24,2903.587c-6.907-10.91-7.347-30.74-1.111-35.415c6.456-4.674,14.034-3.783,17.817,1.782
			c6.687,9.58,2.673,20.05-4.674,12.692c-5.345-5.345-8.018,0.451-6.456,14.925c0.891,7.798,1.111,14.254,0.451,14.254
			C135.816,2911.825,132.912,2908.042,130.24,2903.587z"/>
		<path fill="#FFFFFF" d="M530.977,2890.444c-7.578-4.015-8.018-7.127-1.111-8.018c3.124-0.44,4.674-2.001,4.234-4.454
			c-0.22-2.001,0.44-4.234,1.782-5.125c3.344-2.002,33.633,6.016,32.742,8.908c-0.891,2.673-10.91,2.673-19.83,0.22
			c-5.785-1.782-6.236-1.342-6.236,5.125C542.558,2894.898,540.117,2895.569,530.977,2890.444z"/>
		<path fill="#FFFFFF" d="M788.482,2884.648c-0.891-1.331,0.44-3.783,2.673-5.565c4.234-3.124,4.015-3.344-0.671-7.347
			c-5.796-4.454-6.687-8.908-2.233-8.908c1.562,0,7.578,1.562,13.363,3.563c11.361,3.783,14.254,9.799,4.674,9.799
			c-4.906,0-5.345,0.451-3.124,3.344c1.331,1.782,2.002,4.234,1.111,5.565C802.516,2888.211,790.484,2887.991,788.482,2884.648z"/>
		<path fill="#FFFFFF" d="M682.898,2721.377c-1.562-1.782-2.221-5.565-1.562-8.238l1.342-4.674l-226.325,1.319
			c-224.983,1.562-226.314,1.562-222.31-2.892c2.233-2.453,9.58-6.687,16.487-9.36l12.472-5.125l209.387-1.111l209.387-1.111
			l0.451-6.456c0.671-9.348,6.016-14.254,11.801-10.69c6.456,4.003,55.465,3.563,63.483-0.451
			c6.456-3.344,18.268-1.562,21.612,3.563c3.783,6.016,1.782,19.159-3.563,25.615c-4.454,5.125-6.907,6.016-14.925,5.785
			c-5.345-0.22-22.052,0.22-36.757,0.891c-25.615,1.111-26.957,1.331-25.835,5.565c0.671,3.112-0.22,4.674-3.783,5.565
			c-2.453,0.671-4.674,2.001-4.674,3.112C689.585,2725.831,686.022,2725.16,682.898,2721.377z M744.599,2689.075
			c5.125,0,7.347-1.111,7.347-3.344c0-4.234-13.583-4.674-20.05-0.671c-3.344,2.002-5.345,2.002-9.36-0.22
			c-3.112-1.562-9.799-2.453-15.364-2.001c-7.578,0.44-10.019,1.562-10.471,4.906c-0.891,4.015,0.22,4.234,19.819,2.892
			C727.672,2689.734,740.364,2689.075,744.599,2689.075z"/>
	</g>
</g>
</svg>
