<?xml version="1.0" encoding="utf-8"?>
<!-- Generator: Adobe Illustrator 17.0.0, SVG Export Plug-In . SVG Version: 6.00 Build 0)  -->
<!DOCTYPE svg PUBLIC "-//W3C//DTD SVG 1.1//EN" "http://www.w3.org/Graphics/SVG/1.1/DTD/svg11.dtd">
<svg version="1.1" id="Layer_1" xmlns="http://www.w3.org/2000/svg" xmlns:xlink="http://www.w3.org/1999/xlink" x="0px" y="0px"
	 width="100px" height="100px" viewBox="0 0 100 100" enable-background="new 0 0 100 100" xml:space="preserve">
<path fill="#000099" d="M98.99,53.86c-0.19,2.52-0.58,5.05-1.17,7.55c-0.61,2.55-1.43,5.07-2.47,7.55
	c-0.52,1.27-1.11,2.53-1.76,3.77c-0.67,1.3-1.4,2.55-2.17,3.76c-0.01,0.01-0.02,0.02-0.02,0.02c-1.75,2.74-3.73,5.25-5.91,7.53
	c-2.54,2.65-5.33,4.96-8.33,6.94c-0.32,0.21-0.64,0.42-0.96,0.61c-7.82,4.92-16.91,7.56-26.17,7.56c-7.63,0-15.37-1.79-22.61-5.56
	c-1.2-0.63-2.37-1.29-3.49-2c-0.37-0.23-0.73-0.46-1.09-0.7c-3.02-2.01-5.76-4.31-8.19-6.85c-2.23-2.33-4.21-4.85-5.91-7.53
	c-0.01-0.01-0.02-0.01-0.01-0.02c-1.54-2.4-2.85-4.92-3.94-7.53c-1.02-2.45-1.84-4.97-2.45-7.55c-0.59-2.48-0.99-5-1.18-7.55
	c-0.2-2.5-0.21-5.03-0.01-7.56c0.02-0.32,0.04-0.64,0.08-0.96c0.09-0.99,0.22-1.99,0.38-2.98c0.19-1.2,0.42-2.39,0.71-3.59
	c0,0,0-0.01,0-0.02c0.33-1.38,0.72-2.76,1.18-4.13c0.1-0.29,0.19-0.57,0.3-0.85c0.13-0.39,0.27-0.78,0.43-1.16
	c0.09-0.28,0.2-0.55,0.31-0.81c0.08-0.2,0.16-0.4,0.25-0.6c0.52-1.26,1.11-2.51,1.75-3.75c0.05-0.1,0.1-0.2,0.16-0.29
	c0.11-0.22,0.23-0.44,0.35-0.65c0.53-0.98,1.08-1.92,1.67-2.84c1.75-2.75,3.74-5.27,5.93-7.55c2.5-2.59,5.24-4.88,8.19-6.84
	c0.37-0.24,0.73-0.48,1.11-0.71c2.96-1.87,6.1-3.4,9.36-4.58c0.14-0.06,0.27-0.11,0.41-0.15c5.25-1.86,10.8-2.83,16.42-2.83
	c0.68,0,1.37,0.01,2.05,0.05c6.95,0.29,13.96,2.08,20.54,5.5c1.21,0.63,2.37,1.3,3.5,2.01c0.31,0.19,0.62,0.4,0.93,0.6
	c3.08,2.04,5.87,4.37,8.34,6.95c2.24,2.34,4.22,4.87,5.92,7.55c1.54,2.4,2.85,4.92,3.94,7.53c1.01,2.45,1.83,4.97,2.44,7.55
	c0.01,0.01,0.01,0.01,0,0.02c0.6,2.47,0.99,4.99,1.19,7.53C99.19,48.8,99.19,51.33,98.99,53.86z"/>
<g>
	<g>
		<path fill="#BD3D44" d="M23.93,91.59c1.12,0.71,2.29,1.37,3.49,2c7.24,3.77,14.98,5.56,22.61,5.56c9.26,0,18.35-2.64,26.17-7.56
			H23.93z M8.74,76.51c1.7,2.68,3.68,5.2,5.91,7.53h70.84c2.18-2.28,4.16-4.79,5.91-7.53 M2.34,61.41c0.61,2.58,1.43,5.1,2.45,7.55
			h90.56c1.04-2.48,1.86-5,2.47-7.55H2.34z M98.99,46.3H1.15c-0.2,2.53-0.19,5.06,0.01,7.56h97.83
			C99.19,51.33,99.19,48.8,98.99,46.3z M85.5,16.12H14.65c-2.19,2.28-4.18,4.8-5.93,7.55h82.7C89.72,20.99,87.74,18.46,85.5,16.12z
			 M72.73,6.56c-6.58-3.42-13.59-5.21-20.54-5.5V1.01h-2.05c-5.62,0-11.17,0.97-16.42,2.83l-0.18-0.56l-0.23,0.71
			c-3.26,1.18-6.4,2.71-9.36,4.58h52.28C75.1,7.86,73.94,7.19,72.73,6.56z M97.8,38.75c-0.61-2.58-1.43-5.1-2.44-7.55H52.19H40.25
			h-0.98H27.82h-0.96H15.39h-0.98H4.79l-0.25,0.6c-0.11,0.26-0.22,0.53-0.31,0.81L3.8,33.77c-0.11,0.28-0.2,0.56-0.3,0.85
			c-0.46,1.37-0.85,2.75-1.18,4.13 M164.07,38.77v-0.02 M2.32,38.77h5.12h2.47h9.98h2.46h9.97h2.46h9.97h2.45h4.99H97.8
			 M-22.38,38.75v0.02"/>
		<path fill="#FFFFFF" d="M164.07,38.77v-0.02 M2.32,38.77c-0.29,1.2-0.52,2.39-0.71,3.59l-0.38,2.98
			c-0.04,0.32-0.06,0.64-0.08,0.96h97.84c-0.2-2.54-0.59-5.06-1.19-7.53 M-22.38,38.75v0.02 M14.65,84.04
			c2.43,2.54,5.17,4.84,8.19,6.85c0.36,0.24,0.72,0.47,1.09,0.7H76.2c0.32-0.19,0.64-0.4,0.96-0.61c3-1.98,5.79-4.29,8.33-6.94
			H14.65z M91.42,76.49c0.77-1.21,1.5-2.46,2.17-3.76c0.65-1.24,1.24-2.5,1.76-3.77H4.79c1.09,2.61,2.4,5.13,3.94,7.53 M1.16,53.86
			c0.19,2.55,0.59,5.07,1.18,7.55h95.48c0.59-2.5,0.98-5.03,1.17-7.55H1.16z M91.42,23.67H8.72c-0.59,0.92-1.14,1.86-1.67,2.84H5.79
			l0.91,0.65c-0.06,0.09-0.11,0.19-0.16,0.29c-0.64,1.24-1.23,2.49-1.75,3.75h90.57C94.27,28.59,92.96,26.07,91.42,23.67z
			 M3.95,23.67H2.97l1.29,0.94L3.95,23.67z M0.99,23.67l-0.3,0.92l1.28-0.92H0.99z M77.16,9.17c-0.31-0.2-0.62-0.41-0.93-0.6H23.95
			c-0.38,0.23-0.74,0.47-1.11,0.71c-2.95,1.96-5.69,4.25-8.19,6.84H85.5C83.03,13.54,80.24,11.21,77.16,9.17z M22.85,8.57h-0.2
			l0.26,0.19L22.85,8.57z M19.4,8.57l-0.06,0.17l0.23-0.17H19.4z M10.39,8.57h-0.2l0.26,0.19L10.39,8.57z"/>
	</g>
	<polygon fill="#192F5D" points="19.4,8.57 19.57,8.57 19.34,8.74 	"/>
	<polygon fill="#192F5D" points="22.91,8.76 22.65,8.57 22.85,8.57 	"/>
	<path fill="#192F5D" d="M2.32,38.75c0.33-1.38,0.72-2.76,1.18-4.13c0.1-0.29,0.19-0.57,0.3-0.85l0.43-1.16
		c0.09-0.28,0.2-0.55,0.31-0.81l0.25-0.6c0.52-1.26,1.11-2.51,1.75-3.75c0.05-0.1,0.1-0.2,0.16-0.29l-0.91-0.65h1.26
		c0.53-0.98,1.08-1.92,1.67-2.84c1.75-2.75,3.74-5.27,5.93-7.55c2.5-2.59,5.24-4.88,8.19-6.84c0.37-0.24,0.73-0.48,1.11-0.71
		c2.96-1.87,6.1-3.4,9.36-4.58l0.23-0.71l0.18,0.56c5.25-1.86,10.8-2.83,16.42-2.83h2.05v0.05v7.51v7.55v7.55v7.53v7.55v0.02v7.53
		v7.56H1.16c-0.2-2.5-0.21-5.03-0.01-7.56c0.02-0.32,0.04-0.64,0.08-0.96l0.38-2.98c0.19-1.2,0.42-2.39,0.71-3.59"/>
	<line fill="#192F5D" x1="-22.38" y1="38.77" x2="-22.38" y2="38.75"/>
	<path fill="#FFFFFF" d="M3.8,33.77c-0.11,0.28-0.2,0.56-0.3,0.85l0.76,0.55L3.8,33.77z M4.54,31.8c-0.11,0.26-0.22,0.53-0.31,0.81
		l1.12-0.81H4.54z M5.35,42.36H3.16l-0.69-2.09L1.8,42.36H1.61l-0.38,2.98l1.24-0.89l1.79,1.3l-0.69-2.11L5.35,42.36z M48.86,47.65
		h-2.21l-0.43-1.35l-0.24-0.74l-0.24,0.74l-0.43,1.33h-2.2l1.78,1.28l-0.69,2.11l1.78-1.28l1.78,1.28l-0.69-2.09L48.86,47.65z
		 M36.42,47.65h-2.19l-0.45-1.35l-0.24-0.74L33.3,46.3l-0.43,1.33h-2.18l1.76,1.28l-0.67,2.11l1.76-1.28l1.79,1.28l-0.68-2.09
		L36.42,47.65z M24,47.65h-2.21l-0.43-1.35l-0.24-0.74l-0.25,0.74l-0.44,1.33h-2.18l1.78,1.28l-0.69,2.11l1.78-1.28l1.79,1.28
		l-0.69-2.09L24,47.65z M11.54,47.65H9.37L8.92,46.3l-0.24-0.74L8.45,46.3l-0.42,1.33h-2.2l1.78,1.28l-0.67,2.11l1.76-1.28
		l1.79,1.28l-0.68-2.09L11.54,47.65z M42.65,42.36h-2.21l-0.67-2.09l-0.69,2.09H36.9l1.76,1.28l-0.67,2.09l1.78-1.28l1.77,1.3
		l-0.68-2.11L42.65,42.36z M30.21,42.36h-2.19l-0.69-2.09l-0.65,2.09h-2.22l1.78,1.28l-0.67,2.09l1.76-1.28l1.79,1.3l-0.68-2.11
		L30.21,42.36z M17.79,42.36h-2.21l-0.67-2.09l-0.69,2.09h-2.18l1.76,1.28l-0.67,2.09l1.78-1.28l1.77,1.3l-0.67-2.11L17.79,42.36z
		 M47.2,38.75l-0.13-0.38l1.79-1.28h-2.21l-0.67-2.11l-0.67,2.09h-2.2l1.78,1.28l-0.13,0.4l-0.01,0.02l-0.55,1.67l1.78-1.28
		l1.78,1.28l-0.56-1.67V38.75z M34.77,38.75l-0.12-0.38l1.77-1.28h-2.19l-0.69-2.11l-0.67,2.09h-2.18l1.76,1.28l-0.13,0.4v0.02
		l-0.54,1.67l1.76-1.28l1.79,1.28l-0.55-1.67L34.77,38.75z M22.35,38.75l-0.13-0.38L24,37.09h-2.21l-0.67-2.11l-0.69,2.09h-2.18
		l1.78,1.28l-0.13,0.4l-0.01,0.02l-0.55,1.67l1.78-1.28l1.79,1.28l-0.56-1.67V38.75z M9.9,38.75l-0.12-0.38l1.76-1.28H9.37
		l-0.69-2.11l-0.69,2.09h-2.2l1.78,1.28l-0.13,0.4v0.02L6.9,40.44l1.76-1.28l1.79,1.28l-0.54-1.67L9.9,38.75z M42.65,31.8h-2.21
		l-0.19-0.6l-0.48-1.49l-0.5,1.49l-0.19,0.58H36.9l1.76,1.28l-0.67,2.11l1.78-1.3l1.77,1.3l-0.68-2.09L42.65,31.8z M30.21,31.8
		h-2.19l-0.2-0.6l-0.49-1.49l-0.47,1.49l-0.18,0.58h-2.22l1.78,1.28l-0.67,2.11l1.76-1.3l1.79,1.3l-0.68-2.09L30.21,31.8z
		 M17.79,31.8h-2.21l-0.19-0.6l-0.48-1.49l-0.5,1.49l-0.19,0.58h-2.18l1.76,1.28l-0.67,2.11l1.78-1.3l1.77,1.3l-0.67-2.09
		L17.79,31.8z M48.86,26.51h-2.21l-0.67-2.09l-0.67,2.09h-2.2l1.78,1.28l-0.69,2.09l1.78-1.28l1.78,1.3l-0.69-2.11L48.86,26.51z
		 M36.42,26.51h-2.19l-0.69-2.09l-0.67,2.09h-2.18l1.76,1.28l-0.67,2.09l1.76-1.28l1.79,1.3l-0.68-2.11L36.42,26.51z M24,26.51
		h-2.21l-0.67-2.09l-0.69,2.09h-2.18l1.78,1.28l-0.69,2.09l1.78-1.28l1.79,1.3l-0.69-2.11L24,26.51z M11.54,26.51H9.37l-0.69-2.09
		l-0.69,2.09h-2.2l0.91,0.65l0.87,0.63L6.9,29.88l1.76-1.28l1.79,1.3l-0.67-2.11L11.54,26.51z M40.86,22.5l1.79-1.28h-2.21
		l-0.67-2.09l-0.69,2.09H36.9l1.76,1.28l-0.38,1.17l-0.29,0.92l1.28-0.92l0.5-0.36l0.49,0.36l1.28,0.94l-0.3-0.94L40.86,22.5z
		 M28.44,22.5l1.77-1.28h-2.19l-0.69-2.09l-0.65,2.09h-2.22l1.78,1.28l-0.38,1.17l-0.29,0.92l1.27-0.92l0.49-0.36l0.5,0.36
		l1.29,0.94l-0.3-0.94L28.44,22.5z M16.01,22.5l1.78-1.28h-2.21l-0.67-2.09l-0.69,2.09h-2.18l1.76,1.28l-0.38,1.17l-0.29,0.92
		l1.28-0.92l0.5-0.36l0.49,0.36l1.28,0.94l-0.3-0.94L16.01,22.5z M48.86,15.95h-2.21l-0.67-2.11l-0.67,2.09h-2.2l0.26,0.19
		l1.52,1.09l-0.69,2.11l1.78-1.3l1.78,1.3l-0.69-2.09l1.55-1.11L48.86,15.95z M36.42,15.95h-2.19l-0.69-2.11l-0.67,2.09h-2.18
		l0.26,0.19l1.5,1.09l-0.67,2.11l1.76-1.3l1.79,1.3l-0.68-2.09l1.53-1.11L36.42,15.95z M24,15.95h-2.21l-0.67-2.11l-0.69,2.09h-2.18
		l0.26,0.19l1.52,1.09l-0.69,2.11l1.78-1.3l1.79,1.3l-0.69-2.09l1.54-1.11L24,15.95z M42.65,10.66h-2.21l-0.67-2.09l-0.69,2.09H36.9
		l1.76,1.28l-0.67,2.09l1.78-1.29l1.77,1.29l-0.68-2.09L42.65,10.66z M30.21,10.66h-2.19l-0.69-2.09l-0.65,2.09h-2.22l1.78,1.28
		l-0.67,2.09l1.76-1.29l1.79,1.29l-0.69-2.09L30.21,10.66z M47.07,6.65l1.79-1.28h-2.21l-0.67-2.09l-0.67,2.09h-2.2l1.78,1.28
		l-0.63,1.92L44.2,8.74l0.23-0.17l1.55-1.12l1.52,1.12l0.26,0.19L47.7,8.57L47.07,6.65z M34.65,6.65l1.77-1.28h-2.19l-0.51-1.53
		l-0.18-0.56l-0.23,0.71l-0.44,1.38h-2.18l1.76,1.28l-0.62,1.92l-0.05,0.17l0.23-0.17l1.53-1.12l1.53,1.12l0.26,0.19l-0.06-0.19
		L34.65,6.65z M19.4,8.57l-0.06,0.17l0.23-0.17H19.4z M22.85,8.57h-0.2l0.26,0.19L22.85,8.57z"/>
</g>
</svg>
