<svg width="39" height="38" viewBox="0 0 39 38" fill="none" xmlns="http://www.w3.org/2000/svg">
<g clip-path="url(#clip0_85_558)">
<path d="M10.4701 1.79544L8.1198 3.17987L11.0737 8.19465L13.424 6.81022L10.4701 1.79544Z" fill="#FFBE40"/>
<path d="M1.81027 26.951L3.12895 29.3388L8.22376 26.5252L6.90508 24.1374L1.81027 26.951Z" fill="#FFBE40"/>
<path d="M8.00247 34.3051L10.3253 35.7352L13.3766 30.7791L11.0539 29.349L8.00247 34.3051Z" fill="#FFBE40"/>
<path d="M0.037448 17.4515L0.010788 20.1791L5.83062 20.236L5.85728 17.5084L0.037448 17.4515Z" fill="#FFBE40"/>
<path d="M1.79948 10.7842L3.11816 8.39636L8.21298 11.21L6.89429 13.5978L1.79948 10.7842Z" fill="#FFBE40"/>
<path d="M20.6113 32.1799H19.2441V38H20.6113V32.1799Z" fill="#FF9F40"/>
<path d="M19.2506 32.1799H17.8835V38H19.2506V32.1799Z" fill="#FFBE40"/>
<path d="M20.6113 0H19.2441V5.82011H20.6113V0Z" fill="#FF9F40"/>
<path d="M19.2506 0H17.8835V5.82011H19.2506V0Z" fill="#FFBE40"/>
<path d="M19.2442 8.87338V29.6669C20.6631 29.754 22.0848 29.5496 23.4217 29.0665C24.7587 28.5833 25.9827 27.8316 27.0182 26.8577C28.0538 25.8837 28.879 24.7081 29.443 23.4032C30.0071 22.0983 30.2981 20.6918 30.2981 19.2702C30.2981 17.8486 30.0071 16.442 29.443 15.1371C28.879 13.8322 28.0538 12.6566 27.0182 11.6827C25.9827 10.7087 24.7587 9.95699 23.4217 9.47386C22.0848 8.99072 20.6631 8.78637 19.2442 8.87338Z" fill="#FF9F40"/>
<path d="M19.2442 8.87338V29.6669C16.5969 29.5046 14.1114 28.3386 12.2943 26.4066C10.4772 24.4747 9.46552 21.9224 9.46552 19.2702C9.46552 16.618 10.4772 14.0656 12.2943 12.1337C14.1114 10.2018 16.5969 9.03572 19.2442 8.87338Z" fill="#FFBE40"/>
<path d="M27.7204 8.87338V29.6669C30.3677 29.5046 32.8532 28.3386 34.6703 26.4066C36.4873 24.4747 37.4991 21.9224 37.4991 19.2702C37.4991 16.618 36.4873 14.0656 34.6703 12.1337C32.8532 10.2018 30.3677 9.03572 27.7204 8.87338Z" fill="#3D4566"/>
<path d="M27.7204 8.87338V29.6669C25.0732 29.5046 22.5877 28.3386 20.7706 26.4066C18.9535 24.4747 17.9418 21.9224 17.9418 19.2702C17.9418 16.618 18.9535 14.0656 20.7706 12.1337C22.5877 10.2018 25.0732 9.03572 27.7204 8.87338Z" fill="#4D5E80"/>
</g>
<defs>
<clipPath id="clip0_85_558">
<rect width="38.1172" height="38" fill="white"/>
</clipPath>
</defs>
</svg>
