<?xml version="1.0" encoding="utf-8"?>
<!-- Generator: Adobe Illustrator 17.0.0, SVG Export Plug-In . SVG Version: 6.00 Build 0)  -->
<!DOCTYPE svg PUBLIC "-//W3C//DTD SVG 1.1//EN" "http://www.w3.org/Graphics/SVG/1.1/DTD/svg11.dtd">
<svg version="1.1" id="Layer_1" xmlns="http://www.w3.org/2000/svg" xmlns:xlink="http://www.w3.org/1999/xlink" x="0px" y="0px"
	 width="38px" height="38px" viewBox="0 0 38 38" enable-background="new 0 0 38 38" xml:space="preserve">
<path fill="#C02A2A" d="M16.096,6.805h17.066c1.282,0,2.511,0.509,3.418,1.416c0.906,0.906,1.416,2.136,1.416,3.418v21.528
	c0,1.282-0.509,2.511-1.416,3.418C35.673,37.491,34.444,38,33.162,38H16.096c-0.177-0.001-0.351-0.036-0.514-0.105
	c-0.163-0.069-0.31-0.169-0.434-0.295c-0.124-0.126-0.221-0.275-0.287-0.439c-0.066-0.164-0.098-0.339-0.096-0.516V8.136
	c0-0.354,0.141-0.694,0.391-0.945c0.25-0.251,0.59-0.391,0.945-0.391L16.096,6.805z"/>
<path fill="#3D4566" d="M13.202,36.511l-0.719-7.023l9.013,0.571l-6.216,7.116c-0.152,0.175-0.352,0.302-0.576,0.364
	c-0.224,0.063-0.46,0.058-0.682-0.012c-0.221-0.071-0.417-0.204-0.563-0.385C13.314,36.961,13.224,36.742,13.202,36.511
	L13.202,36.511z"/>
<path fill="#FFFFFF" d="M29.627,24.534c0.464,0.39,0.928,0.789,1.392,1.183c0.343,0.283,0.705,0.543,1.044,0.83
	c0.118,0.086,0.217,0.195,0.291,0.32c0.074,0.125,0.123,0.264,0.142,0.409c0.019,0.144,0.009,0.291-0.031,0.431
	c-0.039,0.14-0.107,0.271-0.198,0.385c-0.088,0.116-0.2,0.213-0.327,0.285c-0.128,0.071-0.268,0.115-0.414,0.13
	c-0.145,0.014-0.292-0.002-0.431-0.046c-0.139-0.045-0.267-0.118-0.377-0.215c-0.802-0.631-1.591-1.285-2.37-1.953
	c-0.031-0.04-0.071-0.073-0.117-0.096c-0.046-0.023-0.096-0.034-0.147-0.034c-0.051,0-0.101,0.012-0.147,0.034
	c-0.046,0.022-0.086,0.055-0.117,0.096c-0.779,0.663-1.563,1.327-2.37,1.953c-0.146,0.126-0.323,0.21-0.512,0.244
	c-0.189,0.034-0.385,0.017-0.565-0.05c-0.181-0.067-0.34-0.181-0.461-0.33c-0.122-0.149-0.201-0.328-0.229-0.519
	c-0.036-0.208-0.012-0.422,0.07-0.616c0.082-0.194,0.219-0.361,0.394-0.479c0.705-0.575,1.41-1.155,2.115-1.74
	c0.093-0.074,0.176-0.162,0.269-0.246c-0.339-0.421-0.649-0.864-0.928-1.327c-0.557-1.067-1.062-2.162-1.563-3.247
	c-0.023-0.092-0.078-0.173-0.154-0.229c-0.076-0.057-0.169-0.085-0.264-0.081c-0.146-0.001-0.289-0.031-0.424-0.088
	c-0.134-0.057-0.256-0.139-0.358-0.243s-0.183-0.227-0.237-0.362s-0.082-0.279-0.081-0.425c0.013-0.294,0.142-0.57,0.358-0.769
	c0.216-0.199,0.503-0.304,0.797-0.293c1.076,0,2.148,0,3.289,0c0-0.385,0-0.752,0-1.113c-0.004-0.18,0.037-0.358,0.118-0.518
	c0.081-0.16,0.201-0.298,0.348-0.401c0.147-0.103,0.317-0.168,0.496-0.19c0.178-0.022,0.359,0.001,0.527,0.065
	c0.214,0.084,0.398,0.232,0.525,0.424c0.128,0.191,0.194,0.418,0.189,0.648c0,0.32,0,0.64,0,0.96c0,0.023,0,0.046,0.046,0.111h1.596
	c0.529,0,1.062,0,1.591,0c0.148-0.01,0.297,0.01,0.438,0.058c0.141,0.048,0.27,0.124,0.381,0.223
	c0.111,0.099,0.201,0.219,0.265,0.353c0.064,0.134,0.101,0.28,0.108,0.428c-0.001,0.3-0.121,0.587-0.333,0.799
	c-0.212,0.212-0.499,0.332-0.799,0.333c-0.119,0.021-0.226,0.087-0.297,0.186c-0.553,1.665-1.393,3.221-2.482,4.597
	C29.683,24.409,29.65,24.451,29.627,24.534z M28.083,22.883c0.785-0.973,1.403-2.071,1.828-3.247h-3.655
	C26.677,20.813,27.295,21.911,28.083,22.883L28.083,22.883z"/>
<path fill="#FFC12E" d="M20.382,31.098H3.219c-0.854,0-1.673-0.339-2.276-0.943C0.339,29.551,0,28.732,0,27.878V3.215
	c0.001-0.853,0.341-1.671,0.945-2.273C1.548,0.339,2.366,0,3.219,0h11.847c0.785,0.001,1.543,0.291,2.129,0.813
	c0.586,0.522,0.961,1.241,1.053,2.021l3.247,27.03c0.019,0.156,0.003,0.315-0.044,0.465c-0.048,0.15-0.127,0.288-0.232,0.405
	c-0.105,0.117-0.235,0.21-0.379,0.273C20.696,31.069,20.54,31.1,20.382,31.098L20.382,31.098z"/>
<path fill="#3D4566" d="M7.417,6h4.291l5.298,19.007h-3.569l-1.325-5.009H6.755L5.47,25.007H1.993L7.417,6z M11.344,16.954
	L9.49,9.811H9.397L7.55,16.954H11.344z"/>
</svg>
