<svg width="45" height="53" viewBox="0 0 45 53" fill="none" xmlns="http://www.w3.org/2000/svg">
<path d="M21.8708 25.1748C28.9385 25.1748 34.668 19.5392 34.668 12.5874C34.668 5.63557 28.9385 0 21.8708 0C14.8031 0 9.07355 5.63557 9.07355 12.5874C9.07355 19.5392 14.8031 25.1748 21.8708 25.1748Z" fill="#FDBE4D"/>
<path d="M43.5738 33.9092C41.7539 28.3169 38.3594 24.2418 33.003 25.1749C30.3184 25.6446 24.6716 28.9835 22.4968 28.9835C20.322 28.9835 14.6752 25.6636 11.9905 25.1749C6.63416 24.2418 3.23964 28.3487 1.41976 33.9092L0 42.5865C0.0142714 43.8418 0.280773 45.0819 0.784162 46.2355C1.28755 47.389 2.01789 48.4333 2.93317 49.3082C3.84844 50.1831 4.93057 50.8714 6.11729 51.3333C7.30401 51.7953 8.57189 52.0219 9.84798 52.0001H35.152C37.7269 52.0357 40.2107 51.064 42.0575 49.2988C43.9042 47.5335 44.9626 45.1191 45 42.5865L43.5738 33.9092Z" fill="#58595B"/>
</svg>
