<svg width="49" height="52" viewBox="0 0 49 52" fill="none" xmlns="http://www.w3.org/2000/svg">
<g clip-path="url(#clip0_51_234)">
<path d="M29.1707 1.48994C28.2346 1.31609 27.268 1.4237 26.393 1.79919C25.518 2.17467 24.774 2.80116 24.255 3.59944C23.7361 4.39772 23.4655 5.33196 23.4774 6.28402C23.4894 7.23609 23.7834 8.16322 24.3222 8.94823C24.861 9.73323 25.6205 10.3408 26.5046 10.6942C27.3888 11.0476 28.3578 11.131 29.2893 10.9337C30.2208 10.7364 31.0728 10.2673 31.7377 9.58582C32.4026 8.90431 32.8506 8.04095 33.0249 7.1049C33.1407 6.48314 33.1328 5.84465 33.0017 5.22593C32.8707 4.60721 32.619 4.02037 32.2611 3.49894C31.9032 2.9775 31.446 2.5317 30.9158 2.18699C30.3855 1.84228 29.7926 1.60542 29.1707 1.48994ZM27.9394 8.23159C27.5418 8.15761 27.175 7.96733 26.8856 7.68483C26.5961 7.40233 26.397 7.04032 26.3134 6.6446C26.2298 6.24888 26.2654 5.83726 26.4158 5.46182C26.5663 5.08638 26.8247 4.76401 27.1584 4.53549C27.4921 4.30698 27.8861 4.18261 28.2906 4.17811C28.695 4.17361 29.0917 4.2892 29.4304 4.51024C29.7691 4.73128 30.0346 5.04783 30.1933 5.41983C30.352 5.79184 30.3969 6.20257 30.3221 6.60005C30.2726 6.866 30.1709 7.11949 30.0228 7.34584C29.8747 7.57219 29.6831 7.76688 29.4592 7.91864C29.2353 8.0704 28.9835 8.17621 28.7183 8.22993C28.4532 8.28365 28.1801 8.28421 27.9148 8.23159H27.9394Z" fill="#C02A2A"/>
<g style="mix-blend-mode:multiply">
<path d="M33.0064 7.19726C32.1488 6.70592 31.2483 6.29377 30.3159 5.96591C30.3464 6.17 30.3464 6.37749 30.3159 6.58158C30.2774 6.85513 30.184 7.11805 30.0411 7.35447C29.8982 7.59088 29.7089 7.79588 29.4846 7.95708C29.2603 8.11829 29.0056 8.23235 28.736 8.29238C28.4663 8.35241 28.1873 8.35718 27.9158 8.30637C27.6443 8.25556 27.3858 8.15025 27.1561 7.99678C26.9265 7.84332 26.7303 7.64489 26.5794 7.41348C26.4285 7.18207 26.3262 6.92249 26.2784 6.65041C26.2307 6.37832 26.2386 6.0994 26.3017 5.83046C26.3429 5.614 26.4199 5.40592 26.5295 5.21478C25.5431 5.16201 24.5539 5.1991 23.5742 5.3256C23.3293 6.57883 23.5922 7.87803 24.3052 8.93739C25.0182 9.99675 26.1228 10.7295 27.376 10.9744C28.6293 11.2194 29.9284 10.9564 30.9878 10.2434C32.0472 9.53046 32.7799 8.42586 33.0249 7.17263L33.0064 7.19726Z" fill="#FCD329"/>
</g>
<g style="mix-blend-mode:multiply">
<path d="M33.0064 7.19726C32.1488 6.70592 31.2483 6.29377 30.3159 5.96591C30.3464 6.17 30.3464 6.37749 30.3159 6.58158C30.2774 6.85513 30.184 7.11805 30.0411 7.35447C29.8982 7.59088 29.7089 7.79588 29.4846 7.95708C29.2603 8.11829 29.0056 8.23235 28.736 8.29238C28.4663 8.35241 28.1873 8.35718 27.9158 8.30637C27.6443 8.25556 27.3858 8.15025 27.1561 7.99678C26.9265 7.84332 26.7303 7.64489 26.5794 7.41348C26.4285 7.18207 26.3262 6.92249 26.2784 6.65041C26.2307 6.37832 26.2386 6.0994 26.3017 5.83046C26.3429 5.614 26.4199 5.40592 26.5295 5.21478C25.5431 5.16201 24.5539 5.1991 23.5742 5.3256C23.3293 6.57883 23.5922 7.87803 24.3052 8.93739C25.0182 9.99675 26.1228 10.7295 27.376 10.9744C28.6293 11.2194 29.9284 10.9564 30.9878 10.2434C32.0472 9.53046 32.7799 8.42586 33.0249 7.17263L33.0064 7.19726Z" fill="#FCD329"/>
</g>
<g opacity="0.7">
<g style="mix-blend-mode:screen">
<g style="mix-blend-mode:screen">
<path d="M28.2103 2.16098C28.2534 2.56117 27.373 2.9121 26.4556 3.47853C25.5383 4.04495 24.8672 4.76529 24.6517 4.66679C24.4362 4.56828 24.7133 3.39849 25.8276 2.52423C26.942 1.64997 28.1918 1.76695 28.2103 2.16098Z" fill="#DC9999"/>
</g>
</g>
<g style="mix-blend-mode:screen">
<path d="M30.1682 2.30258C30.1251 2.5427 29.7187 2.67199 29.257 2.58579C28.7952 2.4996 28.4689 2.23486 28.512 1.97012C28.5551 1.70538 28.9676 1.60071 29.4232 1.68691C29.8788 1.7731 30.2113 2.05631 30.1682 2.30258Z" fill="#DC9999"/>
</g>
</g>
<path d="M29.3308 52C33.4758 52 36.8359 48.6398 36.8359 44.4949C36.8359 40.3499 33.4758 36.9898 29.3308 36.9898C25.1859 36.9898 21.8257 40.3499 21.8257 44.4949C21.8257 48.6398 25.1859 52 29.3308 52Z" fill="#C02A2A"/>
<g style="mix-blend-mode:multiply">
<path d="M33.6036 38.3258C32.6879 37.6922 31.6427 37.2702 30.5439 37.0903C29.445 36.9103 28.3198 36.9769 27.2499 37.2853C25.4896 37.7929 23.976 38.9274 22.9949 40.4745C22.0138 42.0217 21.6329 43.8744 21.9242 45.6831L36.3249 47.2285C36.368 47.1176 36.405 47.013 36.4419 46.9022C36.4788 46.7975 36.5096 46.6867 36.5404 46.5758V46.4958C36.5404 46.4096 36.5835 46.3234 36.6081 46.2372L36.682 45.874C36.9523 44.4529 36.8054 42.984 36.2591 41.6446C35.7129 40.3052 34.7906 39.1525 33.6036 38.3258Z" fill="#FCD329"/>
</g>
<g style="mix-blend-mode:multiply" opacity="0.5">
<path d="M33.6036 38.3258C32.6879 37.6922 31.6427 37.2702 30.5439 37.0903C29.445 36.9103 28.3198 36.9769 27.2499 37.2853C25.4896 37.7929 23.976 38.9274 22.9949 40.4745C22.0138 42.0217 21.6329 43.8744 21.9242 45.6831L36.3249 47.2285C36.368 47.1176 36.405 47.013 36.4419 46.9022C36.4788 46.7975 36.5096 46.6867 36.5404 46.5758V46.4958C36.5404 46.4096 36.5835 46.3234 36.6081 46.2372L36.682 45.874C36.9523 44.4529 36.8054 42.984 36.2591 41.6446C35.7129 40.3052 34.7906 39.1525 33.6036 38.3258Z" fill="#FCD329"/>
</g>
<g style="mix-blend-mode:multiply" opacity="0.5">
<path d="M34.5271 39.077C35.1942 40.6684 35.2924 42.4411 34.8053 44.0965C34.3183 45.7519 33.2756 47.1889 31.853 48.1655C30.4304 49.1421 28.7147 49.5987 26.9948 49.4583C25.275 49.3179 23.6561 48.5891 22.4106 47.3947C22.8404 48.4244 23.4943 49.3453 24.3248 50.0904C25.1553 50.8354 26.1415 51.386 27.2116 51.7019C28.2817 52.0178 29.4088 52.0911 30.5108 51.9166C31.6128 51.742 32.662 51.324 33.5821 50.6928C34.5021 50.0617 35.2699 49.2333 35.8295 48.2681C36.3891 47.3028 36.7265 46.2249 36.817 45.1128C36.9075 44.0008 36.7489 42.8825 36.3528 41.8394C35.9567 40.7964 35.333 39.8548 34.5271 39.0831V39.077Z" fill="#714343"/>
</g>
<g opacity="0.7">
<g style="mix-blend-mode:screen">
<path d="M26.2771 48.0693C26.4898 47.5099 25.928 46.7772 25.0222 46.4328C24.1163 46.0883 23.2096 46.2626 22.9969 46.8219C22.7842 47.3813 23.3461 48.114 24.2519 48.4584C25.1577 48.8029 26.0644 48.6287 26.2771 48.0693Z" fill="#B43B3B"/>
</g>
<g style="mix-blend-mode:screen">
<path d="M27.9887 49.1864C27.9086 49.3895 27.57 49.4572 27.2314 49.328C26.8927 49.1987 26.6773 48.9278 26.7573 48.7123C26.8374 48.4968 27.176 48.4352 27.5146 48.5645C27.8532 48.6938 28.0687 48.977 27.9887 49.1864Z" fill="#B43B3B"/>
</g>
</g>
<path d="M42.0753 39.551C38.3813 34.681 39.7357 28.1425 40.0682 22.4968C40.9117 8.14535 28.1426 6.19981 28.1426 6.19981C28.1426 6.19981 15.5274 3.42312 11.1561 17.1158C9.43216 22.5029 8.3301 29.0845 3.15226 32.3045C1.69927 33.2095 0.350937 34.0961 0.0738826 35.9123C-0.289366 38.178 1.27447 40.0004 3.24463 40.8747C3.91836 41.1602 4.62285 41.3668 5.34407 41.4904L21.0438 44.4087L36.7497 47.3331C37.4689 47.4768 38.2025 47.5346 38.9354 47.5055C41.0902 47.3947 43.202 46.2742 43.6761 44.0146C44.0393 42.223 43.0973 40.9116 42.0753 39.551Z" fill="#FFC12E"/>
<g style="mix-blend-mode:multiply" opacity="0.5">
<path d="M8.23162 26.0308C7.48131 27.8097 6.40133 29.4308 5.04858 30.8084L40.8378 37.47C40.0732 35.6983 39.6552 33.7964 39.6065 31.8674L8.23162 26.0308Z" fill="#FCD329"/>
</g>
<path d="M5.4057 30.4451L40.6347 37.0021C39.9541 35.2221 39.5936 33.3358 39.5696 31.4302L8.39788 25.6306C7.69579 27.4011 6.68242 29.0317 5.4057 30.4451Z" fill="#FFF566"/>
<g style="mix-blend-mode:screen" opacity="0.2">
<path d="M39.6003 32.0828C39.6003 31.8674 39.6003 31.6519 39.5695 31.4302L8.39783 25.6306C8.31779 25.8276 8.22542 26.0307 8.13922 26.2462L39.6003 32.0828Z" fill="#F7A231"/>
</g>
<g style="mix-blend-mode:multiply" opacity="0.5">
<path d="M31.3626 46.108C30.9442 46.1943 30.5126 46.1943 30.0943 46.108L36.1033 47.2285C36.7941 47.3658 37.4992 47.4175 38.2027 47.3824C40.2775 47.2593 42.3154 46.1141 42.7895 43.8669C43.1712 42.063 42.2785 40.7578 41.2996 39.4033C37.7964 34.5702 39.1324 28.0317 39.4895 22.386C40.3453 8.98887 29.6879 6.49538 28.2965 6.22449H28.2288C29.0599 6.38456 35.4322 8.07151 33.9484 21.3701C33.3327 26.9605 32.0337 33.5051 33.8314 38.0303C34.5005 39.3615 34.7167 40.8747 34.4471 42.34C33.9792 44.5626 32.6309 45.8432 31.3626 46.108Z" fill="#FCD329"/>
</g>
<g style="mix-blend-mode:screen" opacity="0.3">
<g style="mix-blend-mode:screen">
<path d="M9.9063 37.7471C10.1726 36.2974 10.8851 34.9672 11.9442 33.9422C15.1211 30.3466 16.2539 23.7774 17.6884 18.3286C21.0377 5.36249 27.2868 6.04589 28.0626 6.18134C27.1083 5.99664 17.5961 4.5498 13.7604 17.6021C12.1658 23.0139 11.0391 29.5894 6.65551 32.9571C5.42416 33.8991 4.28515 34.8041 3.98962 36.6512C3.817 37.6142 3.96428 38.6074 4.40895 39.4789C4.85362 40.3505 5.57125 41.0526 6.45232 41.4781C6.99423 41.747 7.57318 41.9337 8.17008 42.0322L12.4306 42.8264C12.029 42.7558 11.6458 42.605 11.3039 42.3831C10.251 41.6751 9.51842 40.0066 9.9063 37.7471Z" fill="#FCD329"/>
</g>
</g>
<g style="mix-blend-mode:multiply" opacity="0.5">
<path d="M0.480286 38.449C1.10376 39.5377 2.0689 40.3903 3.22618 40.8747C3.89991 41.1602 4.60443 41.3668 5.32565 41.4904L21.0254 44.4087L36.7313 47.3332C37.4504 47.4768 38.1841 47.5347 38.9169 47.5056C40.1687 47.4672 41.3733 47.0195 42.3463 46.2311L0.480286 38.449Z" fill="#FCD329"/>
</g>
<g opacity="0.8">
<g style="mix-blend-mode:screen" opacity="0.7">
<g style="mix-blend-mode:screen">
<path d="M16.4817 36.4726C16.4447 37.0144 13.1447 37.2114 9.1859 36.4726C5.2271 35.7338 2.21644 34.3732 2.37652 33.8498C2.5366 33.3265 5.70734 33.8129 9.54916 34.5209C13.391 35.229 16.5248 35.9185 16.4817 36.4726Z" fill="#FCD329"/>
</g>
</g>
<g style="mix-blend-mode:screen" opacity="0.7">
<g style="mix-blend-mode:screen">
<path d="M23.8267 37.8271C23.8267 38.3689 22.5953 38.8553 21.0315 38.5659C19.4676 38.2765 18.4703 37.3653 18.6857 36.8666C18.9012 36.3679 20.0833 36.3741 21.3947 36.6142C22.7061 36.8543 23.8082 37.273 23.8267 37.8271Z" fill="#FCD329"/>
</g>
</g>
</g>
<g style="mix-blend-mode:screen" opacity="0.7">
<g style="mix-blend-mode:screen">
<path d="M21.5487 8.93343C21.8873 9.98008 19.7017 11.4269 17.5961 13.471C15.4905 15.515 14.0744 17.83 13.4464 17.6883C12.8184 17.5467 12.8861 14.2529 15.3673 11.2669C17.8485 8.28082 21.2716 7.88678 21.5487 8.93343Z" fill="#FCD329"/>
</g>
</g>
<g style="mix-blend-mode:screen" opacity="0.7">
<path d="M25.7986 8.57424C25.8975 8.04271 25.1647 7.46055 24.1619 7.27395C23.159 7.08736 22.2658 7.36699 22.1669 7.89851C22.068 8.43004 22.8008 9.01217 23.8037 9.19876C24.8066 9.38536 25.6997 9.10576 25.7986 8.57424Z" fill="#FCD329"/>
</g>
<path d="M10.5096 11.6424C10.3638 11.643 10.2209 11.6024 10.0971 11.5254C10.0055 11.4715 9.9255 11.4 9.86165 11.315C9.7978 11.23 9.75137 11.1332 9.72505 11.0302C9.69873 10.9272 9.69305 10.8201 9.70829 10.7149C9.72354 10.6097 9.75942 10.5085 9.81389 10.4172C11.4414 7.6785 13.8787 5.51227 16.7895 4.21736C16.9841 4.1421 17.2002 4.14458 17.3931 4.2243C17.5859 4.30401 17.7407 4.45485 17.8254 4.64557C17.9101 4.83629 17.9181 5.05228 17.8479 5.24878C17.7777 5.44529 17.6346 5.60726 17.4483 5.70115C14.8442 6.8579 12.663 8.79387 11.2053 11.2422C11.1349 11.3643 11.0334 11.4656 10.9112 11.5358C10.7891 11.6061 10.6505 11.6429 10.5096 11.6424Z" fill="#C02A2A"/>
<path d="M6.35379 10.3064C6.25741 10.3058 6.16251 10.2826 6.07673 10.2387C5.9344 10.1638 5.82701 10.0362 5.77754 9.88317C5.72806 9.73015 5.74043 9.56385 5.812 9.41982C8.04829 5.03238 11.8861 1.6729 16.5309 0.0369145C16.6739 0.0132967 16.8207 0.0409008 16.9454 0.114865C17.0701 0.18883 17.1646 0.30441 17.2125 0.441253C17.2603 0.578095 17.2583 0.727422 17.2068 0.862938C17.1554 0.998453 17.0577 1.11147 16.9311 1.18207C12.5824 2.71751 8.98972 5.86495 6.89559 9.97393C6.84407 10.0734 6.76638 10.1569 6.67091 10.2155C6.57544 10.2741 6.4658 10.3055 6.35379 10.3064Z" fill="#C02A2A"/>
<path d="M43.5899 17.5652C43.7286 17.6057 43.876 17.6057 44.0147 17.5652C44.2208 17.5166 44.4 17.3901 44.5148 17.2121C44.6296 17.0342 44.671 16.8187 44.6304 16.6109C43.9906 13.4882 42.3989 10.6404 40.0744 8.45935C39.914 8.33195 39.7115 8.26978 39.5072 8.28529C39.303 8.30081 39.1122 8.39285 38.9729 8.54301C38.8337 8.69317 38.7562 8.89038 38.7561 9.09518C38.756 9.29999 38.8332 9.49728 38.9723 9.64761C41.0505 11.5952 42.4726 14.1403 43.0419 16.9311C43.0657 17.0771 43.1295 17.2136 43.2263 17.3256C43.323 17.4375 43.4488 17.5205 43.5899 17.5652Z" fill="#C02A2A"/>
<path d="M47.9488 17.6699C48.0395 17.7021 48.1366 17.7127 48.2321 17.7006C48.3914 17.6763 48.5348 17.5904 48.6315 17.4615C48.7281 17.3325 48.7704 17.1708 48.7492 17.0111C48.0836 12.1338 45.5658 7.70011 41.7182 4.62983C41.6583 4.56443 41.585 4.51275 41.5032 4.47833C41.4215 4.4439 41.3333 4.42754 41.2446 4.43037C41.156 4.43319 41.069 4.45513 40.9896 4.4947C40.9102 4.53427 40.8403 4.59052 40.7847 4.6596C40.7291 4.72868 40.689 4.80897 40.6673 4.89496C40.6456 4.98095 40.6427 5.07063 40.6589 5.15784C40.675 5.24505 40.7098 5.32775 40.7609 5.40026C40.8119 5.47277 40.8781 5.53339 40.9548 5.57798C44.5602 8.45461 46.9212 12.6078 47.5486 17.1773C47.5643 17.288 47.6099 17.3923 47.6804 17.4791C47.7509 17.5659 47.8437 17.6318 47.9488 17.6699Z" fill="#C02A2A"/>
</g>
<defs>
<clipPath id="clip0_51_234">
<rect width="48.7554" height="52" fill="white"/>
</clipPath>
</defs>
</svg>
