<?xml version="1.0" encoding="utf-8"?>
<!-- Generator: Adobe Illustrator 17.0.0, SVG Export Plug-In . SVG Version: 6.00 Build 0)  -->
<!DOCTYPE svg PUBLIC "-//W3C//DTD SVG 1.1//EN" "http://www.w3.org/Graphics/SVG/1.1/DTD/svg11.dtd">
<svg version="1.1" id="Layer_1" xmlns="http://www.w3.org/2000/svg" xmlns:xlink="http://www.w3.org/1999/xlink" x="0px" y="0px"
	 width="100px" height="100px" viewBox="0 0 100 100" enable-background="new 0 0 100 100" xml:space="preserve">
<path fill="#CCCCCC" d="M37.551,23.446h56.981c2.686,0,4.864,2.178,4.864,4.864l0,0c0,2.686-2.178,4.864-4.864,4.864H37.551
	c-2.686,0-4.864-2.178-4.864-4.864l0,0C32.687,25.624,34.865,23.446,37.551,23.446z"/>
<path fill="#CCCCCC" d="M73.686,45.683h20.847c2.686,0,4.864,2.178,4.864,4.864l0,0c0,2.686-2.178,4.864-4.864,4.864H73.686
	c-2.686,0-4.864-2.178-4.864-4.864l0,0C68.821,47.861,70.999,45.683,73.686,45.683z"/>
<path fill="#CCCCCC" d="M52.839,67.919h41.694c2.686,0,4.864,2.178,4.864,4.864l0,0c0,2.686-2.178,4.864-4.864,4.864H52.839
	c-2.686,0-4.864-2.178-4.864-4.864l0,0C47.975,70.097,50.152,67.919,52.839,67.919z"/>
<path fill="#F8DA29" d="M5.586,23.446h22.237c2.686,0,4.864,2.178,4.864,4.864l0,0c0,2.686-2.178,4.864-4.864,4.864H5.586
	c-2.686,0-4.864-2.178-4.864-4.864l0,0C0.722,25.624,2.899,23.446,5.586,23.446z"/>
<path fill="#F8DA29" d="M5.586,45.683h58.371c2.686,0,4.864,2.178,4.864,4.864l0,0c0,2.686-2.178,4.864-4.864,4.864H5.586
	c-2.686,0-4.864-2.178-4.864-4.864l0,0C0.722,47.861,2.899,45.683,5.586,45.683z"/>
<path fill="#F8DA29" d="M5.586,67.919H44.5c2.686,0,4.864,2.178,4.864,4.864l0,0c0,2.686-2.178,4.864-4.864,4.864H5.586
	c-2.686,0-4.864-2.178-4.864-4.864l0,0C0.722,70.097,2.899,67.919,5.586,67.919z"/>
<circle fill="#BE1A2D" cx="31.93" cy="27.971" r="7.304"/>
<circle fill="#BE1A2D" cx="67.787" cy="50.208" r="7.304"/>
<circle fill="#BE1A2D" cx="48.329" cy="72.444" r="7.304"/>
</svg>
