<svg width="94" height="55" viewBox="0 0 94 55" fill="none" xmlns="http://www.w3.org/2000/svg">
<g clip-path="url(#clip0_51_156)">
<path d="M80.3598 0H22.499C21.0893 0 19.9465 1.14278 19.9465 2.55247V49.2426C19.9465 50.6523 21.0893 51.7951 22.499 51.7951H80.3598C81.7695 51.7951 82.9123 50.6523 82.9123 49.2426V2.55247C82.9123 1.14278 81.7695 0 80.3598 0Z" fill="#744C29"/>
<path d="M19.9394 2.55962V49.2569C19.9394 49.5918 20.0054 49.9233 20.1338 50.2326C20.2622 50.5419 20.4503 50.8228 20.6874 51.0593C20.9245 51.2957 21.206 51.483 21.5156 51.6105C21.8252 51.738 22.157 51.8032 22.4918 51.8022H51.4222V-2.04083e-05H22.499C22.1623 -0.00192254 21.8286 0.0629856 21.5172 0.190946C21.2058 0.318906 20.9229 0.507376 20.6848 0.745441C20.4468 0.983505 20.2583 1.26643 20.1303 1.57784C20.0024 1.88925 19.9375 2.22295 19.9394 2.55962Z" fill="#8A5D3B"/>
<path d="M43.7218 4.88267H39.4701C39.4065 4.87461 39.3419 4.88018 39.2806 4.89902C39.2193 4.91785 39.1628 4.94951 39.1147 4.9919C39.0666 5.03429 39.028 5.08643 39.0016 5.14487C38.9752 5.2033 38.9616 5.26668 38.9616 5.33079C38.9616 5.3949 38.9752 5.45828 39.0016 5.51671C39.028 5.57514 39.0666 5.62729 39.1147 5.66968C39.1628 5.71207 39.2193 5.74373 39.2806 5.76256C39.3419 5.7814 39.4065 5.78697 39.4701 5.77891H43.7218C43.7854 5.78697 43.85 5.7814 43.9113 5.76256C43.9726 5.74373 44.0292 5.71207 44.0773 5.66968C44.1254 5.62729 44.1639 5.57514 44.1903 5.51671C44.2167 5.45828 44.2303 5.3949 44.2303 5.33079C44.2303 5.26668 44.2167 5.2033 44.1903 5.14487C44.1639 5.08643 44.1254 5.03429 44.0773 4.9919C44.0292 4.94951 43.9726 4.91785 43.9113 4.89902C43.85 4.88018 43.7854 4.87461 43.7218 4.88267V4.88267Z" fill="#F0F1F1"/>
<path d="M50.5619 46.009H46.303C46.2394 46.001 46.1748 46.0065 46.1135 46.0254C46.0522 46.0442 45.9957 46.0759 45.9475 46.1182C45.8994 46.1606 45.8609 46.2128 45.8345 46.2712C45.8081 46.3296 45.7945 46.393 45.7945 46.4571C45.7945 46.5212 45.8081 46.5846 45.8345 46.6431C45.8609 46.7015 45.8994 46.7536 45.9475 46.796C45.9957 46.8384 46.0522 46.8701 46.1135 46.8889C46.1748 46.9077 46.2394 46.9133 46.303 46.9052H50.5619C50.6255 46.9133 50.6901 46.9077 50.7514 46.8889C50.8127 46.8701 50.8692 46.8384 50.9173 46.796C50.9654 46.7536 51.004 46.7015 51.0303 46.6431C51.0567 46.5846 51.0704 46.5212 51.0704 46.4571C51.0704 46.393 51.0567 46.3296 51.0303 46.2712C51.004 46.2128 50.9654 46.1606 50.9173 46.1182C50.8692 46.0759 50.8127 46.0442 50.7514 46.0254C50.6901 46.0065 50.6255 46.001 50.5619 46.009V46.009Z" fill="#F0F1F1"/>
<path d="M50.8199 4.88267H46.561C46.4974 4.87461 46.4328 4.88018 46.3716 4.89902C46.3103 4.91785 46.2537 4.94951 46.2056 4.9919C46.1575 5.03429 46.119 5.08643 46.0926 5.14487C46.0662 5.2033 46.0526 5.26668 46.0526 5.33079C46.0526 5.3949 46.0662 5.45828 46.0926 5.51671C46.119 5.57514 46.1575 5.62729 46.2056 5.66968C46.2537 5.71207 46.3103 5.74373 46.3716 5.76256C46.4328 5.7814 46.4974 5.78697 46.561 5.77891H50.8199C50.8836 5.78697 50.9481 5.7814 51.0094 5.76256C51.0707 5.74373 51.1273 5.71207 51.1754 5.66968C51.2235 5.62729 51.262 5.57514 51.2884 5.51671C51.3148 5.45828 51.3284 5.3949 51.3284 5.33079C51.3284 5.26668 51.3148 5.2033 51.2884 5.14487C51.262 5.08643 51.2235 5.03429 51.1754 4.9919C51.1273 4.94951 51.0707 4.91785 51.0094 4.89902C50.9481 4.88018 50.8836 4.87461 50.8199 4.88267V4.88267Z" fill="#F0F1F1"/>
<path d="M57.6528 46.009H53.3939C53.3303 46.001 53.2657 46.0065 53.2044 46.0254C53.1432 46.0442 53.0866 46.0759 53.0385 46.1182C52.9904 46.1606 52.9519 46.2128 52.9255 46.2712C52.8991 46.3296 52.8854 46.393 52.8854 46.4571C52.8854 46.5212 52.8991 46.5846 52.9255 46.6431C52.9519 46.7015 52.9904 46.7536 53.0385 46.796C53.0866 46.8384 53.1432 46.8701 53.2044 46.8889C53.2657 46.9077 53.3303 46.9133 53.3939 46.9052H57.6528C57.7164 46.9133 57.781 46.9077 57.8423 46.8889C57.9036 46.8701 57.9602 46.8384 58.0083 46.796C58.0564 46.7536 58.0949 46.7015 58.1213 46.6431C58.1477 46.5846 58.1613 46.5212 58.1613 46.4571C58.1613 46.393 58.1477 46.3296 58.1213 46.2712C58.0949 46.2128 58.0564 46.1606 58.0083 46.1182C57.9602 46.0759 57.9036 46.0442 57.8423 46.0254C57.781 46.0065 57.7164 46.001 57.6528 46.009V46.009Z" fill="#F0F1F1"/>
<path d="M29.2602 46.009H25.0013C24.8815 46.009 24.7666 46.0566 24.6819 46.1413C24.5972 46.226 24.5496 46.3409 24.5496 46.4607C24.5496 46.5805 24.5972 46.6954 24.6819 46.7801C24.7666 46.8648 24.8815 46.9124 25.0013 46.9124H29.3032C29.3668 46.9204 29.4314 46.9149 29.4927 46.896C29.554 46.8772 29.6106 46.8455 29.6587 46.8031C29.7068 46.7608 29.7453 46.7086 29.7717 46.6502C29.7981 46.5918 29.8117 46.5284 29.8117 46.4643C29.8117 46.4001 29.7981 46.3368 29.7717 46.2783C29.7453 46.2199 29.7068 46.1678 29.6587 46.1254C29.6106 46.083 29.554 46.0513 29.4927 46.0325C29.4314 46.0137 29.3668 46.0081 29.3032 46.0161L29.2602 46.009Z" fill="#F0F1F1"/>
<path d="M43.4637 46.009H39.212C39.1484 46.001 39.0838 46.0065 39.0225 46.0254C38.9612 46.0442 38.9046 46.0759 38.8565 46.1182C38.8084 46.1606 38.7699 46.2128 38.7435 46.2712C38.7171 46.3296 38.7035 46.393 38.7035 46.4571C38.7035 46.5212 38.7171 46.5846 38.7435 46.6431C38.7699 46.7015 38.8084 46.7536 38.8565 46.796C38.9046 46.8384 38.9612 46.8701 39.0225 46.8889C39.0838 46.9077 39.1484 46.9133 39.212 46.9052H43.4637C43.5273 46.9133 43.5919 46.9077 43.6532 46.8889C43.7145 46.8701 43.771 46.8384 43.8191 46.796C43.8673 46.7536 43.9058 46.7015 43.9322 46.6431C43.9586 46.5846 43.9722 46.5212 43.9722 46.4571C43.9722 46.393 43.9586 46.3296 43.9322 46.2712C43.9058 46.2128 43.8673 46.1606 43.8191 46.1182C43.771 46.0759 43.7145 46.0442 43.6532 46.0254C43.5919 46.0065 43.5273 46.001 43.4637 46.009V46.009Z" fill="#F0F1F1"/>
<path d="M57.9396 4.88267H53.6377C53.5741 4.87461 53.5095 4.88018 53.4482 4.89902C53.3869 4.91785 53.3304 4.94951 53.2823 4.9919C53.2342 5.03429 53.1956 5.08643 53.1693 5.14487C53.1429 5.2033 53.1292 5.26668 53.1292 5.33079C53.1292 5.3949 53.1429 5.45828 53.1693 5.51671C53.1956 5.57514 53.2342 5.62729 53.2823 5.66968C53.3304 5.71207 53.3869 5.74373 53.4482 5.76256C53.5095 5.7814 53.5741 5.78697 53.6377 5.77891H57.9396C58.0032 5.78697 58.0678 5.7814 58.1291 5.76256C58.1904 5.74373 58.247 5.71207 58.2951 5.66968C58.3432 5.62729 58.3817 5.57514 58.4081 5.51671C58.4345 5.45828 58.4481 5.3949 58.4481 5.33079C58.4481 5.26668 58.4345 5.2033 58.4081 5.14487C58.3817 5.08643 58.3432 5.03429 58.2951 4.9919C58.247 4.94951 58.1904 4.91785 58.1291 4.89902C58.0678 4.88018 58.0032 4.87461 57.9396 4.88267V4.88267Z" fill="#F0F1F1"/>
<path d="M29.5399 4.88267H25.281C25.2174 4.87461 25.1528 4.88018 25.0915 4.89902C25.0302 4.91785 24.9736 4.94951 24.9255 4.9919C24.8774 5.03429 24.8389 5.08643 24.8125 5.14487C24.7861 5.2033 24.7725 5.26668 24.7725 5.33079C24.7725 5.3949 24.7861 5.45828 24.8125 5.51671C24.8389 5.57514 24.8774 5.62729 24.9255 5.66968C24.9736 5.71207 25.0302 5.74373 25.0915 5.76256C25.1528 5.7814 25.2174 5.78697 25.281 5.77891H29.5399C29.6035 5.78697 29.6681 5.7814 29.7293 5.76256C29.7906 5.74373 29.8472 5.71207 29.8953 5.66968C29.9434 5.62729 29.9819 5.57514 30.0083 5.51671C30.0347 5.45828 30.0484 5.3949 30.0484 5.33079C30.0484 5.26668 30.0347 5.2033 30.0083 5.14487C29.9819 5.08643 29.9434 5.03429 29.8953 4.9919C29.8472 4.94951 29.7906 4.91785 29.7293 4.89902C29.6681 4.88018 29.6035 4.87461 29.5399 4.88267V4.88267Z" fill="#F0F1F1"/>
<path d="M36.6308 4.88267H32.3791C32.3155 4.87461 32.2509 4.88018 32.1896 4.89902C32.1283 4.91785 32.0718 4.94951 32.0237 4.9919C31.9756 5.03429 31.937 5.08643 31.9106 5.14487C31.8843 5.2033 31.8706 5.26668 31.8706 5.33079C31.8706 5.3949 31.8843 5.45828 31.9106 5.51671C31.937 5.57514 31.9756 5.62729 32.0237 5.66968C32.0718 5.71207 32.1283 5.74373 32.1896 5.76256C32.2509 5.7814 32.3155 5.78697 32.3791 5.77891H36.6308C36.6944 5.78697 36.759 5.7814 36.8203 5.76256C36.8816 5.74373 36.9382 5.71207 36.9863 5.66968C37.0344 5.62729 37.0729 5.57514 37.0993 5.51671C37.1257 5.45828 37.1393 5.3949 37.1393 5.33079C37.1393 5.26668 37.1257 5.2033 37.0993 5.14487C37.0729 5.08643 37.0344 5.03429 36.9863 4.9919C36.9382 4.94951 36.8816 4.91785 36.8203 4.89902C36.759 4.88018 36.6944 4.87461 36.6308 4.88267V4.88267Z" fill="#F0F1F1"/>
<path d="M36.3727 46.009H32.1281C32.0645 46.001 31.9999 46.0065 31.9386 46.0254C31.8774 46.0442 31.8208 46.0759 31.7727 46.1182C31.7246 46.1606 31.6861 46.2128 31.6597 46.2712C31.6333 46.3296 31.6196 46.393 31.6196 46.4571C31.6196 46.5212 31.6333 46.5846 31.6597 46.6431C31.6861 46.7015 31.7246 46.7536 31.7727 46.796C31.8208 46.8384 31.8774 46.8701 31.9386 46.8889C31.9999 46.9077 32.0645 46.9133 32.1281 46.9052H36.387C36.4506 46.9133 36.5152 46.9077 36.5765 46.8889C36.6378 46.8701 36.6944 46.8384 36.7425 46.796C36.7906 46.7536 36.8291 46.7015 36.8555 46.6431C36.8819 46.5846 36.8955 46.5212 36.8955 46.4571C36.8955 46.393 36.8819 46.3296 36.8555 46.2712C36.8291 46.2128 36.7906 46.1606 36.7425 46.1182C36.6944 46.0759 36.6378 46.0442 36.5765 46.0254C36.5152 46.0065 36.4506 46.001 36.387 46.009H36.3727Z" fill="#F0F1F1"/>
<path d="M77.75 37.1399C77.6897 37.1389 77.6299 37.1499 77.5738 37.1721C77.5178 37.1942 77.4667 37.2273 77.4234 37.2692C77.3801 37.3111 77.3455 37.3612 77.3216 37.4165C77.2977 37.4718 77.2849 37.5313 77.2839 37.5916V41.6784C77.2849 41.7387 77.2977 41.7982 77.3216 41.8535C77.3455 41.9088 77.3801 41.9589 77.4234 42.0008C77.4667 42.0427 77.5178 42.0758 77.5738 42.0979C77.6299 42.1201 77.6897 42.1311 77.75 42.1301C77.8724 42.1321 77.9906 42.0858 78.0792 42.0012C78.1677 41.9167 78.2194 41.8008 78.2232 41.6784V37.5916C78.2194 37.4692 78.1677 37.3533 78.0792 37.2688C77.9906 37.1842 77.8724 37.1379 77.75 37.1399V37.1399Z" fill="#F0F1F1"/>
<path d="M77.75 23.5099C77.6897 23.509 77.6299 23.5199 77.5738 23.5421C77.5178 23.5643 77.4667 23.5973 77.4234 23.6393C77.3801 23.6812 77.3455 23.7313 77.3216 23.7866C77.2977 23.8419 77.2849 23.9014 77.2839 23.9616V28.0485C77.2849 28.1087 77.2977 28.1682 77.3216 28.2235C77.3455 28.2788 77.3801 28.3289 77.4234 28.3709C77.4667 28.4128 77.5178 28.4458 77.5738 28.468C77.6299 28.4902 77.6897 28.5011 77.75 28.5002C77.8724 28.5021 77.9906 28.4558 78.0792 28.3713C78.1677 28.2868 78.2194 28.1708 78.2232 28.0485V23.9616C78.2194 23.8393 78.1677 23.7233 78.0792 23.6388C77.9906 23.5543 77.8724 23.508 77.75 23.5099Z" fill="#F0F1F1"/>
<path d="M64.7439 46.009H60.4921C60.4285 46.001 60.3639 46.0065 60.3027 46.0254C60.2414 46.0442 60.1848 46.0759 60.1367 46.1182C60.0886 46.1606 60.0501 46.2128 60.0237 46.2712C59.9973 46.3296 59.9836 46.393 59.9836 46.4571C59.9836 46.5212 59.9973 46.5846 60.0237 46.6431C60.0501 46.7015 60.0886 46.7536 60.1367 46.796C60.1848 46.8384 60.2414 46.8701 60.3027 46.8889C60.3639 46.9077 60.4285 46.9133 60.4921 46.9052H64.7439C64.8075 46.9133 64.8721 46.9077 64.9333 46.8889C64.9946 46.8701 65.0512 46.8384 65.0993 46.796C65.1474 46.7536 65.1859 46.7015 65.2123 46.6431C65.2387 46.5846 65.2524 46.5212 65.2524 46.4571C65.2524 46.393 65.2387 46.3296 65.2123 46.2712C65.1859 46.2128 65.1474 46.1606 65.0993 46.1182C65.0512 46.0759 64.9946 46.0442 64.9333 46.0254C64.8721 46.0065 64.8075 46.001 64.7439 46.009V46.009Z" fill="#F0F1F1"/>
<path d="M77.75 30.3285C77.6295 30.3266 77.5131 30.3721 77.4259 30.4553C77.3387 30.5384 77.2877 30.6526 77.2839 30.773V34.867C77.2849 34.9273 77.2977 34.9868 77.3216 35.0421C77.3455 35.0974 77.3801 35.1475 77.4234 35.1894C77.4667 35.2313 77.5178 35.2644 77.5738 35.2865C77.6299 35.3087 77.6897 35.3197 77.75 35.3187C77.8724 35.3207 77.9906 35.2744 78.0792 35.1898C78.1677 35.1053 78.2194 34.9894 78.2232 34.867V30.773C78.2176 30.6519 78.1651 30.5378 78.0767 30.4548C77.9884 30.3718 77.8712 30.3265 77.75 30.3285Z" fill="#F0F1F1"/>
<path d="M77.75 9.88006C77.6897 9.87911 77.6299 9.89005 77.5738 9.91223C77.5178 9.93442 77.4667 9.96743 77.4234 10.0094C77.3801 10.0513 77.3455 10.1014 77.3216 10.1567C77.2977 10.212 77.2849 10.2715 77.2839 10.3318V14.4186C77.2849 14.4788 77.2977 14.5383 77.3216 14.5937C77.3455 14.649 77.3801 14.699 77.4234 14.741C77.4667 14.7829 77.5178 14.8159 77.5738 14.8381C77.6299 14.8603 77.6897 14.8712 77.75 14.8703C77.8724 14.8722 77.9906 14.8259 78.0792 14.7414C78.1677 14.6569 78.2194 14.5409 78.2232 14.4186V10.3318C78.2194 10.2094 78.1677 10.0935 78.0792 10.0089C77.9906 9.92441 77.8724 9.87812 77.75 9.88006V9.88006Z" fill="#F0F1F1"/>
<path d="M75.5273 4.88267H74.9322C74.8686 4.87461 74.804 4.88018 74.7427 4.89902C74.6814 4.91785 74.6249 4.94951 74.5768 4.9919C74.5287 5.03429 74.4901 5.08643 74.4637 5.14487C74.4374 5.2033 74.4237 5.26668 74.4237 5.33079C74.4237 5.3949 74.4374 5.45828 74.4637 5.51671C74.4901 5.57514 74.5287 5.62729 74.5768 5.66968C74.6249 5.71207 74.6814 5.74373 74.7427 5.76256C74.804 5.7814 74.8686 5.78697 74.9322 5.77891H75.5273C75.9689 5.75736 76.4011 5.91097 76.73 6.20634C77.0589 6.5017 77.258 6.91495 77.2839 7.35627V7.57854C77.2848 7.6388 77.2976 7.69829 77.3216 7.75361C77.3455 7.80892 77.3801 7.85898 77.4234 7.90093C77.4666 7.94287 77.5178 7.97588 77.5738 7.99807C77.6298 8.02026 77.6897 8.03119 77.75 8.03024C77.8724 8.03218 77.9906 7.98589 78.0791 7.90137C78.1677 7.81685 78.2194 7.70089 78.2232 7.57854V7.33477C78.186 6.65384 77.8824 6.01488 77.378 5.55602C76.8735 5.09717 76.2087 4.85529 75.5273 4.88267V4.88267Z" fill="#F0F1F1"/>
<path d="M77.75 16.6986C77.6295 16.6967 77.5131 16.7422 77.4259 16.8254C77.3387 16.9086 77.2877 17.0227 77.2839 17.1431V21.2371C77.2877 21.3576 77.3387 21.4717 77.4259 21.5549C77.5131 21.6381 77.6295 21.6836 77.75 21.6817C77.8712 21.6837 77.9884 21.6384 78.0767 21.5554C78.1651 21.4724 78.2176 21.3582 78.2232 21.2371V17.1431C78.2176 17.0221 78.1651 16.9079 78.0767 16.8249C77.9884 16.7419 77.8712 16.6966 77.75 16.6986V16.6986Z" fill="#F0F1F1"/>
<path d="M71.842 46.009H67.5831C67.5195 46.001 67.4549 46.0065 67.3936 46.0254C67.3323 46.0442 67.2757 46.0759 67.2276 46.1182C67.1795 46.1606 67.141 46.2128 67.1146 46.2712C67.0882 46.3296 67.0746 46.393 67.0746 46.4571C67.0746 46.5212 67.0882 46.5846 67.1146 46.6431C67.141 46.7015 67.1795 46.7536 67.2276 46.796C67.2757 46.8384 67.3323 46.8701 67.3936 46.8889C67.4549 46.9077 67.5195 46.9133 67.5831 46.9052H71.842C71.9056 46.9133 71.9702 46.9077 72.0315 46.8889C72.0928 46.8701 72.1493 46.8384 72.1974 46.796C72.2455 46.7536 72.284 46.7015 72.3104 46.6431C72.3368 46.5846 72.3505 46.5212 72.3505 46.4571C72.3505 46.393 72.3368 46.3296 72.3104 46.2712C72.284 46.2128 72.2455 46.1606 72.1974 46.1182C72.1493 46.0759 72.0928 46.0442 72.0315 46.0254C71.9702 46.0065 71.9056 46.001 71.842 46.009V46.009Z" fill="#F0F1F1"/>
<path d="M65.0019 4.88267H60.7502C60.6866 4.87461 60.622 4.88018 60.5607 4.89902C60.4994 4.91785 60.4429 4.94951 60.3948 4.9919C60.3467 5.03429 60.3081 5.08643 60.2817 5.14487C60.2554 5.2033 60.2417 5.26668 60.2417 5.33079C60.2417 5.3949 60.2554 5.45828 60.2817 5.51671C60.3081 5.57514 60.3467 5.62729 60.3948 5.66968C60.4429 5.71207 60.4994 5.74373 60.5607 5.76256C60.622 5.7814 60.6866 5.78697 60.7502 5.77891H65.0019C65.0655 5.78697 65.1301 5.7814 65.1914 5.76256C65.2527 5.74373 65.3093 5.71207 65.3574 5.66968C65.4055 5.62729 65.444 5.57514 65.4704 5.51671C65.4968 5.45828 65.5104 5.3949 65.5104 5.33079C65.5104 5.26668 65.4968 5.2033 65.4704 5.14487C65.444 5.08643 65.4055 5.03429 65.3574 4.9919C65.3093 4.94951 65.2527 4.91785 65.1914 4.89902C65.1301 4.88018 65.0655 4.87461 65.0019 4.88267V4.88267Z" fill="#F0F1F1"/>
<path d="M77.75 43.9727C77.6276 43.9727 77.5101 44.0208 77.4229 44.1067C77.3357 44.1926 77.2858 44.3093 77.2839 44.4316C77.258 44.8729 77.0589 45.2862 76.73 45.5816C76.4011 45.8769 75.9689 46.0305 75.5273 46.009H74.6741C74.6105 46.0009 74.5459 46.0065 74.4846 46.0253C74.4233 46.0442 74.3667 46.0758 74.3186 46.1182C74.2705 46.1606 74.232 46.2127 74.2056 46.2712C74.1792 46.3296 74.1656 46.393 74.1656 46.4571C74.1656 46.5212 74.1792 46.5846 74.2056 46.643C74.232 46.7015 74.2705 46.7536 74.3186 46.796C74.3667 46.8384 74.4233 46.87 74.4846 46.8889C74.5459 46.9077 74.6105 46.9133 74.6741 46.9052H75.5273C76.2122 46.9325 76.8801 46.6876 77.3852 46.2242C77.8903 45.7608 78.1915 45.1164 78.2232 44.4316V44.4316C78.2242 44.3698 78.2126 44.3085 78.189 44.2514C78.1654 44.1943 78.1303 44.1427 78.086 44.0997C78.0416 44.0566 77.9889 44.0232 77.9311 44.0014C77.8733 43.9795 77.8117 43.9698 77.75 43.9727V43.9727Z" fill="#F0F1F1"/>
<path d="M72.0929 4.88267H67.8412C67.7776 4.87461 67.713 4.88018 67.6517 4.89902C67.5904 4.91785 67.5339 4.94951 67.4858 4.9919C67.4377 5.03429 67.3991 5.08643 67.3727 5.14487C67.3464 5.2033 67.3327 5.26668 67.3327 5.33079C67.3327 5.3949 67.3464 5.45828 67.3727 5.51671C67.3991 5.57514 67.4377 5.62729 67.4858 5.66968C67.5339 5.71207 67.5904 5.74373 67.6517 5.76256C67.713 5.7814 67.7776 5.78697 67.8412 5.77891H72.0929C72.1565 5.78697 72.2211 5.7814 72.2824 5.76256C72.3437 5.74373 72.4003 5.71207 72.4484 5.66968C72.4965 5.62729 72.535 5.57514 72.5614 5.51671C72.5878 5.45828 72.6014 5.3949 72.6014 5.33079C72.6014 5.26668 72.5878 5.2033 72.5614 5.14487C72.535 5.08643 72.4965 5.03429 72.4484 4.9919C72.4003 4.94951 72.3437 4.91785 72.2824 4.89902C72.2211 4.88018 72.1565 4.87461 72.0929 4.88267V4.88267Z" fill="#F0F1F1"/>
<path d="M85.4002 15.8454H59.8325C59.571 15.8445 59.312 15.8951 59.0702 15.9945C58.8284 16.0939 58.6087 16.2401 58.4235 16.4246C58.2383 16.6091 58.0914 16.8283 57.9911 17.0698C57.8908 17.3112 57.8392 17.57 57.8392 17.8315V33.9565C57.8392 34.2179 57.8908 34.4767 57.9911 34.7182C58.0914 34.9596 58.2383 35.1789 58.4235 35.3634C58.6087 35.5479 58.8284 35.694 59.0702 35.7934C59.312 35.8928 59.571 35.9435 59.8325 35.9425H85.4002C85.9269 35.9425 86.4321 35.7333 86.8045 35.3608C87.177 34.9884 87.3862 34.4832 87.3862 33.9565V17.8315C87.3862 17.3047 87.177 16.7996 86.8045 16.4271C86.4321 16.0547 85.9269 15.8454 85.4002 15.8454Z" fill="#5F3813"/>
<path d="M67.8197 22.033C67.055 22.033 66.3076 22.2598 65.6719 22.6848C65.0362 23.1097 64.5409 23.7137 64.2486 24.4203C63.9563 25.1269 63.8802 25.9043 64.0299 26.6541C64.1796 27.4039 64.5484 28.0925 65.0896 28.6327C65.6308 29.1729 66.32 29.5404 67.0702 29.6887C67.8203 29.837 68.5975 29.7594 69.3036 29.4658C70.0096 29.1722 70.6127 28.6758 71.0364 28.0393C71.4602 27.4029 71.6857 26.655 71.6842 25.8904C71.6842 25.3832 71.5842 24.881 71.3899 24.4125C71.1956 23.9441 70.9109 23.5185 70.5519 23.1602C70.193 22.8019 69.7669 22.518 69.298 22.3245C68.8292 22.1311 68.3269 22.032 67.8197 22.033V22.033Z" fill="#F0F1F1"/>
<path d="M16.1178 30.2568C13.9787 29.6235 11.6999 29.6389 9.56947 30.3009C7.43908 30.9629 5.55288 32.2418 4.14944 33.9759C2.746 35.7101 1.88836 37.8214 1.68502 40.043C1.48167 42.2646 1.94174 44.4966 3.00705 46.4567C4.07236 48.4168 5.69504 50.0169 7.66984 51.0547C9.64465 52.0924 11.8829 52.5212 14.1014 52.2868C16.3199 52.0524 18.4191 51.1653 20.1334 49.7377C21.8477 48.3101 23.1001 46.4062 23.7322 44.2667C24.1527 42.8469 24.2893 41.358 24.1342 39.8854C23.979 38.4127 23.5352 36.985 22.8281 35.684C22.1209 34.3829 21.1643 33.2339 20.013 32.3027C18.8616 31.3715 17.538 30.6763 16.1178 30.2568V30.2568Z" fill="#E8AF2E"/>
<path d="M15.5442 32.207C13.7913 31.6858 11.9231 31.6963 10.1761 32.2373C8.42915 32.7783 6.88196 33.8254 5.73039 35.2462C4.57882 36.6669 3.87465 38.3973 3.70701 40.2184C3.53937 42.0396 3.91579 43.8695 4.78864 45.4766C5.66148 47.0836 6.99151 48.3956 8.61036 49.2465C10.2292 50.0973 12.0641 50.4487 13.8827 50.2562C15.7014 50.0638 17.4221 49.336 18.8269 48.1652C20.2318 46.9943 21.2578 45.433 21.7749 43.6788C22.4649 41.3314 22.1966 38.8062 21.0289 36.6561C19.8611 34.506 17.889 32.9062 15.5442 32.207V32.207Z" fill="#F9CA35"/>
<path d="M14.5118 35.8995C13.4417 35.5007 12.27 35.4654 11.1778 35.7991C10.785 35.9311 10.4292 36.1546 10.14 36.4514C9.85073 36.7481 9.63629 37.1095 9.51441 37.5055C9.40188 37.8537 9.3673 38.2224 9.41315 38.5855C9.45899 38.9485 9.58413 39.297 9.77969 39.6063C10.3835 40.4384 11.1941 41.0983 12.1314 41.5207C12.907 41.8809 13.6304 42.3439 14.2824 42.8973C14.4154 43.0384 14.5066 43.2136 14.5459 43.4035C14.5851 43.5934 14.5708 43.7905 14.5046 43.9727C14.2274 44.9287 13.3957 45.1916 12.0095 44.7614C10.5325 44.3169 9.87768 43.5115 10.045 42.3452L7.6861 41.8361C7.43754 44.0875 8.70422 45.629 11.4861 46.4607C12.5584 46.806 13.7062 46.8433 14.7986 46.5682C15.2799 46.466 15.7238 46.2333 16.0817 45.8957C16.4395 45.558 16.6976 45.1284 16.8277 44.6539C16.9598 44.2716 17.0095 43.8658 16.9737 43.463C16.9379 43.0601 16.8172 42.6694 16.6197 42.3165C16.0568 41.4715 15.2664 40.8029 14.3397 40.3878C13.5677 40.0238 12.8349 39.5818 12.1529 39.0686C11.9943 38.9514 11.8769 38.787 11.8176 38.5989C11.7583 38.4108 11.7603 38.2087 11.8231 38.0218C12.0167 37.3765 12.7265 37.2331 13.9741 37.5987C15.2216 37.9644 15.7307 38.495 15.5801 39.2048L17.939 39.8214C18.3166 38.0098 17.1742 36.7025 14.5118 35.8995Z" fill="#C38728"/>
<path d="M14.0567 33.8352L13.4568 35.8336L15.6543 36.4932L16.2542 34.4949L14.0567 33.8352Z" fill="#C38728"/>
<path d="M10.4834 45.7433L9.88354 47.7416L12.081 48.4013L12.6809 46.403L10.4834 45.7433Z" fill="#C38728"/>
<path d="M5.07624 30.9092C5.09178 31.8163 4.84263 32.7083 4.35926 33.4761C3.61252 33.9268 2.75001 34.1486 1.87848 34.1142C2.76555 34.1112 3.63716 34.3464 4.40227 34.7953C4.86763 35.5578 5.11557 36.433 5.11926 37.3263C5.13015 36.4388 5.3644 35.5684 5.80039 34.7953C6.57298 34.3582 7.44371 34.1238 8.33135 34.1142C7.4381 34.1105 6.56286 33.8625 5.80039 33.3972C5.33534 32.65 5.08481 31.7893 5.07624 30.9092V30.9092Z" fill="white"/>
<path d="M7.22002 35.541C7.22413 35.8654 7.1345 36.1841 6.96191 36.4588C6.6961 36.6184 6.38992 36.6981 6.08002 36.6882C6.39536 36.6865 6.70521 36.7708 6.97625 36.932C7.13951 37.2021 7.22395 37.5126 7.22002 37.8282C7.22079 37.5132 7.3049 37.204 7.46381 36.932C7.73581 36.7731 8.04502 36.689 8.36004 36.6882C8.04488 36.6885 7.73541 36.6043 7.46381 36.4444C7.29924 36.1722 7.21475 35.8591 7.22002 35.541V35.541Z" fill="white"/>
<path d="M3.04004 37.0682C3.04362 37.5167 2.91926 37.9569 2.68155 38.3372C2.31241 38.5598 1.88622 38.6695 1.45551 38.6527C1.89419 38.6501 2.32538 38.7665 2.70306 38.9897C2.92624 39.3674 3.0427 39.7986 3.04004 40.2373C3.04445 39.7995 3.16043 39.3701 3.37702 38.9897C3.75745 38.7731 4.18684 38.6571 4.62458 38.6527C4.18589 38.6554 3.75471 38.5389 3.37702 38.3157C3.15249 37.9386 3.03592 37.5071 3.04004 37.0682V37.0682Z" fill="white"/>
</g>
<defs>
<clipPath id="clip0_51_156">
<rect width="93.9395" height="55" fill="white"/>
</clipPath>
</defs>
</svg>
