<?xml version="1.0" encoding="utf-8"?>
<!-- Generator: Adobe Illustrator 17.0.0, SVG Export Plug-In . SVG Version: 6.00 Build 0)  -->
<!DOCTYPE svg PUBLIC "-//W3C//DTD SVG 1.1//EN" "http://www.w3.org/Graphics/SVG/1.1/DTD/svg11.dtd">
<svg version="1.1" id="Layer_1" xmlns="http://www.w3.org/2000/svg" xmlns:xlink="http://www.w3.org/1999/xlink" x="0px" y="0px"
	 width="100px" height="100px" viewBox="0 0 100 100" enable-background="new 0 0 100 100" xml:space="preserve">
<g>
	<g>
		<path fill="#B3B3B3" d="M29.682,59.2l-13.154-1.404l-5.563-12.634L6.65,46.307c0,0,3.172,13.362,6.759,15.597
			c5.055,1.561,10.308,2.384,15.598,2.443L29.682,59.2z"/>
		<path fill="#BE1A2D" d="M32.334,67.52c3.216,0,5.823-2.607,5.823-5.824c0-3.215-2.607-5.823-5.823-5.823
			c-3.216,0-5.823,2.607-5.823,5.823C26.51,64.913,29.118,67.52,32.334,67.52z"/>
		<path fill="#192F35" d="M32.281,67.571c-0.764,0-1.521-0.151-2.226-0.446c-0.705-0.294-1.345-0.726-1.882-1.269
			c-1.096-1.107-1.712-2.602-1.715-4.16c0-0.764,0.151-1.52,0.445-2.226c0.295-0.705,0.726-1.344,1.27-1.882
			c0.537-0.544,1.177-0.974,1.882-1.269c0.705-0.295,1.462-0.446,2.226-0.446c1.558,0.003,3.052,0.619,4.159,1.715
			c0.544,0.538,0.976,1.176,1.27,1.882c0.294,0.705,0.446,1.462,0.446,2.226c-0.003,1.558-0.62,3.052-1.716,4.16
			C35.333,66.953,33.839,67.569,32.281,67.571L32.281,67.571z M32.281,55.925c-1.535-0.008-3.011,0.59-4.108,1.663
			c-1.088,1.092-1.704,2.567-1.715,4.108c0.009,1.557,0.624,3.05,1.715,4.16c1.096,1.074,2.573,1.673,4.108,1.664
			c1.551,0.011,3.044-0.586,4.159-1.664c1.077-1.116,1.675-2.609,1.664-4.16c0.008-1.535-0.59-3.011-1.664-4.108
			C35.325,56.512,33.832,55.914,32.281,55.925z"/>
		<path fill="#BE1A2D" d="M14.344,62.84c2.412,0,4.367-1.956,4.367-4.368c0-2.411-1.955-4.367-4.367-4.367
			c-2.412,0-4.367,1.955-4.367,4.367C9.977,60.885,11.932,62.84,14.344,62.84z"/>
		<path fill="#BE1A2D" d="M8.521,47.243c1.981,0,3.587-1.606,3.587-3.587c0-1.981-1.606-3.587-3.587-3.587
			c-1.981,0-3.587,1.606-3.587,3.587C4.934,45.637,6.54,47.243,8.521,47.243z"/>
		<path fill="#474747" d="M13.986,41.64l-2.939,2.482l-1.073-1.271l2.939-2.482c0.158-0.133,0.363-0.199,0.569-0.181
			c0.206,0.017,0.397,0.116,0.53,0.274l0,0c0.083,0.075,0.149,0.167,0.193,0.27c0.044,0.103,0.066,0.213,0.064,0.325
			c-0.002,0.112-0.029,0.222-0.077,0.322C14.142,41.479,14.073,41.568,13.986,41.64L13.986,41.64z"/>
		<path fill="#474747" d="M10.341,37.156v3.743H8.937v-3.743c0-0.207,0.082-0.405,0.228-0.551c0.146-0.146,0.345-0.229,0.551-0.229
			l0,0c0.179,0.037,0.339,0.135,0.453,0.277C10.284,36.796,10.344,36.974,10.341,37.156L10.341,37.156z"/>
		<path fill="#474747" d="M7.661,37.201l0.817,3.653l-1.37,0.306l-0.817-3.653c-0.022-0.1-0.025-0.204-0.007-0.305
			c0.018-0.101,0.055-0.197,0.11-0.283c0.055-0.086,0.126-0.162,0.21-0.221c0.084-0.059,0.178-0.1,0.278-0.123l0,0
			c0.182-0.003,0.36,0.057,0.503,0.171C7.527,36.861,7.625,37.022,7.661,37.201L7.661,37.201z"/>
		<path fill="#474747" d="M4.785,38.138l1.872,3.242l-1.216,0.702L3.569,38.84c-0.103-0.179-0.131-0.392-0.078-0.592
			c0.054-0.2,0.184-0.37,0.363-0.474l0,0c0.179-0.103,0.392-0.131,0.592-0.078c0.2,0.054,0.37,0.184,0.474,0.363L4.785,38.138z"/>
		<path fill="#B3B3B3" d="M86.766,91.842l3.923-1.669L79.334,63.476l-3.923,1.669L86.766,91.842z"/>
		<path fill="#BE1A2D" d="M75.486,68.143c3.217,0,5.824-2.607,5.824-5.823c0-3.217-2.607-5.823-5.824-5.823
			c-3.215,0-5.823,2.607-5.823,5.823C69.663,65.536,72.271,68.143,75.486,68.143z"/>
		<path fill="#BE1A2D" d="M75.486,68.143c-0.583,0.01-1.162-0.079-1.715-0.261c-0.733-0.211-1.416-0.567-2.006-1.05
			c-0.589-0.483-1.074-1.08-1.426-1.757c-0.362-0.68-0.585-1.426-0.657-2.194c-0.071-0.767,0.011-1.542,0.241-2.278
			c0.211-0.732,0.567-1.414,1.05-2.004c0.482-0.59,1.08-1.075,1.756-1.426c0.682-0.363,1.427-0.585,2.195-0.657
			c0.767-0.071,1.542,0.01,2.278,0.24c0.735,0.219,1.419,0.586,2.009,1.078c0.59,0.491,1.073,1.098,1.422,1.782
			c0.36,0.672,0.583,1.408,0.654,2.167c0.071,0.759-0.01,1.525-0.238,2.252c-0.219,0.736-0.586,1.419-1.078,2.009
			c-0.491,0.59-1.098,1.074-1.782,1.423C77.362,67.921,76.431,68.153,75.486,68.143L75.486,68.143z M75.486,56.497
			c-0.941,0.015-1.866,0.246-2.704,0.676c-0.679,0.356-1.281,0.841-1.771,1.43c-0.491,0.589-0.86,1.269-1.087,2.001
			c-0.232,0.727-0.315,1.493-0.244,2.253c0.071,0.759,0.296,1.496,0.659,2.166c0.349,0.685,0.833,1.291,1.423,1.783
			c0.59,0.491,1.273,0.858,2.009,1.077c0.727,0.23,1.493,0.31,2.252,0.239c0.759-0.071,1.495-0.294,2.167-0.654
			c0.684-0.349,1.291-0.833,1.782-1.423c0.491-0.59,0.859-1.273,1.078-2.009l0,0c0.228-0.727,0.309-1.493,0.238-2.252
			c-0.071-0.759-0.294-1.495-0.654-2.167c-0.356-0.679-0.842-1.281-1.431-1.772c-0.589-0.49-1.268-0.86-2-1.087
			C76.645,56.595,76.067,56.507,75.486,56.497L75.486,56.497z"/>
		<path fill="#BE1A2D" d="M83.077,82.909c2.412,0,4.368-1.956,4.368-4.368c0-2.411-1.956-4.367-4.368-4.367
			s-4.367,1.956-4.367,4.367C78.71,80.954,80.664,82.909,83.077,82.909z"/>
		<path fill="#474747" d="M89.681,95.752c1.981,0,3.587-1.607,3.587-3.588c0-1.982-1.606-3.588-3.587-3.588
			c-1.982,0-3.588,1.606-3.588,3.588C86.093,94.145,87.699,95.752,89.681,95.752z"/>
		<path fill="#474747" d="M85.004,95.765l2.002-3.286l1.422,0.866l-2.002,3.286c-0.054,0.087-0.124,0.164-0.207,0.224
			c-0.082,0.061-0.176,0.104-0.276,0.128c-0.099,0.024-0.202,0.029-0.303,0.013c-0.102-0.017-0.199-0.052-0.287-0.105l0,0
			c-0.102-0.045-0.193-0.112-0.268-0.195c-0.075-0.083-0.131-0.182-0.163-0.289c-0.033-0.106-0.043-0.219-0.029-0.33
			C84.908,95.967,84.946,95.86,85.004,95.765L85.004,95.765z"/>
		<path fill="#474747" d="M89.804,98.952l-1.185-3.551l1.331-0.445l1.186,3.551c0.065,0.196,0.05,0.41-0.043,0.596
			c-0.092,0.186-0.255,0.326-0.451,0.391l0,0c-0.181,0.021-0.364-0.02-0.517-0.119C89.973,99.276,89.858,99.125,89.804,98.952z"/>
		<path fill="#474747" d="M92.418,98.119l-1.932-3.207l1.201-0.724l1.932,3.207c0.107,0.177,0.139,0.389,0.089,0.59
			c-0.05,0.201-0.177,0.374-0.354,0.481l0,0c-0.177,0.106-0.389,0.138-0.59,0.088c-0.201-0.05-0.374-0.177-0.481-0.354
			L92.418,98.119z"/>
		<path fill="#474747" d="M95.02,96.562l-2.801-2.483l0.93-1.05l2.803,2.483c0.155,0.137,0.249,0.33,0.261,0.536
			c0.013,0.206-0.057,0.409-0.194,0.564l0,0c-0.138,0.155-0.331,0.249-0.538,0.262c-0.206,0.012-0.409-0.058-0.564-0.195
			L95.02,96.562z"/>
		<path fill="#CDCDCD" d="M30.565,55.665c0,0,0.416,40.918,23.396,41.594c22.981,0.676,23.917-41.594,23.917-41.594
			s-2.756-6.083-23.657-5.875C33.321,49.998,30.565,55.665,30.565,55.665z"/>
		<path fill="#474747" d="M43.512,48.438h19.394c1.263,0,2.286-1.024,2.286-2.288v-0.364c0-1.263-1.023-2.288-2.286-2.288H43.512
			c-1.263,0-2.287,1.024-2.287,2.288v0.364C41.224,47.414,42.248,48.438,43.512,48.438z"/>
		<path fill="#192F35" d="M52.351,12.044h1.663V3.569h-1.663V12.044z"/>
		<path fill="#BE1A2D" d="M77.67,37.416c2.729,0,4.94-2.211,4.94-4.939c0-2.728-2.211-4.939-4.94-4.939
			c-2.728,0-4.939,2.211-4.939,4.939C72.731,35.205,74.943,37.416,77.67,37.416z"/>
		<path fill="#BE1A2D" d="M27.966,37.104c2.728,0,4.939-2.211,4.939-4.939c0-2.728-2.211-4.939-4.939-4.939
			c-2.728,0-4.939,2.211-4.939,4.939C23.027,34.893,25.238,37.104,27.966,37.104z"/>
		<path fill="#CDCDCD" d="M52.195,10.224c0,0-20.017,0-23.189,17.105s13.778,17.677,18.613,17.989c2.236,0,6.967,0,11.127,0
			c9.202,0,15.597-1.976,17.936-10.398c0.278-1.002,0.453-2.03,0.521-3.067C77.775,22.442,71.692,9.756,52.195,10.224z"/>
		<path fill="#168240" d="M66.492,36.636l-29.063,0.468c-0.728,0.014-1.452-0.117-2.129-0.384c-0.677-0.268-1.295-0.667-1.817-1.174
			c-0.522-0.508-0.938-1.114-1.225-1.783c-0.286-0.669-0.438-1.389-0.444-2.117l0,0c-0.007-0.724,0.129-1.442,0.4-2.113
			c0.271-0.671,0.671-1.283,1.178-1.799c0.507-0.516,1.11-0.928,1.776-1.211c0.666-0.283,1.381-0.433,2.105-0.439l29.064-0.468
			c1.423-0.016,2.799,0.514,3.843,1.481c1.044,0.967,1.678,2.298,1.771,3.719l0,0c0.043,0.745-0.067,1.491-0.322,2.193
			c-0.255,0.702-0.648,1.344-1.159,1.889c-0.51,0.544-1.126,0.98-1.81,1.279C67.975,36.473,67.238,36.63,66.492,36.636
			L66.492,36.636z"/>
		<path fill="#FFFFFF" d="M43.667,31.073c-0.1,0.456-0.372,0.856-0.759,1.118c-0.387,0.261-0.86,0.364-1.321,0.286
			c-0.229-0.044-0.447-0.132-0.642-0.26c-0.195-0.128-0.363-0.294-0.493-0.487c-0.13-0.193-0.221-0.41-0.267-0.639
			c-0.046-0.229-0.047-0.464-0.002-0.693c0.044-0.229,0.133-0.448,0.261-0.642c0.128-0.195,0.293-0.362,0.487-0.493
			c0.193-0.13,0.411-0.221,0.639-0.268c0.229-0.046,0.464-0.047,0.693-0.001c0.229,0.044,0.448,0.132,0.642,0.26
			c0.195,0.128,0.362,0.294,0.492,0.487c0.13,0.193,0.222,0.411,0.268,0.639C43.712,30.609,43.713,30.844,43.667,31.073
			L43.667,31.073z"/>
		<path fill="#FFFFFF" d="M63.998,30.761c-0.1,0.453-0.374,0.849-0.764,1.102c-0.389,0.253-0.861,0.343-1.317,0.25
			c-0.23-0.03-0.451-0.108-0.65-0.229s-0.369-0.282-0.501-0.473c-0.133-0.191-0.224-0.408-0.268-0.636
			c-0.043-0.228-0.038-0.463,0.014-0.689c0.037-0.232,0.121-0.455,0.247-0.653c0.127-0.199,0.293-0.369,0.488-0.501
			c0.195-0.132,0.415-0.222,0.646-0.265c0.232-0.043,0.47-0.038,0.699,0.015c0.228,0.044,0.447,0.132,0.642,0.26
			c0.194,0.128,0.362,0.294,0.492,0.487c0.13,0.193,0.221,0.411,0.268,0.639C64.042,30.297,64.043,30.532,63.998,30.761
			L63.998,30.761z"/>
		<path fill="#BE1A2D" d="M61.294,71.887c-0.073,1.038-0.35,2.053-0.815,2.985c-0.466,0.931-1.111,1.762-1.899,2.442
			c-0.787,0.682-1.702,1.2-2.691,1.527c-0.99,0.326-2.033,0.454-3.071,0.377c-2.089-0.159-4.028-1.142-5.393-2.731
			c-1.364-1.589-2.043-3.655-1.885-5.744c0.073-1.038,0.35-2.053,0.816-2.985c0.465-0.93,1.111-1.761,1.899-2.442
			c0.787-0.682,1.701-1.2,2.69-1.527c0.989-0.326,2.033-0.454,3.071-0.376c1.036,0.071,2.048,0.349,2.976,0.815
			c0.929,0.466,1.756,1.113,2.433,1.901c0.678,0.789,1.192,1.703,1.512,2.692C61.257,69.809,61.378,70.851,61.294,71.887z"/>
		<path fill="#FFFFFF" d="M58.902,71.731c-0.145,1.504-0.874,2.891-2.032,3.862c-1.156,0.973-2.649,1.452-4.156,1.336
			c-1.504-0.145-2.891-0.874-3.862-2.031c-0.972-1.157-1.452-2.649-1.336-4.156c0.132-1.51,0.858-2.905,2.017-3.879
			c1.161-0.975,2.66-1.449,4.169-1.319c0.751,0.058,1.481,0.265,2.15,0.61c0.67,0.344,1.263,0.817,1.747,1.393
			c0.483,0.576,0.848,1.243,1.072,1.96C58.894,70.226,58.973,70.982,58.902,71.731L58.902,71.731z"/>
		<path fill="#F7735D" d="M56.093,72.771c0,0,0-0.312,0-0.936c0-0.623,0-1.456,0-2.496l-2.963-1.768l-3.016,1.717v3.171l2.911,1.819
			l2.184-1.143l0.884-0.416l-0.78,0.52l-2.183,1.3l-2.964-1.715v-3.432c0,0,0-0.312,0,0l2.964-1.664l2.911,1.768
			c0,1.092,0,1.976,0,2.548C56.079,72.283,56.095,72.527,56.093,72.771z"/>
		<path fill="#BE1A2D" d="M53.182,6.169c1.521,0,2.755-1.234,2.755-2.756c0-1.522-1.234-2.756-2.755-2.756
			c-1.523,0-2.756,1.234-2.756,2.756C50.426,4.935,51.66,6.169,53.182,6.169z"/>
		<path fill="#FFFFFF" d="M48.762,30.241c0.131,0.493,0.288,0.979,0.469,1.456c0.193,0.493,0.516,0.925,0.935,1.248
			c0.463,0.414,1.047,0.669,1.664,0.728c0.619,0.05,1.237-0.096,1.768-0.416c0.439-0.278,0.826-0.629,1.144-1.04
			c0.25-0.438,0.476-0.889,0.676-1.352c0,0,0,0,0,0.468c-0.008,0.418-0.115,0.827-0.312,1.196c-0.281,0.559-0.714,1.028-1.249,1.352
			c-0.65,0.461-1.439,0.682-2.235,0.624c-0.777-0.112-1.501-0.457-2.079-0.988c-0.457-0.448-0.796-1.002-0.987-1.612
			c-0.096-0.41-0.096-0.837,0-1.248C48.606,30.397,48.71,30.241,48.762,30.241z"/>
		<path fill="#192F35" d="M75.383,38.352c0.272-0.498,0.5-1.02,0.676-1.56c0.44-1.295,0.72-2.64,0.833-4.003
			c0.098-1.35,0.098-2.705,0-4.055c0-0.52,0-0.936,0-1.248V27.07v0.416c0,0.312,0,0.728,0,1.248c0.101,1.367,0.101,2.74,0,4.107
			c-0.108,1.369-0.406,2.716-0.885,4.003c-0.13,0.383-0.305,0.749-0.52,1.092C75.486,37.936,75.435,38.352,75.383,38.352z"/>
		<path fill="#192F35" d="M29.058,26.758c-0.011,0.156-0.011,0.312,0,0.468c-0.029,0.172-0.029,0.348,0,0.52v0.676
			c-0.034,0.606-0.034,1.214,0,1.82c-0.052,0.744-0.052,1.491,0,2.236c0,0.78,0,1.56,0.364,2.236
			c0.143,0.587,0.335,1.161,0.572,1.716c0.055,0.236,0.143,0.464,0.26,0.676c-0.037,0.154-0.037,0.314,0,0.468v0.416
			c-0.02-0.12-0.02-0.243,0-0.364v-0.468l-0.312-0.676l-0.572-1.768c-0.159-0.739-0.28-1.485-0.364-2.236
			c-0.052-0.744-0.052-1.491,0-2.236c-0.04-0.606-0.04-1.214,0-1.82v-0.728v-0.52L29.058,26.758z"/>
		<path fill="#192F35" d="M30.461,55.613h0.364l1.352,0.468l0.935,0.364l1.144,0.364c0.832,0,1.767,0.572,2.859,0.779l1.664,0.469
			l1.82,0.364c1.248,0.312,2.6,0.467,4.056,0.728c3.104,0.397,6.228,0.622,9.358,0.676c3.148-0.054,6.289-0.278,9.411-0.676
			c1.404,0,2.756-0.416,4.004-0.728l1.871-0.364l1.664-0.469c1.04,0,1.976-0.571,2.807-0.779l1.144-0.364l0.987-0.364l1.3-0.468
			h0.364h-0.313l-1.351,0.468l-0.936,0.364l-1.143,0.364c-0.831,0.259-1.768,0.623-2.86,0.884l-1.664,0.415l-1.82,0.416
			l-4.055,0.728c-3.119,0.425-6.262,0.651-9.411,0.676c-3.148-0.029-6.29-0.255-9.41-0.676l-4.056-0.728l-1.82-0.416l-1.664-0.467
			c-0.951-0.225-1.888-0.502-2.807-0.831l-1.144-0.364l-0.987-0.364l-1.3-0.468H30.461z"/>
		<g opacity="0.3">
			<path d="M30.565,55.665c0,0,2.704-5.615,23.657-5.875c20.953-0.26,23.657,5.875,23.657,5.875
				C62.719,61.877,45.725,61.877,30.565,55.665L30.565,55.665z"/>
		</g>
		<path fill="#FFFFFF" d="M49.647,11.524h-1.092c-1,0.09-1.993,0.263-2.963,0.52c-1.431,0.327-2.824,0.797-4.16,1.404
			c-1.654,0.78-3.208,1.758-4.627,2.912c-1.377,1.172-2.616,2.497-3.692,3.951c-0.878,1.191-1.611,2.483-2.183,3.847
			c-0.431,0.902-0.78,1.842-1.04,2.808c-0.023,0.259-0.023,0.52,0,0.78l0,0c-0.015-0.26-0.015-0.52,0-0.78
			c0.274-0.978,0.622-1.934,1.04-2.86c0.582-1.376,1.314-2.684,2.183-3.899c1.074-1.471,2.313-2.814,3.692-4.003
			c1.42-1.138,2.974-2.098,4.627-2.86c1.37-0.623,2.798-1.111,4.263-1.456c0.978-0.206,1.968-0.345,2.963-0.416h1.092L49.647,11.524
			z"/>
		<path fill="#FFFFFF" d="M30.097,35.544v-0.624c-0.201-0.519-0.341-1.06-0.416-1.612c-0.045-0.536-0.045-1.075,0-1.612
			c0-0.416,0-0.676,0-0.676c-0.042,0.762-0.042,1.526,0,2.288C29.734,34.557,30.097,35.544,30.097,35.544z"/>
		<path fill="#FFFFFF" d="M24.898,33.933c-0.138-0.179-0.26-0.371-0.364-0.572c-0.303-0.649-0.429-1.366-0.364-2.08
			c0.139-0.712,0.462-1.375,0.936-1.924c0.126-0.169,0.285-0.31,0.468-0.416l0,0c0,0,0,0-0.624,0.624
			c-0.42,0.564-0.689,1.226-0.78,1.924c-0.091,0.67-0.001,1.352,0.26,1.976C24.576,33.632,24.732,33.788,24.898,33.933
			L24.898,33.933z"/>
		<path fill="#FFFFFF" d="M53.338,1.49c0,0,0,0-0.728,0c-0.583,0.091-1.106,0.409-1.456,0.884c-0.124,0.26-0.189,0.544-0.189,0.832
			s0.065,0.572,0.189,0.832c0.074,0.238,0.178,0.466,0.312,0.676l0,0c-0.037-0.154-0.037-0.314,0-0.468
			c-0.15-0.28-0.228-0.592-0.228-0.91s0.079-0.63,0.228-0.91c0.172-0.26,0.403-0.475,0.674-0.629
			c0.271-0.154,0.575-0.241,0.886-0.255h0.728L53.338,1.49z"/>
		<path fill="#FFFFFF" d="M80.53,30.137c0,0-0.52-0.416-1.248-0.78c-0.728-0.364-1.405-0.416-1.405-0.468
			c0.513-0.042,1.024,0.086,1.456,0.364C79.801,29.442,80.212,29.746,80.53,30.137L80.53,30.137z"/>
		<path fill="#FFFFFF" d="M37.74,84.781l-0.416-0.728v-0.52v-0.623c-0.282-0.501-0.526-1.022-0.728-1.559l-0.364-0.884l-0.364-1.041
			c0-0.676-0.468-1.404-0.78-2.183c-0.468-1.612-0.936-3.38-1.352-5.2s-0.728-3.691-0.988-5.2c-0.26-1.507-0.416-3.171-0.52-4.419
			c-0.104-1.248,0-1.196,0-1.663c0-0.469,0-0.936,0-1.3c0,0.364,0,0.779,0,1.3c0,0.52,0,1.04,0,1.663
			c0,0.625,0.312,2.756,0.572,4.368c0.26,1.612,0.572,3.431,0.987,5.198c0.416,1.768,0.884,3.64,1.352,5.2
			c0.26,0.78,0.468,1.508,0.728,2.235l0.364,0.989l0.364,0.936l0.676,1.507l0.312,0.676v0.52l0.364,0.728H37.74z"/>
		<path fill="#FFFFFF" d="M25.522,59.357c-0.761,0.058-1.526,0.058-2.287,0c-0.751-0.032-1.498-0.119-2.236-0.261h2.287
			L25.522,59.357z"/>
		<path fill="#FFFFFF" d="M13.824,52.702c-0.444-0.648-0.843-1.326-1.196-2.028c-0.415-0.675-0.764-1.389-1.04-2.132
			c0,0,0.572,0.884,1.196,2.028C13.409,51.714,13.824,52.65,13.824,52.702z"/>
		<path fill="#FFFFFF" d="M48.815,94.607h-0.364h-0.989c-0.465-0.156-0.916-0.347-1.351-0.572c-0.569-0.233-1.109-0.531-1.612-0.884
			c-0.489-0.372-0.958-0.772-1.404-1.196c-0.345-0.352-0.659-0.735-0.936-1.144c-0.219-0.256-0.411-0.535-0.572-0.831v-0.312
			c0,0,0,0.415,0.78,1.092l0.988,1.091c0.447,0.407,0.915,0.789,1.403,1.144l1.56,0.936c0.435,0.209,0.887,0.383,1.351,0.52
			C48.296,94.504,48.815,94.555,48.815,94.607z"/>
		<path fill="#FFFFFF" d="M53.597,80.153h-0.623c-0.776-0.02-1.545-0.143-2.289-0.364l-1.507-0.571
			c-0.544-0.31-1.065-0.658-1.559-1.041c-1.091-0.88-1.963-2.001-2.548-3.275c-0.568-1.309-0.8-2.738-0.676-4.16
			c0.07-0.611,0.174-1.219,0.312-1.819c0.168-0.519,0.377-1.023,0.624-1.508c0.324-0.696,0.744-1.344,1.248-1.924l0.467-0.416
			L46.474,65.7c-0.484,0.583-0.886,1.231-1.195,1.924c-0.253,0.477-0.445,0.984-0.572,1.507c-0.163,0.578-0.268,1.171-0.312,1.769
			c-0.129,1.387,0.104,2.785,0.676,4.055c0.549,1.28,1.407,2.405,2.496,3.275c0.473,0.372,0.978,0.703,1.508,0.989l1.456,0.623
			c0.735,0.259,1.507,0.4,2.286,0.416L53.597,80.153z"/>
		<path fill="#FFFFFF" d="M15.852,55.613h-0.624c-0.515-0.102-1.045-0.102-1.56,0c-0.512,0.118-0.992,0.349-1.404,0.676l-0.52,0.468
			c0.102-0.215,0.243-0.409,0.416-0.572c0.427-0.345,0.923-0.593,1.455-0.728c0.529-0.132,1.083-0.132,1.612,0
			C15.442,55.484,15.651,55.537,15.852,55.613L15.852,55.613z"/>
		<path fill="#FFFFFF" d="M47.307,44.331h-2.079H42.94l-2.756-0.468c-0.915-0.231-1.817-0.509-2.703-0.832
			c-0.713-0.247-1.407-0.542-2.08-0.884l-0.832-0.416l-0.572-0.312h-0.312h0.364l0.572,0.312l0.78,0.364l2.132,0.884l2.651,0.78
			l2.756,0.468h2.288h1.924L47.307,44.331z"/>
		<path fill="#FFFFFF" d="M72.211,58.161h-0.52l-0.885,0.312l-1.351,0.469l-1.871,0.52l-1.092,0.312h-1.195
			c-0.78,0-1.664,0.364-2.6,0.52c-1.871,0.312-3.952,0.572-6.135,0.728c-2.044,0.103-4.091,0.103-6.135,0h-2.704h-1.195h-1.093
			l-1.923-0.259l-1.455-0.313h-0.884h0.936l1.403,0.261h1.923h1.093h1.247h2.653c1.871,0,3.95,0,6.135,0
			c2.183,0,4.211-0.416,6.083-0.728l2.652-0.467l1.195-0.313l1.092-0.259l1.82-0.52l1.402-0.416h0.885L72.211,58.161z"/>
	</g>
</g>
</svg>
