<?xml version="1.0" encoding="utf-8"?>
<!-- Generator: Adobe Illustrator 17.0.0, SVG Export Plug-In . SVG Version: 6.00 Build 0)  -->
<!DOCTYPE svg PUBLIC "-//W3C//DTD SVG 1.1//EN" "http://www.w3.org/Graphics/SVG/1.1/DTD/svg11.dtd">
<svg version="1.1" id="Layer_1" xmlns="http://www.w3.org/2000/svg" xmlns:xlink="http://www.w3.org/1999/xlink" x="0px" y="0px"
	 width="100px" height="100px" viewBox="0 0 100 100" enable-background="new 0 0 100 100" xml:space="preserve">
<g>
	<g>
		<path fill="#F3F3F3" d="M84.012,98.815H16.263c-0.502,0-0.998-0.1-1.461-0.297c-0.463-0.196-0.882-0.483-1.234-0.845
			c-0.352-0.361-0.629-0.79-0.815-1.261c-0.186-0.471-0.278-0.974-0.269-1.482V4.885c-0.008-0.507,0.083-1.011,0.269-1.482
			c0.186-0.471,0.463-0.9,0.815-1.261c0.352-0.362,0.771-0.649,1.234-0.845C15.265,1.101,15.761,1,16.263,1h58.539l13.053,13.755
			V94.93c0.009,0.512-0.084,1.021-0.275,1.497c-0.19,0.476-0.472,0.907-0.831,1.269c-0.358,0.363-0.785,0.648-1.256,0.84
			C85.023,98.729,84.52,98.823,84.012,98.815L84.012,98.815z"/>
		<path fill="#938F8F" d="M52.022,13.138H21.493v21.333h30.529V13.138z"/>
		<path fill="#BE1A2D" d="M44.071,57.448h-5.557c-0.926,0-1.676,0.758-1.676,1.693V86.32c0,0.935,0.75,1.695,1.676,1.695h5.557
			c0.926,0,1.675-0.759,1.675-1.695V59.141C45.746,58.206,44.996,57.448,44.071,57.448z"/>
		<path fill="#168240" d="M35.163,68.133h-5.557c-0.925,0-1.676,0.759-1.676,1.695v16.481c0,0.935,0.75,1.693,1.676,1.693h5.557
			c0.925,0,1.676-0.758,1.676-1.693V69.827C36.839,68.892,36.089,68.133,35.163,68.133z"/>
		<path fill="#F79A10" d="M26.254,65.203h-5.556c-0.926,0-1.676,0.759-1.676,1.695v19.41c0,0.935,0.75,1.693,1.676,1.693h5.556
			c0.926,0,1.676-0.758,1.676-1.693v-19.41C27.93,65.962,27.18,65.203,26.254,65.203z"/>
		<path fill="#F8B74F" d="M17.347,71.648H11.79c-0.925,0-1.676,0.759-1.676,1.695V86.32c0,0.935,0.75,1.695,1.676,1.695h5.557
			c0.925,0,1.676-0.759,1.676-1.695V73.343C19.023,72.407,18.272,71.648,17.347,71.648z"/>
		<path fill="#BCBCBC" d="M51.757,86.371H3.562C2.699,86.371,2,87.076,2,87.944c0,0.869,0.699,1.574,1.562,1.574h48.194
			c0.863,0,1.563-0.704,1.563-1.574C53.319,87.076,52.62,86.371,51.757,86.371z"/>
		<path fill="#BE1A2D" d="M92.493,54.11c1.759-1.762,3.156-3.858,4.107-6.169c0.951-2.311,1.44-4.79,1.437-7.293
			c0.001-2.495-0.483-4.966-1.426-7.271c-0.944-2.305-2.328-4.4-4.073-6.165c-1.744-1.765-3.816-3.165-6.096-4.12
			c-2.279-0.955-4.723-1.447-7.192-1.447v18.99L92.493,54.11z"/>
		<path fill="#168240" d="M79.25,40.635L65.869,53.957c1.745,1.798,3.827,3.225,6.124,4.198c2.299,0.973,4.765,1.473,7.257,1.47
			c2.458,0.002,4.893-0.483,7.165-1.432c2.273-0.949,4.338-2.34,6.078-4.096L79.25,40.635z"/>
		<path fill="#F8B74F" d="M79.25,21.646c-4.984,0-9.763,2-13.288,5.561c-3.525,3.561-5.507,8.391-5.511,13.428H79.25V21.646z"/>
		<path fill="#F79A10" d="M79.25,40.635H60.451c-0.001,4.989,1.945,9.777,5.418,13.322L79.25,40.635z"/>
		<path fill="#D0D2D3" d="M50.523,40.635H29.267c-0.828,0-1.499,0.679-1.499,1.516c0,0.837,0.671,1.516,1.499,1.516h21.256
			c0.828,0,1.499-0.679,1.499-1.516C52.022,41.314,51.351,40.635,50.523,40.635z"/>
		<path fill="#D0D2D3" d="M75.873,66.618H63.815c-0.828,0-1.499,0.679-1.499,1.515c0,0.838,0.671,1.516,1.499,1.516h12.058
			c0.828,0,1.499-0.679,1.499-1.516C77.372,67.296,76.7,66.618,75.873,66.618z"/>
		<path fill="#D0D2D3" d="M75.886,72.731H60.968c-0.828,0-1.5,0.679-1.5,1.515c0,0.838,0.672,1.516,1.5,1.516h14.918
			c0.828,0,1.499-0.679,1.499-1.516C77.385,73.41,76.714,72.731,75.886,72.731z"/>
		<path fill="#D0D2D3" d="M75.886,78.831H60.968c-0.828,0-1.5,0.679-1.5,1.516c0,0.836,0.672,1.515,1.5,1.515h14.918
			c0.828,0,1.499-0.679,1.499-1.515C77.385,79.51,76.714,78.831,75.886,78.831z"/>
		<path fill="#D0D2D3" d="M66.928,84.945h-5.959c-0.828,0-1.5,0.679-1.5,1.516c0,0.836,0.672,1.515,1.5,1.515h5.959
			c0.828,0,1.499-0.679,1.499-1.515C68.427,85.623,67.755,84.945,66.928,84.945z"/>
		<path fill="#D0D2D3" d="M35.05,46.876H22.992c-0.828,0-1.499,0.679-1.499,1.516s0.671,1.516,1.499,1.516H35.05
			c0.828,0,1.499-0.678,1.499-1.516S35.878,46.876,35.05,46.876z"/>
		<path fill="#D0D2D3" d="M41.387,49.907c0.828,0,1.499-0.678,1.499-1.516s-0.671-1.516-1.499-1.516c-0.828,0-1.5,0.679-1.5,1.516
			S40.559,49.907,41.387,49.907z"/>
		<path fill="#D0D2D3" d="M73.215,88.027c0.841,0,1.523-0.69,1.523-1.541c0-0.851-0.682-1.542-1.523-1.542
			c-0.842,0-1.525,0.691-1.525,1.542C71.69,87.337,72.372,88.027,73.215,88.027z"/>
		<path fill="#E6E6E6" d="M74.789,1v11.615c-0.001,0.287,0.053,0.572,0.16,0.837c0.108,0.266,0.267,0.507,0.466,0.711
			c0.201,0.204,0.439,0.365,0.701,0.475c0.263,0.11,0.544,0.167,0.828,0.167h10.849L74.739,1.051L74.789,1z"/>
	</g>
</g>
</svg>
